/* XPM */
static char *image[] = {
"64 64 3 1",
"  c None",
"0 c #ffffff",
"1 c #000000",
"                           1111111111                           ",
"                       101010101010101010                       ",
"                    101011010100101010111101                    ",
"                  0101101000100100000100011010                  ",
"                01110010010100100101000100011101                ",
"              111010100100000000000010100100011010              ",
"             01010000100001001001000000010100001111             ",
"            1101001000001000000000101001000101000101            ",
"          10101001001000000010010000000000001001001111          ",
"         0110001000000010000000001001010010001001000101         ",
"        110101000010000000100100000000001001000100101101        ",
"        010010010000010000000001001001000000010001000110        ",
"       11010010000000000100100000000000101010001001000111       ",
"      0101001000010010000000010010101000000001100001010011      ",
"     110100100000000000100100000000000101001111010100001011     ",
"     010010000010001000000000101001000000011011100010100101     ",
"    11010010000000000010010000000000101010111011100000100111    ",
"    11001000010001001000000100100100000011101101101010010010    ",
"   1010001000000000000010000000000010101101101101001001001011   ",
"   1100100001001001000000100101010000111110110110100100100101   ",
"  010010010000000000100100000000001011010110111101010000100111  ",
"  110100100001001000000000101001001111111011010100100100010010  ",
"  010001000100000010010010000000011010101101111001000010100011  ",
" 11010100000000100000000000101011101111101101010100101000010101 ",
" 01000000100010000100101011110110111010110111100010000010000011 ",
" 11010100001000010000000110101101111111011101010100101001010101 ",
" 01001001000001000010011011111111010101110111001000000000000011 ",
"1101001000010000010001011101000111111101011010100101010101010101",
"1010000010000010000011110100000101010111101110010111100000000111",
"1100101000100000100110101100001111111010111111111101001010100010",
"1010010000001010001111111000010101010111010101101011100000001011",
"1101001010100001111010101000111111111101111111011110010100100011",
"1010010000000111011111110001101010101011010101110101001000001011",
"1100100100101101110101100011111111111110111111010000100010000010",
"1010001000011010111111010111010101010111101011001010010000101011",
"1101010010110111101101111101111111111010111100100100000010000110",
"1010001011101110111111011111010101010111010101001000100000000011",
" 10101110111111110101111010111111111110111100001000000010010011 ",
" 01011011101010111111011111101101010111101001000000000000000011 ",
" 11011101111111010111110101111011111010110100100000100100001010 ",
" 10101110101011111010111111011110101111110010000010000000100011 ",
"  100011111110101111110101110101111101010100000000000000000011  ",
"  111001010111111010111110111111010111110010000100000010000101  ",
"  101001111101011111101011010101111101110100000000000000000111  ",
"   1100001011111010111111111111010101101000001000000100001001   ",
"   0110101110110111010101010101111111011010000000000000000111   ",
"    01000011111110111111111111010101111000010000000000000010    ",
"    11101010101011101010101010111110101101000000000000001011    ",
"     101011111111011110111011101010111010000000000000000011     ",
"     111110110101110101101101011101101101000000000000100110     ",
"      0101110111101101101011110101101010010000000001000101      ",
"       11011110111011101110101011011011010000100010000011       ",
"        111011101011011010101010110110100000000000000011        ",
"        101101111101101010110111010101101001000000000111        ",
"         1111010101010110101010010101010010000000001110         ",
"          10111101110101010101010101101000000001001011          ",
"            1010110101010101001010101010100001000111            ",
"             11101011010101010101010101000100001101             ",
"              101110101010000100100101010000011011              ",
"                10101010010100100100101010011011                ",
"                  1101010010000100101010011111                  ",
"                    111010001000101010111101                    ",
"                       111110110110111101                       ",
"                           1101110110                           "};
