/* XPM */
static char *image[] = {
"47 47 852 2",
"   c None",
"00 c #080703",
"10 c #020200",
"20 c #23190f",
"30 c #332515",
"40 c #4d3822",
"50 c #644e32",
"60 c #725a3a",
"70 c #715939",
"80 c #6c5637",
"90 c #5d4a2f",
":0 c #453623",
";0 c #352b1d",
"A0 c #060603",
"B0 c #261a0f",
"C0 c #4a341e",
"D0 c #5d4226",
"E0 c #705030",
"F0 c #835f3a",
"G0 c #ebe2d6",
"H0 c #b7905c",
"I0 c #b28d5b",
"J0 c #aa8759",
"K0 c #95774f",
"L0 c #7e6543",
"M0 c #735d3f",
"N0 c #5a4931",
"O0 c #372d1f",
"P0 c #14100a",
"Q0 c #0a0805",
"R0 c #291c0f",
"S0 c #4f371f",
"T0 c #6b4b2a",
"U0 c #845c35",
"V0 c #8d643c",
"W0 c #906840",
"X0 c #946b43",
"Y0 c #ede3d8",
"Z0 c #c29c68",
"a0 c #c09862",
"b0 c #c29a65",
"c0 c #bb9867",
"d0 c #a6865c",
"e0 c #907551",
"f0 c #7a6345",
"g0 c #625037",
"h0 c #382f21",
"i0 c #0a0806",
"j0 c #050503",
"k0 c #2e1e0f",
"l0 c #5a3d20",
"m0 c #724e2a",
"n0 c #855d34",
"o0 c #896037",
"p0 c #8c643b",
"q0 c #90673f",
"r0 c #936b42",
"s0 c #966e46",
"t0 c #ede3d7",
"u0 c #c39e6a",
"v0 c #c19a64",
"w0 c #c8a474",
"x0 c #ad8e64",
"y0 c #907755",
"z0 c #7a6548",
"01 c #5e4e38",
"11 c #2f271c",
"21 c #060402",
"31 c #21150b",
"41 c #583b1e",
"51 c #78512a",
"61 c #825930",
"71 c #855c33",
"81 c #885f37",
"91 c #8b633a",
":1 c #8f663e",
";1 c #926a41",
"A1 c #956d45",
"B1 c #997149",
"C1 c #c59f6d",
"D1 c #c39c66",
"E1 c #c59e69",
"F1 c #c6a06c",
"G1 c #c8a678",
"H1 c #aa8d67",
"I1 c #8d7555",
"J1 c #735f46",
"K1 c #4c3f2e",
"L1 c #241d15",
"M1 c #000000",
"N1 c #160f08",
"O1 c #482f17",
"P1 c #744d26",
"Q1 c #7d542b",
"R1 c #81582f",
"S1 c #845b32",
"T1 c #875f36",
"U1 c #8b6239",
"V1 c #8e653d",
"W1 c #8a643e",
"X1 c #7a5938",
"Y1 c #987048",
"Z1 c #9b734b",
"a1 c #ede4d8",
"b1 c #c6a26f",
"c1 c #c6a06b",
"d1 c #c1a277",
"e1 c #987f5e",
"f1 c #816b4f",
"g1 c #6a5942",
"h1 c #3f3527",
"i1 c #060403",
"j1 c #33210f",
"k1 c #704921",
"l1 c #795027",
"m1 c #7d532a",
"n1 c #80572e",
"o1 c #875e35",
"p1 c #886038",
"q1 c #795734",
"r1 c #64482c",
"s1 c #594128",
"t1 c #926c46",
"u1 c #9e764e",
"v1 c #eee4d8",
"w1 c #c8a471",
"x1 c #c69f6a",
"y1 c #c8a16d",
"z1 c #d1ac7a",
"02 c #d4af7f",
"12 c #c7a77d",
"22 c #9e8563",
"32 c #856f53",
"42 c #816b50",
"52 c #0e0905",
"62 c #523518",
"72 c #754c22",
"82 c #794f26",
"92 c #7c5329",
":2 c #7f562d",
";2 c #835a31",
"A2 c #7f5831",
"B2 c #6c4c2c",
"C2 c #594025",
"D2 c #5a422a",
"E2 c #7e5e3e",
"F2 c #a07851",
"G2 c #c9a473",
"H2 c #d0ac7a",
"I2 c #846f53",
"J2 c #473929",
"K2 c #100c07",
"L2 c #6b4622",
"M2 c #754b21",
"N2 c #784e25",
"O2 c #7b5229",
"P2 c #7e552c",
"Q2 c #734f2b",
"R2 c #604225",
"S2 c #543b23",
"T2 c #563d25",
"U2 c #584028",
"V2 c #5a4229",
"W2 c #5e462e",
"X2 c #73573a",
"Y2 c #a37b53",
"Z2 c #eee5d9",
"a2 c #caa675",
"b2 c #d2ad7d",
"c2 c #dcb98c",
"d2 c #937c5e",
"e2 c #473c29",
"f2 c #22190d",
"g2 c #744a21",
"h2 c #774e24",
"i2 c #7a5128",
"j2 c #734d27",
"k2 c #5a3d21",
"l2 c #523920",
"m2 c #5e462b",
"n2 c #8c6e49",
"o2 c #c8a87f",
"p2 c #ae9a83",
"q2 c #6b5137",
"r2 c #a57e56",
"s2 c #eee4d9",
"t2 c #cba878",
"u2 c #cda876",
"v2 c #ddba8d",
"w2 c #e1be92",
"x2 c #a08867",
"y2 c #483b29",
"z2 c #251c10",
"03 c #764d23",
"13 c #784f26",
"23 c #5f4020",
"33 c #4d341c",
"43 c #4f371e",
"53 c #513820",
"63 c #533a22",
"73 c #654b2e",
"83 c #98764e",
"93 c #c49f6e",
":3 c #ceaa78",
";3 c #d4b183",
"A3 c #dbcdba",
"B3 c #614931",
"C3 c #644c34",
"D3 c #a77f58",
"E3 c #cca979",
"F3 c #cfa978",
"G3 c #e3c196",
"H3 c #a88e6e",
"I3 c #463c2a",
"J3 c #261b0f",
"K3 c #6e4823",
"L3 c #50361b",
"M3 c #4c341b",
"N3 c #50381f",
"O3 c #6e5232",
"P3 c #a27f53",
"Q3 c #d3af7f",
"R3 c #f1e6d7",
"S3 c #69513b",
"T3 c #644d35",
"U3 c #9f7b56",
"V3 c #efe5d9",
"W3 c #cdaa7a",
"X3 c #cba673",
"Y3 c #cea876",
"Z3 c #ad9473",
"a3 c #493b2c",
"b3 c #251a0f",
"c3 c #4a3119",
"d3 c #4f361d",
"e3 c #775936",
"f3 c #b48f5c",
"g3 c #c9a370",
"h3 c #d4b180",
"i3 c #f2e3d1",
"j3 c #a28d77",
"k3 c #9a7754",
"l3 c #efe6d9",
"m3 c #ceab7d",
"n3 c #cca774",
"o3 c #cfa977",
"p3 c #d7b484",
"q3 c #b29878",
"r3 c #483b2c",
"s3 c #23180e",
"t3 c #4c331a",
"u3 c #664a2b",
"v3 c #a88453",
"w3 c #d5b282",
"x3 c #f0dec7",
"y3 c #d4c4b2",
"z3 c #675038",
"04 c #947352",
"14 c #cfac7e",
"24 c #dbb789",
"34 c #e1bf92",
"44 c #b89e7d",
"54 c #483d2c",
"64 c #281e12",
"74 c #937246",
"84 c #c09863",
"94 c #d6b484",
":4 c #e5c498",
";4 c #efd8ba",
"A4 c #f6ede2",
"B4 c #6d553f",
"C4 c #8d6e4f",
"D4 c #cfad7f",
"E4 c #cea976",
"F4 c #d3ae7d",
"G4 c #eacaa0",
"H4 c #eccca2",
"I4 c #bda281",
"J4 c #493d2e",
"K4 c #312619",
"L4 c #af8b58",
"M4 c #c59f6a",
"N4 c #dbb98b",
"O4 c #eed0aa",
"P4 c #fcf5ec",
"Q4 c #b09b85",
"R4 c #85684a",
"S4 c #f0e6d9",
"T4 c #d0ae80",
"U4 c #c2a786",
"V4 c #493b2e",
"W4 c #33291a",
"X4 c #bd9660",
"Y4 c #c39c67",
"Z4 c #c7a06c",
"a4 c #dcbb8d",
"b4 c #fbeedf",
"c4 c #ebdecd",
"d4 c #7b6044",
"e4 c #f0e6da",
"f4 c #d2af81",
"g4 c #d1ad7c",
"h4 c #d9b586",
"i4 c #e4c398",
"j4 c #edcca4",
"k4 c #c6ac8a",
"l4 c #483d2d",
"m4 c #56442c",
"n4 c #d3ae7e",
"o4 c #fce8cf",
"p4 c #fef7ee",
"q4 c #8f775e",
"r4 c #efe6da",
"s4 c #d2b081",
"t4 c #d4b080",
"u4 c #e5c499",
"v4 c #e8c79c",
"w4 c #f2d2ab",
"x4 c #cbb18f",
"y4 c #423524",
"z4 c #e9dbc9",
"05 c #eae0d4",
"15 c #d2b083",
"25 c #d0ab79",
"35 c #d5b180",
"45 c #d0b593",
"55 c #483c2e",
"65 c #1a120d",
"75 c #d9b587",
"85 c #dcba8c",
"95 c #e4c298",
":5 c #e7c69c",
";5 c #e3d6c7",
"A5 c #f3eade",
"B5 c #f1e5d6",
"C5 c #efe2d1",
"D5 c #eedfcb",
"E5 c #ebdac2",
"F5 c #e8d2b4",
"G5 c #e5caa8",
"H5 c #e3c49c",
"I5 c #e1c094",
"J5 c #ebcba2",
"K5 c #f3d3ac",
"L5 c #f6d8b2",
"M5 c #d5b997",
"N5 c #463c2f",
"O5 c #c29f74",
"P5 c #d6b383",
"Q5 c #dab788",
"R5 c #debb8e",
"S5 c #e5c399",
"T5 c #f3d4ae",
"U5 c #fbe2c3",
"V5 c #fcecd7",
"W5 c #fcf6ed",
"X5 c #eddfcf",
"Y5 c #9e8a6f",
"Z5 c #9e8b73",
"a5 c #aa9883",
"b5 c #b8a993",
"c5 c #b4a693",
"d5 c #d2c6b6",
"e5 c #e9e1d6",
"f5 c #f8f0e7",
"g5 c #f8f1e8",
"h5 c #f9f1e8",
"i5 c #f6eadb",
"j5 c #f3e3ce",
"k5 c #f0dabe",
"l5 c #eed2af",
"m5 c #f1d1a9",
"n5 c #f8dab5",
"o5 c #ddc19e",
"p5 c #473c2f",
"q5 c #836c51",
"r5 c #e6c59b",
"s5 c #f5d6af",
"t5 c #f9ddbb",
"u5 c #fdf3e6",
"v5 c #eadccb",
"w5 c #dcc6ac",
"x5 c #e8c9a1",
"y5 c #edcda5",
"z5 c #e6c7a0",
"06 c #907d65",
"16 c #8f7c64",
"26 c #523921",
"36 c #523a21",
"46 c #79644d",
"56 c #94816b",
"66 c #af9d8a",
"76 c #cabcab",
"86 c #f3ebe2",
"96 c #fbf4eb",
":6 c #fbf3e8",
";6 c #f8ebd9",
"A6 c #f7e4cb",
"B6 c #f7ddbe",
"C6 c #f7dab4",
"D6 c #f8d9b4",
"E6 c #e9cba6",
"F6 c #453a2d",
"G6 c #46392b",
"H6 c #e0be91",
"I6 c #e7c69d",
"J6 c #ebcba1",
"K6 c #f3d6b2",
"L6 c #fdf1e2",
"M6 c #e8dac8",
"N6 c #dac4a7",
"O6 c #e5c59b",
"P6 c #e8c89d",
"Q6 c #efd0a8",
"R6 c #efd0a9",
"S6 c #937f68",
"T6 c #927f68",
"U6 c #917e67",
"V6 c #533b22",
"W6 c #533b23",
"X6 c #5c452d",
"Y6 c #735c44",
"Z6 c #9a8570",
"a6 c #c2b29f",
"b6 c #f1e5d7",
"c6 c #fcf5ed",
"d6 c #fcf4e9",
"e6 c #f9e9d4",
"f6 c #f6dbba",
"g6 c #453b2c",
"h6 c #caac86",
"i6 c #edd0aa",
"j6 c #f5dfc4",
"k6 c #f5e8d8",
"l6 c #ebdecf",
"m6 c #dac8b0",
"n6 c #d7bb98",
"o6 c #e4c297",
"p6 c #e7c59b",
"q6 c #e9c89f",
"r6 c #eecea6",
"s6 c #a49076",
"t6 c #94816a",
"u6 c #887762",
"v6 c #867660",
"w6 c #553d25",
"x6 c #6a533b",
"y6 c #7f674c",
"z6 c #b29e88",
"07 c #e5d8c8",
"17 c #fbf4ec",
"27 c #faefe0",
"37 c #564b3e",
"47 c #645645",
"57 c #e1d0ba",
"67 c #d7c5b0",
"77 c #cbb090",
"87 c #d3b081",
"97 c #ab8c67",
":7 c #7d694f",
";7 c #a18868",
"A7 c #c5a781",
"B7 c #eac99f",
"C7 c #baa386",
"D7 c #93816c",
"E7 c #1a2b11",
"F7 c #2b3a1f",
"G7 c #563e26",
"H7 c #573f27",
"I7 c #664e37",
"J7 c #685038",
"K7 c #6a523a",
"L7 c #6a523b",
"M7 c #6c543c",
"N7 c #82694f",
"O7 c #b59d84",
"P7 c #efe7dd",
"Q7 c #51483d",
"R7 c #1b160f",
"S7 c #433727",
"T7 c #594a35",
"U7 c #7f6a4e",
"V7 c #af916b",
"W7 c #382414",
"X7 c #612601",
"Y7 c #612a06",
"Z7 c #582c0e",
"a7 c #201a15",
"b7 c #91785b",
"c7 c #f1d2aa",
"d7 c #cdb393",
"e7 c #3c422b",
"f7 c #0a5002",
"g7 c #4c8541",
"h7 c #45341f",
"i7 c #594129",
"j7 c #5e472f",
"k7 c #604931",
"l7 c #624a32",
"m7 c #644c35",
"n7 c #654e37",
"o7 c #71573e",
"p7 c #886e55",
"q7 c #a48e75",
"r7 c #c3b19b",
"s7 c #dccbb5",
"t7 c #ebdac5",
"u7 c #e8d6bc",
"v7 c #e9d6bd",
"w7 c #f7efe6",
"x7 c #857a6b",
"y7 c #1a0900",
"z7 c #973a00",
"08 c #e15600",
"18 c #ff6c11",
"28 c #fdc9a9",
"38 c #130c08",
"48 c #d1b38d",
"58 c #e9c9a0",
"68 c #f0d1a9",
"78 c #525839",
"88 c #0c4603",
"98 c #129f00",
":8 c #6ddf5e",
";8 c #263417",
"A8 c #5b432b",
"B8 c #5c442c",
"C8 c #5f472f",
"D8 c #6e543a",
"E8 c #876f54",
"F8 c #a38a6f",
"G8 c #bca385",
"H8 c #d7bd9e",
"I8 c #dec4a5",
"J8 c #d7bc96",
"K8 c #d4b489",
"L8 c #d1ad7e",
"M8 c #d5b181",
"N8 c #dcbb8e",
"O8 c #f7efe4",
"P8 c #c5b8a8",
"Q8 c #371500",
"R8 c #a64000",
"S8 c #fe6200",
"T8 c #ffa065",
"U8 c #ce916c",
"V8 c #150800",
"W8 c #493e31",
"X8 c #192910",
"Y8 c #0a4701",
"Z8 c #0d7500",
"a8 c #18d200",
"b8 c #4adf37",
"c8 c #4a6b40",
"d8 c #897050",
"e8 c #b7986f",
"f8 c #cba97d",
"g8 c #cbab7d",
"h8 c #c39f6a",
"i8 c #c49d68",
"j8 c #c7a16d",
"k8 c #caa471",
"l8 c #cda875",
"m8 c #d0ab7a",
"n8 c #d3af7e",
"o8 c #d6b282",
"p8 c #dfbc8f",
"q8 c #f2e1cc",
"r8 c #f8f0e6",
"s8 c #4a433d",
"t8 c #070200",
"u8 c #5c2300",
"v8 c #d25100",
"w8 c #ff7824",
"x8 c #f4bf9e",
"y8 c #231810",
"z8 c #021a00",
"09 c #0d7700",
"19 c #16c600",
"29 c #26d80f",
"39 c #73b369",
"49 c #876b43",
"59 c #bf9761",
"69 c #c29b65",
"79 c #c59e6a",
"89 c #c8a26e",
"99 c #cba572",
":9 c #cea977",
";9 c #d1ac7b",
"A9 c #d4b07f",
"B9 c #d7b384",
"C9 c #dab688",
"D9 c #e8c89e",
"E9 c #edd1ac",
"F9 c #fbf4ea",
"G9 c #cfc5ba",
"H9 c #110700",
"I9 c #190a00",
"J9 c #8a3500",
"K9 c #f96305",
"L9 c #fbb68b",
"M9 c #473125",
"N9 c #031d00",
"O9 c #0b5c00",
"P9 c #108c00",
"Q9 c #16c900",
"R9 c #85df7a",
"S9 c #454923",
"T9 c #c69f6b",
"U9 c #c9a36f",
"V9 c #cca673",
"W9 c #cfaa78",
"X9 c #d2ad7c",
"Y9 c #d5b080",
"Z9 c #d8b485",
"a9 c #dab789",
"b9 c #ddbb8d",
"c9 c #e0be92",
"d9 c #e3c296",
"e9 c #efcfa7",
"f9 c #f9e7d1",
"g9 c #fdf7ef",
"h9 c #655f59",
"i9 c #3b1600",
"j9 c #622600",
"k9 c #140800",
"l9 c #260f00",
"m9 c #cb4e00",
"n9 c #f8a36e",
"o9 c #5c3f2d",
"p9 c #0b6400",
"q9 c #0e7f00",
"r9 c #13a800",
"s9 c #14b400",
"t9 c #17ce00",
"u9 c #324a20",
"v9 c #cda775",
"w9 c #cfaa79",
"x9 c #d2ae7d",
"y9 c #d5b182",
"z9 c #d8b586",
"0: c #dbb88a",
"1: c #debc8f",
"2: c #e1bf93",
"3: c #e4c397",
"4: c #e7c69b",
"5: c #eac9a0",
"6: c #f0d0a8",
"7: c #f9dbb5",
"8: c #faddba",
"9: c #f5eee5",
":: c #403d39",
";: c #4d1e00",
"A: c #ae4300",
"B: c #401900",
"C: c #1a0b00",
"D: c #853200",
"E: c #f19054",
"F: c #503728",
"G: c #010600",
"H: c #074200",
"I: c #095300",
"J: c #0a5c00",
"K: c #0b6700",
"L: c #0d7000",
"M: c #2cd916",
"N: c #18d600",
"O: c #58e147",
"P: c #4b7541",
"Q: c #c4a375",
"R: c #d6b283",
"S: c #d9b687",
"T: c #dcb98b",
"U: c #dfbd90",
"V: c #e2c094",
"W: c #e5c398",
"X: c #e8c79d",
"Y: c #ebcaa1",
"Z: c #eecea5",
"a: c #f1d1aa",
"b: c #f4d5ae",
"c: c #f7d8b2",
"d: c #e1d8cd",
"e: c #5e2400",
"f: c #e75900",
"g: c #ab4200",
"h: c #220d00",
"i: c #4b1d00",
"j: c #e68446",
"k: c #442d1f",
"l: c #031800",
"m: c #031c00",
"n: c #109000",
"o: c #86e979",
"p: c #8feb83",
"q: c #37db22",
"r: c #6fb266",
"s: c #8d7859",
"t: c #ddba8c",
"u: c #e0bd91",
"v: c #e3c195",
"w: c #e6c499",
"x: c #e9c89e",
"y: c #eccba2",
"z: c #eecfa6",
"0; c #f1d2ab",
"1; c #f4d6af",
"2; c #f7d9b3",
"3; c #b6ada2",
"4; c #160800",
"5; c #6f2b00",
"6; c #f96000",
"7; c #fd6100",
"8; c #c24b00",
"9; c #f18c4d",
":; c #2c1b0f",
";; c #0c0500",
"A; c #150700",
"B; c #084a00",
"C; c #26bb13",
"D; c #394e36",
"E; c #73bc69",
"F; c #adf0a4",
"G; c #99de90",
"H; c #2b341b",
"I; c #dfbf94",
"J; c #e6c59a",
"K; c #e9c99f",
"L; c #eccca3",
"M; c #efd0a7",
"N; c #f2d3ac",
"O; c #f5d6b0",
"P; c #f8dab4",
"Q; c #fadcb7",
"R; c #fadfbd",
"S; c #fbe3c6",
"T; c #fef5eb",
"U; c #fef8f0",
"V; c #fdf7ee",
"W; c #3c3832",
"X; c #180a00",
"Y; c #953900",
"Z; c #ff690c",
"a; c #ffaf7d",
"b; c #f4a26f",
"c; c #e29361",
"d; c #e2af8f",
"e; c #ca9f84",
"f; c #322b27",
"g; c #020100",
"h; c #0b0500",
"i; c #042400",
"j; c #0f8300",
"k; c #5fc752",
"l; c #0c2609",
"m; c #021800",
"n; c #5ea156",
"o; c #b7f2b0",
"p; c #112b0e",
"q; c #a28c6f",
"r; c #edcda4",
"s; c #f0d0a9",
"t; c #f3d4ad",
"u; c #f6d7b1",
"v; c #f9dbb7",
"w; c #fbe0c0",
"x; c #fbe5c9",
"y; c #fce9d1",
"z; c #fcecd9",
"0A c #fdf0e1",
"1A c #fdf4e8",
"2A c #fef7ef",
"3A c #faf1e7",
"4A c #f2e7da",
"5A c #e3d8ca",
"6A c #c3b8ac",
"7A c #8a8277",
"8A c #59524a",
"9A c #1b0b00",
":A c #b74600",
";A c #ff6301",
"AA c #ff893f",
"BA c #e6ac88",
"CA c #8a6f5e",
"DA c #341f14",
"EA c #041f00",
"FA c #0c6900",
"GA c #26c812",
"HA c #7dab77",
"IA c #4a8442",
"JA c #3a5d35",
"KA c #28231c",
"LA c #d3b997",
"MA c #f9e4ca",
"NA c #ede0ce",
"OA c #dcd3c8",
"PA c #d3cdc4",
"QA c #bdb6ad",
"RA c #aca49b",
"SA c #999287",
"TA c #837b72",
"UA c #6c645c",
"VA c #48443f",
"WA c #020202",
"XA c #421900",
"YA c #de5500",
"ZA c #ff6200",
"aA c #fe883d",
"bA c #d29f7d",
"cA c #6a5547",
"dA c #1f0f06",
"eA c #042200",
"fA c #0b6500",
"gA c #12a200",
"hA c #7de86f",
"iA c #4f6b4c",
"jA c #040b03",
"kA c #443e36",
"lA c #1f1f1f",
"mA c #190b00",
"nA c #712b00",
"oA c #fd6201",
"pA c #ef7e38",
"qA c #ad7856",
"rA c #42362d",
"sA c #200b00",
"tA c #021500",
"uA c #073e00",
"vA c #119a00",
"wA c #42dd2e",
"xA c #b4e8ad",
"yA c #162f13",
"zA c #180900",
"0B c #762f03",
"1B c #563e2f",
"2B c #21130a",
"3B c #020d00",
"4B c #0a5a00",
"5B c #0c6b00",
"6B c #119b00",
"7B c #2fda19",
"8B c #aef1a6",
"9B c #6d9369",
":B c #021100",
";B c #108600",
"AB c #21d80a",
"BB c #a0ee96",
"CB c #aee4a7",
"DB c #132b10",
"EB c #5e6e5b",
"FB c #acd2a7",
"GB c #30412e",
"                                                                                              ",
"                                                                                              ",
"                                                                                              ",
"                                                                                              ",
"                                                        GBFBEB                                ",
"                                                      DBCBBBAB;B:B                            ",
"                                                      9B8B7B6B5B4B3B                  2B1B0BzA",
"                                                    yAxAwAvA5BuAtA              sArAqApAoAnAmA",
"                                    lAkA  jA        iAhAgAfAeA              dAcAbAaAZAZAYAXA  ",
"                WAVAUATASARAQAPAOANAMALAKAJAIA      HAGAFAEA            DACABAAA;AZAZAZA:A9A  ",
"    8A7A6A5A4A3A2A1A0Az;y;x;w;v;u;t;s;r;q;p;o;n;m;l;k;j;i;        h;g;f;e;d;c;b;a;Z;ZAZAY;X;  ",
"W;V;U;U;T;z;S;R;Q;Q;Q;Q;Q;P;O;N;M;L;K;J;I;H;G;F;E;D;C;B;                  A;;;:;9;8;7;6;5;4;  ",
"  3;U;0AQ;Q;Q;Q;Q;Q;Q;2;1;0;z:y:x:w:v:u:t:s:r:q:p:o:n:m:l:                  k:j:i:h:g:f:e:    ",
"    d:U;S;Q;Q;Q;Q;c:b:a:Z:Y:X:W:V:U:T:S:R:Q:P:O:N:M:L:K:J:I:B;H:G:        F:E:D:C:  B:A:;:    ",
"    ::9:1A8:7:u;t;6:r;5:4:3:2:1:0:z9y9x9w9v9u9hAN:N:t9s9r9q9p9i;        o9n9m9l9    k9j9i9    ",
"      h9g9f9N;e9L;K;J;d9c9b9a9Z9Y9X9W9V9U9T9S9R9N:N:N:Q9P9O9N9        M9L9K9J9I9      H9zA    ",
"        G9F9E9D9w:v:u:t:C9B9A9;9:99989796959493929N:1909I:z8        y8x8w8v8u8          t8    ",
"        s8r8q8V:p8T:S:o8n8m8l8k8j8i8h8g8f8e8d8c8b8a8Z8Y8X8W8KAWA  V8U8T8S8R8Q8                ",
"          P8O8N8z9M8x9L8K8J8I8H8G8F8E8D8C8B8A8;8:89888780;68Z:584838281808z7y7                ",
"          x7w7v7u7t7s7r7q7p7o7n7m7l7k7j7B8A8i7h7g7f7e7d7b:c7e9L;K;b7a7Z7Y7X7W7V7U7T7S7R7      ",
"          Q7P7O7N7M7L7L7K7J7I7m7l7k7j7B8A8i7H7G7F7E7D7C7b:0;e9L;B74:3:A7;7:797B98777675747    ",
"          37271707z6y6x6J7I7m7l7k7j7B8A8i7H7w6w6v6u6t6s6t;a:r6y:q6p6o62:U:n6m6l6k6j6i6x:h6    ",
"          g60;f6e6d6c6b6a6Z6Y6k7j7X6A8i7H7w6W6V6U6T6T6S6R6Q6r;Y:P6O6N6M6r8L6MAK6e9J6I6o6H6G6  ",
"          F6E6u;D6C6B6A6;6:6968676665646j7W6362616060606z5y5x5w5v596u5y;t5s5c7y5B7r5v:p80:q5  ",
"          p5o5u;n5P;u;t;m5r6l5k5j5i5h5g5f5e5d5c5b5a5Z5Y5w5X5W52AV5U5Q;2;T56:L;x:S52:R5Q5P5O5  ",
"          N5M5O;c:L5s5K568Z:J5x:J;o6I5H5G5F5E5D5C5B5A5;52A2Az;R;Q;Q;u;N;e9J6:595H68575M8X9:965",
"          5545b:s51;t;0;Q6r;Y:X:J;d92:p8T:C9B935x9251505z4U;R;Q;n5s5c7y5B7J;v:U:0:Z9A9m8v9U9y4",
"          55x4w4N;N;0;6:r6L;5:v4u4v:c9R5T:S:B9t4X9w9s4r4q4p4o42;T56:L;x:W:2:1:Q5P5n4W9V989i8m4",
"          l4k46:6868Q6r6j4Y:x:p6i4V:u:b90:h4R:A9g4W9f4e4d4c4b4N;e9J6:5o6H6a475M8X9:9k8Z4Y4X4W4",
"          V4U4Z:r6r6y5L;J6K;:5u4d92:U:t:a9Z9o8n8;9:9T4S4R4Q4P4O4B7J;v:p8N4Z9A9m8v9U9M469L4K4  ",
"          J4I4J5H4y:J5G4q6v4J;3:V:H6R5T:S:B9M8F4m8E4D4e4C4B4A4;4:42:R5Q594n4W9V989i8847464    ",
"          5444K;B7B7q6P6:5J;i4v:34p8t:24z9R:A9X9w9l814e404z3y3x3H68575w3X9:9k8Z4Y4v3u3t3s3    ",
"          r3q3:5:5:54:J;u43:v:2:U:b90:S:p3M8n8;9o3n3m3l3k3n7j3i30:Z9h3m8v9g3M4f3e3d3t3c3b3    ",
"          a3Z3:4u4u4W:3:d9V:34U:R5T:Q5z9R:t4X925Y3X3W3V3U3T3S3R3P5Q3w9V9j8P3O3N3d3M3L3K3J3    ",
"          I3H3v:G3G3v:V:2:c9U:R5T:a9h4B9M8n4;9F3v9k8E3V3D3C3B3A3;3:393837363534333231303z2    ",
"          y2x2w23434w2H6U:1:v2T:a975B9M8Q3X925u2X3g3t2s2r2q2C8p2o2n2m2w6W6l243k2j2i2h2g2f2    ",
"          e2d21:p8p81:R5v2c20:Q5h4B9y9A9b2m8:9n3k889a2Z2Y2X2W2C3V2U2T2S236R2Q2P2O2N2M2L2K2    ",
"          J2I2o28585T:T:0:a9S:z9B9y9A9x9H2F3v999U9Z4G2Z2F2E2B8D2U2G7C2B2A2;2:29282726252      ",
"            42322212Q5C9S:z9p3R:M802x9z1W9l8X3g3y1x1w1v1u1t1A8s1r1q1p1o1;2n1m1l1k1j1i1        ",
"              h1g1f1e1d1B9R:M8t4n8X9m8W9u2V9k889c1i8b1a1Z1Y1X1W1V1U1T1S1R1Q1P1O1N1M1          ",
"                  L1K1J1I1H1G1x9;925o3l8V9k889F1E1D1C1a1B1A1;1:191817161514131WA              ",
"                      211101z0y0x0w0v9X3k889Z4E1Y4v0u0t0s0r0q0p0o0n0m0l0k0j0                  ",
"                            i0h0g0f0e0d0c0Z4E1Y4b0a0Z0Y0X0W0V0U0T0S0R0Q0                      ",
"                                  P0O0N0M0L0K0J0I0H0Z0G0F0E0D0C0B0A0                          ",
"                                          ;0:0908070605040302010                              ",
"                                                    M100                                      ",
"                                                                                              "};
