/* XPM */
static char *image[] = {
"64 64 3 1",
"  c None",
"0 c #000000",
"1 c #ffffff",
"                                                                ",
"                                                                ",
"                             110101                             ",
"                         110101111011111                        ",
"                      1010111101011010101010                    ",
"                  110111110101111111111110110101                ",
"              10101011010111110101010100110111101110            ",
"           101011111101110101111111101110110101101011101        ",
"       101111111010111101111010101011011101110101101010110110   ",
"   10101110101011110101110111110110111010110110101101101010101  ",
"  101111011111101011110111010011011010111101011110110110111010  ",
"  110011101010111110111010111101111111010111101010101011010111  ",
"  101100111111010111011011010111010101111010110110110101010100  ",
"  110111001011111011101111111101111011010101011011011110110101  ",
"  011010110101011100110101010111010110110111010101101010101010  ",
"  101101111010100111011111111010111011011010111110110101010101  ",
"  110110101111011011110101010111101101101101101011010101101010  ",
"  010110110101110101011111111101011011010111011010101010101101  ",
"  011010110110101110101010101011101101111101101101011010101010  ",
"  101010101011111011110111011101011011010110110101101011010101  ",
"  110110101101010110101100110111101111111011010110101010101010  ",
"  011011011101101101111011101101011010101010101010101010101010  ",
"  101101100101011011010111011011111110101101011010101010101010  ",
"  110101011011101110111101110110101011010110101010101010101010  ",
"  010110101101011011010110111011110101101010110101010101010101  ",
"  101011010101010101101011010110101101011011010110101010101010  ",
"  110101101011111010111101101111010110101101010101010101010010  ",
"  010110110101101110100110110101111011010101010101010101010101  ",
"  101010101101111001011010101011001010110101010101010101010100  ",
"  110101010101101011101101111101110101010110101010101010100101  ",
"  010110110111011010110110101011011011011010101101010101010101  ",
"  101011011001101101011011101110101101010101010101010100101001  ",
"  101010101101111011101101011011101010101010101010101010100100  ",
"  110101010101010101010110110110101010101010101010100101010101  ",
"  010101101011111010111011011011011011010101010101010100101010  ",
"  101010101010001011010101101101101010101010101010010101001001  ",
"  101010101010111010101110110110101010101101010101010010100100  ",
"  010101011011001011010101011011101101010101010010101010010101  ",
"  101010101010101010110110101101010101010101010101001001010100  ",
"  101010101010101010101011101011010101010101010100101010101010  ",
"  010101010101010101101100110101101010101010010010100101001001  ",
"  101010101010101010110111011110101010101010101010101010100101  ",
"  101010101011011011010101010011010101010101010101010010010101  ",
"  101010101010100101010101011101101010101001001001001001010101  ",
"  01010101010101101010101101010101010101010101010010101010100   ",
"  100101010101010101011010101011010101010100100101010101010     ",
"   1010010101010101010101101110101010100101010101010101001      ",
"     010101001010101010101010101101010101001010010010101        ",
"       10101010101010110101010101010101001010010101010          ",
"         10101010101010101101101010100101010101001010           ",
"          10100101010101010101011010101010010101010             ",
"            1010101010101010101010010100101001001               ",
"              1001010101010101101010010101010010                ",
"                010101010110101010101010010010                  ",
"                  01010101010101010100101010                    ",
"                    10101010101010101001000                     ",
"                      1010101011010010101                       ",
"                        0101010100101001                        ",
"                          001010101001                          ",
"                            10101001                            ",
"                              01010                             ",
"                                0                               ",
"                                                                ",
"                                                                "};
