/* XPM */
static char *image[] = {
"48 48 125 2",
"   c None",
"00 c #747474",
"10 c #bfbfbf",
"20 c #c2c2c2",
"30 c #1e1e1e",
"40 c #848484",
"50 c #868686",
"60 c #0f0f0f",
"70 c #c4c4c4",
"80 c #7d7d7d",
"90 c #c8c8c8",
":0 c #636363",
";0 c #444444",
"A0 c #757575",
"B0 c #cacaca",
"C0 c #d0d0d0",
"D0 c #959595",
"E0 c #3f3f3f",
"F0 c #070707",
"G0 c #464646",
"H0 c #7f7f7f",
"I0 c #c9c9c9",
"J0 c #1b1b1b",
"K0 c #212121",
"L0 c #969696",
"M0 c #181818",
"N0 c #7e7e7e",
"O0 c #808080",
"P0 c #666666",
"Q0 c #b9b9b9",
"R0 c #a9a9a9",
"S0 c #343434",
"T0 c #303030",
"U0 c #1a1a1a",
"V0 c #404040",
"W0 c #a2a2a2",
"X0 c #272727",
"Y0 c #525252",
"Z0 c #5b5b5b",
"a0 c #878787",
"b0 c #1f1f1f",
"c0 c #2c2c2c",
"d0 c #353535",
"e0 c #5d5d5d",
"f0 c #6d6d6d",
"g0 c #020202",
"h0 c #676767",
"i0 c #7c7c7c",
"j0 c #656565",
"k0 c #585858",
"l0 c #424242",
"m0 c #919191",
"n0 c #3b3b3b",
"o0 c #606060",
"p0 c #111111",
"q0 c #373737",
"r0 c #7b7b7b",
"s0 c #ababab",
"t0 c #3d3d3d",
"u0 c #8c8c8c",
"v0 c #333333",
"w0 c #d8d8d8",
"x0 c #121212",
"y0 c #afafaf",
"z0 c #bcbcbc",
"01 c #040404",
"11 c #5f5f5f",
"21 c #3e3e3e",
"31 c #717171",
"41 c #acacac",
"51 c #626262",
"61 c #393939",
"71 c #9a9a9a",
"81 c #5e5e5e",
"91 c #0e0e0e",
":1 c #141414",
";1 c #a7a7a7",
"A1 c #cdcdcd",
"B1 c #6b6b6b",
"C1 c #515151",
"D1 c #030303",
"E1 c #777777",
"F1 c #6c6c6c",
"G1 c #bebebe",
"H1 c #c6c6c6",
"I1 c #858585",
"J1 c #4d4d4d",
"K1 c #6e6e6e",
"L1 c #949494",
"M1 c #a3a3a3",
"N1 c #c5c5c5",
"O1 c #bbbbbb",
"P1 c #080808",
"Q1 c #2e2e2e",
"R1 c #2d2d2d",
"S1 c #d7d7d7",
"T1 c #494949",
"U1 c #474747",
"V1 c #d3d3d3",
"W1 c #d4d4d4",
"X1 c #484848",
"Y1 c #2a2a2a",
"Z1 c #b8b8b8",
"a1 c #bababa",
"b1 c #2b2b2b",
"c1 c #696969",
"d1 c #cbcbcb",
"e1 c #cccccc",
"f1 c #6a6a6a",
"g1 c #060606",
"h1 c #0b0b0b",
"i1 c #595959",
"j1 c #a5a5a5",
"k1 c #d5d5d5",
"l1 c #d9d9d9",
"m1 c #d6d6d6",
"n1 c #a8a8a8",
"o1 c #5c5c5c",
"p1 c #0d0d0d",
"q1 c #4f4f4f",
"r1 c #5a5a5a",
"s1 c #505050",
"t1 c #313131",
"u1 c #090909",
"v1 c #000000",
"v1v1v1v1v1v1v1v1v1v1v1v1v1v1v1v1v1v1v1v1v1v1v1v1v1v1v1v1v1v1v1v1v1v1v1v1v1v1v1v1v1v1v1v1v1v1v1v1",
"v1v1v1v1v1v1v1v1v1v1v1v1v1v1v1v1v1v1v1v1v1v1v1v1v1v1v1v1v1v1v1v1v1v1v1v1v1v1v1v1v1v1v1v1v1v1v1v1",
"v1v1v1v1v1v1v1v1v1v1v1v1v1v1v1v1v1v1v1v1v1v1v1v1v1v1v1v1v1v1v1v1v1v1v1v1v1v1v1v1v1v1v1v1v1v1v1v1",
"v1v1v1v1v1v1v1v1v1v1v1v1v1v1v1v1v1v1v1v1v1v1v1v1v1v1v1v1v1v1v1v1v1v1v1v1v1v1v1v1v1v1v1v1v1v1v1v1",
"v1v1v1v1v1v1v1v1v1v1v1v1v1v1v1v1v1v1v1v1v1v1v1v1v1v1v1v1v1v1v1v1v1v1v1v1v1v1v1v1v1v1v1v1v1v1v1v1",
"v1v1v1v1v1v1v1v1v1v1v1v1v1v1v1v1v1v1v1v1v1v1v1v1v1v1v1v1v1v1v1v1v1v1v1v1v1v1v1v1v1v1v1v1v1v1v1v1",
"v1v1v1v1v1v1v1v1v1v1v1v1v1v1v1v1v1v1v1v1v1v1v1v1v1v1v1v1v1v1v1v1v1v1v1v1v1v1v1v1v1v1v1v1v1v1v1v1",
"v1v1v1v1v1v1v1v1v1v1v1v1v1v1v1v1v1v1v1v1v1v1v1v1v1v1v1v1v1v1v1v1v1v1v1v1v1v1v1v1v1v1v1v1v1v1v1v1",
"v1v1v1v1v1v1v1v1v1v1v1v1v1v1v1v1v1v1v1v1u1t1s1r1r1q1t1u1v1v1v1v1v1v1v1v1v1v1v1v1v1v1v1v1v1v1v1v1",
"v1v1v1v1v1v1v1v1v1v1v1v1v1v1v1v1v1p1o1n1m1l1l1l1l1l1l1k1j1i1h1v1v1v1v1v1v1v1v1v1v1v1v1v1v1v1v1v1",
"v1v1v1v1v1v1v1v1v1v1v1v1v1v1v1g1f1e1l1l1l1l1l1l1l1l1l1l1l1l1d1c1g1v1v1v1v1v1v1v1v1v1v1v1v1v1v1v1",
"v1v1v1v1v1v1v1v1v1v1v1v1v1v1b1a1l1l1l1l1l1l1l1l1l1l1l1l1l1l1l1l1Z1Y1v1v1v1v1v1v1v1v1v1v1v1v1v1v1",
"v1v1v1v1v1v1v1v1v1v1v1v1v1X1W1l1l1l1l1l1l1l1l1l1l1l1l1l1l1l1l1l1l1V1U1v1v1v1v1v1v1v1v1v1v1v1v1v1",
"v1v1v1v1v1v1v1v1v1v1v1v1T1S1l1l1l1l1l1l1l1l1l1l1l1l1l1l1l1l1l1l1l1l1S1U1v1v1v1v1v1v1v1v1v1v1v1v1",
"v1v1v1v1v1v1v1v1v1v1v1R1W1l1l1l1l1l1l1l1l1l1l1l1l1l1l1l1l1l1l1l1l1l1l1V1Q1v1v1v1v1v1v1v1v1v1v1v1",
"v1v1v1v1v1v1v1v1v1v1P1O1l1l1l1l1l1l1l1N1M1L1K1J1U1r1I1H1l1l1l1l1l1l1l1l1G1P1v1v1v1v1v1v1v1v1v1v1",
"v1v1v1v1v1v1v1v1v1v1F1l1l1l1l1l1l1l1E1D1v1v1v1v1v1v1v1D1C1N1l1l1l1l1l1l1l1B1v1v1v1v1v1v1v1v1v1v1",
"v1v1v1v1v1v1v1v1v1p1A1l1l1l1l1l1l1;1v1v1v1v1v1v1v1v1v1v1v1:1a1l1l1l1l1l1l1A191v1v1v1v1v1v1v1v1v1",
"v1v1v1v1v1v1v1v1v181l1l1l1l1l1l1l171v1v1v1v1v1v1v1v1v1v1v1v161l1l1l1l1l1l1l151v1v1v1v1v1v1v1v1v1",
"v1v1v1v1v1v1v1v1v141l1l1l1l1l1l1l1l13121r11111s101v1v1v1v1v1v1z0l1l1l1l1l1l1y0v1v1v1v1v1v1v1v1v1",
"v1v1v1v1v1v1v1v1x0w0l1l1l1l1l1l1l1l1l1l1l1l1l1w0v0v1v1v1v1v1v1u0l1l1l1l1l1l1w0x0v1v1v1v1v1v1v1v1",
"v1v1v1v1v1v1v1v1t0l1l1l1l1l1l1l1l1l1l1m1s0r0q0p0v1v1v1v1v1v1v1o0l1l1l1l1l1l1l1n0v1v1v1v1v1v1v1v1",
"v1v1v1v1v1v1v1v1r1l1l1l1l1l1l1l1l1l1m0x0v1v1v1v1v1v1v1v1v1v1v1l0l1l1l1l1l1l1l1k0v1v1v1v1v1v1v1v1",
"v1v1v1v1v1v1v1v1j0l1l1l1l1l1l1l1l1i0v1v1v1v1v1v1v1v1v1v1v1v1v1t0l1l1l1l1l1l1l1h0v1v1v1v1v1v1v1v1",
"v1v1v1v1v1v1v1v1h0l1l1l1l1l1l1l1j1g0v1v1v1v1v1v1v1v1v1v1v1v1v1f0l1l1l1l1l1l1l1c1v1v1v1v1v1v1v1v1",
"v1v1v1v1v1v1v1v1e0l1l1l1l1l1l1l1d0v1v1v1v1v1c0a1a1b0v1v1v1v1v1a0l1l1l1l1l1l1l1Z0v1v1v1v1v1v1v1v1",
"v1v1v1v1v1v1v1v1l0l1l1l1l1l1l1l1b1v1v1v1v1v1Y0l1S1X0v1v1v1v1v1W0l1l1l1l1l1l1l1V0v1v1v1v1v1v1v1v1",
"v1v1v1v1v1v1v1v1U0l1l1l1l1l1l1l1T0v1v1v1v1v1D161S0v1v1v1v1v1v1R0l1l1l1l1l1l1l1U0v1v1v1v1v1v1v1v1",
"v1v1v1v1v1v1v1v1v1Q0l1l1l1l1l1l1P0v1v1v1v1v1v1v1v1v1v1v1v1v1v1O0l1l1l1l1l1l1z0v1v1v1v1v1v1v1v1v1",
"v1v1v1v1v1v1v1v1v1f0l1l1l1l1l1l1O1g1v1v1v1v1v1v1v1v1v1v1v1v1v1N0l1l1l1l1l1l131v1v1v1v1v1v1v1v1v1",
"v1v1v1v1v1v1v1v1v1M0W1l1l1l1l1l1l1L0h1v1v1v1v1v1D1K0u1v1v1v1J0I0l1l1l1l1l1W1U0v1v1v1v1v1v1v1v1v1",
"v1v1v1v1v1v1v1v1v1v1H0l1l1l1l1l1l1l1a1G0F0v1E0D0C0l1B0A0;0:090l1l1l1l1l1l180v1v1v1v1v1v1v1v1v1v1",
"v1v1v1v1v1v1v1v1v1v191H1l1l1l1l1l1l1l1l1C070l1l1l1l1l1l1l1l1l1l1l1l1l1l19060v1v1v1v1v1v1v1v1v1v1",
"v1v1v1v1v1v1v1v1v1v1v121w0l1l1l1l1l1l1l1l1l1l1l1l1l1l1l1l1l1l1l1l1l1l1w021v1v1v1v1v1v1v1v1v1v1v1",
"v1v1v1v1v1v1v1v1v1v1v1v1o0l1l1l1l1l1l1l1l1l1l1l1l1l1l1l1l1l1l1l1l1l1l181v1v1v1v1v1v1v1v1v1v1v1v1",
"v1v1v1v1v1v1v1v1v1v1v1v1v151w0l1l1l1l1l1l1l1l1l1l1l1l1l1l1l1l1l1l1w011v1v1v1v1v1v1v1v1v1v1v1v1v1",
"v1v1v1v1v1v1v1v1v1v1v1v1v1v1l0I0l1l1l1l1l1l1l1l1l1l1l1l1l1l1l1l190V0v1v1v1v1v1v1v1v1v1v1v1v1v1v1",
"v1v1v1v1v1v1v1v1v1v1v1v1v1v1v1x050m1l1l1l1l1l1l1l1l1l1l1l1l1m140p0v1v1v1v1v1v1v1v1v1v1v1v1v1v1v1",
"v1v1v1v1v1v1v1v1v1v1v1v1v1v1v1v1v130E120l1l1l1l1l1l1l1l11000J0v1v1v1v1v1v1v1v1v1v1v1v1v1v1v1v1v1",
"v1v1v1v1v1v1v1v1v1v1v1v1v1v1v1v1v1v1v1v1K0T1j00000j0T1b0v1v1v1v1v1v1v1v1v1v1v1v1v1v1v1v1v1v1v1v1",
"v1v1v1v1v1v1v1v1v1v1v1v1v1v1v1v1v1v1v1v1v1v1v1v1v1v1v1v1v1v1v1v1v1v1v1v1v1v1v1v1v1v1v1v1v1v1v1v1",
"v1v1v1v1v1v1v1v1v1v1v1v1v1v1v1v1v1v1v1v1v1v1v1v1v1v1v1v1v1v1v1v1v1v1v1v1v1v1v1v1v1v1v1v1v1v1v1v1",
"v1v1v1v1v1v1v1v1v1v1v1v1v1v1v1v1v1v1v1v1v1v1v1v1v1v1v1v1v1v1v1v1v1v1v1v1v1v1v1v1v1v1v1v1v1v1v1v1",
"v1v1v1v1v1v1v1v1v1v1v1v1v1v1v1v1v1v1v1v1v1v1v1v1v1v1v1v1v1v1v1v1v1v1v1v1v1v1v1v1v1v1v1v1v1v1v1v1",
"v1v1v1v1v1v1v1v1v1v1v1v1v1v1v1v1v1v1v1v1v1v1v1v1v1v1v1v1v1v1v1v1v1v1v1v1v1v1v1v1v1v1v1v1v1v1v1v1",
"v1v1v1v1v1v1v1v1v1v1v1v1v1v1v1v1v1v1v1v1v1v1v1v1v1v1v1v1v1v1v1v1v1v1v1v1v1v1v1v1v1v1v1v1v1v1v1v1",
"v1v1v1v1v1v1v1v1v1v1v1v1v1v1v1v1v1v1v1v1v1v1v1v1v1v1v1v1v1v1v1v1v1v1v1v1v1v1v1v1v1v1v1v1v1v1v1v1",
"v1v1v1v1v1v1v1v1v1v1v1v1v1v1v1v1v1v1v1v1v1v1v1v1v1v1v1v1v1v1v1v1v1v1v1v1v1v1v1v1v1v1v1v1v1v1v1v1"};
