/* XPM */
static char *image[] = {
"50 60 218 2",
"   c None",
"00 c #464646",
"10 c #b1e0b1",
"20 c #7dcb7d",
"30 c #def2de",
"40 c #bae3ba",
"50 c #c9eac9",
"60 c #051305",
"70 c #0e0e0e",
"80 c #1a1a1a",
"90 c #c2e7c2",
":0 c #0da80d",
";0 c #dff2df",
"A0 c #b0e0b0",
"B0 c #e0f3e0",
"C0 c #eaf6ea",
"D0 c #91d391",
"E0 c #88d088",
"F0 c #43c143",
"G0 c #444444",
"H0 c #000200",
"I0 c #111111",
"J0 c #addead",
"K0 c #d6efd6",
"L0 c #2ebb2e",
"M0 c #98d698",
"N0 c #ebf7eb",
"O0 c #393939",
"P0 c #92d392",
"Q0 c #8bd18b",
"R0 c #a2daa2",
"S0 c #f4faf4",
"T0 c #f9fcf9",
"U0 c #eef8ee",
"V0 c #b3e1b3",
"W0 c #b8e3b8",
"X0 c #48c348",
"Y0 c #dbf0db",
"Z0 c #bde5bd",
"a0 c #e1f3e1",
"b0 c #fbfefb",
"c0 c #009200",
"d0 c #313631",
"e0 c #474747",
"f0 c #43c243",
"g0 c #e2f4e2",
"h0 c #009600",
"i0 c #0b0e0b",
"j0 c #262626",
"k0 c #424242",
"l0 c #18b018",
"m0 c #f5fbf5",
"n0 c #abddab",
"o0 c #019301",
"p0 c #94d494",
"q0 c #e9f6e9",
"r0 c #f0f9f0",
"s0 c #069b06",
"t0 c #b5e2b5",
"u0 c #fcfefc",
"v0 c #454545",
"w0 c #94ce94",
"x0 c #afdfaf",
"y0 c #36be36",
"z0 c #76cb76",
"01 c #84ce84",
"11 c #27b827",
"21 c #13ad13",
"31 c #d4eed4",
"41 c #89d089",
"51 c #51c151",
"61 c #000000",
"71 c #039803",
"81 c #11ab11",
"91 c #029502",
":1 c #e8f6e8",
";1 c #008e00",
"A1 c #cbeacb",
"B1 c #9bd79b",
"C1 c #96d596",
"D1 c #aedfae",
"E1 c #f4fbf4",
"F1 c #95d595",
"G1 c #dbf1db",
"H1 c #f7fcf7",
"I1 c #32b832",
"J1 c #8bd08b",
"K1 c #f6fbf6",
"L1 c #fefefe",
"M1 c #86cf86",
"N1 c #c7e9c7",
"O1 c #1aac1a",
"P1 c #f9fdf9",
"Q1 c #a9dda9",
"R1 c #8ed28e",
"S1 c #aaddaa",
"T1 c #d1edd1",
"U1 c #43bd43",
"V1 c #c4e7c4",
"W1 c #90d290",
"X1 c #eff9ef",
"Y1 c #a4dba4",
"Z1 c #70c970",
"a1 c #aedeae",
"b1 c #acdeac",
"c1 c #d2edd2",
"d1 c #d5eed5",
"e1 c #e3f4e3",
"f1 c #9dd89d",
"g1 c #ddf2dd",
"h1 c #93d493",
"i1 c #9cd89c",
"j1 c #f3faf3",
"k1 c #4abf4a",
"l1 c #ecf8ec",
"m1 c #039703",
"n1 c #9fd99f",
"o1 c #039503",
"p1 c #008d00",
"q1 c #1dae1d",
"r1 c #a9dca9",
"s1 c #29b429",
"t1 c #fbfdfb",
"u1 c #8ad08a",
"v1 c #a1daa1",
"w1 c #a1d9a1",
"x1 c #0ba10b",
"y1 c #c8e9c8",
"z1 c #3dbb3d",
"02 c #d9f0d9",
"12 c #daf0da",
"22 c #bce4bc",
"32 c #d0ecd0",
"42 c #008700",
"52 c #fefffe",
"62 c #68c868",
"72 c #fafdfa",
"82 c #eaf7ea",
"92 c #37ba37",
":2 c #089d08",
";2 c #cdebcd",
"A2 c #fdfefd",
"B2 c #17ab17",
"C2 c #8dd28d",
"D2 c #8dd18d",
"E2 c #1ab21a",
"F2 c #24b724",
"G2 c #059a05",
"H2 c #029302",
"I2 c #f2faf2",
"J2 c #049804",
"K2 c #99d699",
"L2 c #0faa0f",
"M2 c #d8efd8",
"N2 c #07a007",
"O2 c #9cd79c",
"P2 c #019101",
"Q2 c #1db31d",
"R2 c #16af16",
"S2 c #059c05",
"T2 c #b0dfb0",
"U2 c #008500",
"V2 c #11a611",
"W2 c #8cd18c",
"X2 c #cfeccf",
"Y2 c #018f01",
"Z2 c #0fa50f",
"a2 c #019001",
"b2 c #e5f5e5",
"c2 c #97d597",
"d2 c #008b00",
"e2 c #b6e2b6",
"f2 c #d3edd3",
"g2 c #a7dca7",
"h2 c #bfe5bf",
"i2 c #70ca70",
"j2 c #3fc03f",
"k2 c #88cf88",
"l2 c #e6f5e6",
"m2 c #b2e0b2",
"n2 c #a6dba6",
"o2 c #edf8ed",
"p2 c #c9e9c9",
"q2 c #c1e6c1",
"r2 c #18b118",
"s2 c #069c06",
"t2 c #ecf7ec",
"u2 c #caeaca",
"v2 c #90d390",
"w2 c #b4e1b4",
"x2 c #019201",
"y2 c #a5dba5",
"z2 c #a8dca8",
"03 c #ccebcc",
"13 c #ffffff",
"23 c #0ca30c",
"33 c #008600",
"43 c #008900",
"53 c #14a814",
"63 c #87cf87",
"73 c #ddf1dd",
"83 c #f8fcf8",
"93 c #f1f9f1",
":3 c #62c562",
";3 c #32bc32",
"A3 c #3bbf3b",
"B3 c #52c552",
"C3 c #0aa40a",
"D3 c #a0d9a0",
"E3 c #51c251",
"F3 c #43be43",
"G3 c #0a9f0a",
"H3 c #008f00",
"I3 c #e7f5e7",
"J3 c #e4f4e4",
"K3 c #494949",
"L3 c #008400",
"M3 c #484848",
"M3M3M3M3M3M3M3M3M3M3M3M3M3M3M3M3M3M3M3M3M3M3M3M3M3M3M3M3M3M3M3M3M3M3M3M3M3M3M3M3M3M3M3M3M3          ",
"M3M3L3L3L3L3M3M3M3M3M3M3M3M3M3M3L3L3L3L3L3L3L3L3L3L3L3L3L3L3L3L3L3L3L3L3L3L3L3L3L3L3L3L3L3L3        ",
"M3K3L3J3I3L3L3L3L3L3L3L3H3L3L3L3L3L3G3F3E3L3L3L3L3L3D3D3D3C3L3L3L3L3B3B3A3L3L3L3L3D3;3L3L3L3:3      ",
"M3M3L39383L37363534333231303L3z2y2x2w21313v2z2u2t2s2131313r2q2p2p2L31313o2L3n2m2L3l2k2j2m2i2        ",
"M3M3L3h2g2L3f2e2d253s2c213b2x2a2Z2Y2X21313W2a253V2U2131313T2S2R2Q2P2131313O2N2L3L3M2h2r2k2L2        ",
"M3M3L3G3K2L3J2L3L3L3x2L3G35353L3L3L3I21313H253535353G2L3L3L3L3L3L3L3L3L3L3L3F2E2D2C2C2B3F2S2        ",
"M3M3L3L3B2L31313131313A2;2:2L3928253131313V2131313131313131313131313131313131313131313131372        ",
"M3M3L362L3:2135273W2L3L3L3L3L3L3L342f21313L3131313131313131313131313131313131313131313131313        ",
"M3L3L3g2L33213L3L3L3L3L3L3L3L3L3n2L3221313L3131313131313131313131313131313131313131313131313        ",
"M3L3L312L302M2L3L3L353z1L3L3L3L3V2L3y11313L3131313131313131313131313131313131313131313131313        ",
"M3L3L3I2L3o2x1L3L3L3I313w1L3L3L3L3v1u11313L3131313131313131313131313131313131313131313131313        ",
"M3L3L313L3t1L3L3L333131372L3s1L3L3r1L3131342131313131313131313131313131313131313131313131313        ",
"M3L3L313L37243L3q1p1131313z1o1L3a2q1:21313L3131313131313131313131313131313131313131313131313        ",
"M3L3V213L372n1L343L3t11313y1L3:2m1L3x2l11353131313131313131313131313131313131313131313131313        ",
"M3L3k113L372j1L3L3i1h11313g1L3f1L3L3D3l21333131313131313131313131313131313131313131313131313        ",
"M3L3k113L3e113d1L3b2L3c11393L3b1L3L3a1Z1x2L3p1Y1X1131313131313131313131313131313131313131313        ",
"M3L3k113L34392W1L3:2e1L3x2L3L332L3L353L3Y1g1V1U1L3m1T113131313131313131313131313131313131313        ",
"M3L3k113n2L3L3m1H2L3L3L3L3L3d2S1L3R1L3Q113131313P1y2L3L3h21313131313131313131313131313131313        ",
"M3L3G313131313131352e1P1X2L3b1n1O1K2x2w113131313131313N1L3L3g2131313131313131313131313131313        ",
"    L3M112L1131313131313K1s203G3D3J1I17213H1t2H11313131313G1L3L31213131313131313131313131313        ",
"          L3J2Y1S1S1F1M1L392A2s2E1W2Y11313x2L3L3L3L3L3M1D1K113S1L3C1521313131313131313131313        ",
"                    L3L3L39213B122F3131313A1L3;1        L3L32213:1L3L3L3F2L3L3L3L39181P2P271        ",
"                    6161L3F313A292O1511313A241L3U2          L3L33113w2L321L31101z0y0x0L3L3L3w0      ",
"                    v0v0L39213131313u013135213t0L3L3            L3s0r0q0y0L3L3L3L3L3p0L3L3L3o0      ",
"                    M3M3L39213131313131313131313M2L3;1M3M3          L3n2135232n0L3                  ",
"                      M3L3B21313131313131313131313t2L3L3M3M3          L3N2m0r0L3                    ",
"                          L3L3q2A2131313131313131313H1H2L3L333            L3L3                      ",
"                                L3z073131313131313131313F1L3L3                                      ",
"                                    L3L3B1I213131313131313E1l0L3                                    ",
"                                k0j0i0h0L3L3;111L3L3g013131313f0                                    ",
"                            M3M3M3M3e0d0c0L3L3;3m2f2b013131313a0L3                                  ",
"                          M3M3M3M3M3L3L3L3v2P11313131313131313o2L3                                  ",
"                        M3M3M3M3L3L3L3u1A213131313131313131313Z0                                    ",
"                    M3M3M3M3M3L3L3L3Y0131313131313131313131352L3                                    ",
"                  M3M3M3M3M3L3L3;3u01313131313131313131313e1;1                                      ",
"                M3M3M3M3L3L3L3z2131313131313131313P1y1X0L3L3L3                                      ",
"                M3M3M3L3L3L3T11313131313131313W0r2L3;1V0q0q0L3                                      ",
"                M3M3L3L3L3J3131313131313b241L3L3D3U0131313T0L3                                      ",
"                M3M3L3L3I213131313S0R0L3  L3h0L3731313131313Q0                                      ",
"                M3M3L3u1131313B1P2          61L3;31313131313G1                                      ",
"                M3M3L3P0131313L3            O0L3L3N01313131372L3                                M3  ",
"                M3M3L3M0131313L3              M3L3Q21313131313L3                                    ",
"                M3M3L3h1131313L0              M3L3L3K013131313J0L3I0M3M3M3                        M3",
"                M3M3L3h1131313c2                M3L3L3A2131313t2L3H0G0M3M3M3M3                  M3  ",
"                M3M3L3h1131313F0                  L3L3v213131313L3L3L3L3L3L3L3M3M3                  ",
"                M3M3L3K2131313L3                    L3L312131313y2L3E0w2C1L3L3L3H2M3M3              ",
"                M3M3L3D01313C0                      M3L3L3E11313131313131313B0r2L3L3L3M3M3          ",
"                M3M3L3A01313D3                        M3L39113131313131313131313t2z0L3L3L3M3M3M3    ",
"                M3M3L3w21313L3                            L343V0V1;0521313131313131383w1L3L3L3M3    ",
"                M3M3L3w213U0                                      L3L3L3o0P0C1t0:1q0K113A2b1L3L3  L3",
"                M3M3L3w213b1                                                      L3L3L3:0901393    ",
"              M3M3M3L3w21333                                                            L3L3L013    ",
"          M3M3M3M3M3L3w2b0L3                                                          807060L31350L3",
"      M3M3M3M3M3M3L3L3G1:1                                                          M3M3M3M3L3A1    ",
"  M3M3M3M3M3M3L3L3L3W11340                                                          M3M3M3L3L3u231p1",
"M3M3M3M3M3L3L3L3F0301313m0                                                              L3L3A3P0L3L3",
"M3M3M3L3L3L381q013131313m0                                                                          ",
"    L3L320c110k2k2k2W2n0L3                                                                      61  ",
"                                                                M3                                M3",
"M300M3                          M3  M3                            M3M3M3M3M3M3M3M3M3M3M3M3M3M3M3    "};
