/* XPM */
static char *image[] = {
"64 64 337 2",
"   c None",
"00 c #fcaa63",
"10 c #fca764",
"20 c #fda964",
"30 c #fdb378",
"40 c #fdb983",
"50 c #febf8c",
"60 c #fec495",
"70 c #fed6b5",
"80 c #fed4b3",
"90 c #fed4b2",
":0 c #fed3b0",
";0 c #fec08f",
"A0 c #fdb880",
"B0 c #fec395",
"C0 c #fed0aa",
"D0 c #fedabe",
"E0 c #fecda6",
"F0 c #fdb276",
"G0 c #fda866",
"H0 c #ffe8d5",
"I0 c #fec99e",
"J0 c #fdba84",
"K0 c #fdab6a",
"L0 c #fde7d4",
"M0 c #fedabf",
"N0 c #fed2b3",
"O0 c #fec89d",
"P0 c #fdae6e",
"Q0 c #ffe6d5",
"R0 c #fec9a4",
"S0 c #fec497",
"T0 c #fdac6b",
"U0 c #fda765",
"V0 c #fed4b4",
"W0 c #feb37f",
"X0 c #fed9bc",
"Y0 c #fec191",
"Z0 c #fdbd8a",
"a0 c #feaa6f",
"b0 c #fd9348",
"c0 c #fec69f",
"d0 c #fecea8",
"e0 c #fdad6d",
"f0 c #fec7a1",
"g0 c #fdb071",
"h0 c #fda363",
"i0 c #fd9650",
"j0 c #fead76",
"k0 c #fecfad",
"l0 c #fed7b9",
"m0 c #fe9045",
"n0 c #fed8b9",
"o0 c #fdaf71",
"p0 c #fd954b",
"q0 c #fed4b7",
"r0 c #fed3b1",
"s0 c #fdaa68",
"t0 c #fc9246",
"u0 c #fd944d",
"v0 c #fdaa6f",
"w0 c #fda86e",
"x0 c #fda264",
"y0 c #fecfae",
"z0 c #fecaa1",
"01 c #fd9047",
"11 c #fda464",
"21 c #fec08e",
"31 c #fdae6f",
"41 c #fc9046",
"51 c #fda468",
"61 c #fda569",
"71 c #fec89e",
"81 c #fd9b55",
"91 c #fecba2",
":1 c #fba965",
";1 c #fc9349",
"A1 c #fdb27c",
"B1 c #fdae75",
"C1 c #fd9c57",
"D1 c #fdb277",
"E1 c #fe9d58",
"F1 c #fda970",
"G1 c #feaf77",
"H1 c #feb482",
"I1 c #feb683",
"J1 c #fdaf7a",
"K1 c #fd9a54",
"L1 c #fd9850",
"M1 c #fecea7",
"N1 c #fea76c",
"O1 c #fdb17d",
"P1 c #feb17b",
"Q1 c #fdab73",
"R1 c #fed1b1",
"S1 c #fdb073",
"T1 c #fda764",
"U1 c #fdac75",
"V1 c #feb98a",
"W1 c #feb37e",
"X1 c #feba8c",
"Y1 c #fdb380",
"Z1 c #fda96d",
"a1 c #fda467",
"b1 c #fed3b6",
"c1 c #fec393",
"d1 c #feae77",
"e1 c #fdb686",
"f1 c #fdb887",
"g1 c #feb887",
"h1 c #fdaa72",
"i1 c #fd9c5a",
"j1 c #fd9b56",
"k1 c #fed5b4",
"l1 c #fcb380",
"m1 c #feb27e",
"n1 c #fd9955",
"o1 c #fd974e",
"p1 c #fecdab",
"q1 c #fed6b9",
"r1 c #fdb377",
"s1 c #fdbb8d",
"t1 c #fec096",
"u1 c #feb583",
"v1 c #fdb17b",
"w1 c #feb685",
"x1 c #fec598",
"y1 c #febd8e",
"z1 c #febf93",
"02 c #fec39a",
"12 c #febf92",
"22 c #febc8d",
"32 c #fda865",
"42 c #fec196",
"52 c #fec095",
"62 c #febe91",
"72 c #febd8f",
"82 c #febb8c",
"92 c #fdb07b",
":2 c #fecba7",
";2 c #fdb67c",
"A2 c #fec49b",
"B2 c #fec59d",
"C2 c #fec299",
"D2 c #feb582",
"E2 c #fda668",
"F2 c #feb480",
"G2 c #fec69a",
"H2 c #fdccaa",
"I2 c #fec39b",
"J2 c #fec298",
"K2 c #febe92",
"L2 c #feb481",
"M2 c #feb17c",
"N2 c #feaf78",
"O2 c #fda567",
"P2 c #fd9a57",
"Q2 c #fed1ad",
"R2 c #fdcba7",
"S2 c #fec198",
"T2 c #fec094",
"U2 c #feb684",
"V2 c #feb27d",
"W2 c #fdb079",
"X2 c #fda86c",
"Y2 c #fda568",
"Z2 c #fedbbe",
"a2 c #fec49c",
"b2 c #febd91",
"c2 c #feba8a",
"d2 c #fdb685",
"e2 c #fdb480",
"f2 c #fec6a0",
"g2 c #fdb174",
"h2 c #fda965",
"i2 c #fdbe93",
"j2 c #febd90",
"k2 c #febb8d",
"l2 c #feb888",
"m2 c #fdb684",
"n2 c #fdb482",
"o2 c #fdb27d",
"p2 c #fdaf79",
"q2 c #fd9f5e",
"r2 c #fd9f5f",
"s2 c #febc8f",
"t2 c #fed4b6",
"u2 c #fdbb87",
"v2 c #fca865",
"w2 c #febc8e",
"x2 c #feba8b",
"y2 c #feb786",
"z2 c #fdad76",
"03 c #fdad74",
"13 c #fdab71",
"23 c #fdaa71",
"33 c #fdac72",
"43 c #fdaa70",
"53 c #fdaf77",
"63 c #fedbc0",
"73 c #fec699",
"83 c #fea864",
"93 c #feb988",
":3 c #fdb786",
";3 c #fdb683",
"A3 c #fdb37f",
"B3 c #fdae78",
"C3 c #fda76b",
"D3 c #fd964d",
"E3 c #fd934b",
"F3 c #fd9e5e",
"G3 c #fed0ab",
"H3 c #feb380",
"I3 c #fdb27e",
"J3 c #fdb582",
"K3 c #fdb481",
"L3 c #fdb37e",
"M3 c #fdb07a",
"N3 c #fda061",
"O3 c #fed6b7",
"P3 c #feac73",
"Q3 c #fdaf78",
"R3 c #fdb17c",
"S3 c #fdad75",
"T3 c #fdab72",
"U3 c #fda76c",
"V3 c #fdae77",
"W3 c #fdae76",
"X3 c #fda76a",
"Y3 c #fda96e",
"Z3 c #fd9952",
"a3 c #fed2b4",
"b3 c #fedabd",
"c3 c #fca864",
"d3 c #ffae75",
"e3 c #fdac73",
"f3 c #fda86d",
"g3 c #fda162",
"h3 c #fd9853",
"i3 c #fd9249",
"j3 c #fed0b1",
"k3 c #fed8bb",
"l3 c #fda96f",
"m3 c #fd9e5d",
"n3 c #fda364",
"o3 c #fecead",
"p3 c #fea05f",
"q3 c #fda05e",
"r3 c #fda66b",
"s3 c #fda66a",
"t3 c #fd9b58",
"u3 c #fda261",
"v3 c #fda060",
"w3 c #fecba8",
"x3 c #fdab69",
"y3 c #fd9e5a",
"z3 c #fda262",
"04 c #fda669",
"14 c #fd9851",
"24 c #fd964f",
"34 c #fd9751",
"44 c #fecaa5",
"54 c #fed7bb",
"64 c #fdac6c",
"74 c #fe9e5c",
"84 c #fd9c59",
"94 c #fda466",
":4 c #fed0af",
";4 c #fed8bc",
"A4 c #fda966",
"B4 c #fdaa64",
"C4 c #fd9954",
"D4 c #fd9c58",
"E4 c #fda263",
"F4 c #fd9d5b",
"G4 c #fd954e",
"H4 c #fd9148",
"I4 c #fda161",
"J4 c #fed7b8",
"K4 c #fd9d59",
"L4 c #fd9852",
"M4 c #fda160",
"N4 c #fed1ae",
"O4 c #fd954c",
"P4 c #fd9752",
"Q4 c #fd9e5b",
"R4 c #fd964e",
"S4 c #fda465",
"T4 c #fed3b5",
"U4 c #fecba3",
"V4 c #fea965",
"W4 c #fd934a",
"X4 c #fd974f",
"Y4 c #fd9a56",
"Z4 c #fd9f5d",
"a4 c #fd9a55",
"b4 c #fd954d",
"c4 c #fed5b7",
"d4 c #fec599",
"e4 c #fda864",
"f4 c #fe9247",
"g4 c #fd9349",
"h4 c #fd944b",
"i4 c #fd9750",
"j4 c #fd9e5c",
"k4 c #fd9b57",
"l4 c #febf94",
"m4 c #fed7ba",
"n4 c #fdbc87",
"o4 c #fe9147",
"p4 c #fd9248",
"q4 c #fd944a",
"r4 c #fd9953",
"s4 c #fd9d5a",
"t4 c #fda05f",
"u4 c #fed1b2",
"v4 c #fedbbf",
"w4 c #fedcc0",
"x4 c #fdaf6f",
"y4 c #fe9146",
"z4 c #fd9247",
"05 c #fd944c",
"15 c #fdac74",
"25 c #fed5b8",
"35 c #fedcc1",
"45 c #fed7b6",
"55 c #fd9145",
"65 c #fd9147",
"75 c #fec197",
"85 c #fed9bd",
"95 c #fde3cf",
":5 c #fd9246",
";5 c #fda365",
"A5 c #fed8ba",
"B5 c #fc9146",
"C5 c #fd9146",
"D5 c #fd964a",
"                                                                                                                                ",
"                                                                                                                                ",
"                                                                                                                                ",
"                    D5C5B5                                                                                                      ",
"                A5;5C5C5C5C5:5                                                                                                  ",
"            95857565C5C5C5C5C5C555                                                                                              ",
"          4535251505z4C5C5C5C5C5C5y4                                                                                            ",
"        x4w4v4u4t4s4r4q4p4z4C5C5C5C5o4                                                                                          ",
"        n435m4l405k4j4j4k4i4h4g4p465C5f4                                                                                        ",
"      e4d435c41565g4b4a4j4Z4Z4s4Y4X4W4z4z4                                                                                      ",
"    V4e4U435T4S4z4z4p4p4q4R4r4k4Q4j4s4P4O4                                                                                      ",
"    e4e4N4v4T4M4i4L4a4R4g4z4z4p4W4X4K4t4k4i4                                                                                    ",
"    e4e4J485T4I4j4j4j4j4a4h465C5C5H4G4F4E4D4C4                                                                                  ",
"  B4e4A435;4:40505h4q4L4j4s4b4z465g405r4;5948474                                                                                ",
"  e4e4643554446565C5C5p434j4s4L4i424i414Q404z3y3                                                                                ",
"  e4e4x33554w365C5C5C5C5p434s4Z4v3u3t4k4t3s3r3q3p3                                                                              ",
"  e4e4A43554o3b465C5C5C5C5z4g4i4a4Z4n394m3E4l304z394                                                                            ",
"  e4e4e4w4k3j3s4q4z4z4656565i305X4h3s40494g3f3e30494d3                                                                          ",
"c3e4e4e4b3k3a3j4k4C4i4R4R4R4i4i4Z3C4k4E4Y304X3W3V3Y3U3                                                                          ",
"e4e4e4e4A5k3T4r4Q4j4j4j4j4Z4v3z3;5z3Q4m3r3T3e3S3R3R3Q3P3                                                                        ",
"e4e4e4e4O3k3T4R4g4W4b42424L4a4Q4N30404t4I404S3M3L3K3J3I3H3                                                                      ",
"c3e4e4e4G385T4F36565656565E3D314a4Z4C3f3S4S404l3B3A3;3:393                                                                      ",
"83e4e4e47363T453X424h4g4W4D32414a484u343332313T303z2R3y2x2w2                                                                    ",
"v2e4e4e4u235t2s2j4j4j4j4Z4M4t4r2r2q2t494T3p2o2L3n2m2:3l2k2j2i2                                                                  ",
"h2e4e4e4g23525f2b4R4L4r4a4s4z39404f3l3T3z2M3o2e2;3d2l2c2w2b2l4a2                                                                ",
"  e4e4e4h2Z254u4W465z4z4g4b4L4Y4j4E4Y2X2l3T3S3Q3W2M3V2U2x2b2T2S2R2                                                              ",
"  e4e4e4e4Q285T4m3C5C5C5g40524L4P2s4Z4M4n3O2X3Y3T303N2M2L2l2K2J2I2H2                                                            ",
"  e4e4e4e4G263T4F2p4p4p4W405X4L4Y4s4Z4I494E2f3e353R3D2y2x2w2T2C2a2B2A2                                                          ",
"  e4e4e4e4;23525:2D4D4a4R4b4i4C4F4z30443S3Q392A3n2:3l282726252S2I2a2a2J242                                                      ",
"  e4e4e4e432J485T4s3D4j4j484Q4g304Y3l3Y3l323S3W3R3K3y2x222821242C202I2C275z1y1                                                  ",
"  83e4e4e4e4x1w4T4w1g4R4Q4u3E494z3t4r2M4;5s303v1e2J3u1H3F2y272w2T242t142t1l462w2c2s1                                            ",
"    e4e4e4e4r135q1p1z465W4o114n1a4t3F4M4f3W3p2Q3z21503N2m1c2c293K2z172k262K2j222x293m2l1                                        ",
"    e4e4e4e4e4k185T4n3C5z405i4C4j1i1g3C3T323U3C3f3l3h1p2w1g1L2l272s2c2u182s282y2g1f1e1J3I3d1                                    ",
"    e4e4e4e4e4c135b182q4i4D4I4n3a104f3Y3Y2n3;5O2s3Z115Y1m2V2D2X1x2c2l2W1y2x2V1L2M3n2m2K3Y192W303U1                              ",
"    T1e4e4e4e4S135m4R1n3Z4Z4j4F4Z4t4M4q3q3M4E494C3Q1o2e2o2K3l2c2w1g1U2P1u1y2U2Y115W3e2O1R3W3f3O2Y2C3N1                          ",
"      e4e4e4e4e4M163T4k2R4W405D3L1K1k4s4j4v394f3S3M3J1p2A3n2K3:3V2I1H1G1H3m2K3Y113F1M3p223e3e3X2I4m3S494E1                      ",
"      e4e4e4e4e4D13554a3t3C5p4h424h3C1r2n3X2T315B1T3T3v1A1z2O1K3W3Y1A3S3R3J3R3A3l3X343Q3C3n3C3Y3C3Z484E4t4D3;1                  ",
"      :1e4e4e4e4e49163b16265i3G481v3a104C3X2s3S4;5s3W3V343Y3R3R3T3o2R323V3Y1p2o2l3Y204z2Y3M4Z4v3X394a484I4r465C5H4              ",
"        e4e4e4e4e4S1w4k3T4z3k4q2M4I4q3F4F4Q4Q4q2I4Y3z2C3Y24392T3f3W2p2Y3T3R315M3f3;5n3l313t4s4D4M4Y2n134q2K4g4C5C5C5            ",
"        e4e4e4e4e4e47135t2B2Q4C4Z324i4P4C4Y4D4j4O2T3U3S461S3150404W3z2r313M3Y3Q3Y3z3I45143I4t3Y4s494k4R4a4j42465C5C5C541        ",
"          e4e4e4e4e431Z285T4D2g4H4W4b424h3a4i1E4Y3C3I4S44343O2n3O2S3Q1E24315Y2e3l3M4Z4t4f3S4k4r4C4E4F4h4q4s4k4g4C5C5C5C5f4      ",
"          e4e4e4e4e4e42135m4T4a1C5z4q4D3a4m394X3Y2q2r2C343;5v3M41115f3;5l313n3f343t4s4F494O2k4i434j4q3E3z4r4j4X465C5C5C5C501    ",
"            e4e4e4e4e4e4z03525y0k4C5g4C4g3n3n3E4t3t3g3f3x0q2j4q2S4T3a1I4w0w0v3;5v0t4t3k4Z4a1K424u0Z3Z4X465W4k4Q405C5C5C5C5C5t0  ",
"            e4e4e4e4e4e4s0r063q0p1K4X4q2j4r414L4h384Y2;5s484s4Q4;5v0v3Z4X2Y2F4q2X2v381r4a4n3j4G4W4p0s4k4p4C5b4Q4k4q465C5C5C5C5  ",
"              e4e4e4e4e4e4o0n0v4q0p104k4O4E305b4L4I4n384a4a4Y4D4S4C3s4s4s3n3t384E2E4r4i434Z4t4R465p4a4j4q4C5z4X4j484b465C5C5C5m0",
"              e4e4e4e4e4e4e4g2l0v4q0k0I46565g4p0a4z38414L4L4r4k49494j1k494I4a4r4t4;5r4b4u034Z4k4q4z424j4L4z4C5z424s4s4h4C5C5C5C5",
"                e4e4e4e4e4e4e4S1J463q0u4j0z4C5g4Q4t4i0b4R424i4K194Z4L4C4n3q314i0t3h0a4h4g4p4i4Q4k4q4W4s484g4C5C5z4R4j4C4z4C5C5z4",
"                  e4e4e4e4e4e4e4g0O3w4q1T4f0Y205j4j1q4q4h405b4h3z384X4i4M4q2R405X4q3s4q4C5C5z4b4j4k4W4L4j4i4z4C5C5g4k4s4g4C5C5A3",
"                    e4e4e4e4e4e4e4e0d03585c4T4c043b46565p4g4h4Z3I4L4h4O4F4q3O4g4b0L4j4i465C5C5p4C4j405W4D4j4b465C5z4L4Z4b465a0  ",
"                    h2e4e4e4e4e4e4e4e4Z0l03585q0T4J2q2C5C5C5z4i4m3G4p4p4h3Z4h4C5C5g4k4s4h4C5C565b4Z434z4b4j4a4p4C565b4j4Q4w2    ",
"                      32e4e4e4e4e4e4e4e4s0Y0X035X0t2T4t1e3C4z4i4j4b46565R4Z4i465C5C5b4j4C4z4C5C5W4j4r4z4g484k4p4C5C5q4W0V0      ",
"                        U0e4e4e4e4e4e4e4e4e4T0S0Z235k3c4T4T4R0l215D465C5W4j4a4p4C5C5p4k4s4g4C5C5g4Q4k4p4p484s4h0M242R185Q0      ",
"                            e4e4e4e4e4e4e4e4e4e4P0O063356385q1t2T4T4R1f062y2J1E4C4L4Z3Q4g314b4K1I4z2P1H3x2f2N0q054M035L0        ",
"                              e4e4e4e4e4e4e4e4e4e4e4K0J0I0l03535v48554q1c4T4T4T4T4T4T4T4T4T4T4T4T4T4t225q1k3v4353535H0          ",
"                                  G0e4e4e4e4e4e4e4e4e4e4e4e4F0Y0E0k16335353563D085858585X0X0X085v43535353535Z2C0B0              ",
"                                      e4e4e4e4e4e4e4e4e4e4e4e4e4e4e4A4S1A0;0O0G3:0r09080k1k170:0M1I060504030A420                ",
"                                          e4e4e4e4e4e4e4e4e4e4e4e4e4e4e4e4e4e4e4e4e4e4e4e4e4e4e4e4e4e4e4e4e4                    ",
"                                                20e4e4e4e4e4e4e4e4e4e4e4e4e4e4e4e4e4e4e4e4e4e4e4e4e4e420                        ",
"                                                      10T1e4e4e4e4e4e4e4e4e4e4e4e4e4e4e4e4e4e4e4e4                              ",
"                                                                    e4c3c300c3e432e4e4                                          ",
"                                                                                                                                ",
"                                                                                                                                ",
"                                                                                                                                ",
"                                                                                                                                "};
