/* XPM */
static char *image[] = {
"16 16 214 2",
"00 c #e3f1f7",
"10 c #9dc2dd",
"20 c #5e96c6",
"30 c #3c7db8",
"40 c #3d7eb9",
"50 c #6097c6",
"60 c #9fc4de",
"70 c #f9fdfe",
"80 c #97bfdc",
"90 c #2169ad",
":0 c #2876b4",
";0 c #3c8fc0",
"A0 c #499ec7",
"B0 c #4a9ec8",
"C0 c #3e91c1",
"D0 c #2a78b5",
"E0 c #236baf",
"F0 c #9cc2dd",
"G0 c #70a3cc",
"H0 c #1c68ad",
"I0 c #4195c3",
"J0 c #5ab7d4",
"K0 c #68c6dc",
"L0 c #6ac9de",
"M0 c #6ac8de",
"N0 c #69c6dd",
"O0 c #5ebbd6",
"P0 c #469ac6",
"Q0 c #1e6bae",
"R0 c #78a9d1",
"S0 c #fcfefe",
"T0 c #96bedb",
"U0 c #1864ab",
"V0 c #3c92c1",
"W0 c #9dd3e4",
"X0 c #a5e0eb",
"Y0 c #62c5dc",
"Z0 c #69c7dd",
"a0 c #65c6dc",
"b0 c #8ad6e6",
"c0 c #bae2ed",
"d0 c #4298c5",
"e0 c #1a65ab",
"f0 c #a3c5e0",
"g0 c #e4f1f8",
"h0 c #1962aa",
"i0 c #3280b9",
"j0 c #4ba4cb",
"k0 c #8ed2e4",
"l0 c #e7f6f9",
"m0 c #6ac7dd",
"n0 c #61c4db",
"o0 c #63c5dc",
"p0 c #5ec3db",
"q0 c #cfedf4",
"r0 c #afe0ec",
"s0 c #4ca9cd",
"t0 c #3483ba",
"u0 c #1d64ab",
"v0 c #eef6fa",
"w0 c #a6c9e1",
"x0 c #2168ad",
"y0 c #3184bb",
"z0 c #4ca4ca",
"01 c #57b8d5",
"11 c #d1edf4",
"21 c #97d8e6",
"31 c #98d8e7",
"41 c #9fdbe9",
"51 c #e0f4f8",
"61 c #67c0da",
"71 c #4ca7cc",
"81 c #3488bc",
"91 c #1f68ad",
":1 c #b9d2e6",
";1 c #c2dbeb",
"A1 c #cbdceb",
"B1 c #b0d1e5",
"C1 c #5eaace",
"D1 c #6ebad7",
"E1 c #bfe4ee",
"F1 c #d3edf4",
"G1 c #d8eff5",
"H1 c #d9f0f5",
"I1 c #dbf1f5",
"J1 c #cfebf2",
"K1 c #73bed9",
"L1 c #5dabce",
"M1 c #aed0e4",
"N1 c #cadceb",
"O1 c #d0e0ee",
"P1 c #3878b6",
"Q1 c #2d73b3",
"R1 c #88b5d6",
"S1 c #ecf5f8",
"T1 c #ebf4f8",
"U1 c #85c2dc",
"V1 c #bfe1ed",
"W1 c #d1eaf2",
"X1 c #d3ebf2",
"Y1 c #d1e9f2",
"Z1 c #89c5dc",
"a1 c #e5f2f7",
"b1 c #f1f7fa",
"c1 c #90bad9",
"d1 c #2f76b4",
"e1 c #3775b4",
"f1 c #558bc0",
"g1 c #578ec2",
"h1 c #a9cae1",
"i1 c #d1e3ef",
"j1 c #d4e6f1",
"k1 c #a2cfe3",
"l1 c #cfe6f0",
"m1 c #d0e7f0",
"n1 c #cee7f0",
"o1 c #cae4ef",
"p1 c #95c8de",
"q1 c #d4e6f0",
"r1 c #cce0ee",
"s1 c #b2d0e5",
"t1 c #5d94c4",
"u1 c #558abf",
"v1 c #cadfed",
"w1 c #b4cbe2",
"x1 c #81add2",
"y1 c #3582b9",
"z1 c #398abe",
"02 c #bbd8e8",
"12 c #c9e1ed",
"22 c #cae1ee",
"32 c #c7e1ed",
"42 c #bedbea",
"52 c #bedae9",
"62 c #3e8dbf",
"72 c #3180b9",
"82 c #79a8cf",
"92 c #b0c8e1",
":2 c #d9e4f0",
";2 c #a9c7e1",
"A2 c #014d9f",
"B2 c #1765ab",
"C2 c #2578b5",
"D2 c #3a8bbe",
"E2 c #d8e9f2",
"F2 c #6eacd0",
"G2 c #60a4cc",
"H2 c #62a6cc",
"I2 c #5ca1ca",
"J2 c #dceaf3",
"K2 c #3f8ec0",
"L2 c #2679b5",
"M2 c #1867ac",
"N2 c #004c9e",
"O2 c #bed2e7",
"P2 c #f0f7fb",
"Q2 c #165ca8",
"R2 c #2d81ba",
"S2 c #9cc6df",
"T2 c #daeaf2",
"U2 c #71aed1",
"V2 c #78b2d4",
"W2 c #79b2d4",
"X2 c #72aed2",
"Y2 c #d4e7f1",
"Z2 c #a6cbe1",
"a2 c #3185bb",
"b2 c #1664ab",
"c2 c #1d5fa9",
"d2 c #f9fbfc",
"e2 c #b0cce2",
"f2 c #014ea0",
"g2 c #2e7eb8",
"h2 c #acd0e4",
"i2 c #c8dfed",
"j2 c #c7deec",
"k2 c #cfe3ef",
"l2 c #d0e3ef",
"m2 c #c9dfed",
"n2 c #cae0ed",
"o2 c #b6d6e7",
"p2 c #3584bb",
"q2 c #004e9f",
"r2 c #8cb0d4",
"s2 c #0351a1",
"t2 c #3c86bc",
"u2 c #9fc9e0",
"v2 c #f2f9fc",
"w2 c #fafdfe",
"x2 c #aed2e5",
"y2 c #468ec0",
"z2 c #0353a2",
"03 c #9ab7d8",
"13 c #feffff",
"23 c #bacfe5",
"33 c #1b5fa9",
"43 c #1160a8",
"53 c #4a8bbf",
"63 c #7faed2",
"73 c #82b0d4",
"83 c #5290c2",
"93 c #1663aa",
":3 c #1e62aa",
";3 c #c1d3e7",
"A3 c #ffffff",
"B3 c #f7fafc",
"C3 c #c0d3e7",
"D3 c #739cc9",
"E3 c #3b76b4",
"F3 c #3b76b5",
"G3 c #759eca",
"H3 c #c4d4e8",
"I3 c #fafbfd",
"J3 c #c4c4c4",
"J3J3J3J3I3H3G3F3E3D3C3B3J3J3J3J3",
"J3J3A3;3:3938373635343332313J3J3",
"J3A303z2y2x2w2A3A3v2u2t2s2r213J3",
"J3;3q2p2o2n2m2l2k2j2i2h2g2f2e2J3",
"d2c2b2a2Z2Y2X2W2V2U2T2S2R293Q2P2",
"O2N2M2L2K2J2I2H2G2F2E2D2C2B2A2;2",
":292827262524232221202z1y1x1w1v1",
"u1t1s1r1q1p1o1n1m1l1k1j1i1h1g1f1",
"e1d1c1b1a1Z1Y1X1W1V1U1T1S1R1Q1P1",
"O1N1M1L1K1J1I1H1G1F1E1D1C1B1A1;1",
":19181716151413121411101z0y0x0w0",
"v0u0t0s0r0q0p0o0n0m0l0k0j0i0h0g0",
"J3f0e0d0c0b0a0Z0Z0Y0X0W0V0U0T0J3",
"J3S0R0Q0P0O0N0M0L0K0J0I0H0G0w2J3",
"J3J3S0F0E0D0C0B0A0;0:0908070J3J3",
"J3J3J3J3a160504030201000J3J3J3J3"};
