/* XPM */
static char *image[] = {
"48 48 140 2",
"   c None",
"00 c #e2e7ec",
"10 c #e3e8ed",
"20 c #e3e9ed",
"30 c #e2e9ee",
"40 c #e4e9ee",
"50 c #e5eaef",
"60 c #e4eaef",
"70 c #e6ecf0",
"80 c #3a6016",
"90 c #86db32",
":0 c #70b82a",
";0 c #68ab27",
"A0 c #2c4910",
"B0 c #53881f",
"C0 c #29440f",
"D0 c #3f6818",
"E0 c #040701",
"F0 c #365814",
"G0 c #71b92a",
"H0 c #6aad27",
"I0 c #233a0d",
"J0 c #446f19",
"K0 c #7dcd2f",
"L0 c #22370c",
"M0 c #2f4d11",
"N0 c #85da32",
"O0 c #6eb429",
"P0 c #375a14",
"Q0 c #82d631",
"R0 c #1d300b",
"S0 c #89e133",
"T0 c #426c18",
"U0 c #263f0e",
"V0 c #578e20",
"W0 c #8ae234",
"X0 c #8ae039",
"Y0 c #8ddf43",
"Z0 c #8fde4c",
"a0 c #92de54",
"b0 c #94dc5b",
"c0 c #96dc63",
"d0 c #98dd69",
"e0 c #9bdd6d",
"f0 c #9dde73",
"g0 c #a0de76",
"h0 c #a2e078",
"i0 c #a5e17b",
"j0 c #a8e27c",
"k0 c #aae57d",
"l0 c #ade77d",
"m0 c #b0e97d",
"n0 c #b4ed7c",
"o0 c #274609",
"p0 c #6993bf",
"q0 c #5c81a8",
"r0 c #6891bd",
"s0 c #476482",
"t0 c #517193",
"u0 c #6f9bca",
"v0 c #151e27",
"w0 c #11181f",
"x0 c #2f4256",
"y0 c #202d3b",
"z0 c #18222c",
"01 c #6e9ac9",
"11 c #000000",
"21 c #56789c",
"31 c #1b2631",
"41 c #415b77",
"51 c #161f29",
"61 c #395068",
"71 c #283849",
"81 c #1a2530",
"91 c #3a516a",
":1 c #273647",
";1 c #000101",
"A1 c #4e6d8e",
"B1 c #1b2632",
"C1 c #3f5772",
"D1 c #4f6e8f",
"E1 c #141c24",
"F1 c #17212b",
"G1 c #2d3e51",
"H1 c #263545",
"I1 c #131b23",
"J1 c #6790bb",
"K1 c #57799e",
"L1 c #6b95c2",
"M1 c #486584",
"N1 c #4a6786",
"O1 c #6d98c6",
"P1 c #729fcf",
"Q1 c #eeeeec",
"R1 c #73a0cf",
"S1 c #75a1d0",
"T1 c #77a3d1",
"U1 c #79a4d1",
"V1 c #7ca5d2",
"W1 c #7ea7d3",
"X1 c #80a8d3",
"Y1 c #82aad4",
"Z1 c #85abd5",
"a1 c #86acd5",
"b1 c #89aed6",
"c1 c #8bb0d7",
"d1 c #8db1d8",
"e1 c #8fb2d8",
"f1 c #91b4d9",
"g1 c #93b5da",
"h1 c #95b6da",
"i1 c #97b8db",
"j1 c #9ab9dc",
"k1 c #9bbbdd",
"l1 c #9ebcdd",
"m1 c #a0bede",
"n1 c #a2bfdf",
"o1 c #a4c1e0",
"p1 c #a6c2e0",
"q1 c #a8c3e1",
"r1 c #abc5e2",
"s1 c #adc7e4",
"t1 c #e7ecf0",
"u1 c #e8ecf0",
"v1 c #e9eef2",
"w1 c #ebeff2",
"x1 c #eaeff1",
"y1 c #eceff4",
"z1 c #eef1f4",
"02 c #eef2f3",
"12 c #f0f2f5",
"22 c #f1f4f6",
"32 c #f4f6f7",
"42 c #f4f5f6",
"52 c #f5f7f8",
"62 c #f7f8f9",
"72 c #f8f8f9",
"82 c #fbfbfa",
"92 c #1a324c",
":2 c #868678",
":2:2:2:2:2:2:2:2:2:2:2:2:2:2:2:2:2:2929292929292929292929292929292929292929292929292929292929292",
":282726252423222121202z1y1x1w1v1u1t192s1r1q1p1o1n1m1l1k1j1i1h1g1f1e1d1c1b1a1Z1Y1X1W1V1U1T1S1R192",
":282Q1Q1Q1Q1Q1Q1Q1Q1Q1Q1Q1Q1Q1Q1Q1Q192s1P1P1P1P1P1P1P1P1P1P1P1P1P1P1P1P1P1P1P1P1P1P1P1P1P1P1R192",
":282Q1Q1Q1Q1Q1Q1Q1Q1Q1Q1Q1Q1Q1Q1Q1Q192s1P1P1P1P1P1P1P1P1P1P1P1P1P1P1P1P1P1P1P1P1P1P1P1P1P1P1R192",
":282Q1Q1Q1Q1Q1Q1Q1Q1Q1Q1Q1Q1Q1Q1Q1Q192s1P1P1P1P1P1P1P1P1P1P1P1P1P1P1P1P1P1P1P1P1P1P1P1P1P1P1R192",
":282Q1Q1Q1Q1Q1Q1Q1Q1Q1Q1Q1Q1Q1Q1Q1Q192s1P1P1P1P1P1P1P1P1P1P1P1P1P1P1P1P1P1P1P1P1P1P1P1P1P1P1R192",
":282Q1Q1Q1Q1Q1Q1Q1Q1Q1Q1Q1Q1Q1Q1Q1Q192s1P1P1P1P1P1P1P1P1P1P1P1P1P1P1P1P1P1P1P1P1P1P1P1P1P1P1R192",
":282Q1Q1Q1Q1Q1Q1Q1Q1Q1Q1Q1Q1Q1Q1Q1Q192s1P1P1P1P1P1P1P1P1P1P1P1P1P1P1P1P1P1P1P1P1P1P1P1P1P1P1R192",
":282Q1Q1Q1Q1Q1Q1Q1Q1Q1Q1Q1Q1Q1Q1Q1Q192s1P1P1P1P1P1P1P1P1P1P1P1P1P1P1P1P1P1P1P1P1P1P1P1P1P1P1R192",
":282Q1Q1Q1Q1Q1Q1Q1Q1Q1Q1Q1Q1Q1Q1Q1Q192s1P1P1P1P1P1P1P1P1P1P1P1P1P1P1P1P1P1P1P1P1P1P1P1P1P1P1R192",
":282Q1Q1Q1Q1Q1Q1Q1Q1Q1Q1Q1Q1Q1Q1Q1Q192s1P1P1P1P1P1P1P1P1P1P1P1P1P1P1P1P1P1P1P1P1P1P1P1P1P1P1R192",
":282Q1Q1Q1Q1Q1Q1Q1Q1Q1Q1Q1Q1Q1Q1Q1Q192s1P1P1P1O1N1M1L1K1J1P1P1P1P1P1P1P1P1P1P1P1P1P1P1P1P1P1R192",
":282Q1Q1Q1Q1Q1Q1Q1Q1Q1Q1Q1Q1Q1Q1Q1Q192s1P1P1O1I1H1G1F1E1D1P1P1P1P1P1P1P1P1P1P1P1P1P1P1P1P1P1R192",
":282Q1Q1Q1Q1Q1Q1Q1Q1Q1Q1Q1Q1Q1Q1Q1Q192s1P1P1C1B1P1P1A1;1D1P1P1P1P1P1P1P1P1P1P1P1P1P1P1P1P1P1R192",
":282Q1Q1Q1Q1Q1Q1Q1Q1Q1Q1Q1Q1Q1Q1Q1Q192s1P1P1:191P1P1P181D1P1P1P1P1P1P1P1P1P1P1P1P1P1P1P1P1P1R192",
":282Q1Q1Q1Q1Q1Q1Q1Q1Q1Q1Q1Q1Q1Q1Q1Q192s1P1P17161P1P1P151D1P1P1P1P1P1P1P1P1P1P1P1P1P1P1P1P1P1R192",
":282Q1Q1Q1Q1Q1Q1Q1Q1Q1Q1Q1Q1Q1Q1Q1Q192s1P1P14131P1P12111D1P1P1P1P1P1P1P1P1P1P1P1P1P1P1P1P1P1R192",
":282Q1Q1Q1Q1Q1Q1Q1Q1Q1Q1Q1Q1Q1Q1Q1Q192s1P1P101z0y0x0w0v0D1P1P1P1P1P1P1P1P1P1P1P1P1P1P1P1P1P1R192",
":282Q1Q1Q1Q1Q1Q1Q1Q1Q1Q1Q1Q1Q1Q1Q1Q192s1P1P1P1u0t0s0r0q0p0P1P1P1P1P1P1P1P1P1P1P1P1P1P1P1P1P1R192",
":282Q1Q1Q1Q1Q1Q1Q1Q1Q1Q1Q1Q1Q1Q1Q1Q192s1P1P1P1P1P1P1P1P1P1P1P1P1P1P1P1P1P1P1P1P1P1P1P1P1P1P1R192",
":282Q1Q1Q1Q1Q1Q1Q1Q1Q1Q1Q1Q1Q1Q1Q1Q192s1P1P1P1P1P1P1P1P1P1P1P1P1P1P1P1P1P1P1P1P1P1P1P1P1P1P1R192",
":282Q1Q1Q1Q1Q1Q1Q1Q1Q1Q1Q1Q1Q1Q1Q1Q192s1P1P1P1P1P1P1P1P1P1P1P1P1P1P1P1P1P1P1P1P1P1P1P1P1P1P1R192",
":282Q1Q1Q1Q1Q1Q1Q1Q1Q1Q1Q1Q1Q1Q1Q1Q192s1P1P1P1P1P1P1P1P1P1P1P1P1P1P1P1P1P1P1P1P1P1P1P1P1P1P1R192",
":282Q1Q1Q1Q1Q1Q1Q1Q1Q1Q1Q1Q1Q1Q1Q1Q192s1P1P1P1P1P1P1P1P1P1P1P1P1P1P1P1P1P1P1P1P1P1P1P1P1P1P1R192",
":282Q1Q1Q1Q1Q1Q1Q1Q1Q1Q1Q1Q1Q1Q1Q1Q192s1P1P1P1P1P1P1P1P1P1P1P1P1P1P1P1P1P1P1P1P1P1P1P1P1P1P1R192",
":282Q1Q1Q1Q1Q1Q1Q1Q1Q1Q1Q1Q1Q1Q1Q1Q192s1P1P1P1P1P1P1P1P1P1P1P1P1P1P1P1P1P1P1P1P1P1P1P1P1P1P1R192",
":282Q1Q1Q1Q1Q1Q1Q1Q1Q1Q1Q1Q1Q1Q1Q1Q192s1P1P1P1P1P1P1P1P1P1P1P1P1P1P1P1P1P1P1P1P1P1P1P1P1P1P1R192",
":282Q1Q1Q1Q1Q1Q1Q1Q1Q1Q1Q1Q1Q1Q1Q1Q192s1P1P1P1P1P1P1P1P1P1P1P1P1P1P1P1P1P1P1P1P1P1P1P1P1P1P1R192",
":282Q1Q1Q1Q1Q1Q1Q1Q1Q1Q1Q1Q1Q1Q1Q1Q192s1r1q1p1o1n1m1l1k1j1i1h1g1f1e1d1c1b1a1Z1Y1X1W1V1U1T1S1R192",
":282Q1Q1Q1Q1Q1Q1Q1Q1Q1Q1Q1Q1Q1Q1Q1Q19292929292929292929292o0o0o0o0o0o0o0o0o0o0o0o0o0o0o0o0o0o0o0",
":282Q1Q1Q1Q1Q1Q1Q1Q1Q1Q1Q1Q1Q1Q1Q1Q1Q1Q1Q1Q1Q1Q1Q1Q1Q1Q1Q1o0n0m0l0k0j0i0h0g0f0e0d0c0b0a0Z0Y0X0o0",
":282Q1Q1Q1Q1Q1Q1Q1Q1Q1Q1Q1Q1Q1Q1Q1Q1Q1Q1Q1Q1Q1Q1Q1Q1Q1Q1Q1o0n0W0W0W0W0W0W0W0W0W0W0W0W0W0W0W0X0o0",
":282Q1Q1Q1Q1Q1Q1Q1Q1Q1Q1Q1Q1Q1Q1Q1Q1Q1Q1Q1Q1Q1Q1Q1Q1Q1Q1Q1o0n0W0W0W0W0W0W0W0W0W0W0W0W0W0W0W0X0o0",
":282Q1Q1Q1Q1Q1Q1Q1Q1Q1Q1Q1Q1Q1Q1Q1Q1Q1Q1Q1Q1Q1Q1Q1Q1Q1Q1Q1o0n0W0W0W0W0W0W0W0W0W0W0W0W0W0W0W0X0o0",
":282Q1Q1Q1Q1Q1Q1Q1Q1Q1Q1Q1Q1Q1Q1Q1Q1Q1Q1Q1Q1Q1Q1Q1Q1Q1Q1Q1o0n0W0W0W0W0W0W0W0W0W0W0W0W0W0W0W0X0o0",
":282Q1Q1Q1Q1Q1Q1Q1Q1Q1Q1Q1Q1Q1Q1Q1Q1Q1Q1Q1Q1Q1Q1Q1Q1Q1Q1Q1o0n0W0W0V0U0T0S0W0W0W0W0W0W0W0W0W0X0o0",
":282Q1Q1Q1Q1Q1Q1Q1Q1Q1Q1Q1Q1Q1Q1Q1Q1Q1Q1Q1Q1Q1Q1Q1Q1Q1Q1Q1o0n0W0S0R0Q0P0O0W0W0W0W0W0W0W0W0W0X0o0",
":282Q1Q1Q1Q1Q1Q1Q1Q1Q1Q1Q1Q1Q1Q1Q1Q1Q1Q1Q1Q1Q1Q1Q1Q1Q1Q1Q1o0n0W0N0M0O0L0K0W0W0W0W0W0W0W0W0W0X0o0",
":282Q1Q1Q1Q1Q1Q1Q1Q1Q1Q1Q1Q1Q1Q1Q1Q1Q1Q1Q1Q1Q1Q1Q1Q1Q1Q1Q1o0n0W0N0M0J0I0H0W0W0W0W0W0W0W0W0W0X0o0",
":282Q1Q1Q1Q1Q1Q1Q1Q1Q1Q1Q1Q1Q1Q1Q1Q1Q1Q1Q1Q1Q1Q1Q1Q1Q1Q1Q1o0n0W0N0M0W0G0F0W0W0W0W0W0W0W0W0W0X0o0",
":282Q1Q1Q1Q1Q1Q1Q1Q1Q1Q1Q1Q1Q1Q1Q1Q1Q1Q1Q1Q1Q1Q1Q1Q1Q1Q1Q1o0n0W0N0E0D0C0B0W0W0W0W0W0W0W0W0W0X0o0",
":282Q1Q1Q1Q1Q1Q1Q1Q1Q1Q1Q1Q1Q1Q1Q1Q1Q1Q1Q1Q1Q1Q1Q1Q1Q1Q1Q1o0n0W0N0A0;0:0W0W0W0W0W0W0W0W0W0W0X0o0",
":282Q1Q1Q1Q1Q1Q1Q1Q1Q1Q1Q1Q1Q1Q1Q1Q1Q1Q1Q1Q1Q1Q1Q1Q1Q1Q1Q1o0n0W09080W0W0W0W0W0W0W0W0W0W0W0W0X0o0",
":282Q1Q1Q1Q1Q1Q1Q1Q1Q1Q1Q1Q1Q1Q1Q1Q1Q1Q1Q1Q1Q1Q1Q1Q1Q1Q1Q1o0n0W0W0W0W0W0W0W0W0W0W0W0W0W0W0W0X0o0",
":282Q1Q1Q1Q1Q1Q1Q1Q1Q1Q1Q1Q1Q1Q1Q1Q1Q1Q1Q1Q1Q1Q1Q1Q1Q1Q1Q1o0n0W0W0W0W0W0W0W0W0W0W0W0W0W0W0W0X0o0",
":282Q1Q1Q1Q1Q1Q1Q1Q1Q1Q1Q1Q1Q1Q1Q1Q1Q1Q1Q1Q1Q1Q1Q1Q1Q1Q1Q1o0n0W0W0W0W0W0W0W0W0W0W0W0W0W0W0W0X0o0",
":282726252423222121202z1y1x1w1v1u1t17060505040403020101000o0n0m0l0k0j0i0h0g0f0e0d0c0b0a0Z0Y0X0o0",
":2:2:2:2:2:2:2:2:2:2:2:2:2:2:2:2:2:2:2:2:2:2:2:2:2:2:2:2:2o0o0o0o0o0o0o0o0o0o0o0o0o0o0o0o0o0o0o0"};
