/* XPM */
static char *image[] = {
"32 32 91 2",
"   c None",
"00 c #b8d1e3",
"10 c #f6fbfc",
"20 c #f9fdfb",
"30 c #a4c7e0",
"40 c #e7eff4",
"50 c #fdfefd",
"60 c #f7f9fa",
"70 c #fefdfd",
"80 c #fcfdfd",
"90 c #fdfffe",
":0 c #d5e3eb",
";0 c #8dbbdc",
"A0 c #accde3",
"B0 c #e8eff4",
"C0 c #9ac2df",
"D0 c #dae6ed",
"E0 c #cddeec",
"F0 c #c7d8e4",
"G0 c #f3f7fa",
"H0 c #eef3f7",
"I0 c #bdd5e7",
"J0 c #fafcfc",
"K0 c #d6e5f0",
"L0 c #a0c4e1",
"M0 c #f8fafb",
"N0 c #eff4f6",
"O0 c #feffff",
"P0 c #aac9de",
"Q0 c #deeaf2",
"R0 c #ebf1f4",
"S0 c #bdd5e5",
"T0 c #f6f9f9",
"U0 c #d5e4f0",
"V0 c #f2f7f7",
"W0 c #fffefe",
"X0 c #d3e3ef",
"Y0 c #e0ebf2",
"Z0 c #b9d1e1",
"a0 c #fbfdfb",
"b0 c #fcfdfc",
"c0 c #9bc1dd",
"d0 c #3fa1e7",
"e0 c #f1f6f7",
"f0 c #f4f8f9",
"g0 c #6eaddb",
"h0 c #3ba1ea",
"i0 c #f3f6f8",
"j0 c #6eadda",
"k0 c #edf3f6",
"l0 c #fbfcfc",
"m0 c #97bedb",
"n0 c #fdfdfc",
"o0 c #fefefd",
"p0 c #97c1de",
"q0 c #f0f5f7",
"r0 c #eff3f6",
"s0 c #43a1e4",
"t0 c #f9fafb",
"u0 c #fefeff",
"v0 c #b0cce0",
"w0 c #f9fbfb",
"x0 c #fefefe",
"y0 c #e9f0f3",
"z0 c #e5edf0",
"01 c #e4ecf1",
"11 c #e8f0f3",
"21 c #fefffe",
"31 c #fffffe",
"41 c #b3cfe5",
"51 c #bbd2e1",
"61 c #e5eef2",
"71 c #cedeea",
"81 c #fafbfc",
"91 c #f2f6f7",
":1 c #8abbde",
";1 c #d1e1eb",
"A1 c #3da1e9",
"B1 c #4ea3e0",
"C1 c #fefffd",
"D1 c #fbfdfc",
"E1 c #3ba2ec",
"F1 c #49a1e0",
"G1 c #fdfdfd",
"H1 c #ffffff",
"I1 c #f7fafa",
"J1 c #3aa2ed",
"K1 c #3ca1ea",
"L1 c #3aa3ef",
"M1 c #3aa4f0",
"N1 c #000000",
"        N1N1N1N1N1N1N1N1N1N1N1N1N1N1N1N1N1N1N1N1N1N1N1N1        ",
"    N1N1M1M1M1M1M1M1M1M1M1M1M1M1M1M1M1M1M1M1M1M1M1M1M1M1N1N1    ",
"  N1M1M1M1M1M1M1M1M1M1M1M1M1L1N1N1N1N1N1K1M1M1M1M1M1M1M1M1M1N1  ",
"  N1M1M1M1M1M1M1M1M1M1M1M1J1N1I1H1H1H1G1N1F1M1M1M1M1M1M1M1M1N1  ",
"N1M1M1M1M1M1M1M1M1M1M1M1E1N1D1C1H1H1H1H1C1N1B1M1M1M1M1M1M1M1M1N1",
"N1M1M1M1M1M1M1L1N1N1M1L1N1G1H1H1H1H1H1H1H1H1N1A1M1M1M1M1M1M1M1N1",
"N1M1M1M1M1N1N1N1;1:1N1N191C1H1H1H1H1H1H1H1H181N1M1M1M1M1M1M1M1N1",
"N1M1M1M1N17161N15141N1N13121H1H1H1H1H1H1H1H131N1M1M1M1M1M1M1M1N1",
"N1M1M1M1M1N11101z0y0N1N1x0H1H1H1H1H1H1H1H1H1w0N1L1M1M1M1M1M1M1N1",
"N1M1M1M1M1N1v03121u0N1N1x0H1H1H1H1H1H1H1H1H1t0N1s0M1M1M1M1M1M1N1",
"N1M1M1M1M1N1r021H1H1H1H1H1H1H1H1H1H1H1H1H1H1H1x0N1M1M1M1M1M1M1N1",
"N1M1M1M1M1N1q0C1H131H1H1H1H1H1H1H1H1H1H1H1H1H1G1N1M1M1M1M1M1M1N1",
"N1M1M1M1M1N1p0I1o0x0H1H1H1H1H1H1H1H1H1H1H1H1n0N1A1M1M1M1M1M1M1N1",
"N1M1M1M1M1M1N1N1N1m0l0H1H1H1H1H1H1H1H1H1H1k0N1E1M1M1M1M1M1M1M1N1",
"N1M1M1M1M1M1M1M1M1N1j0i0H1H1H1H1H1H1H1H1C1N1h0M1M1M1M1M1M1M1M1N1",
"N1M1M1M1M1M1M1M1M1M1N1g0f0H1H1H1H1H1H1H121e0N1d0M1M1M1M1M1M1M1N1",
"N1M1M1M1M1M1M1M1M1M1M1N1c021H1H1H1H1H1H1H1H1b0N1E1M1M1M1M1M1M1N1",
"N1M1M1M1M1M1M1M1M1M1M1L1N121H1H1H1H1H1H1H1H1x0a0N1M1M1M1M1M1M1N1",
"N1M1M1M1M1M1M1M1M1M1M1N1Z0H1H1H1H1H1H1H1H1H121x0Y0N1M1M1M1M1M1N1",
"N1M1M1M1M1M1M1M1M1M1M1N1X0H1H1H1H1H1H1H1H1H1W0V0N1M1M1M1M1M1M1N1",
"N1M1M1M1M1M1M1M1M1M1M1N1U0H1H1H1H1H1H1H1H1H1T0N1M1M1M1M1M1M1M1N1",
"N1M1M1M1M1M1M1M1M1M1M1N1S031H1H1H1H1H1H1H1H1R0N1M1M1M1M1M1M1M1N1",
"N1M1M1M1M1M1M1M1M1M1M1L1N1C1H1H131H1H1H1H1H1Q0N1M1M1M1M1M1M1M1N1",
"N1M1M1M1M1M1M1M1M1M1M1N1P0O0H1H131N0M0H1H1H1L0N1M1M1M1M1M1M1M1N1",
"N1M1M1M1M1M1M1M1M1M1M1N1K0H1H1H1J0N1I0H1H1H0N1M1M1M1M1M1M1M1M1N1",
"N1M1M1M1M1M1M1M1M1M1M1N1G0H1H1H1F0N1E0H131D0N1M1M1M1M1M1M1M1M1N1",
"N1M1M1M1M1M1M1M1M1M1N1C0H1H1H1H1N1N1B0H1H1w0A0N1L1M1M1M1M1M1M1N1",
"N1M1M1M1M1M1M1M1M1N1;0a0H1H1H1H1N1N1i0H1H1H1u0f0N1M1M1M1M1M1M1N1",
"  N1M1M1M1M1M1M1M1N1:09031318070N1N1w060G1H15040N1M1M1M1M1M1N1  ",
"  N1M1M1M1M1M1M1M1N130201000N1N1A1E1N1N1N1N1N1N1M1M1M1M1M1M1N1  ",
"    N1N1M1M1M1M1M1M1N1N1N1N1M1M1M1M1M1M1M1M1M1M1M1M1M1M1N1N1    ",
"        N1N1N1N1N1N1N1N1N1N1N1N1N1N1N1N1N1N1N1N1N1N1N1N1        "};
