/* XPM */
static char *image[] = {
"32 32 3 1",
"  c None",
"0 c #000000",
"1 c #ffffff",
"                                ",
"       100010010001001001       ",
"      10111111111111111110      ",
"     0111111111111111111110     ",
"    011111111101111101101100    ",
"    011111101111110111111110    ",
"    110101111101111110110110    ",
"    011100000010000010010110    ",
"    011011111111111101101110    ",
"    011011111010101110110110    ",
"    011011010101000101101010    ",
"    111011111010111110101110    ",
"    011010101111110101100110    ",
"    011011110101011110110110    ",
"    011011011111101010101010    ",
"    011100100000010010101110    ",
"    110111111111111110110110    ",
"    011101010110101011011010    ",
"    011010101001010100100110    ",
"    011011111111101111011010    ",
"    011011010101110101101110    ",
"    111011111010001011010010    ",
"    010101011011110110110111    ",
"    011011101101111101101010    ",
"    011011111011010110110110    ",
"    011010101110111011010110    ",
"    111010101001000100101010    ",
"    010111010110111011010110    ",
"    011101111111111111111010    ",
"     0010000000000000000010     ",
"                                ",
"                                "};
