/* XPM */
static char *image[] = {
"64 64 3 1",
"  c None",
"0 c #ffffff",
"1 c #000000",
"                                                                ",
"                                                                ",
"                                                                ",
"                                                                ",
"                   1                        1                   ",
"                   1                        1                   ",
"                   1                       1                    ",
"                    1  1                   1                    ",
"                    1  1               1   1                    ",
"                    1                                           ",
"                     1                    1                     ",
"                    111     1            11                     ",
"                    111    1111111111    11                     ",
"                    11    11011111011    111                    ",
"                    10   0111011111110    10                    ",
"                    1   0000111111101010  11                    ",
"                    1  010111111111110001  1                    ",
"                    110100101011011111010101                    ",
"                    11010111010111111111011                     ",
"                     1111110100111111111111                     ",
"                     1111111001011101111111                     ",
"                     1111101111111111111111                     ",
"                     1101111101101111111101                     ",
"                   1101111010111110101011111                    ",
"                 11111101010100101001110101011                  ",
"                 111010111101011111010111101111                 ",
"                11101110101101111011010101110101                ",
"               111011011101011101111101110101111                ",
"             11111111101010101111110110101110111111             ",
"           11   1010111110001111011101011011101   111           ",
"          11    1111101010100011110110101110110    111          ",
"         1      01111110101010110110101101111111     11         ",
"                11101011101010101010101011110101                ",
"                10111110110101110101011101011110                ",
"                11111011010110101010101011111011                ",
"                10111101111010111011011101011110                ",
"                11010111101111010101111111110101                ",
"                01101111111101111011111011011110                ",
"                10111110111111010111111111101011                ",
"                10101011111111111111111111011010                ",
"                10111111111101010111111111110101                ",
"                11010111111111111011110110111011                ",
"                10111111111110110111111111101010                ",
"                1010101110110111110111111011011                 ",
"                1101110111011101011101101111101                 ",
"               111111110111101111011110111010111                ",
"               110101011101011011101011101111011                ",
"               1 11111111111111101111101111101111               ",
"              11  1011110101010111010111111111 11               ",
"              11   11111111111110111111111110  11               ",
"              11   11111111011111110110111111  101              ",
"              11    111111111101111111111101   111              ",
"              11    111110111111111101111111   11               ",
"              11     1011110111110111111111    11               ",
"             111      11111111011111110110     111              ",
"             11        111110111111011111       101             ",
"           111          1011111110111111          11            ",
"                         11111101111111                         ",
"                          11011111111                           ",
"                             111111                             ",
"                                                                ",
"                                                                ",
"                                                                ",
"                                                                "};
