/* XPM */
static char *image[] = {
"48 48 758 2",
"   c None",
"00 c #585856",
"10 c #5e5e5c",
"20 c #565654",
"30 c #4f4f4c",
"40 c #4c4c49",
"50 c #444441",
"60 c #4a4a48",
"70 c #323331",
"80 c #363b34",
"90 c #3d3d3a",
":0 c #53514a",
";0 c #545450",
"A0 c #575754",
"B0 c #595957",
"C0 c #5f5f5b",
"D0 c #62625e",
"E0 c #646460",
"F0 c #686864",
"G0 c #737370",
"H0 c #696965",
"I0 c #585855",
"J0 c #246423",
"K0 c #07bd07",
"L0 c #375235",
"M0 c #484846",
"N0 c #585145",
"O0 c #c07b09",
"P0 c #826637",
"Q0 c #6a6a66",
"R0 c #6e6e6a",
"S0 c #747470",
"T0 c #70706d",
"U0 c #6e6e6b",
"V0 c #545451",
"W0 c #30422f",
"X0 c #247623",
"Y0 c #3d453b",
"Z0 c #504f4b",
"a0 c #645c4d",
"b0 c #666662",
"c0 c #6d6d69",
"d0 c #757571",
"e0 c #787874",
"f0 c #777774",
"g0 c #70706c",
"h0 c #6d6d6a",
"i0 c #5b5b58",
"j0 c #030303",
"k0 c #010101",
"l0 c #4b4b48",
"m0 c #50504d",
"n0 c #4e4e4c",
"o0 c #646464",
"p0 c #6c6c68",
"q0 c #767672",
"r0 c #777773",
"s0 c #797974",
"t0 c #7a7a75",
"u0 c #797976",
"v0 c #797975",
"w0 c #6f6f6b",
"x0 c #6b6a67",
"y0 c #6b6b68",
"z0 c #666663",
"01 c #5b5b59",
"11 c #040404",
"21 c #3a3a39",
"31 c #51514f",
"41 c #605f5e",
"51 c #626161",
"61 c #666665",
"71 c #737374",
"81 c #525151",
"91 c #6d6c6c",
":1 c #6d6c6b",
";1 c #6c6b6b",
"A1 c #6b6a6a",
"B1 c #6a6969",
"C1 c #686867",
"D1 c #636363",
"E1 c #5f5f5f",
"F1 c #5c5b5c",
"G1 c #595959",
"H1 c #5b5a5a",
"I1 c #525252",
"J1 c #494849",
"K1 c #3e3d3e",
"L1 c #393839",
"M1 c #242325",
"N1 c #171919",
"O1 c #575958",
"P1 c #62625f",
"Q1 c #545452",
"R1 c #060605",
"S1 c #000000",
"T1 c #494848",
"U1 c #515053",
"V1 c #5e5d5e",
"W1 c #636365",
"X1 c #565359",
"Y1 c #707071",
"Z1 c #767676",
"a1 c #252525",
"b1 c #232222",
"c1 c #242424",
"d1 c #1c1b1c",
"e1 c #5e5e5a",
"f1 c #71716d",
"g1 c #525250",
"h1 c #020202",
"i1 c #414240",
"j1 c #3a3d35",
"k1 c #3f4237",
"l1 c #4a473e",
"m1 c #696968",
"n1 c #60605f",
"o1 c #2f2d2d",
"p1 c #2e2e2f",
"q1 c #2a292a",
"r1 c #131212",
"s1 c #646461",
"t1 c #72726e",
"u1 c #676764",
"v1 c #50504e",
"w1 c #090909",
"x1 c #3f403d",
"y1 c #373936",
"z1 c #3b3e3b",
"02 c #414440",
"12 c #464845",
"22 c #363637",
"32 c #373636",
"42 c #90908e",
"52 c #898988",
"62 c #414141",
"72 c #262627",
"82 c #1f1f1f",
"92 c #1c1b1b",
":2 c #73736f",
";2 c #676763",
"A2 c #60605d",
"B2 c #4d4d4b",
"C2 c #0a0a09",
"D2 c #2d2d2d",
"E2 c #302e2e",
"F2 c #696969",
"G2 c #232323",
"H2 c #262626",
"I2 c #313132",
"J2 c #212122",
"K2 c #3e3e3e",
"L2 c #3a3939",
"M2 c #1f1e1f",
"N2 c #353536",
"O2 c #71716e",
"P2 c #656562",
"Q2 c #3d3d3b",
"R2 c #363636",
"S2 c #434342",
"T2 c #747272",
"U2 c #7b7b7c",
"V2 c #595958",
"W2 c #292929",
"X2 c #212121",
"Y2 c #2f2f2f",
"Z2 c #252526",
"a2 c #4e4d4e",
"b2 c #434243",
"c2 c #4c4c4c",
"d2 c #202020",
"e2 c #747471",
"f2 c #6f6f6c",
"g2 c #5c5c59",
"h2 c #535350",
"i2 c #464644",
"j2 c #2e2e2e",
"k2 c #313131",
"l2 c #3f3f3f",
"m2 c #474748",
"n2 c #3f3e3f",
"o2 c #323232",
"p2 c #2c2c2c",
"q2 c #303030",
"r2 c #6c6c6c",
"s2 c #3b3a3a",
"t2 c #313031",
"u2 c #303031",
"v2 c #555455",
"w2 c #57504b",
"x2 c #3c3b3c",
"y2 c #5b5a5b",
"z2 c #484748",
"03 c #272627",
"13 c #222223",
"23 c #1b1a1b",
"33 c #121212",
"43 c #222322",
"53 c #6c6c69",
"63 c #61615e",
"73 c #595956",
"83 c #4f4f4d",
"93 c #424240",
":3 c #2d2d2c",
";3 c #373737",
"A3 c #383738",
"B3 c #3d3d3d",
"C3 c #3a3a3a",
"D3 c #3d3d3e",
"E3 c #3e3d3d",
"F3 c #3b3b3b",
"G3 c #323333",
"H3 c #343435",
"I3 c #555557",
"J3 c #7e7e7c",
"K3 c #606060",
"L3 c #272727",
"M3 c #404040",
"N3 c #413c3b",
"O3 c #403f40",
"P3 c #434343",
"Q3 c #343132",
"R3 c #262526",
"S3 c #222122",
"T3 c #1c1c1d",
"U3 c #1a1a1b",
"V3 c #2b2d2c",
"W3 c #686865",
"X3 c #5d5d5a",
"Y3 c #4b4b49",
"Z3 c #1d1d1d",
"a3 c #3e3e40",
"b3 c #404043",
"c3 c #404144",
"d3 c #3f4045",
"e3 c #3a3e42",
"f3 c #383a3f",
"g3 c #38393f",
"h3 c #383a41",
"i3 c #363940",
"j3 c #333f45",
"k3 c #303b42",
"l3 c #2b363d",
"m3 c #273238",
"n3 c #6a6a70",
"o3 c #6e6e70",
"p3 c #2a2a2a",
"q3 c #242425",
"r3 c #414142",
"s3 c #424142",
"t3 c #484749",
"u3 c #111111",
"v3 c #2d2e2d",
"w3 c #7e7e7a",
"x3 c #636360",
"y3 c #474744",
"z3 c #3f3e3d",
"04 c #36373f",
"14 c #3a4a50",
"24 c #3b4c52",
"34 c #39434b",
"44 c #383e47",
"54 c #363941",
"64 c #383f46",
"74 c #394149",
"84 c #424a51",
"94 c #40484e",
":4 c #3f444b",
";4 c #3b3f46",
"A4 c #3d4047",
"B4 c #333439",
"C4 c #727171",
"D4 c #8f8f8e",
"E4 c #7a7a7a",
"F4 c #49494a",
"G4 c #424243",
"H4 c #717072",
"I4 c #717172",
"J4 c #737274",
"K4 c #5c5a5c",
"L4 c #333433",
"M4 c #7c7c79",
"N4 c #5e5e5b",
"O4 c #393b40",
"P4 c #393c43",
"Q4 c #3a3d45",
"R4 c #393d45",
"S4 c #383b43",
"T4 c #383c44",
"U4 c #41444c",
"V4 c #464950",
"W4 c #45484f",
"X4 c #43464d",
"Y4 c #40434b",
"Z4 c #383b42",
"a4 c #7b7b7b",
"b4 c #868382",
"c4 c #989899",
"d4 c #aaaaaa",
"e4 c #a6a6a6",
"f4 c #6e6e6e",
"g4 c #787875",
"h4 c #5a5a57",
"i4 c #52524f",
"j4 c #4a4a47",
"k4 c #3b3d43",
"l4 c #3b3e47",
"m4 c #3c4048",
"n4 c #3d414a",
"o4 c #3b3f48",
"p4 c #42454d",
"q4 c #40444c",
"r4 c #494c54",
"s4 c #484c54",
"t4 c #43474f",
"u4 c #454850",
"v4 c #3f434b",
"w4 c #3d4149",
"x4 c #484849",
"y4 c #3a3938",
"z4 c #828284",
"05 c #7f7f7e",
"15 c #7b7b7a",
"25 c #403f3e",
"35 c #959595",
"45 c #5c5c5c",
"55 c #72726f",
"65 c #555552",
"75 c #232321",
"85 c #3d3f46",
"95 c #3e424b",
":5 c #40444e",
";5 c #444a53",
"A5 c #4b4f57",
"B5 c #454f58",
"C5 c #465058",
"D5 c #434f57",
"E5 c #3f4c55",
"F5 c #414b55",
"G5 c #484c55",
"H5 c #3b3f47",
"I5 c #3c3c3c",
"J5 c #c6c6c6",
"K5 c #c9c9c9",
"L5 c #c5c5c5",
"M5 c #646462",
"N5 c #999998",
"O5 c #828282",
"P5 c #7e7e7e",
"Q5 c #6d6d6c",
"R5 c #3d3d3c",
"S5 c #696966",
"T5 c #51514e",
"U5 c #494947",
"V5 c #383837",
"W5 c #3e4248",
"X5 c #414650",
"Y5 c #434853",
"Z5 c #4a505a",
"a5 c #474b54",
"b5 c #4a4f58",
"c5 c #494d56",
"d5 c #454a53",
"e5 c #4a4d57",
"f5 c #454953",
"g5 c #3e434b",
"h5 c #383838",
"i5 c #c3c3c3",
"j5 c #c1c1c1",
"k5 c #b7b7b7",
"l5 c #8e8e8f",
"m5 c #5d5d5c",
"n5 c #848484",
"o5 c #868684",
"p5 c #959594",
"q5 c #4c4648",
"r5 c #444442",
"s5 c #5f5f5c",
"t5 c #4c4c4a",
"u5 c #454542",
"v5 c #40444b",
"w5 c #444a55",
"x5 c #464c58",
"y5 c #474e5a",
"z5 c #494e57",
"06 c #4c525b",
"16 c #4c505a",
"26 c #4d525b",
"36 c #4b5059",
"46 c #474b55",
"56 c #40444d",
"66 c #393939",
"76 c #8b8a8b",
"86 c #888789",
"96 c #848284",
":6 c #767373",
";6 c #8a8a88",
"A6 c #858584",
"B6 c #898989",
"C6 c #413f40",
"D6 c #110e0e",
"E6 c #0f0c0c",
"F6 c #0d0a0a",
"G6 c #444341",
"H6 c #565653",
"I6 c #484845",
"J6 c #43464c",
"K6 c #474d58",
"L6 c #4b515c",
"M6 c #525763",
"N6 c #505662",
"O6 c #515660",
"P6 c #535863",
"Q6 c #494f59",
"R6 c #4c515b",
"S6 c #414651",
"T6 c #3e424c",
"U6 c #404041",
"V6 c #807f81",
"W6 c #828183",
"X6 c #868686",
"Y6 c #7d7d7c",
"Z6 c #8c8c8c",
"a6 c #807f80",
"b6 c #57504e",
"c6 c #0d0707",
"d6 c #0b0606",
"e6 c #42413f",
"f6 c #4e4e4b",
"g6 c #434341",
"h6 c #262624",
"i6 c #44474d",
"j6 c #4a505b",
"k6 c #4c535e",
"l6 c #4e5561",
"m6 c #4f5663",
"n6 c #585f69",
"o6 c #555b67",
"p6 c #525863",
"q6 c #50545e",
"r6 c #535761",
"s6 c #4f545e",
"t6 c #484d57",
"u6 c #41454d",
"v6 c #4a494a",
"w6 c #848384",
"x6 c #818082",
"y6 c #828082",
"z6 c #868486",
"07 c #838284",
"17 c #656565",
"27 c #808080",
"37 c #949494",
"47 c #32262b",
"57 c #110909",
"67 c #100807",
"77 c #0f0808",
"87 c #474745",
"97 c #3e3e3c",
":7 c #45484c",
";7 c #525761",
"A7 c #555a64",
"B7 c #575c67",
"C7 c #555b66",
"D7 c #575d68",
"E7 c #585d67",
"F7 c #595d68",
"G7 c #51555c",
"H7 c #4f535a",
"I7 c #4f5358",
"J7 c #515459",
"K7 c #474a4f",
"L7 c #434549",
"M7 c #464546",
"N7 c #868587",
"O7 c #848385",
"P7 c #858486",
"Q7 c #8c8b8d",
"R7 c #6c6b6c",
"S7 c #6a6a68",
"T7 c #939394",
"U7 c #908f8e",
"V7 c #7d707b",
"W7 c #2f2a2a",
"X7 c #0f0909",
"Y7 c #0e0909",
"Z7 c #0d0a0d",
"a7 c #41413f",
"b7 c #313130",
"c7 c #47484c",
"d7 c #5b5d65",
"e7 c #62646d",
"f7 c #5c5e66",
"g7 c #60636c",
"h7 c #61646e",
"i7 c #60616a",
"j7 c #54565d",
"k7 c #484b4e",
"l7 c #515357",
"m7 c #545559",
"n7 c #45474a",
"o7 c #424345",
"p7 c #4d4d4e",
"q7 c #939294",
"r7 c #9b9a9c",
"s7 c #6c6c6d",
"t7 c #8e8e8e",
"u7 c #949492",
"v7 c #989898",
"w7 c #757474",
"x7 c #787778",
"y7 c #2b2222",
"z7 c #0e090b",
"08 c #0c070d",
"18 c #0e0a10",
"28 c #252523",
"38 c #47474a",
"48 c #5f5f66",
"58 c #67666d",
"68 c #67676e",
"78 c #717078",
"88 c #74737b",
"98 c #716f77",
":8 c #737179",
";8 c #636369",
"A8 c #616167",
"B8 c #5e5f64",
"C8 c #494c50",
"D8 c #454549",
"E8 c #525253",
"F8 c #565657",
"G8 c #666566",
"H8 c #696867",
"I8 c #423f3e",
"J8 c #8a8a8c",
"K8 c #9e9e9e",
"L8 c #9e9292",
"M8 c #3f2227",
"N8 c #271113",
"O8 c #140b0c",
"P8 c #0c070a",
"Q8 c #0d0a10",
"R8 c #282826",
"S8 c #3c3c3a",
"T8 c #464648",
"U8 c #626167",
"V8 c #6a696f",
"W8 c #6c6b72",
"X8 c #76747d",
"Y8 c #7a7980",
"Z8 c #74757e",
"a8 c #6b6d75",
"b8 c #5d686f",
"c8 c #576067",
"d8 c #545a5e",
"e8 c #55575a",
"f8 c #4e4e4e",
"g8 c #626262",
"h8 c #797978",
"i8 c #9c9b9c",
"j8 c #403e3e",
"k8 c #271f1f",
"l8 c #231b1b",
"m8 c #8a8a8a",
"n8 c #b3b3b4",
"o8 c #4a2d32",
"p8 c #3f191c",
"q8 c #261010",
"r8 c #140b16",
"s8 c #0a0717",
"t8 c #0d0b15",
"u8 c #3f3f3d",
"v8 c #464547",
"w8 c #68676e",
"x8 c #6c7076",
"y8 c #6b6d74",
"z8 c #6d6b72",
"09 c #6f6f76",
"19 c #6c6f77",
"29 c #68707b",
"39 c #646c76",
"49 c #5d666d",
"59 c #5a6166",
"69 c #5b5d61",
"79 c #545458",
"89 c #3c3d3c",
"99 c #88888a",
":9 c #9c9c9a",
";9 c #636262",
"A9 c #35302f",
"B9 c #322220",
"C9 c #524f4e",
"D9 c #aeadac",
"E9 c #999796",
"F9 c #381f1d",
"G9 c #2e1814",
"H9 c #231012",
"I9 c #1a0f12",
"J9 c #121113",
"K9 c #141516",
"L9 c #0c0c0b",
"M9 c #41413e",
"N9 c #1c1c1c",
"O9 c #414041",
"P9 c #636065",
"Q9 c #5c5c60",
"R9 c #575c5f",
"S9 c #5a5a5f",
"T9 c #63646a",
"U9 c #686a72",
"V9 c #6a6b73",
"W9 c #696b72",
"X9 c #516166",
"Y9 c #505b5f",
"Z9 c #58595c",
"a9 c #515154",
"b9 c #989896",
"c9 c #888888",
"d9 c #2b2b2b",
"e9 c #2e2827",
"f9 c #30211d",
"g9 c #acacac",
"h9 c #c4c4c4",
"i9 c #403b39",
"j9 c #282320",
"k9 c #292725",
"l9 c #40403e",
"m9 c #383839",
"n9 c #59565b",
"o9 c #5c5a5e",
"p9 c #57585b",
"q9 c #595e62",
"r9 c #67686d",
"s9 c #696d73",
"t9 c #616970",
"u9 c #566269",
"v9 c #4f5a60",
"w9 c #4b5458",
"x9 c #494e51",
"y9 c #474649",
"z9 c #333233",
"0: c #9d9c9c",
"1: c #9d9d9a",
"2: c #636362",
"3: c #30302e",
"4: c #b7b7b6",
"5: c #706f6d",
"6: c #272725",
"7: c #050505",
"8: c #3c3c3b",
"9: c #141414",
":: c #333333",
";: c #545155",
"A: c #535558",
"B: c #4c4f52",
"C: c #4c4d50",
"D: c #4c4c50",
"E: c #424347",
"F: c #36373b",
"G: c #303133",
"H: c #2a2a2c",
"I: c #282828",
"J: c #292928",
"K: c #2b2b2a",
"L: c #565453",
"M: c #6d6967",
"N: c #bdbdbc",
"O: c #959592",
"P: c #818180",
"Q: c #ebebea",
"R: c #454543",
"S: c #3b3b39",
"T: c #21211f",
"U: c #161615",
"V: c #1c1c1b",
"W: c #2c2b2d",
"X: c #252425",
"Y: c #1e1e1e",
"Z: c #353533",
"a: c #3a3a38",
"b: c #393937",
"c: c #686662",
"d: c #a5a3a2",
"e: c #e1e1e0",
"f: c #fbfbfa",
"g: c #363634",
"h: c #1a1a18",
"i: c #131312",
"j: c #070706",
"k: c #040403",
"l: c #1a1a1a",
"m: c #343433",
"n: c #363635",
"o: c #373736",
"p: c #383836",
"q: c #373735",
"r: c #353534",
"s: c #7c747a",
"t: c #222221",
"u: c #191918",
"v: c #101010",
"w: c #2a2a28",
"x: c #151514",
"y: c #171717",
"z: c #1a1a19",
"0; c #20201f",
"1; c #232322",
"2; c #292927",
"3; c #2b2b29",
"4; c #2d2d2b",
"5; c #31312f",
"6; c #333332",
"7; c #343432",
"8; c #333331",
"9; c #323230",
":; c #30302f",
";; c #272726",
"A; c #2f2f2e",
"B; c #0d0d0c",
"C; c #0f0f0f",
"D; c #121211",
"E; c #151515",
"F; c #1b1b1a",
"G; c #212120",
"H; c #282827",
"I; c #2c2c2b",
"J; c #2e2e2c",
"K; c #2e2e2d",
"L; c #2f2f2d",
"M; c #2c2c2a",
"N; c #262625",
"O; c #2a2a29",
"P; c #0a0a0a",
"Q; c #0d0d0d",
"R; c #10100f",
"S; c #131313",
"T; c #161616",
"U; c #191919",
"V; c #1d1d1c",
"W; c #1f1f1e",
"X; c #222220",
"Y; c #242422",
"Z; c #252524",
"a; c #242423",
"b; c #1e1e1d",
"c; c #181817",
"d; c #1b1b1b",
"e; c #0e0e0d",
"f; c #080808",
"g; c #0b0b0b",
"h; c #0e0e0e",
"i; c #111110",
"j; c #171716",
"k; c #141413",
"l; c #0f0f0e",
"m; c #0c0c0c",
"n; c #060606",
"o; c #070707",
"                                                                                                ",
"                                                                                                ",
"                                                                                                ",
"                                                                                                ",
"                                                                            o;o;n;m;            ",
"                                                                l;k;j;j;k;i;h;g;f;e;d;          ",
"                                                      c;b;a;Z;Y;X;W;V;U;T;S;R;Q;P;Q;O;          ",
"                                          d;Y;N;M;L;K;J;I;O;H;N;Y;G;b;F;c;E;D;C;m;B;A;b;        ",
"                                F;;;J;:;9;8;8;7;6;8;9;5;L;4;3;2;N;1;0;V;z:y:x:D;h;Q;A;w:        ",
"                    v:u:t:2;I;A;9;s:r:q:q:p:p:o:n:r:m:8;5;L;M;H;a;W;l:x:u:z:j;k;i;e;J;L;        ",
"        k:j:m;i:h:W;Y;H;I;:;8;g:p:f:e:d:c:b:a:b:q:Z:9;K;O;Z;0;V;d;Y:X:W:Z;V:u:U:i:C;O;b:        ",
"        P;R;x:F;T:N;3;A;6;g:b:S:R:Q:P:O:N:M:L:A;K:J:I:H:G:F:E:D:C:B:A:;:::W;F;c;9:i;N;8:        ",
"      7:h;9:l:G;6:I;5;m:q:b:a:b:5:4:3:M;2:1:0:z9y9x9w9v9u9t9s9r9q9p9o9n9m9G;b;z:U:i:G;l9        ",
"      f;i:u:0;6:O;M;I;I;O;k9j9i9h9g9f9e9d9c9b9a9Z9Y9X9W9V9V9U9T9S9R9Q9P9O9a;0;V:c;k;N9M9        ",
"      L9j;b;Z;M;K:K9J9I9H9G9F9E9D9C9B9A9;9:999897969594939291909z8y8x8w8v8;;t:b;z:U:u:u8        ",
"      R;F;1;O;5;5;t8s8r8q8p8o8n8m8l8k8j8i8h8g8f8e8d8c8b8a8Z8Y8X8z8W8V8U8T8J:a;0;V:y:T;S8        ",
"      U:0;R8A;n:Z:Q8P8O8N8M8L8K8J8I8H8h8G8F8E8D8C8B8A8;8:89888786858684838M;6:t:b;u:U:q:        ",
"      V:284;Z:S8b:1808z7y7x7w7v7u7t7s7t7r7q7p7o7n7m7l7k7j7i7h7g7f7i7e7d7c7K;2;a;W;z:x:9;W;      ",
"      G;w:b7b:a7S8Z7Y7X7W7V7U7T7S7R7Q7P7O7N7M7L7K7J7I7H7G7F7E7D7C7B7A7;7:7b73;N;G;V:U:J;1;      ",
"      Z;K;n:9787u87767574737v7271707z6y6x6w6v6u6t6s6r6q6p6o6n6D7m6l6k6j6i68;4;H;1;V;j;H;h6      ",
"      O;8;S:g6f6e6d6c6X7b6a6Z6Y6X6W6N7V6x6y6U6T6S6s6R6Q6s6P6A7O6N6M6L6K6J6Z:A;w:a;W;c;1;4;      ",
"      K;p:l9I6H6G6F6E6D6C6B6c9A6;6:696P7867666564636261626s606z5y5y5x5w5v5q:5;K:N;0;u:W;8;      ",
"    9:8;S8u5t5s5r5g;Q;h;q5p5o5n5f8m5l5k5j5i5h5g5f5t6e5d5c5b5b5a5Z5Q6Y5X5W5V58;4;6:G;F;F;L;      ",
"    u:q:M9U5T5S5g6g;Q;h;R5Q527P5O5N5M5L5K5J5I5H5G5F5E5D5C5B5A5f5;5X5:59585a:7;J;H;75V;j;:;      ",
"    t:S:R:f66555l9g;m;h;4535r:251505z4y4L5h9x4w4v4u4t4s4r4q4p4o4n4n4m4l4k4S8r:A;J:Y;b;k;J;      ",
"    I;u8j4i4h4g4a:g;m;h;f4e4d4t7c4Y605n5b4a466Z4Y4v5X4W4V4U4T4S4R4Q4P4Z4O4R5q:5;O;28W;D;2;      ",
"    b7g6f6H6N4M4L4g;Q;S;K4J4I4H4G4F4E405P:D4C4B4A4;4:494847464544434241404z3o:9;K:Z;W;v:1;      ",
"    a:y3i4h4x3w3v3g;m;u3O9t3s3s3r3q3p3o3P505P:n3m3l3k3j3i3h3g3f3e3d3c3b3a3l9b:8;M;h60;R;Z3      ",
"    97Y3H6X3W3M4V3U3T3S3R3Q3P3O3N3M3L3u:;;K3J3X6I3H3G3F3E3D3C36666B3A366;3u8S:m::3N;G;R;c;      ",
"    9383736353g44333231303z2y2x2w2v2u2t2A3s22705r2q2p2o2n2m2M7l2U6s3k2q2j2R58:g:A;H;75i;S;      ",
"    i2h2g2x3f2e2d2v:h;33N9U6c2;3b2a2Z2Y2X2W2V215J3U2T2S2p2j2k2::R2C3Y2j2p2Q297o:5;w:Y;D;h;g;    ",
"    U5H6N4P2O2f2U:Q;h;h;u3N2t2M2L2K2J2I2H2G2V:O;T8h805c9F2E2D2j2Y2q2j2p2d9S8u8b:9;K:Z;k;C2g;    ",
"  W;B273A2;2:2S5C;g;g;Q;h;9282Z3o2Y2H2d972W2W2W2p36252J3O54232p2221202z1y1x1l9a:8;I;N;T;7:w1    ",
"  H;v1h463u1t1s1Q;P;g;m;h;C;u3r1d;p2q2q1q3H2L3L3L3H2p1o1n1J3m1I2m9l189k1j1i1l9a:7;4;;;u:h1f;    ",
"  L;g1g263u1f1e1g;P;g;m;Q;C;v:S;d1W2q2I:c1b1G2G2c1c1a1H2X283Z137Y1X1W1V1U1T1l9S:7;J;R8d;S1R1    ",
"  b:Q1g2P1u1f2O1N1M1l:N9d9L1K1P3J1I1H1G1F1E1D1;9C1B1A1;1:191V28171E461514131a721m:L;2;b;S111    ",
"  u8Q10163z053y0x05:53w0e2v0g4u0u0t0v0s0r0q0q0e2:2f1w0p0S5z0x3T5V2o0n0m0l0R:l921Z:L;2;0;k0j0    ",
"  j465i0A2P2S5h0g0:2e2r0f0e0v0v0e0e0e0e0r0q0d0:2f1g0c0y0W3b0P1N4i0a005Z0U5u5Y0X0W0L;J:G;h1h1    ",
"  j4V0h4s5s1u1y0U0T0:2e2d0q0q0q0r0q0q0q0d0S055t1g0R0p0Q0u1s163X3h4P0O0N0M0g6L0K0J0K;2;7511h1    ",
"  Y3h2I0X363P2H0p0h0f2f1t1:2:2G0G0:2t1f1g0R0c0p0Q0F0z0E0D0C0g2B0A0;0:0l0i2939080704;H;1;7:h1    ",
"                          1;a;N;H;6:N;N;Z;2;w:R8N;N;;;J:3;O;J:X;;;h6Z;1;G;0;W;V:                ",
"                    p:Q2u8Q2V57;:;K;4;:3J;L;8;5;3:L;L;3:5;8;7;g:V5a:Q2a7R:60g68;A;              ",
"                    w:L;7;p:S8l950y3U54030T5i4g1Q12073g210s5X3i000H6V0g1i430973:G;              ",
"                                  h;v:i:9:k;k;i:S;9:S;3333i:S;k;k;k;i:33u3v:g;                  ",
"                                                                                                ",
"                                                                                                ",
"                                                                                                ",
"                                                                                                "};
