/* XPM */
static char *image[] = {
"22 22 216 2",
"   c None",
"00 c #3a68a4",
"10 c #3b69a6",
"20 c #3b6aa6",
"30 c #3a69a6",
"40 c #dbe4f0",
"50 c #dae4f0",
"60 c #6087b7",
"70 c #3866a0",
"80 c #d7e2ee",
"90 c #aec8e3",
":0 c #aec8e4",
";0 c #b0c9e4",
"A0 c #aec7e0",
"B0 c #adc6e0",
"C0 c #acc5df",
"D0 c #aac4df",
"E0 c #a9c3de",
"F0 c #a8c3de",
"G0 c #d1e0ef",
"H0 c #d7e1ee",
"I0 c #3565a4",
"J0 c #afc8e4",
"K0 c #b0cae5",
"L0 c #b3cce6",
"M0 c #b6cee7",
"N0 c #79899a",
"O0 c #788899",
"P0 c #778899",
"Q0 c #768798",
"R0 c #758698",
"S0 c #748598",
"T0 c #adc7e3",
"U0 c #3566a4",
"V0 c #b9d0e8",
"W0 c #b7cee7",
"X0 c #b4cce6",
"Y0 c #b1cae5",
"Z0 c #afc9e4",
"a0 c #b5cde6",
"b0 c #7e8c9b",
"c0 c #7d8b9a",
"d0 c #7c8a9a",
"e0 c #7b8a9a",
"f0 c #7a899a",
"g0 c #798899",
"h0 c #b2cbe5",
"i0 c #b8cfe7",
"j0 c #bad0e8",
"k0 c #c2d6eb",
"l0 c #c2d5ea",
"m0 c #c0d4ea",
"n0 c #bed3e9",
"o0 c #bcd2e9",
"p0 c #bbd1e8",
"q0 c #bfd4ea",
"r0 c #c3d6ea",
"s0 c #d2e0f0",
"t0 c #e2ebf5",
"u0 c #cdddee",
"v0 c #fbe9e9",
"w0 c #e9eff6",
"x0 c #f3f6fb",
"y0 c #fefafa",
"z0 c #fbecec",
"01 c #f8dada",
"11 c #f5cbcb",
"21 c #f5cece",
"31 c #fef8f8",
"41 c #fefbfb",
"51 c #f3c1c1",
"61 c #ecedf3",
"71 c #bcd1e8",
"81 c #fffdfd",
"91 c #f9e3e3",
":1 c #f2bdbd",
";1 c #d42828",
"A1 c #d11b1b",
"B1 c #db4a4a",
"C1 c #de5c5c",
"D1 c #dd5555",
"E1 c #d32323",
"F1 c #d52c2c",
"G1 c #e27070",
"H1 c #eb9999",
"I1 c #fdfbfb",
"J1 c #bdd2e9",
"K1 c #e99090",
"L1 c #e06464",
"M1 c #de5b5b",
"N1 c #e68282",
"O1 c #efb8b8",
"P1 c #efecf0",
"Q1 c #e3ecf6",
"R1 c #dee8f4",
"S1 c #ebf1f8",
"T1 c #ce0c0c",
"U1 c #d11717",
"V1 c #eea8a8",
"W1 c #c1d5ea",
"X1 c #eb9a9a",
"Y1 c #f3cfd0",
"Z1 c #ecf0f6",
"a1 c #e0e9f4",
"b1 c #d5e2f0",
"c1 c #d5e3f1",
"d1 c #e4edf6",
"e1 c #eb9d9d",
"f1 c #e47878",
"g1 c #f8dede",
"h1 c #cf1010",
"i1 c #cd0303",
"j1 c #f7d8d8",
"k1 c #d4e2f0",
"l1 c #f5e5e6",
"m1 c #d8e4f2",
"n1 c #e57b7b",
"o1 c #edf2f8",
"p1 c #fafbfd",
"q1 c #d52b2b",
"r1 c #cc0000",
"s1 c #f1b8b8",
"t1 c #d1e0f0",
"u1 c #c9daec",
"v1 c #d2e1f0",
"w1 c #e5edf6",
"x1 c #e47777",
"y1 c #df6060",
"z1 c #fbeaea",
"02 c #d32121",
"12 c #f4ecef",
"22 c #d7e4f2",
"32 c #e3ebf5",
"42 c #e78585",
"52 c #d93f3f",
"62 c #f5f3f6",
"72 c #e4ecf6",
"82 c #fcfdfe",
"92 c #e37171",
":2 c #cd0404",
";2 c #f3c6c6",
"A2 c #c9daed",
"B2 c #ccddee",
"C2 c #dbe6f3",
"D2 c #d32222",
"E2 c #fbeded",
"F2 c #f6f9fc",
"G2 c #fefefe",
"H2 c #eb9c9c",
"I2 c #cc0202",
"J2 c #e88e8e",
"K2 c #c5d7eb",
"L2 c #d4e2f1",
"M2 c #f5cfcf",
"N2 c #d01515",
"O2 c #ea9797",
"P2 c #fcf1f1",
"Q2 c #f1baba",
"R2 c #dd5353",
"S2 c #d52e2e",
"T2 c #f1c5c6",
"U2 c #e3ecf5",
"V2 c #ccdcee",
"W2 c #c8daed",
"X2 c #c4d7eb",
"Y2 c #ffffff",
"Z2 c #3465a4",
"a2 c #fdfefe",
"b2 c #cadaec",
"c2 c #f2f6fa",
"d2 c #eb9b9b",
"e2 c #d01414",
"f2 c #cf0e0e",
"g2 c #d73535",
"h2 c #e88c8c",
"i2 c #eff1f6",
"j2 c #d7e3f1",
"k2 c #cfdeef",
"l2 c #cbdcee",
"m2 c #c8d9ec",
"n2 c #c6d8eb",
"o2 c #fdfdfe",
"p2 c #3666a5",
"q2 c #3b6aa7",
"r2 c #d2deec",
"s2 c #e8eff7",
"t2 c #d2e0ef",
"u2 c #d4e1f0",
"v2 c #dae6f2",
"w2 c #f0f5fa",
"x2 c #f1c7c8",
"y2 c #f2dadc",
"z2 c #f2f5f9",
"03 c #ecf2f8",
"13 c #e4ecf5",
"23 c #d9e5f2",
"33 c #d6e3f1",
"43 c #d3e1f0",
"53 c #d0dfef",
"63 c #cfdfef",
"73 c #e7eef7",
"83 c #d1ddec",
"93 c #c9d7e8",
":3 c #f5f8fb",
";3 c #f8fafc",
"A3 c #f7fafc",
"B3 c #f7f9fc",
"C3 c #f5f7fb",
"D3 c #c8d6e7",
"E3 c #507ab0",
"F3 c #3a6aa7",
"G3 c #3868a6",
"H3 c #3868a5",
"I3 c #3768a5",
"J3 c #3969a6",
"K3 c #3a69a7",
"    K3J3I3I3H3G3G3G3G3G3G3G3G3H3I3J3F3      ",
"  E3D3C3B3B3A3;3;3;3;3;3;3;3;3A3B3:393E3    ",
"F3837363534333231303z2y2x2w2v233u2t2s2r2q2  ",
"p2o2n2m2l2k2j2i2h2g2f2f2e2d2c243k2l2b2a2p2  ",
"Z2Y2X2W2V2U2T2S2R2Q2P2O2N2M2s2L253V2W2Y2Z2  ",
"Z2Y2K2W2U2J2I2H2G2F2E2D2d2o2C2L253B2A2Y2Z2  ",
"Z2Y2X243;2:2928272625242a23222u253V2W2Y2Z2  ",
"Z2Y2n21202:2z113w2y1x1G2w12333v1k2l2u1Y2Z2  ",
"Z2Y2t1s1r1q1p1o1n192G2w1m133435353U2l1Y2Z2  ",
"Z2Y2k1j1i1h1g1f1e1G2d1c1L2b1a1Z1Y1X1h2Y2Z2  ",
"Z2Y2W1;3V1U1T1e1Y2S1R1Q1P1O1N1M1L1f1K1Y2Z2  ",
"Z2Y2J153I1H1G1F1E1D1C1B1A1;1D1J2:19181Y2Z2  ",
"Z2Y271615141a2Y231211101z0y0Y2G2x072u2Y2Z2  ",
"Z2Y2w0v0a2v2W1u0v2w1w1t0R123s0r0q0J1p0Y2Z2  ",
"Z2Y2n2:3A2o0n0m0W1l0k0k0l0W1m0n0o0j0i0Y2Z2  ",
"Z2Y2h0g0f0e0d0c0b0b0b0b0b0b0c0d0e0f0a0Y2Z2  ",
"Z2Y2Z0Y0X0a0W0i0V0j0j0j0j0V0i0W0a0X0Y0Y2Z2  ",
"U0G2T0S0R0Q0P0O0O0N0N0N0M0a0X0L0h0K0J0G2I0  ",
"F3H0G0F0E0D0C0B0A0A0A0A0h0h0Y0;0:090v18070  ",
"  6050o282828282828282828282828282o24060    ",
"    q230202020101010101010101020203000      ",
"                                            "};
