/* XPM */
static char *image[] = {
"24 24 29 1",
"  c None",
"0 c #060007",
"1 c #bcbcbc",
"2 c #7c7c7c",
"3 c #737373",
"4 c #b9b9b9",
"5 c #636363",
"6 c #6a6a6a",
"7 c #c6c6c6",
"8 c #818181",
"9 c #4d4d4d",
": c #3e3e3e",
"; c #959595",
"A c #d4d4d4",
"B c #a0a0a0",
"C c #c8c8c8",
"D c #acacac",
"E c #434343",
"F c #e4e4e4",
"G c #aeaeae",
"H c #fafafa",
"I c #f7f7f7",
"J c #fbfbfb",
"K c #f5f5f5",
"L c #4f4f4f",
"M c #eeeeee",
"N c #ffffff",
"O c #535353",
"P c #000000",
"                        ",
"                        ",
"                        ",
"                        ",
"                        ",
"   PPPPPPPPPPPPPPPPP    ",
"  PONNNNNNNNNNNNNNNOP   ",
"  PMLKJKJIJKJKJIHKLGP   ",
"  PNFEKKKKKKKKKKKLDCP   ",
"  PNKFLKKKKKKKKKEBACP   ",
"  PNJKFEKKKKKKKL;AFCP   ",
"  PNKKKF:KKKKK987FFCP   ",
"  PNJKKK6EKKKL6BFKFCP   ",
"  PNKKK544LKL;737KFCP   ",
"  PNJK57KFALD7FK2FFCP   ",
"  PNK3AKKKKFFKKKK2FCP   ",
"  PN2AFFFFFFFFFFFF2CP   ",
"  P31111111111111115P   ",
"   PPPPPPPPPPPPPPPPP0   ",
"                        ",
"                        ",
"                        ",
"                        ",
"                        "};
