/* XPM */
static char *image[] = {
"32 32 83 2",
"   c None",
"00 c #0d0101",
"10 c #230202",
"20 c #380202",
"30 c #1c0101",
"40 c #140101",
"50 c #690000",
"60 c #210101",
"70 c #020202",
"80 c #1b0302",
"90 c #840000",
":0 c #3c0000",
";0 c #070000",
"A0 c #0f0303",
"B0 c #8a0101",
"C0 c #400000",
"D0 c #080000",
"E0 c #060303",
"F0 c #860e0e",
"G0 c #360101",
"H0 c #020000",
"I0 c #080808",
"J0 c #541616",
"K0 c #270202",
"L0 c #110404",
"M0 c #a20000",
"N0 c #8a0000",
"O0 c #800000",
"P0 c #770000",
"Q0 c #6e0000",
"R0 c #650000",
"S0 c #0e0201",
"T0 c #0c0b0a",
"U0 c #310909",
"V0 c #a40000",
"W0 c #9c0000",
"X0 c #930000",
"Y0 c #760a0a",
"Z0 c #411b1b",
"a0 c #271818",
"b0 c #3f1313",
"c0 c #4e0505",
"d0 c #0c0505",
"e0 c #262726",
"f0 c #696868",
"g0 c #241c1c",
"h0 c #402a2a",
"i0 c #2a1f1f",
"j0 c #3d3939",
"k0 c #acacac",
"l0 c #ececec",
"m0 c #7e7c7c",
"n0 c #000000",
"o0 c #020402",
"p0 c #0d0f0d",
"q0 c #969796",
"r0 c #f8f8f8",
"s0 c #d7d7d7",
"t0 c #f2f2f2",
"u0 c #090a09",
"v0 c #171917",
"w0 c #828382",
"x0 c #121412",
"y0 c #e2e2e2",
"z0 c #141614",
"01 c #0a0c0a",
"11 c #6d6e6d",
"21 c #f4f4f4",
"31 c #fcfcfc",
"41 c #373837",
"51 c #0e0f0e",
"61 c #1a1d1a",
"71 c #b4b5b4",
"81 c #ffffff",
"91 c #6a6b6a",
":1 c #131513",
";1 c #141514",
"A1 c #494a49",
"B1 c #e5e5e5",
"C1 c #717271",
"D1 c #161716",
"E1 c #010301",
"F1 c #151615",
"                                                                ",
"                                                                ",
"                                                                ",
"                                    F1E1                        ",
"                                  D1C1B1A1;1                    ",
"                                :191818181716151                ",
"                                413181818181211101              ",
"                              z0y081818181818181z0              ",
"                            x0w081818181818181B1v0              ",
"                            u021818181t0s0r081q0p0              ",
"                          o0n0m0l0k0j0i0h0g0f0e0                ",
"                          d0c0b0a0Z0Y0X0W0V0U0T0                ",
"                          S0R0Q0P0O0N0X0W0M0L0                  ",
"                          K0R0Q0P0O0N0X0W0J0I0                  ",
"                        H0G0R0Q0P0O0N0X0F0E0                    ",
"                        D0C0R0Q0P0O0N0B0A0                      ",
"                        ;0:0R0Q0P0O0908070                      ",
"                          60R0Q0P05040H0                        ",
"                          ;030201000                            ",
"                          n0                                    ",
"                          n0                                    ",
"                        n0                                      ",
"                      n0                                        ",
"                      n0                                        ",
"            n0n0n0n0n0                                          ",
"              n0n0n0n0n0                                        ",
"                n0n0n0n0n0                                      ",
"                    n0n0n0                                      ",
"                        n0                                      ",
"                                                                ",
"                                                                ",
"                                                                "};
