/* XPM */
static char *image[] = {
"16 16 149 2",
"   c None",
"00 c #00000e",
"10 c #000011",
"20 c #000010",
"30 c #00000f",
"40 c #000021",
"50 c #000028",
"60 c #00001b",
"70 c #000015",
"80 c #000022",
"90 c #00001e",
":0 c #000018",
";0 c #00003c",
"A0 c #000153",
"B0 c #000460",
"C0 c #00096b",
"D0 c #00064d",
"E0 c #00002a",
"F0 c #000034",
"G0 c #00002d",
"H0 c #000040",
"I0 c #00002f",
"J0 c #000032",
"K0 c #000e61",
"L0 c #001f7f",
"M0 c #00115b",
"N0 c #00033e",
"O0 c #000339",
"P0 c #000337",
"Q0 c #000232",
"R0 c #000542",
"S0 c #000a6e",
"T0 c #000257",
"U0 c #000033",
"V0 c #00002e",
"W0 c #001050",
"X0 c #003386",
"Y0 c #003581",
"Z0 c #002265",
"a0 c #001a5c",
"b0 c #000946",
"c0 c #000740",
"d0 c #001a6d",
"e0 c #00167a",
"f0 c #000239",
"g0 c #000037",
"h0 c #01043d",
"i0 c #040f4c",
"j0 c #07468b",
"k0 c #0661a8",
"l0 c #0358a3",
"m0 c #005298",
"n0 c #003477",
"o0 c #001759",
"p0 c #001354",
"q0 c #00226f",
"r0 c #00247d",
"s0 c #00186c",
"t0 c #00003a",
"u0 c #010340",
"v0 c #091554",
"w0 c #123c7a",
"x0 c #177ab6",
"y0 c #1783bc",
"z0 c #1484bc",
"01 c #0c83be",
"11 c #045fa0",
"21 c #00296e",
"31 c #002367",
"41 c #001c5f",
"51 c #00175a",
"61 c #002271",
"71 c #002269",
"81 c #062366",
"91 c #143271",
":1 c #1f80b7",
";1 c #269bcb",
"A1 c #29a4d0",
"B1 c #27a5d2",
"C1 c #1fa3d1",
"D1 c #1471a9",
"E1 c #074486",
"F1 c #00397c",
"G1 c #002d72",
"H1 c #003076",
"I1 c #003482",
"J1 c #004b97",
"K1 c #0b6fb2",
"L1 c #1c6da5",
"M1 c #2a9cca",
"N1 c #35b0d8",
"O1 c #39abd5",
"P1 c #3cb2da",
"Q1 c #36b5dd",
"R1 c #289bc9",
"S1 c #1868a3",
"T1 c #075b99",
"U1 c #005393",
"V1 c #0066ab",
"W1 c #004a94",
"X1 c #0c85c3",
"Y1 c #1f8dc2",
"Z1 c #309aca",
"a1 c #3ba3cf",
"b1 c #2f6faa",
"c1 c #3e90c1",
"d1 c #4abadf",
"e1 c #3eb7df",
"f1 c #2ba0ce",
"g1 c #169ccc",
"h1 c #0491c7",
"i1 c #007fc0",
"j1 c #005098",
"k1 c #0782bb",
"l1 c #1267a5",
"m1 c #1b5596",
"n1 c #398fc1",
"o1 c #3e82b7",
"p1 c #58abd4",
"q1 c #60c7e8",
"r1 c #51c4e7",
"s1 c #3cb8e0",
"t1 c #259dcd",
"u1 c #0e8cc3",
"v1 c #007dba",
"w1 c #0d6baa",
"x1 c #1d5e9f",
"y1 c #3178b1",
"z1 c #4995c6",
"02 c #70cae9",
"12 c #72d2ef",
"22 c #5cbce1",
"32 c #46a2ce",
"42 c #2f77af",
"52 c #145e9f",
"62 c #1461a3",
"72 c #3088c2",
"82 c #4ca6d4",
"92 c #6dcfef",
":2 c #73d2f1",
";2 c #60acd6",
"A2 c #4a96c8",
"B2 c #276ba8",
"C2 c #1673b4",
"D2 c #329cd0",
"E2 c #4bbbe5",
"F2 c #50b9e2",
"G2 c #3f9acc",
"H2 c #2574b2",
"                                ",
"          H2G2F2E2D2C2          ",
"        B2A2;2:292827262        ",
"      524232221202z1y1x1w1      ",
"    v1u1t1s1r1q1p1o1n1m1l1k1    ",
"  j1i1h1g1f1e1d1c1b1a1Z1Y1X1    ",
"  W1V1U1T1S1R1Q1P1O1N1M1L1K1J1  ",
"  I1H1G1F1E1D1C1B1A1;1:1918171  ",
"  61514131211101z0y0x0w0v0u0t0  ",
"  s0r0q0p0o0n0m0l0k0j0i0h0g0f0  ",
"    e0d0c0b0b0a0Z0Y0X0W0V0U0    ",
"    T0S0R0Q0P0O0N0M0L0K0J0I0    ",
"      H0G0J0F0E0D0C0B0A0;0      ",
"        :090807060504090        ",
"            30201000            ",
"                                "};
