/* XPM */
static char *image[] = {
"128 128 64 1",
"  c None",
"0 c #fdd257",
"1 c #fccf28",
"2 c #fdb63c",
"3 c #fdc349",
"4 c #fdbd42",
"5 c #e31104",
"6 c #fbba25",
"7 c #fa7423",
"8 c #b27138",
"9 c #c58748",
": c #d2a24e",
"; c #fc9033",
"A c #ffffff",
"B c #8b5120",
"C c #969696",
"D c #262625",
"E c #fc9d2f",
"F c #dab56f",
"G c #fc9e33",
"H c #782404",
"I c #000000",
"J c #a66201",
"K c #fb8625",
"L c #fc9730",
"M c #ef8e15",
"N c #fdac2d",
"O c #f8501a",
"P c #fa6121",
"Q c #fc9b24",
"R c #fc7b30",
"S c #fc6d2c",
"T c #fca32e",
"U c #fca537",
"V c #fdb441",
"W c #fdaf3d",
"X c #f28050",
"Y c #f99262",
"Z c #faab78",
"a c #fedaa6",
"b c #ffde92",
"c c #ffcd86",
"d c #fec273",
"e c #fdb860",
"f c #fda93b",
"g c #d5961b",
"h c #e4591e",
"i c #e77a31",
"j c #fc8733",
"k c #fd933a",
"l c #ee9a45",
"m c #fdae51",
"n c #fd9e3d",
"o c #f19634",
"p c #ea972d",
"q c #e5781d",
"r c #cd731d",
"s c #f6633b",
"t c #ad420d",
"u c #d34b1b",
"v c #bf2d1c",
"w c #f24f3d",
"x c #b8691c",
"y c #b75918",
"                                                                                                                                ",
"                                                                                                                                ",
"                                                                                                                                ",
"                                                                                                                                ",
"                                                                                                                                ",
"                                                                                                                                ",
"                                                                                                                                ",
"                                                                                                                                ",
"                                                                                                                                ",
"                                                      y                                                                         ",
"                                                     xyy                                                                        ",
"                                                     xyy                                                                        ",
"                                                      yyy                                                                       ",
"                                                      yyy                                                                       ",
"                                                      yyyy                                                                      ",
"                                                      yyyy                                                                      ",
"                                                       yyy        y                                                         wv  ",
"                                                       yyyy     yyy                                                        wwv  ",
"                                                       yyyyy   yyy                                                       wwwwv  ",
"                                              xxxxxxxxxyyyyy  yyyy                                                      wwwwwu  ",
"                                             xxxxxxxxxxyyyyyyyyyyy                                                     wwwwwwu  ",
"                                                   xxxxyyyyyyyyyyyy                                                  wwwwwwwww  ",
"                                                      xyyyyyyyyyyyyyytt                                             wwwwwwwwsw  ",
"                                                     xxxrqponnmmmmlkjihuut                                         wsssssssssuv ",
"                                                  xxrgpfmeddccccccbaaccZYXhut                                    sssssssssssvv  ",
"                                                xxrpWmeddddccccccbbbaaaaaacZXht                                 wssssssssswv    ",
"                                              yxrpVeeddddddddddddddccbaaaaaaacYht                                ssssssssuv     ",
"                                             yrpVeeeeeemWfUTTTTTTTTTTUWedcaaaaacXu                               SsssSRsv       ",
"                                           yyifmeeemfTTTTTTTTTTTTTTTTTTTQTfecaaaaZPu                             RRRRRhv        ",
"                                          yxommmmfTTTTTTTTTTTTTTTTTTTTTTTTTQQndaaaYOu                            RRjRuv         ",
"                                         yrnmmmUTTTTTTTTTTTTTTTNNTTTTTTTTTTTTTQncZPRjil                          Rjiv           ",
"                                       tyinmWUTTTTTTTTTTTTTTTTQMMQNTTTTTTTTTTTTQLKjmWffnnnnnnnnnnnnn             jjv            ",
"                                      tyinfUTTTTTTTTTTTTTTTTTQJIIHrNTTTTTTTTTTTTTQmeeeeemmmmmmnnnnkkkkn          ijv            ",
"                                     tyinfGTTTTTTTTTTTTTTTTTNJIIIIIJNTTTTTTTTTTTTUdcdddddddddddeeemmnmeF         hhv            ",
"                                    tyinUETTTTTTTTTTTTTTTTTTQHIDCDIIxNTTTTTTTTTTTmcccccccccccccccdddddBB         hhv            ",
"                                   tyiLGETTTTTTTTTTTTTTTTTTTQDICABIIDMTTTTTTTTTTQecccccccccccccccccbFBHB         hhv            ",
"                                   yq;LETTTTTTTTTTTTTTTTTTTTQDIDDDIDIBNTTTTTTTTTTdccccccccccccccccb:ttHB         hhv            ",
"                                  thjLETTTTTTTTTTTTTTTTTTTTTNHIDIDDDDDMTTTTTTTTTUccccccccccccccccb9tttHB         hhv            ",
"                                 tuR;LEETTTTTTTTTTTTTTTTTTTTNBIDDDDDDIxTTTTTTTTEWbccccccccccccccc8ttttH8         hhv            ",
"                                ty7KLEETTTTTTTTTTTTTTTTTTTTTTgDDDDDDDDBTTTTTTTTQmbccccccccccccbdxtJJttH9       yhqqu            ",
"                                th7LEEEEEEEEEEEEEEEEEEEEEEEEENHDDDDDDDHTEEEEEEEQebcccccccccccbFJJJJJJtHF      rqqqqqu           ",
"                               tu7KLEEEEEEEEEEEEEEEEEEEEEEEEETgDDDDDDDHQEEEEEEEQebccccccccccb:JJJJJJJtB      rqqqqqqu           ",
"                              tyPKLEEEEEEEEEEEEEEEEEEEEEEEEEEENBDDDDDDBTEEEEEEEEdbcccccccccb:JJJJJJJJH8      qqqqqqqu           ",
"                              th7KLEEEEEEEEEEEEEEEEEEEEEEEEEEEG6BDDDDDrTEEEEEEEEdbcccccccbb8JJJJJJJJJHF     rqqqqqqqu           ",
"                             tuPKLEEEEEEEEEEEEEEEEEEEEEEEEEEEEEG6xDDDJQEEEEEEEEEdbbbbbccbcO5tJJJJJJJtB      rqqqqqqqv           ",
"                             th7KLEEEEEEEEEEEEEEEEEEEEEEEEEEEEEEEN6ggTGEEEEEEEEEdbbbbbbbcO555JJJJJJJHF      rqqqqqqu            ",
"                            tuPKLLEEEEEEEEEEEEEEEEEEEEEEEEEEEEEEEEGTTEEEEEEEEEEEdbbbbbbcOOO55vJJJJJJ8       rqqqqqhv            ",
"                            th7KLLEEEEEEEEEEEEEEEEEEEEEEEEEEEEEEEEEEEEEEEEEEEEEQdbbbbbdOOOOO55tJJJJB         qqqquv             ",
"                           tuP7;LLLLLLLEEEEEEEEEEEEEEEEEEEEEEGGGGGGEEEEEEEEEEEEQdbbbbdOOOOOO555JJJJF          uuv               ",
"                           thPKLLLLLLLLLLLLLEEEEEEEEEEEEGGGGGGGGGGEEGEEEEEEEEEEQebbbdOOPPPOOO55HJJ:                             ",
"                           uP7KLLLLLLLLLLLLLLLLLLEEEEEGGGGGGGGGGGGGGGGGEEEEEEEELebbdOPPPPPPOO555H9                              ",
"                          tuP7;LLLLLLLLLLLLLLLLEEEEEGGGGGGGGGGGGGGGGGGGGGGGGGGEEmbcOOP77PPPOOO55v9R                             ",
"                          thPK;LLLLLLLLLLLLLLLLEEEEGGGGGGGGUUUUUUUUUGGGGGGGGGEGEfbOOOP77PPPPOO555Ht                             ",
"                          uP7KLLLLLLLLLLLLLLLLLEEEGGGGGGUUUUUUUUUUUUUUGGGGGGGGGGGcXPOOOPPPPPPOO55vHHF                           ",
"                         tuP7KLLLLLLLLLLLLLLLLLLEGGGGGUUUUUUffffUUUUUUUUGGGGGGGGLeabdYRPOOOPPOO555tHH8                          ",
"                         thP7;LLLLLLLLLLLLLLLLLEGGGGUUUUUfffffWWfffffUUUUUGGGGGGEmbbbbbcdYkRPOO555JtHHB                         ",
"                         uOPK;;LLLLLLLLLLLLLLLLGGGGUUUUffWWWWWWWWWWfffUUUUUGGGGGGGbbbbbbbbbbccZYXX:::99F                        ",
"                         uPPK;;LLLLLLLLLLLLLLLGGGGUUUffWWWWVVVVVVVWWWfffUUUUUUUGGEdabbbbbbbbbbbbbbabcded                        ",
" KQQ                    thP7K;;;LLLLLLLLLLLLLGGGGUUUffWWWVVVVVVVVVVVWWWfffUUUUUUUGfabbbbbbbbbbccccccdmm                         ",
"  QQQT                  thP7K;;;LLLLLLLLLLLLGGGGUUUffWWVVVVVV44VVVVVVWWWffffUUUUUUEcabbbbbbbbbbccccceme                         ",
"  KQQQTN                tOP7j;;;LLLLLLLLLLLGGGGGUUffWWVVVV44444444VVVVVWWWfffUUUUUGmabbbbbbbbbbbcccceme                         ",
"   KTQQTNN              uOP7j;;LLLLLLLLLLLGGGGGUUffWWVVVV44444444444VVVVWWWffffUUUUEdabbbbbbbbbbccccem                          ",
"    KTQQQTNN            uOP7j;;;;;;;LLLLLLGGGGGUffWWVVVV4444433444444VVVVWWWffffUUUUfbabbbbbbbbbbccdmm                          ",
"     KTQKQETT           uOPRj;;;;L;LLLLLLLGGGGUffWWVVVV444433333334444VVVVWWWfffffffTmaabbbbbbbbbccdme                          ",
"      QTQKKQETT        tuOPRj;;;;;;;LLLLLLGGGUUffWWVVV44443333333334444VVVVWWWfffffffTeaaabbbbbbbccem                           ",
"       QTQKKKLETT      thOPR;;;;;;;;LLLLLGGGUUffWWVVV4444333333333334444VVVVWWWWffffffTdaaaaabbbbccem                           ",
"       7LEKKKKKLEE     thOPRj;;;;;;LLLLLGGGUUffWWWVV444443333333333334444VVVVWWWWWfffffUeaaaaaaabccee                           ",
"        7LLKKKKKLLEE   tOOPRj;;;;;LLLLLGGGUUfffWWVVV4444333333333333334444VVVVWWWWWWWWffUmbaaaaaacdee                           ",
"         7LLKK7KKKLLE  tOOPRj;;;;;L;LLLLGUUUUUWWVVV44444333333333333334444VVVVVWWWWWWWWffUfdaaaaacded                           ",
"          KLKK7777KKLLLuOOPRj;;;;;;LLLLGUUUGUWWWVV4444433444333333333344444VVVVVWWWWWWWWWffUWdbaabde                            ",
"           KLK777777KKLuOOPRj;;;;;;LLLGUUUEEWWWVVV444334224333333333333444VVVVVVWWWWWWWWWWfffUfmeZdd                            ",
"            K;K7777777KuOOPRj;;;;;LLLGUUUfKKWVVV444422NN2433333333333334444VVVVVVVVVWWWWWWWWffUG7PPR                            ",
"            PK;R7777777uOOPRj;;;;;LLGUUUffL7KQETTTTTTN243333333333333334444VVVVVVVVWWVWWWWWWWffGSPPS                            ",
"             PRj77PPPP7uhOP7j;;;;LLGUUUffffEQQQQQTN244333333333333333334444VVVVVVVVWWVVVWWWWWWf;SPPR                            ",
"     1111111  7RR7PPPPPuhOP7j;;;;LLUUUfffWWWWW22444443333333333333333334VVVVVVVVVVWWVVVVVWWWWWUKPPPj                            ",
"     61111111167RRSPPPPhuOPSj;;;LLGUUUfffWWW22V4424433333333333333333334VVVVVVVVVVWVVVVVVWWWWWGKPP7                             ",
"      611666661NSRRPPPPhuOOSj;;;;GUUffffWWW2222224443333333443333333333VVVVVVVVVVWWVVVVVVWWWVULRPPR                             ",
"       661666666QPRSPPPhuOOPR;;;kUUfUffWWW22222W24443333342433333333333VWVVVVVVVWWVVVVVVVWVVWGLRPPj                             ",
"        Q666NNNN6KPRSPPOuOOPR;;kGUfUGfWWW22222NW44443334224333333333333WfWWVVVVWWVVVVVVVWWWWUG;7P7k                             ",
"          TNNTQQQQ7SRSPPuOOPRj;kUUfUEGfWWWWW2WQ2343342NN434333333333333fnfWWVVWWVVVVVVVVWVVfGGjSP7                              ",
"           QNTQQQQQ7SRSPuOOPSj;GUfffUTTTUUf222QQNNNNNN23443333333333334nnffWWWWWVVVVVVVWWVfGGLjSPj                              ",
"            KEEQKKKKPSRShhOOSj;UUffWWWWW222242NQQTN24434243333333433334knUffffWVVVVVVVVWVWUGGLRP7k                              ",
"             7KLKKKKKPSSPuOOPRGUfffWWW22222244444444444243333334443333WjknUfffWVWVVVVVfWVUGGG;7PR                               ",
"              S7;K7777PSSuOOPRUfffWWW222224444444444442234333344443333UjkknUUWWWWVVVVWfVfGGGLjSSj                               ",
"                P7R777PPShOOOjfffWWWW222224444444444422344443424433033;j;nnGfWWWWWWVWfWfGGGG;RS7k                               ",
"                 XP7RSSPPPhOPGfffWWW222W2444442244444N4444432244433032Rj;kknffWfWWWWUffGGGGLj7SR                                ",
"                   XPPSSSPuO7fffWWW2222NW222222444442N444342244443033GSjj;nfffWfUffUffGGGLGLjSSk                                ",
"                     YsPPShO;fffWWW22222NW2224444444NN3442N2444433034RSRjknfffffnGUffGGGGLL;RSR                                 ",
"                        YsOhUffWWW222224444444444444NQTNNN4444443033GPSR;kkGnnfWUfffGGGGG;;jSSk                                 ",
"                           XTffWWW2222444444442444442NTN244444430032PPSRj;knnfWnnffGLGGLL;jRPj                                  ",
"                           bTfWWW2222244444442444444444444444430033jOSRjknnnffnnfnGLGGGLL;RPSi                                  ",
"                           dTfWWW222224444444244444444444444430033GOSRj;knnnfnGfnLLLLLL;;;RSk                                   ",
"                           eTfWWW22224444444224442244444444430003WPPSRj;knnnnknn;L;;LL;;;jRj8                                   ",
"                           eTfWW222224444444222224444444443000032POSRRjknnnnknn;;;;LLk;;;RRk                                    ",
"                           dTfWW2222244444444224444444443300003WPOPSRRkknnnnnn;j;;;;;;j;jRk                                     ",
"                           cQfWW222244444444444444444433000003GOOPSRRjkknnnn;jRj;;;;;j;;Rj8                                     ",
"                            dTfW22244444444444444333000000034ROOPSRRRRkknn;jjj;;;;;;jj;jji                                      ",
"                             amN224443333333300000000000034;OOOPSSRRRRj;jjjj;;;;;;;;R;jRk                                       ",
"                               ae244433330000000000000332;POOOPPSSRjkk;jj;;;;;j;;;;j;;jk                                        ",
"                                 ZKf244333333333333334U7OOOOPPSSRjjkk;jj;;;;;j;;;;jjkjk                                         ",
"                                  YPSR;UW24444442WGjSOOOOOPPSSRRRjjjjjjj;;;;jj;;;jjkjk                                          ",
"                                   XPPOPSRRRRRSSPPOOOOPPPPSSRRRRjjjjjjj;;;;jj;jjjjk;k                                           ",
"                                    XPPPPSSRSSSSSPPPPSSSSSRRRRRRRRjjjj;;j;jR;;jj;nkk                                            ",
"                                     XPPPPPSSSSSSSSSSSSSSSSSSSRRRjjjjjjjjjRR;;knnkk                                             ",
"                                      9SPOOOPSSSSSSSSSSSSSSSRRRjjjjjjjjjjjRR;knnni                                              ",
"                                        SPOOOPSSSSSSSSSSRRRRRjjjjjjjRjjjj;jj;GfW8                                               ",
"                                         iSPOOPSSSSRRRRRRRRRjjjjRRRRjjjj;knnf4l                                                 ",
"                                           SSPOPPSSRRRRRRRRRRRRRRRjjjjkknfV3mB                                                  ",
"                                            ySSPPPSSRRRRRRRRRRRjjj;kknfWV3e8                                                    ",
"                                              BiSSPPSSRRjjjjj;kkknnfWV30e8                                                      ",
"                                                 xSRSSSSRRjjkknnfWV33m9                                                         ",
"                                                    BriRRjjkknnnnl9B                                                            ",
"                                                            B                                                                   ",
"                                                                                                                                ",
"                                                                                                                                ",
"                                                                                                                                ",
"                                                                                                                                ",
"                                                                                                                                ",
"                                                                                                                                ",
"                                                                                                                                ",
"                                                                                                                                ",
"                                                                                                                                ",
"                                                                                                                                ",
"                                                                                                                                ",
"                                                                                                                                ",
"                                                                                                                                ",
"                                                                                                                                ",
"                                                                                                                                "};
