/* XPM */
static char *image[] = {
"22 22 189 2",
"   c None",
"00 c #314358",
"10 c #2e517d",
"20 c #2a486d",
"30 c #28466b",
"40 c #254872",
"50 c #254873",
"60 c #23456f",
"70 c #254164",
"80 c #2a333b",
"90 c #304863",
":0 c #407ac1",
";0 c #447dc3",
"A0 c #407ac2",
"B0 c #3d78c1",
"C0 c #4980c5",
"D0 c #5488c8",
"E0 c #5d8ecb",
"F0 c #326099",
"G0 c #33404e",
"H0 c #354b62",
"I0 c #3d73b6",
"J0 c #3d77be",
"K0 c #65675f",
"L0 c #898b86",
"M0 c #a3a5a0",
"N0 c #898a87",
"O0 c #305f98",
"P0 c #6191cd",
"Q0 c #3b73b9",
"R0 c #3b74bb",
"S0 c #3c75bc",
"T0 c #3c76be",
"U0 c #4a81c6",
"V0 c #3668a5",
"W0 c #434948",
"X0 c #324b67",
"Y0 c #585a53",
"Z0 c #82847f",
"a0 c #81837e",
"b0 c #3970b5",
"c0 c #3364a1",
"d0 c #729dd2",
"e0 c #588bca",
"f0 c #6392cd",
"g0 c #5287c7",
"h0 c #2c4561",
"i0 c #5d5f5b",
"j0 c #a4a6a3",
"k0 c #7b7c78",
"l0 c #737471",
"m0 c #7d7f7a",
"n0 c #a7a9a6",
"o0 c #87acd9",
"p0 c #76a0d4",
"q0 c #78a1d4",
"r0 c #79a2d5",
"s0 c #92b3dc",
"t0 c #2b4a70",
"u0 c #676a66",
"v0 c #a1a39f",
"w0 c #757674",
"x0 c #9e9e9d",
"y0 c #848582",
"z0 c #797b76",
"01 c #c4c4c2",
"11 c #33639f",
"21 c #80a6d6",
"31 c #90b2dc",
"41 c #9bb9df",
"51 c #a2bfe2",
"61 c #afc7e5",
"71 c #99b8df",
"81 c #adc6e5",
"91 c #2b4f7c",
":1 c #6d706c",
";1 c #9d9f9b",
"A1 c #7c7d7a",
"B1 c #bebfbd",
"C1 c #8f908d",
"D1 c #757772",
"E1 c #e2e2e2",
"F1 c #6493ce",
"G1 c #3970b3",
"H1 c #366aaa",
"I1 c #2c578c",
"J1 c #295183",
"K1 c #4c83c6",
"L1 c #b9cee9",
"M1 c #b6cce8",
"N1 c #bfd3eb",
"O1 c #325e93",
"P1 c #696c67",
"Q1 c #9c9e9b",
"R1 c #7e7f7b",
"S1 c #777974",
"T1 c #71736e",
"U1 c #eaeaea",
"V1 c #d9d9d8",
"W1 c #a4a5a1",
"X1 c #eaeae7",
"Y1 c #dcdcd9",
"Z1 c #dbdbd7",
"a1 c #d9d9d6",
"b1 c #578ac9",
"c1 c #2f5d95",
"d1 c #2d588d",
"e1 c #2c568a",
"f1 c #274b76",
"g1 c #5e615c",
"h1 c #b9bab8",
"i1 c #878884",
"j1 c #6f716c",
"k1 c #b2b3b1",
"l1 c #e1e1e0",
"m1 c #b6b7b4",
"n1 c #d2d3d1",
"o1 c #f6f6f4",
"p1 c #f2f2f1",
"q1 c #f1f1f0",
"r1 c #f0f0ef",
"s1 c #efefee",
"t1 c #d1d1d1",
"u1 c #b1b1b0",
"v1 c #787a76",
"w1 c #9c9d9a",
"x1 c #72746f",
"y1 c #878985",
"z1 c #bebebd",
"02 c #cdcdcc",
"12 c #f6f6f6",
"22 c #fafafa",
"32 c #d7d7d7",
"42 c #80817f",
"52 c #bcbdbb",
"62 c #9e9f9c",
"72 c #b8b8b7",
"82 c #b1b2b0",
"92 c #b3b4b2",
":2 c #b3b4b1",
";2 c #b2b3b0",
"A2 c #c3c4c3",
"B2 c #9fa19d",
"C2 c #6d6f6b",
"D2 c #7a7c77",
"E2 c #888a85",
"F2 c #5d5f59",
"G2 c #8c8d8a",
"H2 c #91928f",
"I2 c #777975",
"J2 c #c0c2c0",
"K2 c #727370",
"L2 c #bbbcb9",
"M2 c #9ea09d",
"N2 c #7d7e7a",
"O2 c #999b97",
"P2 c #767773",
"Q2 c #bfc0be",
"R2 c #737470",
"S2 c #747571",
"T2 c #babab8",
"U2 c #757672",
"V2 c #777874",
"W2 c #a5a7a3",
"X2 c #767873",
"Y2 c #787975",
"Z2 c #9d9e9a",
"a2 c #6f706c",
"b2 c #3f4445",
"c2 c #3f4444",
"d2 c #393e3e",
"e2 c #383d3e",
"f2 c #4f5352",
"g2 c #bdbebc",
"h2 c #6d6f6a",
"i2 c #9d9e9b",
"j2 c #9fa09d",
"k2 c #b4b5b2",
"l2 c #737570",
"m2 c #686a65",
"n2 c #515555",
"o2 c #71726f",
"p2 c #72736f",
"q2 c #a4a5a2",
"r2 c #dededd",
"s2 c #80817d",
"t2 c #c8c9c7",
"u2 c #f3f3f2",
"v2 c #535857",
"                                            ",
"                  v2v2v2v2v2v2v2v2v2v2      ",
"                v2u2t2s2s2s2s2s2r2q2v2p2    ",
"              o2n2q2m2m2m2m2m2l2q2k2j2i2p2  ",
"            h2g2f2e2d2d2d2d2d2d2c2b2a2Z2p2  ",
"          Y2X2W2V2                  U2T2S2  ",
"          R2Q2S2                  P2O2N2U2  ",
"          N2M2U2                  S2L2K2    ",
"        P2J2I2P2                  H2G2      ",
"    F2E2E2E2E2E2E2E2E2E2E2E2E2D2C2j2R2      ",
"    B2A2;2;2;2;2;2;2;2:2928272N26252S2      ",
"  4232B222222222222212E202z1y1x1w1v1        ",
"  u1t1j2s1r1q1p1u2o1n1m1l1k1j1i1h1Y2g1      ",
"f1e1d1d1c1b1a1Z1Y1X1W1V1U1T1S162R1Q1P1      ",
"O1N1M1L1K1J1e1e1I1H1G1F1E1D1C1B1A1;1:1      ",
"91817171615141417131211101z0y0x0w0v0u0      ",
"t0s0r0r0q0q0q0p0p0p0o0c1n0m0m0l0k0j0i0      ",
"h0g0f0e0e0e0e0b1b1b1d0c0b0i2a0Z0B2k0Y0X0    ",
"W0V0U0T0S0S0R0R0R0Q0R0P0O0N0M0W2L0K0J0I0H0  ",
"  G0F0E0D0C0C0U0C0C0C0C0Q0S0B0A0A0;0:090    ",
"    8070606060606060606060504030201000      ",
"                                            "};
