/* XPM */
static char *image[] = {
"48 48 248 2",
"   c None",
"00 c #3c185b",
"10 c #471552",
"20 c #453786",
"30 c #563d7b",
"40 c #632c4a",
"50 c #8d362f",
"60 c #a8371e",
"70 c #a81615",
"80 c #81142a",
"90 c #560d43",
":0 c #655191",
";0 c #551d5f",
"A0 c #79495b",
"B0 c #850520",
"C0 c #91697a",
"D0 c #9c706e",
"E0 c #d04f22",
"F0 c #c94617",
"G0 c #b9140c",
"H0 c #a0776b",
"I0 c #edc602",
"J0 c #eab402",
"K0 c #dc8505",
"L0 c #de9005",
"M0 c #7b0727",
"N0 c #d86407",
"O0 c #df7931",
"P0 c #650e41",
"Q0 c #fae217",
"R0 c #c32907",
"S0 c #c11e00",
"T0 c #6e447e",
"U0 c #af9393",
"V0 c #ae5b2c",
"W0 c #bc652c",
"X0 c #8e041a",
"Y0 c #d29a1d",
"Z0 c #c66823",
"a0 c #543c54",
"b0 c #8b4e30",
"c0 c #c93b10",
"d0 c #762c5a",
"e0 c #bf9e8e",
"f0 c #ffffc6",
"g0 c #7d4224",
"h0 c #8b4b22",
"i0 c #b50501",
"j0 c #cc9438",
"k0 c #fefd4e",
"l0 c #fef2ae",
"m0 c #5c393c",
"n0 c #00071f",
"o0 c #291b1d",
"p0 c #883f67",
"q0 c #fffe6a",
"r0 c #875f39",
"s0 c #6c4538",
"t0 c #020935",
"u0 c #2d212e",
"v0 c #7e240e",
"w0 c #d04911",
"x0 c #970314",
"y0 c #c19471",
"z0 c #a06e32",
"01 c #040b26",
"11 c #662817",
"21 c #f9d515",
"31 c #a57736",
"41 c #0a2543",
"51 c #342222",
"61 c #a84515",
"71 c #ce5d15",
"81 c #d77707",
"91 c #9b4967",
":1 c #fcdb47",
";1 c #25317f",
"A1 c #9a1124",
"B1 c #0e3468",
"C1 c #bc7036",
"D1 c #e0650a",
"E1 c #d35615",
"F1 c #a70209",
"G1 c #0f3c75",
"H1 c #89978d",
"I1 c #c97a36",
"J1 c #a46f48",
"K1 c #c63605",
"L1 c #c8470a",
"M1 c #c12a11",
"N1 c #cd9750",
"O1 c #be4910",
"P1 c #cc4621",
"Q1 c #113a6f",
"R1 c #b92707",
"S1 c #d35b23",
"T1 c #f9ca59",
"U1 c #fefc17",
"V1 c #9a8854",
"W1 c #38313d",
"X1 c #a52504",
"Y1 c #fac94b",
"Z1 c #f9b517",
"a1 c #fefd39",
"b1 c #c09123",
"c1 c #532725",
"d1 c #971703",
"e1 c #b66f38",
"f1 c #c15822",
"g1 c #b9571b",
"h1 c #fefd25",
"i1 c #ab8b53",
"j1 c #836735",
"k1 c #0b345a",
"l1 c #fbea3a",
"m1 c #f08f0d",
"n1 c #fce424",
"o1 c #d1b76b",
"p1 c #caae8c",
"q1 c #d47350",
"r1 c #a4853c",
"s1 c #da6917",
"t1 c #e6880c",
"u1 c #fde6a6",
"v1 c #fefa86",
"w1 c #e79209",
"x1 c #4d2b18",
"y1 c #d95708",
"z1 c #fefe92",
"02 c #4a9dc9",
"12 c #4f6e8b",
"22 c #8d564e",
"32 c #ac320a",
"42 c #e9a603",
"52 c #66572f",
"62 c #192963",
"72 c #cc590a",
"82 c #e68714",
"92 c #eb9515",
":2 c #eea716",
";2 c #f6b12b",
"A2 c #e99725",
"B2 c #de7317",
"C2 c #f1e084",
"D2 c #fbd659",
"E2 c #624b23",
"F2 c #277bc4",
"G2 c #e27a06",
"H2 c #d9782a",
"I2 c #b83404",
"J2 c #d15d41",
"K2 c #fde56f",
"L2 c #7f5a1c",
"M2 c #0d223c",
"N2 c #202a74",
"O2 c #172b5b",
"P2 c #e17919",
"Q2 c #e99c4c",
"R2 c #d63003",
"S2 c #e36743",
"T2 c #fbe5b6",
"U2 c #f7c603",
"V2 c #fcf604",
"W2 c #cb8f1c",
"X2 c #45402f",
"Y2 c #214357",
"Z2 c #b8832e",
"a2 c #e99737",
"b2 c #e48529",
"c2 c #635b5b",
"d2 c #795b48",
"e2 c #685049",
"f2 c #d86a27",
"g2 c #e17b25",
"h2 c #d64804",
"i2 c #e98b66",
"j2 c #fcd9a3",
"k2 c #f9c617",
"l2 c #f9e641",
"m2 c #fefa7a",
"n2 c #fde55b",
"o2 c #cea753",
"p2 c #756d57",
"q2 c #f0ac4c",
"r2 c #d28d3d",
"s2 c #4f4b50",
"t2 c #17334f",
"u2 c #142646",
"v2 c #061538",
"w2 c #05122b",
"x2 c #111a54",
"y2 c #ae99a3",
"z2 c #e58836",
"03 c #e15707",
"13 c #f7a613",
"23 c #f6a706",
"33 c #f69b08",
"43 c #b27a1c",
"53 c #907241",
"63 c #babca3",
"73 c #edb16b",
"83 c #a99269",
"93 c #6d6d6c",
":3 c #123d74",
";3 c #0a2e62",
"A3 c #061646",
"B3 c #062c70",
"C3 c #a5a5c9",
"D3 c #fbd46d",
"E3 c #f6b704",
"F3 c #fae800",
"G3 c #f8d801",
"H3 c #9d8d2f",
"I3 c #2c3b4d",
"J3 c #072558",
"K3 c #16395a",
"L3 c #164778",
"M3 c #23568d",
"N3 c #296599",
"O3 c #40a3dd",
"P3 c #e86918",
"Q3 c #eeb88a",
"R3 c #d0a634",
"S3 c #f7cc2c",
"T3 c #fdfa57",
"U3 c #ddc563",
"V3 c #2a4d6f",
"W3 c #2d8fcf",
"X3 c #41aee7",
"Y3 c #36a2dd",
"Z3 c #2882bb",
"a3 c #414e6d",
"b3 c #576768",
"c3 c #7f896d",
"d3 c #618380",
"e3 c #1a639c",
"f3 c #5988a8",
"g3 c #35a7e4",
"h3 c #1785c4",
"i3 c #146cab",
"j3 c #6976b1",
"k3 c #2773af",
"l3 c #13508e",
"m3 c #1181bc",
"n3 c #155aa7",
"o3 c #133988",
"p3 c #5269aa",
"q3 c #7980b8",
"                                                                                                ",
"                                                                                                ",
"                                    q3p3o3n3n3m3n3l3o3k3j3                                      ",
"                              p3o3i3m3m3m3h3g3g3m3i3i3i3i3i3o3f3                                ",
"                          p3i3m3m3m3m3m3m3g3g3g3h3i3n3n3e3d3c3b3a3a3                            ",
"                      p3l3i3i3i3i3k3k3k3Z3Y3X3X3g3W3i3e3l3V3b3c3U3T3S3R3Q3                      ",
"          P3        o3l3l3l3l3e3e3e3e3k3k3O3X3X3X3W3k3N3M3L3K3J3J3I3H3G3F3E3D3                  ",
"        P3P3Q3  C3B3J3A3;3:3L3L393837363k3W3X3X3X3X3Z3k3N3M3V3534343333323E3E313                ",
"        03P3z2y2x2A3w2v2u2t2s2r2q2q283V3M3W3X3X3X3O3Z3k3k3k3N3a3p2o2n2m2l2k2233333  j2          ",
"      i2h2P3g2f2e2d2s2t2I3c2b2a2a2Z2t2Y2k3O3X3X3Z3Z3k3k3k3Z3N3M3V3K3X2W2S3V2V2U23313T2D3        ",
"      S2R2h2g27373737373D3Q2P2g2a2s2O2N2W3X3W3k3k3Z3k3Z3W3X3O3k3V3K3u2M2L223G3G3G323q2K2        ",
"      J2I2H273q273q2q2a2a2g2G2P2P2L3k3F2Y3X3F2F2k3W3g3X3X3X3X3W3M3M3V3O2u2E233U2U2E333D2C2      ",
"      J2B2Q2Q2q2A2;2:29282G2G2B272s2F2F2O3X3X3Y3W3g3g3g3g3X3X3O3k3N3M3V362u25233E34223;2K2      ",
"      H2a2a2a2:2:292928282P2B2B272322212f30202g3g3g3g3g3g3g3g3X3X3Z3M3Z3N3M3Y243334233;2z1T2    ",
"    Q3b2a2:292929282928282P2P2B2y132h2y10303x1Z3Y3g3g3g3W3g3g3g3g3O3Y3O3O3Z3N3Y2w133w133v1u1    ",
"    a2A2A29292t1828282g282P2B2s1s1I2y1h203g283W3Y3g3g3g3g3Y3W3Y3Y3Y3Y3Y3Y3W3k3r14333;223T3K2    ",
"    a2A282w18282828282P2P2g2B2g2g2q1T2T2Q3p112m3Y3Y3W3Y3Y3Z3i3e3Z3W3W3W3W3W3m3o1R333K2E3V2n1    ",
"  73a29292w1m182828282P2P2B2P3g2g2Q2Q37393K3l3h3g3W3m3Z3W3W3e3e3e3Z3W3W3W3W3k383m2m1K2l1F3G3    ",
"  a2A282w182828282g2P2P2B2P2g2g2a2z2i2I3k1l3i3W3W3h3n3e3i3Z3e3e3e3e3W3W3W3F2M3j1m2S3K2n2G3U2D3  ",
"73a2A282928282828282P2P2B2g2b2a2a2q2i1;3o3i3W3W3g3W3i3e3k3e3e3e3e3e3k3W3F2e3o3j1h1k2K2v1G3U2;2  ",
"Q2z2829292t1828282g2P2B2P2b2z2a2Q2q2o2o3n3i3h3W3W3W3i3e3e3e3e3e3e3l3Z3W3Z3n3l353F3G3v1z1k2E3;2  ",
"Q2A282w182t182m1P2P2P2g2f2g1f1f1e1o2D3l3n3m3F2W3W3W3F2e3e3e3e3e3M3l3e3Z3i3e3k3Z2G3U2m2z1S323;2  ",
"73b282w182t182g2P2P2s132d1d1d1c1M2M2V3o3n3i3F2W3W3W3W3W3k3e3e3M3l3l3l3l3L3b3k3b1U2k2a1T3Z133Y1  ",
"73g282m1t182P2P2P2B2X1d1d1d1X1W1;3;3;3o3n3i3F2F2W3F2W3W3M3e3e3M3l3l3l3l3L3o1V12323U2V2U1Z1;2T1  ",
"q1S1G28282P2P2P2P2s1d1d1X1X1R1d2L3o3o3n3k3F2F2F2F2Z3F2W3l3M3l3l3l3o3l3L3Q1o2Y13333G3F3V2E3D2U3  ",
"q1P1B2P2g2P2P2B2s1O1X1X1R1I2I2P2c2n3n3N3k3F2F2F2F2F2F2Z3k3l3l3L3l3L3L3o3L3N1m23333G3G3F313v173  ",
"  M1B2B2P2g2B2B2g2L132I2I2K1K1s1P2J1N3n3n3N393I1z2q2o1H1Z3l3L3L3G1L3G1G1e3N1z1;223U2G3G3Y1z173  ",
"  F1s1P2B2B2B2B2B2E1K1K1L1h2h2D1B2g2s1C1C1B2g2B2g2z2q2C2H1L3L3Q1B1Q1B1B1M3R3z1Y1E3E3U2k2v1K2    ",
"  A1E1B2B2D1P2B2g2B2L1R2h2h20303B2B2g2s1B2B2P2P2P2s1s173i1G1Q1;3;3J3J3;1M3;2m2:123S3E3D2z1D2    ",
"  91P1S1B281B2B2B2P3s10303030303I2O1s1B2g2B2f271O16151w241k1B1J3x2A3u231c221h1k233T1Z1v1z1o2    ",
"    R1f2D1B2B2B2B2P2s1P20303D103E1d1d1d1X1X13232110101w2A3x2x2A3A3A3z0z0z0G3V2U233D3n2v1v1y0    ",
"    x0f2w0B2B281B2P2B2B2B2D1D1D1D1L1d1d1X1v011u0M2w2t0v2A3A3A3t0A3s0t1r033G3G3E3Y1v1T3q0:1      ",
"    p0P1K1P2B2B281D1B2P2D1P2s1B2D1P2g1o0n0n0w2u262t0t0A3A3t0t0t0m0P282m1E3U2U223l0k0a1k0j0      ",
"      F1i0s1B2B2B2B2B2B281D1P2D1B2P2s1P2h0v2t062x2t0t0t0t0t0t0g0P3f2P2m1424242T1f0V2U1n1e0      ",
"      d0i0c0g2y1B2B2P2B2B281B2B281D1P2B2B2B2b0a0;1N2x2t0t0c1Z0B2B2B2B2t1w1w1:2z1v1V2V2Y0        ",
"        X0i0w0s1s1B2g2B2B2B2B2B2B281G2D1B2B2B2B2B2W0V0Z0P2P2B2B2P2P2B2G2G2G2l1m2l1F3G3U0        ",
"        T0i0S0E1R0s1g2b2s1P2B2B2B2B2B2B2B2B2B2B2P2B2B2s1g2s1g2s1P2s1D1D181Q0a1T3G3G3Z2          ",
"          P0i0S0h2S0E1O0g2M1y1B2P2P2B2B2D1B2P2g2g2b2z2z2z2z2z2g2s103N081G3V2h121G342            ",
"            M0i0R0R2i0R0z2O0i0K1s1g2g2s1E1P2B2g2g2g2g2g2g2B2B2B2N0N0L0G3F3V2V2U2E3U0            ",
"              x0i0K1R0i0i0P1z2M1i0c0S1b2O0E1w0E1s1B2B2P2P2B2s1N0K042J0I0F3F3I042H0              ",
"                x0i0R0S0i0i0G0P1G0G0G0M1F0J2z2f2E0w0w07171N081K0L042J0I0I0I0w1D0                ",
"                  M0i0i0i0i0i0i0G0G0G0G0G0G0G0c0F0S1c0L17272N081K0L0J0J042B2C0                  ",
"                    P0F1i0i0i0i0G0G0G0G0G0G0G0G0M1R0I2L1L172N08181L0w182V0                      ",
"                        B0i0i0i0G0i0G0G0G0G0G0G0M1M1R0c0L1L172N08181Z0A0                        ",
"                          ;0M0i0G0G0G0G0G0G0G0G0G0M1R0K1c0L172N0V0A0                            ",
"                              :0908070G0G0G0G0G0G0R1M1K160504030                                ",
"                                      201010101010100020                                        ",
"                                                                                                "};
