/* XPM */
static char *image[] = {
"22 22 97 2",
"   c None",
"00 c #b3b4b2",
"10 c #8d8f8a",
"20 c #bdbebc",
"30 c #d5d9d1",
"40 c #d7dad3",
"50 c #d8dbd4",
"60 c #daddd7",
"70 c #dbded8",
"80 c #dcdfd9",
"90 c #dee1da",
":0 c #dfe2dc",
";0 c #e0e3dd",
"A0 c #e1e4de",
"B0 c #e2e5e0",
"C0 c #e4e7e2",
"D0 c #e3e6e1",
"E0 c #8b8d88",
"F0 c #d9dcd5",
"G0 c #d3d7cf",
"H0 c #e9ebe7",
"I0 c #fefefd",
"J0 c #fdfdfc",
"K0 c #fcfcfc",
"L0 c #fcfcfb",
"M0 c #868883",
"N0 c #ededec",
"O0 c #d8d8d8",
"P0 c #fbfbfb",
"Q0 c #fbfbfa",
"R0 c #fafafa",
"S0 c #7d7f7b",
"T0 c #dcdcdc",
"U0 c #d7d7d7",
"V0 c #d1baa7",
"W0 c #c3c4c2",
"X0 c #cacbc8",
"Y0 c #fafaf9",
"Z0 c #c9cac8",
"a0 c #f9f9f8",
"b0 c #767873",
"c0 c #d2bba8",
"d0 c #6b5736",
"e0 c #000000",
"f0 c #f8f8f8",
"g0 c #f8f8f7",
"h0 c #f7f7f7",
"i0 c #87725c",
"j0 c #f7f7f6",
"k0 c #c8c9c7",
"l0 c #c2c3c0",
"m0 c #c1c2c0",
"n0 c #c8c9c6",
"o0 c #f6f6f5",
"p0 c #f5f5f4",
"q0 c #c0c1bf",
"r0 c #c7c8c5",
"s0 c #f4f4f3",
"t0 c #c0c1be",
"u0 c #c7c8c4",
"v0 c #f3f3f2",
"w0 c #f2f2f1",
"x0 c #bfc0bd",
"y0 c #c5c6c3",
"z0 c #f1f1ef",
"01 c #f57900",
"11 c #fefefe",
"21 c #f0f0ee",
"31 c #efefee",
"41 c #efefed",
"51 c #fcaf3e",
"61 c #f5d400",
"71 c #bdbebb",
"81 c #c3c4c1",
"91 c #b6b6b3",
":1 c #ce5c00",
";1 c #eeeeec",
"A1 c #ffffff",
"B1 c #878984",
"C1 c #81837f",
"D1 c #5d5f5b",
"E1 c #a9aaa8",
"F1 c #fdfdfd",
"G1 c #888a85",
"H1 c #747672",
"I1 c #d3d5cf",
"J1 c #727470",
"K1 c #8c8e89",
"L1 c #b7b8b6",
"M1 c #f6f6f6",
"N1 c #b8b9b7",
"O1 c #cdcecd",
"P1 c #b7b9b7",
"Q1 c #a0a2a0",
"R1 c #7f817f",
"S1 c #9c9d99",
"T1 c #575857",
"      T1S1R1S1R1Q1P1Q1P1Q1P1Q1O1            ",
"      N1M1L1M1L1M1L1M1L1M1L1M1N1            ",
"    K1J1I1J1I1J1I1J1I1J1I1J1I1H1K1          ",
"  G1F1E1D1C1D1C1D1C1D1C1D1C1D1E1F1B1        ",
"  G1A1;1;1;1;1;1;1;1;1;1;1;1;1;1A1G1        ",
"  G1A1;1;1;1;1;1;1;1;1;1;1;1;1;1A1G1  :1:1  ",
"  G1A1;19191;18171717181;1;1;1;1A1G1:16151:1",
"  G1A14141313131312121212121313111:1615101:1",
"  G1A1z0y0x0x0y0z0y0y0z0y0x0y0z0:1615101:1  ",
"  G1A1w0w0w0w0w0w0w0w0w0w0w0w0:1615101:1    ",
"  G1A1v0u0t0u0s0r0q0q0r0s0r0:1615101:1      ",
"  G1A1p0p0p0p0p0p0p0p0p0p0:1615101:1        ",
"  G1A1o0n0m0l0l0k0j0k0k0j0:15101:1i0        ",
"  G111h0g0g0g0g0g0f0f0f0:1e0d0:1c0b0        ",
"  G111a0Z081Z0Y0X0W0X0Y0e0:1V0U0T0S0        ",
"  G1F1Y0R0R0Q0Q0P0P0P0P0M1O0T0N0M1M0        ",
"  G1F1Q0Q0P0L0K0K0J0J0F1L0j0f0P0J0G1        ",
"  G1F1P0P0K0K0J0F111111111I0F1J0F1G1        ",
"  G1H0G0G0G0G0G0G0G0G0G0G0G0G0G0F0G1        ",
"  E0D0C0D0B0A0;0:090807060F0504030E0        ",
"  20K1G1G1G1G1G1G1G1G1G1G1G1G1G11000        ",
"                                            "};
