/* XPM */
static char *image[] = {
"22 22 169 2",
"   c None",
"00 c #c4a002",
"10 c #c3a002",
"20 c #c4a003",
"30 c #c3a003",
"40 c #c5a004",
"50 c #c5a105",
"60 c #c4a104",
"70 c #e2ce5f",
"80 c #c5a102",
"90 c #ead770",
":0 c #ecdb78",
";0 c #f0e286",
"A0 c #f1e288",
"B0 c #f7eb9b",
"C0 c #f8eea0",
"D0 c #fbf2ac",
"E0 c #fbf1ac",
"F0 c #c5a204",
"G0 c #fdf6bd",
"H0 c #faf1ae",
"I0 c #d4b833",
"J0 c #c29f03",
"K0 c #e4d063",
"L0 c #dbbf22",
"M0 c #e1c72b",
"N0 c #e6cd31",
"O0 c #e9d237",
"P0 c #eed83d",
"Q0 c #f1db3f",
"R0 c #f2dd41",
"S0 c #f8e44a",
"T0 c #fbe95b",
"U0 c #faf09e",
"V0 c #c5a613",
"W0 c #a79642",
"X0 c #888a83",
"Y0 c #898b86",
"Z0 c #e5d165",
"a0 c #ddc124",
"b0 c #cba90a",
"c0 c #ecd539",
"d0 c #fae96b",
"e0 c #fcf3ae",
"f0 c #e6d164",
"g0 c #c9a713",
"h0 c #ebe2b9",
"i0 c #e6d367",
"j0 c #dec225",
"k0 c #d7dad3",
"l0 c #d5d8d1",
"m0 c #dcded8",
"n0 c #d6ce9e",
"o0 c #c6a610",
"p0 c #d6b81d",
"q0 c #f2dc43",
"r0 c #f9eb82",
"s0 c #f9eea4",
"t0 c #d4b935",
"u0 c #cfb439",
"v0 c #e9e6d6",
"w0 c #e7d36a",
"x0 c #dfc326",
"y0 c #d9dcd6",
"z0 c #585950",
"01 c #c6a409",
"11 c #e2c82b",
"21 c #f2de4e",
"31 c #f9ed96",
"41 c #f0e182",
"51 c #c4a30f",
"61 c #8f7f2c",
"71 c #5a5c56",
"81 c #e8d46d",
"91 c #dfc427",
":1 c #dcdfd9",
";1 c #ceaf16",
"A1 c #e9d135",
"B1 c #f2df5e",
"C1 c #f8ec9d",
"D1 c #dfc854",
"E1 c #be9d08",
"F1 c #766f45",
"G1 c #62645f",
"H1 c #e8d56f",
"I1 c #e0c528",
"J1 c #d8bb1f",
"K1 c #ebd339",
"L1 c #f3e274",
"M1 c #f3e690",
"N1 c #d1b62d",
"O1 c #ceb439",
"P1 c #e8e6d6",
"Q1 c #e9d671",
"R1 c #e1c528",
"S1 c #e1c729",
"T1 c #ead341",
"U1 c #f3e486",
"V1 c #ead870",
"W1 c #c8a611",
"X1 c #d7c676",
"Y1 c #6c6e69",
"Z1 c #666764",
"a1 c #eaeae8",
"b1 c #e9d774",
"c1 c #e1c629",
"d1 c #e4ca2d",
"e1 c #ead451",
"f1 c #f2e48b",
"g1 c #dcc449",
"h1 c #c7a712",
"i1 c #e1d9b1",
"j1 c #ead876",
"k1 c #e2c72d",
"l1 c #ebd864",
"m1 c #eddd7c",
"n1 c #c9ab21",
"o1 c #ceb43a",
"p1 c #dddacb",
"q1 c #adafab",
"r1 c #bcbcba",
"s1 c #ebd97a",
"t1 c #ecda74",
"u1 c #e4cf5e",
"v1 c #c7a50f",
"w1 c #8a7a2c",
"x1 c #ececea",
"y1 c #7e7f7c",
"z1 c #b4b4b2",
"02 c #e9e9e7",
"12 c #c4a103",
"22 c #ead978",
"32 c #d7be3d",
"42 c #c8a613",
"52 c #e3dbb5",
"62 c #5a5c57",
"72 c #d7d7d5",
"82 c #d1d1cf",
"92 c #c4a001",
":2 c #c8a81a",
";2 c #d2b841",
"A2 c #a7a596",
"B2 c #949592",
"C2 c #848381",
"D2 c #9d9d9c",
"E2 c #c4a000",
"F2 c #a69647",
"G2 c #f8f8f7",
"H2 c #e3e3e1",
"I2 c #9b9c9b",
"J2 c #555753",
"K2 c #a4a4a3",
"L2 c #f0f0f0",
"M2 c #f4f4f4",
"N2 c #ababab",
"O2 c #aeafac",
"P2 c #ededeb",
"Q2 c #afafae",
"R2 c #e9e9e9",
"S2 c #ffffff",
"T2 c #b3b3b3",
"U2 c #8b8d88",
"V2 c #f7f7f6",
"W2 c #f9f9f8",
"X2 c #e7e7e7",
"Y2 c #e4e4e4",
"Z2 c #cdcdcd",
"a2 c #8a8c87",
"b2 c #888a85",
"                                            ",
"                                            ",
"        b2b2b2b2b2b2b2b2b2b2b2b2b2b2b2b2a2  ",
"      b2Z2Y2X2W2W2W2W2W2W2W2W2W2W2W2W2V2U2  ",
"    b2T2S2R2Q2P2P2P2P2P2P2P2P2P2O2P2P2W2U2  ",
"  b2N2M2S2L2K2J2J2J2J2J2J2J2J2J2J2J2J2W2U2  ",
"  b2b2b2b2b2I2P2P2P2P2P2P2P2P2P2J2H2H2G2F2E2",
"  b2D2C2B2J2J2J2J2J2J2J2J2J2J2J2J2J2A2;2:292",
"  b2Q2827262P2P2P2P2P2P2P2P2P2P2J25242322212",
"  b2W2P20262P2z1y1z1P2P2P2P2P2x1w1v1u1t1s112",
"  b2W2P20262P2y1r1y1P2b2b2q1p1o1n1m1l1k1j112",
"  b2W2P20262P2z1y1z1P2P2x1i1h1g1f1e1d1c1b112",
"  b2W2P20262P2a1Z1J2J2Y1X1W1V1U1T1S1E2R1Q112",
"  b2W2P20262P20262P2P1O1N1M1L1K1J1E2E2I1H112",
"  b2W2P20262P2a1G1F1E1D1C1B1A1;1E2:1E2918112",
"  b2W2P202J2627161514131211101E2z0y0E2x0w012",
"  b2W2P2P2P2v0u0t0s0r0q0p0o0n0m0l0k0E2j0i012",
"  b2V2W2W2h0g0f0e0d0c0b0E2E2E2E2E2E2E2a0Z012",
"  Y0b2X0W0V0M1U0T0S0R0Q0P0O0A1N0M0c1x0L0K012",
"      J0I0H0G0F0E0D0E2C0B0F0A0;0E2:090807012",
"    E2E26050504060603060602012121012120012E2",
"                                            "};
