/* XPM */
static char *image[] = {
"48 48 897 2",
"   c None",
"00 c #0b0b19",
"10 c #312e28",
"20 c #434037",
"30 c #444038",
"40 c #444138",
"50 c #434138",
"60 c #44423a",
"70 c #46443c",
"80 c #494740",
"90 c #4d4b44",
":0 c #525049",
";0 c #56544d",
"A0 c #595851",
"B0 c #5c5b54",
"C0 c #605e58",
"D0 c #64615c",
"E0 c #65625d",
"F0 c #676560",
"G0 c #696762",
"H0 c #6a6863",
"I0 c #6e6b65",
"J0 c #716f6a",
"K0 c #716f6b",
"L0 c #6e6b67",
"M0 c #696761",
"N0 c #64625c",
"O0 c #5e5c56",
"P0 c #595751",
"Q0 c #55534c",
"R0 c #4f4d46",
"S0 c #4c4942",
"T0 c #4c4945",
"U0 c #67666a",
"V0 c #4f4f4f",
"W0 c #494640",
"X0 c #6e6b64",
"Y0 c #6d6a64",
"Z0 c #6c6b65",
"a0 c #6c6a64",
"b0 c #6c6964",
"c0 c #6c6a66",
"d0 c #6e6c67",
"e0 c #706f69",
"f0 c #777570",
"g0 c #797773",
"h0 c #7d7b77",
"i0 c #7f7d78",
"j0 c #83817d",
"k0 c #878481",
"l0 c #888682",
"m0 c #8c8a87",
"n0 c #8f8e89",
"o0 c #908e8b",
"p0 c #92908c",
"q0 c #918f8b",
"r0 c #8f8e8a",
"s0 c #8b8884",
"t0 c #898782",
"u0 c #85837f",
"v0 c #817f7a",
"w0 c #7d7b76",
"x0 c #787771",
"y0 c #787670",
"z0 c #73726c",
"01 c #747375",
"11 c #403d3c",
"21 c #393730",
"31 c #3a3730",
"41 c #3a3830",
"51 c #3b3831",
"61 c #3c3931",
"71 c #3d3a32",
"81 c #3f3c34",
"91 c #403d35",
":1 c #413e37",
";1 c #423f38",
"A1 c #434038",
"B1 c #45413a",
"C1 c #47433c",
"D1 c #48453d",
"E1 c #4a473e",
"F1 c #4b4940",
"G1 c #4c4941",
"H1 c #4e4a42",
"I1 c #504c44",
"J1 c #514d45",
"K1 c #514e46",
"L1 c #504d46",
"M1 c #4e4c43",
"N1 c #6f6d67",
"O1 c #45423a",
"P1 c #3e3b33",
"Q1 c #403c34",
"R1 c #4e4a40",
"S1 c #545046",
"T1 c #575449",
"U1 c #5a564c",
"V1 c #5c584e",
"W1 c #5d584e",
"X1 c #676258",
"Y1 c #68635a",
"Z1 c #69645a",
"a1 c #6b665c",
"b1 c #69665b",
"c1 c #68655a",
"d1 c #8c8a81",
"e1 c #413e36",
"f1 c #4f4b40",
"g1 c #4f4c42",
"h1 c #534f45",
"i1 c #555147",
"j1 c #5a564a",
"k1 c #5c584c",
"l1 c #5d594e",
"m1 c #605c51",
"n1 c #646055",
"o1 c #656156",
"p1 c #676358",
"q1 c #69655a",
"r1 c #6a665b",
"s1 c #6c685d",
"t1 c #6e695f",
"u1 c #6d695e",
"v1 c #6c685e",
"w1 c #6b675d",
"x1 c #8f8c85",
"y1 c #3d3b33",
"z1 c #6e6b63",
"02 c #5d5950",
"12 c #4f4b41",
"22 c #514e43",
"32 c #534f44",
"42 c #565348",
"52 c #575349",
"62 c #59554a",
"72 c #5a574c",
"82 c #5c584d",
"92 c #5e5a4f",
":2 c #605c52",
";2 c #625e54",
"A2 c #636055",
"B2 c #666257",
"C2 c #696459",
"D2 c #6a655a",
"E2 c #6b675c",
"F2 c #6e6a5f",
"G2 c #6f6b60",
"H2 c #706b61",
"I2 c #726c62",
"J2 c #726d62",
"K2 c #726d63",
"L2 c #716c62",
"M2 c #716d63",
"N2 c #6f6b61",
"O2 c #95938c",
"P2 c #3c3932",
"Q2 c #4c493f",
"R2 c #4d493f",
"S2 c #4d4a40",
"T2 c #4e4b41",
"U2 c #504c42",
"V2 c #504d43",
"W2 c #524e44",
"X2 c #545045",
"Y2 c #555247",
"Z2 c #575348",
"a2 c #585449",
"b2 c #59564b",
"c2 c #5b584d",
"d2 c #5d5a4f",
"e2 c #5f5a51",
"f2 c #615d53",
"g2 c #635f55",
"h2 c #666157",
"i2 c #686459",
"j2 c #6a665c",
"k2 c #6d685e",
"l2 c #6d695f",
"m2 c #706c61",
"n2 c #726e63",
"o2 c #736f64",
"p2 c #757066",
"q2 c #767268",
"r2 c #767267",
"s2 c #757166",
"t2 c #757167",
"u2 c #747065",
"v2 c #9d9a94",
"w2 c #767161",
"x2 c #857f6d",
"y2 c #86806e",
"z2 c #87816f",
"03 c #888271",
"13 c #8a8472",
"23 c #8c8674",
"33 c #8d8675",
"43 c #8e8977",
"53 c #91897b",
"63 c #938c7d",
"73 c #958f80",
"83 c #989283",
"93 c #999384",
":3 c #9b9686",
";3 c #9d9788",
"A3 c #9f998a",
"B3 c #a29c8e",
"C3 c #a59e90",
"D3 c #a7a092",
"E3 c #a8a294",
"F3 c #aaa395",
"G3 c #aba598",
"H3 c #ada899",
"I3 c #aea89a",
"J3 c #afa99b",
"K3 c #b0ab9d",
"L3 c #b1ab9e",
"M3 c #b1ab9d",
"N3 c #afab9d",
"O3 c #b0a99c",
"P3 c #aea99b",
"Q3 c #948f83",
"R3 c #7a756b",
"S3 c #79746a",
"T3 c #9f9c96",
"U3 c #7c7767",
"V3 c #66635a",
"W3 c #7f7b70",
"X3 c #7d796f",
"Y3 c #a4a19a",
"Z3 c #3c3a32",
"a3 c #4b483e",
"b3 c #4b483f",
"c3 c #7d7868",
"d3 c #181c18",
"e3 c #1b1e1b",
"f3 c #1d221d",
"g3 c #202420",
"h3 c #272b27",
"i3 c #292b29",
"j3 c #2c302c",
"k3 c #303330",
"l3 c #333933",
"m3 c #404340",
"n3 c #404540",
"o3 c #383d38",
"p3 c #343a34",
"q3 c #353835",
"r3 c #6a665e",
"s3 c #847f75",
"t3 c #a9a6a0",
"u3 c #3d3a33",
"v3 c #4c4940",
"w3 c #4d4a41",
"x3 c #7f796c",
"y3 c #212421",
"z3 c #262c26",
"04 c #2b2e2b",
"14 c #2e312e",
"24 c #2f352f",
"34 c #363c36",
"44 c #393d39",
"54 c #424a42",
"64 c #555c55",
"74 c #545b54",
"84 c #434943",
"94 c #6f6b63",
":4 c #89857a",
";4 c #878379",
"A4 c #aba8a2",
"B4 c #3f3c35",
"C4 c #4f4c43",
"D4 c #514d44",
"E4 c #817c6e",
"F4 c #1c201c",
"G4 c #3e423e",
"H4 c #464c46",
"I4 c #777b77",
"J4 c #c7c9c7",
"K4 c #fafafa",
"L4 c #fafbfa",
"M4 c #f5f5f5",
"N4 c #d2d4d2",
"O4 c #515651",
"P4 c #4e534e",
"Q4 c #4a4f4a",
"R4 c #808480",
"S4 c #d0d1d0",
"T4 c #3a403a",
"U4 c #736f66",
"V4 c #8e897f",
"W4 c #8d887f",
"X4 c #b1aea9",
"Y4 c #423e37",
"Z4 c #524f46",
"a4 c #545148",
"b4 c #837d6f",
"c4 c #262a26",
"d4 c #2e302e",
"e4 c #373e37",
"f4 c #484c48",
"g4 c #535b53",
"h4 c #5d635d",
"i4 c #676c67",
"j4 c #686e68",
"k4 c #686f68",
"l4 c #666e66",
"m4 c #a4a8a4",
"n4 c #e9e9e9",
"o4 c #4c534c",
"p4 c #76736a",
"q4 c #938e84",
"r4 c #928e84",
"s4 c #b7b3ae",
"t4 c #44413a",
"u4 c #555249",
"v4 c #57544b",
"w4 c #857f72",
"x4 c #202220",
"y4 c #242724",
"z4 c #4d514d",
"05 c #595d59",
"15 c #5f645f",
"25 c #616861",
"35 c #7f847f",
"45 c #c4c6c4",
"55 c #f7f7f7",
"65 c #babdba",
"75 c #939693",
"85 c #646764",
"95 c #424642",
":5 c #98948a",
";5 c #969288",
"A5 c #bcb8b2",
"B5 c #46433c",
"C5 c #59554c",
"D5 c #5b574e",
"E5 c #878275",
"F5 c #313531",
"G5 c #3a3d3a",
"H5 c #585c58",
"I5 c #6d746d",
"J5 c #787d78",
"K5 c #7a827a",
"L5 c #798179",
"M5 c #caccca",
"N5 c #5d645d",
"O5 c #5a5e5a",
"P5 c #555a55",
"Q5 c #807c73",
"R5 c #9c998e",
"S5 c #9b968d",
"T5 c #c5c3be",
"U5 c #48463f",
"V5 c #5b584f",
"W5 c #5e5a51",
"X5 c #8a8478",
"Y5 c #222522",
"Z5 c #585f58",
"a5 c #5f635f",
"b5 c #969b96",
"c5 c #cccecc",
"d5 c #fbfbfb",
"e5 c #fcfcfc",
"f5 c #d7d9d7",
"g5 c #6d706d",
"h5 c #494f49",
"i5 c #444944",
"j5 c #848078",
"k5 c #a29e94",
"l5 c #a09b92",
"m5 c #cac9c4",
"n5 c #4b4841",
"o5 c #5f5b52",
"p5 c #615d54",
"q5 c #8c877a",
"r5 c #444a44",
"s5 c #4d544d",
"t5 c #5f665f",
"u5 c #676f67",
"v5 c #788078",
"w5 c #868d86",
"x5 c #848b84",
"y5 c #838983",
"z5 c #7e857e",
"06 c #bfc1bf",
"16 c #f0f1f0",
"26 c #ffffff",
"36 c #595e59",
"46 c #545a54",
"56 c #88857d",
"66 c #a8a399",
"76 c #a6a198",
"86 c #cdcbc7",
"96 c #4e4b44",
":6 c #625e55",
";6 c #646057",
"A6 c #8e897c",
"B6 c #232723",
"C6 c #292d29",
"D6 c #393e39",
"E6 c #414541",
"F6 c #484f48",
"G6 c #525752",
"H6 c #5f655f",
"I6 c #6a6f6a",
"J6 c #707770",
"K6 c #d9dbd9",
"L6 c #8d8981",
"M6 c #ada89e",
"N6 c #aba69d",
"O6 c #d1cfcb",
"P6 c #504e46",
"Q6 c #656259",
"R6 c #67635a",
"S6 c #918b80",
"T6 c #2c2f2c",
"U6 c #313731",
"V6 c #3d423d",
"W6 c #505550",
"X6 c #636963",
"Y6 c #7c847c",
"Z6 c #808780",
"a6 c #838a83",
"b6 c #878c87",
"c6 c #888f88",
"d6 c #8b928b",
"e6 c #8a918a",
"f6 c #878e87",
"g6 c #808580",
"h6 c #5b625b",
"i6 c #918e85",
"j6 c #b1ada3",
"k6 c #b0aba2",
"l6 c #d3d2cf",
"m6 c #535049",
"n6 c #69655c",
"o6 c #6a665d",
"p6 c #938e83",
"q6 c #232523",
"r6 c #2a2c2a",
"s6 c #313631",
"t6 c #5a605a",
"u6 c #737a73",
"v6 c #7a807a",
"w6 c #7b817b",
"x6 c #7b827b",
"y6 c #797f79",
"z6 c #767d76",
"07 c #6f756f",
"17 c #4f544f",
"27 c #949189",
"37 c #b5b1a8",
"47 c #b4b0a7",
"57 c #d6d5d1",
"67 c #56524b",
"77 c #6d675f",
"87 c #6e6a61",
"97 c #979185",
":7 c #323732",
";7 c #3b3f3b",
"A7 c #484e48",
"B7 c #767b76",
"C7 c #7d857d",
"D7 c #818781",
"E7 c #899089",
"F7 c #8c928c",
"G7 c #8c938c",
"H7 c #8b918b",
"I7 c #898f89",
"J7 c #666d66",
"K7 c #666c66",
"L7 c #99958d",
"M7 c #b8b4ab",
"N7 c #d8d7d3",
"O7 c #59554e",
"P7 c #706c63",
"Q7 c #726e65",
"R7 c #9a9489",
"S7 c #2b2d2b",
"T7 c #333733",
"U7 c #495049",
"V7 c #626762",
"W7 c #656b65",
"X7 c #717671",
"Y7 c #737873",
"Z7 c #757c75",
"a7 c #777e77",
"b7 c #777d77",
"c7 c #6c726c",
"d7 c #626862",
"e7 c #626662",
"f7 c #636763",
"g7 c #666966",
"h7 c #6a6e6a",
"i7 c #474d47",
"j7 c #bfbab1",
"k7 c #bdbab0",
"l7 c #dcdad6",
"m7 c #5c5951",
"n7 c #737067",
"o7 c #757269",
"p7 c #9c968b",
"q7 c #343734",
"r7 c #4e554e",
"s7 c #575c57",
"t7 c #6c716c",
"u7 c #6f766f",
"v7 c #727872",
"w7 c #777c77",
"x7 c #818681",
"y7 c #848a84",
"z7 c #858c85",
"08 c #868c86",
"18 c #888e88",
"28 c #878d87",
"38 c #828882",
"48 c #7c837c",
"58 c #7a7f7a",
"68 c #7c827c",
"78 c #575a57",
"88 c #c3bfb7",
"98 c #c0bdb4",
":8 c #deddd9",
";8 c #5f5c55",
"A8 c #78746b",
"B8 c #79766d",
"C8 c #a09a8f",
"D8 c #222622",
"E8 c #2a2d2a",
"F8 c #464a46",
"G8 c #4d534d",
"H8 c #585e58",
"I8 c #5b615b",
"J8 c #616761",
"K8 c #646b64",
"L8 c #696f69",
"M8 c #697069",
"N8 c #6b716b",
"O8 c #717771",
"P8 c #707670",
"Q8 c #6e746e",
"R8 c #727772",
"S8 c #7a7e7a",
"T8 c #7d807d",
"U8 c #454a45",
"V8 c #a5a19a",
"W8 c #c4c0b7",
"X8 c #e6e4e2",
"Y8 c #625f57",
"Z8 c #7b786f",
"a8 c #7e7a71",
"b8 c #a39e93",
"c8 c #292e29",
"d8 c #434a43",
"e8 c #606660",
"f8 c #686d68",
"g8 c #6a716a",
"h8 c #6d736d",
"i8 c #707570",
"j8 c #747a74",
"k8 c #767c76",
"l8 c #787e78",
"m8 c #798079",
"n8 c #7a817a",
"o8 c #7d847d",
"p8 c #808680",
"q8 c #828982",
"r8 c #858b85",
"s8 c #868b86",
"t8 c #8b8f8b",
"u8 c #8d928d",
"v8 c #969996",
"w8 c #515451",
"x8 c #a9a59e",
"y8 c #cac7bf",
"z8 c #e8e7e5",
"09 c #65625b",
"19 c #7f7c73",
"29 c #827e75",
"39 c #a6a196",
"49 c #2d322d",
"59 c #353a35",
"69 c #3a3f3a",
"79 c #434743",
"89 c #474c47",
"99 c #505650",
":9 c #565a56",
";9 c #5a5f5a",
"A9 c #5c625c",
"B9 c #606560",
"C9 c #646a64",
"D9 c #676d67",
"E9 c #6e736e",
"F9 c #757a75",
"G9 c #797e79",
"H9 c #7e827e",
"I9 c #818581",
"J9 c #868a86",
"K9 c #8a8d8a",
"L9 c #8f928f",
"M9 c #949794",
"N9 c #aca9a1",
"O9 c #cdc9c0",
"P9 c #68645d",
"Q9 c #837f76",
"R9 c #868279",
"S9 c #a9a499",
"T9 c #282a28",
"U9 c #2f342f",
"V9 c #393c39",
"W9 c #3d433d",
"X9 c #454b45",
"Y9 c #4b4e4b",
"Z9 c #525952",
"a9 c #575d57",
"b9 c #5b605b",
"c9 c #5c635c",
"d9 c #5e645e",
"e9 c #636863",
"f9 c #656a65",
"g9 c #656c65",
"h9 c #6a706a",
"i9 c #6d726d",
"j9 c #737973",
"k9 c #7b807b",
"l9 c #838783",
"m9 c #888d88",
"n9 c #8e928e",
"o9 c #919691",
"p9 c #949894",
"q9 c #9a9c9a",
"r9 c #9da09d",
"s9 c #a8aaa8",
"t9 c #4a4d4a",
"u9 c #aeaba4",
"v9 c #eceae8",
"w9 c #6b6861",
"x9 c #86827a",
"y9 c #8a857d",
"z9 c #aca79c",
"0: c #1f221f",
"1: c #252725",
"2: c #2a2e2a",
"3: c #303430",
"4: c #3a3e3a",
"5: c #464b46",
"6: c #494e49",
"7: c #4b504b",
"8: c #4e524e",
"9: c #525652",
":: c #595f59",
";: c #616661",
"A: c #696e69",
"B: c #727672",
"C: c #7a7d7a",
"D: c #828682",
"E: c #878b87",
"F: c #8e908e",
"G: c #a0a2a0",
"H: c #9fa29f",
"I: c #b1aea6",
"J: c #d3d1c9",
"K: c #d3cfc7",
"L: c #ecebe9",
"M: c #6f6b64",
"N: c #8a867e",
"O: c #8e8980",
"P: c #afa9a0",
"Q: c #262926",
"R: c #303230",
"S: c #373c37",
"T: c #434843",
"U: c #4a504a",
"V: c #535a53",
"W: c #555b55",
"X: c #585d58",
"Y: c #5b5f5b",
"Z: c #646964",
"a: c #6c706c",
"b: c #757b75",
"c: c #7c817c",
"d: c #858a85",
"e: c #8c908c",
"f: c #939793",
"g: c #999d99",
"h: c #a0a4a0",
"i: c #a5a8a5",
"j: c #acaeac",
"k: c #aaadaa",
"l: c #a7aaa7",
"m: c #a6a9a6",
"n: c #a4a6a4",
"o: c #424842",
"p: c #b3b0a9",
"q: c #d5d1ca",
"r: c #edece9",
"s: c #716e67",
"t: c #8e8a81",
"u: c #b1aca2",
"v: c #1d201d",
"w: c #212521",
"x: c #2b2f2b",
"y: c #333833",
"z: c #363b36",
"0; c #3b3e3b",
"1; c #3d413d",
"2; c #3f433f",
"3; c #404440",
"4; c #414641",
"5; c #4b4f4b",
"6; c #545954",
"7; c #5e635e",
"8; c #696c69",
"9; c #707470",
":; c #797d79",
";; c #828482",
"A; c #8b8e8b",
"B; c #929592",
"C; c #999c99",
"D; c #a3a5a3",
"E; c #a2a4a2",
"F; c #a1a3a1",
"G; c #9fa19f",
"H; c #9ea09e",
"I; c #9d9e9d",
"J; c #353935",
"K; c #b5b2ab",
"L; c #d9d5ce",
"M; c #747169",
"N; c #928d84",
"O; c #969188",
"P; c #b4afa5",
"Q; c #242824",
"R; c #282b28",
"S; c #2f322f",
"T; c #323632",
"U; c #373b37",
"V; c #3c413c",
"W; c #3f443f",
"X; c #444844",
"Y; c #484b48",
"Z; c #4b514b",
"a; c #4c514c",
"b; c #4d524d",
"c; c #4e544e",
"d; c #515751",
"e; c #535753",
"f; c #535853",
"g; c #535953",
"h; c #525852",
"i; c #515551",
"j; c #505450",
"k; c #4c524c",
"l; c #4a4e4a",
"m; c #484d48",
"n; c #454945",
"o; c #424742",
"p; c #3e433e",
"q; c #77746c",
"r; c #959188",
"s; c #98958b",
"t; c #aca89e",
"u; c #b7b5ad",
"v; c #79766e",
"w; c #98948b",
"x; c #9b988e",
"y; c #9f9a91",
"z; c #86827b",
"0A c #8a8780",
"1A c #8e8b82",
"2A c #918e86",
"3A c #94918a",
"4A c #98958e",
"5A c #9d9991",
"6A c #a19d95",
"7A c #a4a098",
"8A c #a7a39c",
"9A c #a9a69f",
":A c #aca8a1",
";A c #aeaaa3",
"AA c #afaca4",
"BA c #b1afa7",
"CA c #b3b0a8",
"DA c #b5b2aa",
"EA c #b6b3ac",
"FA c #b7b4ad",
"GA c #b9b5ae",
"HA c #b9b6b0",
"IA c #bbb7b1",
"JA c #bbb8b2",
"KA c #bcb9b3",
"LA c #bcb9b2",
"MA c #bbb8b1",
"NA c #bab7b0",
"OA c #b8b6af",
"PA c #c8c6be",
"QA c #d7d4cd",
"RA c #7b7871",
"SA c #9b978e",
"TA c #9e9a92",
"UA c #a5a198",
"VA c #a9a59c",
"WA c #aeaaa1",
"XA c #b2aea5",
"YA c #b6b2aa",
"ZA c #bab6ad",
"aA c #beb9b1",
"bA c #c1bdb5",
"cA c #c5c2ba",
"dA c #c9c5bd",
"eA c #cdc8c0",
"fA c #cecbc3",
"gA c #d1cdc5",
"hA c #d3cfc8",
"iA c #d5d1c9",
"jA c #d7d3cc",
"kA c #dad7d0",
"lA c #dcd9d2",
"mA c #dedad3",
"nA c #dfdbd4",
"oA c #e0ddd6",
"pA c #dfddd6",
"qA c #dfddd5",
"rA c #dddad2",
"sA c #dbd8d0",
"tA c #d8d6cd",
"uA c #d6d4cb",
"vA c #827e77",
"wA c #9e9990",
"xA c #a19c94",
"yA c #a49f97",
"zA c #a6a399",
"0B c #ada8a0",
"1B c #b0aca3",
"2B c #b4afa7",
"3B c #b7b3ab",
"4B c #bbb7af",
"5B c #c0bbb3",
"6B c #c3bfb6",
"7B c #c7c3bb",
"8B c #cac6be",
"9B c #cecac2",
":B c #d0ccc4",
";B c #d2cec6",
"AB c #d4d1c9",
"BB c #d7d3cb",
"CB c #d9d5cd",
"DB c #dad6ce",
"EB c #dddad3",
"FB c #dedbd3",
"GB c #dedcd4",
"HB c #dedbd4",
"IB c #dddbd3",
"JB c #dcdad2",
"KB c #dbd8d1",
"LB c #dad7cf",
"MB c #d9d6ce",
"NB c #d7d4cc",
"OB c #d5d2ca",
"PB c #efeeed",
"QB c #858174",
"RB c #b0aca6",
"SB c #b6b2ac",
"TB c #b8b5ae",
"UB c #bab8b1",
"VB c #bfbdb8",
"WB c #c2c0bb",
"XB c #c6c3be",
"YB c #c9c6c1",
"ZB c #ccc9c4",
"aB c #d0cdc7",
"bB c #d3d0cb",
"cB c #d6d4ce",
"dB c #d9d7d3",
"eB c #e1dfdb",
"fB c #e6e4e0",
"gB c #e6e5e1",
"hB c #e8e7e4",
"iB c #e9e8e4",
"jB c #ebeae7",
"kB c #ecebe8",
"lB c #edece8",
"mB c #eeeeeb",
"nB c #f1f1ee",
"oB c #f2f2ef",
"pB c #f1f0ed",
"qB c #f0f0ed",
"rB c #f2f1ef",
"sB c #f1f0ee",
"tB c #f0efed",
"uB c #efeeec",
"vB c #eae9e6",
"wB c #cecdcb",
"xB c #000000",
"yB c #010101",
"zB c #020202",
"                                                                                                ",
"                                                                                                ",
"                                                                                                ",
"                                                                                                ",
"      zByBxBxBxBxBxBxBxBxBxBxBxBxBxBxBxBxBxBxBxBxBxBxBxBxBxBxBxBxBxBxBxBxBxBxBxBxBxBxB          ",
"    xBwBvBuBtBsBrBqBpBoBoBoBoBoBoBoBnBmBlBkBjBvBiBhBgBfBeBdBcBbBaBZBYBXBWBVBUBTBSBRBQBxB        ",
"    xBPBOBNBMBLBKBJBIBHBGBGBFBGBGBHBFBEBJBKBDBCBBBAB;B:B9B8B7B6B5B4B3B2B1B0BzAyAxAwAvAxB        ",
"    xBuBuAtALBsArAFBGBqApApApAoAqAnAmAlAsAkAMBjAiAhAgAfAeAdAcAbAaAZAYAXAWAVAUAxATASARAxB        ",
"    xBtBQAMBPAOANAMALAKAKALAJAMAIAHAGAFAEADACABAAA;A:A9A8A7A6A5A4A3A2A1A0Az;z;y;x;w;v;xB        ",
"    xBqBMBLBu;xBxBxBxBxBxBxBxBxBxBxBxBxBxBxBxBxBxBxBxBxBxBxBxBxBxBxBxBxBxBxBxBt;s;r;q;xB        ",
"    xBsBMBLBFAxBp;o;n;m;l;k;j;i;h;h;g;f;e;d;d;c;b;a;Z;l;Y;n;X;W;V;U;T;S;R;Q;xBP;O;N;M;xB        ",
"    xBqBQAL;K;xBJ;I;H;G;F;E;D;F;C;B;A;;;:;9;8;7;6;5;4;3;2;1;0;z:y:S;x:Q;w:v:xBu:N;t:s:xB        ",
"    xBr:q:jAp:xBo:n:m:l:k:j:i:h:g:f:e:d:c:b:a:Z:Y:X:W:V:i;i;a;U:T:p;S:R:x:Q:xBP:O:N:M:xB        ",
"    xBL:K:J:I:xB0;H:E;D;G:C;f:F:E:D:C:B:A:;:::9:i;8:k;7:6:5:X;4;4:z:3:2:1:0:xBz9y9x9w9xB        ",
"    xBv9:BgAu9xBt9s9l:E;r9q9p9o9n9m9l9k9j9i9h9A:g9f9e9d9c9b9a9Z9Y9X9W9V9U9T9xBS9R9Q9P9xB        ",
"    xBvBO99BN9xB3;q9M9L9K9J9I9H9G9F9E9D9C9e9B9d9A9;9a9:9h;99b;8979695949R;w:xB39291909xB        ",
"    xBz8dAy8x8xBw8v8B;u8t8m9s8r8q8q8p8o8n8m8l8k8j8i8h8g8f8C9e8::6;6:d84:T;c8xBb8a8Z8Y8xB        ",
"    xBX8W87BV8xBU8I9T8S8F9R8i8Q8Q8P8P8O8O8Q8N8M8L8K8J87;I8H86;G8F83;S:U9E8D8xBC8B8A8;8xB        ",
"    xB:898886AxB78I968c:k958l84838r8281808z7y7x748m8w7v7u7t7C9e8s7r7n;p;q7x:xBp7o7n7m7xB        ",
"    xBl7k7j75AxBi7h7g7f7e7d7D9c7v7b:b7l8a7b7Z7Y7X7c7L8W7V7d9X:e;U7T:4:T7S7D8xBR7Q7P7O7xB        ",
"    xBN7M7ZAL7xBs7L8K7J7E9j9n8p8y7I7H7G7F7H7E728y7D7C7m8B7O8g8d7b9j;A7;7:7x:xB97877767xB        ",
"    xB57473727xBm;17d;s7d9d7L807j9z6y6x6w6v6m8a7u6O8Q8g8K7B9t6g;Z;o;;7s6r6q6xBp6o6n6m6xB        ",
"    xBl6k6j6i6xBH8h6e7J7c7v7v6g6r8f6e6F7u8d6e6c6b6a6Z6Y6w7O8a:X6;9W689V6U6T6xBS6R6Q6P6xB        ",
"    xBO6N6M6L6xBm;5;K6F;V7e8K7N8J6j8b7a7y6l8b7b:j9J6E9I6Z:H6::G6F6E6D6T7C6B6xBA6;6:696xB        ",
"    xB86766656xB463626261606s8n8z5y5x5w5f628z7z7y5D7o8v5u6h8u5t5X:s5r5V;:7x:xBq5p5o5n5xB        ",
"    xBm5l5k5j5xBi5h5g5l:f5e5d5c5b5c707i8J6J6P807E9g8J7X6a5Z546G8U81;z:3:R;Y5xBX5W5V5U5xB        ",
"    xBT5S5R5Q5xBd;P5O5N5d7w6M52626b7G9L5x6K5K5m8J5u6O8I5M8Z:A9H5W6X9W;G5F52:xBE5D5C5B5xB        ",
"    xBA5;5:5Z8xB95r585756555d54535B925d7e9d7d7;:15I8056;G6z4A7o:p;U;T;x:y4x4xBw4v4u4t4xB        ",
"    xBs4r4q4p4xBo4j;2626n4m4P8f9l4k4g8h9M8h9j4i4K7Z:H6h436g4b;f4d8V6e4T;d4c4xBb4a4Z4Y4xB        ",
"    xBX4W4V4U4xBT4p;S4R45;Q4a;P4j;O4G6N4M4L4K4K4J4I4H4o:3;G4D6J;:749c8Q:Y5F4xBE4D4C4B4xB        ",
"    xBA4;4:494xB84X9U:U:o4W66;74X:H8a9H8X:64h;d;P4b;U:Y;54E61;4434241404z3y3xBx3w3v3u3xB        ",
"    xBt329s3r3xBq3p334o3D61;p;2;G43;n3m3p;V;V6694459l3T7k3j3E8i3h3y4g3f3e3d3xBc3b3a3Z3xB        ",
"    xBY3X3W3V3xBxBxBxBxBxBxBxBxBxBxBxBxBxBxBxBxBxBxBxBxBxBxBxBxBxBxBxBxBxBxBxBU3a3a3Z3xB        ",
"    xBT3S3R3Q3P3O3N3M3M3L3K3J3I3H3G3F3E3D3C3B3A3;3:393837363534333231303z2y2x2w2a3a3Z3xB        ",
"    xBv2u2t2t2s2r2q2t2p2p2u2o2n2m2l2k2j2i2h2g2f2e2d2c2b2a2Z2Y2X2W2V2U2T2S2R2Q2a3a3a3P2xB        ",
"    xBO2N2M2M2L2K2n2J2I2L2H2G2F2E2D2C2B2A2;2:2928272625242Y2X23222U2120294z1Z4a3a3a3y1xB        ",
"    xBx1w1v1l2k2l2u1u1t1s1E2r1q1p1o1n1f2m192l1k1j162a242i1X2h122V2g1f1q;R2Q2e1a3a3a3Z3xB        ",
"    xBd1c1b1j2a1j2j2a1j2b1Z1Y1X1o1g2;2m192W1V1U162T1Z2Y2S1h1W2V2g1f1R1R2Q1P1a3a3a3a3O1xB        ",
"    xBN1M1L1K1K1K1J1K1K1J1J1I1C4H1G1F1E1D1C1C1B1A1;1Y4:19181P171P261514131312121214111xB        ",
"      xBxBxB01z0y0x0w0v0u0t0s0r0q0p0o0n0m0s0l0k0j0v0i0h0g0f0z0e0d0c0b0a0Z0Y0X0W0xBxBxBV0        ",
"          xBU0T0S0R0Q0P0O0N0M0L0K0J0N1I0H0G0F0E0D0C0B0A0;0:0908070B5605040302010xB              ",
"            xBxBxBxBxBxBxBxBxBxBxBxBxBxBxBxBxBxBxBxBxBxBxBxBxBxBxBxBxBxBxBxBxBxB00              ",
"                                                                                                ",
"                                                                                                ",
"                                                                                                ",
"                                                                                                ",
"                                                                                                ",
"                                                                                                "};
