/* XPM */
static char *image[] = {
"22 22 201 2",
"   c None",
"00 c #838580",
"10 c #82847f",
"20 c #636461",
"30 c #9d9f9b",
"40 c #dcdedb",
"50 c #e8e8e7",
"60 c #a9aaa7",
"70 c #696b67",
"80 c #7b7d78",
"90 c #a4a6a1",
":0 c #d9dbd7",
";0 c #aeb1ab",
"A0 c #b5b7b3",
"B0 c #f3f4f3",
"C0 c #7f817d",
"D0 c #888a84",
"E0 c #a6a8a3",
"F0 c #9ea09b",
"G0 c #858585",
"H0 c #929292",
"I0 c #afb2ae",
"J0 c #bebfbc",
"K0 c #969994",
"L0 c #b8bbb5",
"M0 c #999b97",
"N0 c #c1c1c1",
"O0 c #dcdcdc",
"P0 c #abada9",
"Q0 c #dedfdc",
"R0 c #a8aaa6",
"S0 c #898b85",
"T0 c #bbbeb8",
"U0 c #bbbeb7",
"V0 c #bcbeb8",
"W0 c #b0b1ae",
"X0 c #b7b8b6",
"Y0 c #c0c3be",
"Z0 c #c3c6bf",
"a0 c #90928c",
"b0 c #878984",
"c0 c #9da099",
"d0 c #babdb6",
"e0 c #c3c6c0",
"f0 c #c6c8c3",
"g0 c #bfc2bc",
"h0 c #bec1bc",
"i0 c #8b8e88",
"j0 c #b2b5ae",
"k0 c #b8bbb4",
"l0 c #bec0ba",
"m0 c #929391",
"n0 c #949593",
"o0 c #c7c9c5",
"p0 c #c4c6c0",
"q0 c #bfc1bb",
"r0 c #d0d2cd",
"s0 c #989b95",
"t0 c #979b94",
"u0 c #b6b9b2",
"v0 c #babdb7",
"w0 c #b8b8b8",
"x0 c #d2d2d2",
"y0 c #c2c3bf",
"z0 c #c1c4be",
"01 c #c1c3be",
"11 c #bec0bb",
"21 c #a3a69e",
"31 c #b5b8b1",
"41 c #c4c5c2",
"51 c #c3c5c2",
"61 c #d5d6d2",
"71 c #cccec9",
"81 c #c5c7c2",
"91 c #c5c7c3",
":1 c #8f918b",
";1 c #8a8e85",
"A1 c #a8aba3",
"B1 c #b8bab4",
"C1 c #d5d7d3",
"D1 c #dbddd9",
"E1 c #cfd1cd",
"F1 c #c0c3bd",
"G1 c #c1c3bd",
"H1 c #9ea19b",
"I1 c #878a84",
"J1 c #90958b",
"K1 c #acb0a8",
"L1 c #babcb6",
"M1 c #c2c5bf",
"N1 c #d8d9d5",
"O1 c #969796",
"P1 c #9b9b9a",
"Q1 c #dcdeda",
"R1 c #d3d4d0",
"S1 c #cbcdc8",
"T1 c #c3c5bf",
"U1 c #bcbfb8",
"V1 c #b2b5af",
"W1 c #7a7e78",
"X1 c #7b7c7b",
"Y1 c #91928f",
"Z1 c #c5c7c1",
"a1 c #cdcfca",
"b1 c #bebebe",
"c1 c #d9dad7",
"d1 c #dddedb",
"e1 c #d6d7d3",
"f1 c #cdcfcb",
"g1 c #939490",
"h1 c #7e7e7e",
"i1 c #979995",
"j1 c #868982",
"k1 c #838482",
"l1 c #cacaca",
"m1 c #b1b1b1",
"n1 c #c4c6c1",
"o1 c #d8d9d6",
"p1 c #d2d3d1",
"q1 c #d5d6d4",
"r1 c #e7e8e6",
"s1 c #e0e1de",
"t1 c #d8dad6",
"u1 c #cfd1cc",
"v1 c #8e8e8e",
"w1 c #cfcfcf",
"x1 c #aaaaa9",
"y1 c #8a8d86",
"z1 c #82877d",
"02 c #8d8f89",
"12 c #c5c5c4",
"22 c #b6b7b4",
"32 c #dadbd7",
"42 c #eff0ee",
"52 c #ebecea",
"62 c #e3e4e1",
"72 c #d1d2ce",
"82 c #aaaba8",
"92 c #cacbca",
":2 c #b1b2ae",
";2 c #8d9189",
"A2 c #878983",
"B2 c #7d8378",
"C2 c #9ba096",
"D2 c #b7bab3",
"E2 c #bec1bb",
"F2 c #dadbd8",
"G2 c #898988",
"H2 c #90908f",
"I2 c #e4e5e2",
"J2 c #d1d3cf",
"K2 c #cdceca",
"L2 c #c8cac5",
"M2 c #bdc0ba",
"N2 c #90938b",
"O2 c #92958e",
"P2 c #b7b9b3",
"Q2 c #c7c9c4",
"R2 c #d0d1cd",
"S2 c #d2d4d0",
"T2 c #dbdcd9",
"U2 c #b5b6b4",
"V2 c #acacac",
"W2 c #cccccc",
"X2 c #c0c0bf",
"Y2 c #dfe0de",
"Z2 c #e3e4e2",
"a2 c #d9dbd8",
"b2 c #b4b7b2",
"c2 c #949690",
"d2 c #888a85",
"e2 c #868883",
"f2 c #888b85",
"g2 c #898b86",
"h2 c #9a9c97",
"i2 c #c5c6c2",
"j2 c #e2e3e0",
"k2 c #e4e5e3",
"l2 c #dcdcda",
"m2 c #babab9",
"n2 c #d1d1d1",
"o2 c #e1e1df",
"p2 c #f1f2f0",
"q2 c #eeefee",
"r2 c #bec0bc",
"s2 c #8c8e89",
"t2 c #9c9e99",
"u2 c #d4d6d2",
"v2 c #f3f4f2",
"w2 c #f2f3f1",
"x2 c #f4f5f4",
"y2 c #fcfcfc",
"z2 c #d3d4d1",
"03 c #90928d",
"13 c #8b8d88",
"23 c #9c9d99",
"33 c #dededc",
"43 c #e7e7e6",
"53 c #9e9e9b",
"63 c #8e908b",
"73 c #8d8f8a",
"                    7363                    ",
"                735343332373                ",
"            1303z2y2x2w2v2u2t213            ",
"        s2s2r2q2p2o2n2m2l2k2j2i2h2g2f2      ",
"  e2d2c2b2a2Z2Y2k2X2W2V2U2T2S2R2Q2P2O2e213  ",
"  e2N2M2L2K2J2T2I2l2H2G2F2T2J2L2E2D2C2B213  ",
"  A2;2:2928272F262524252623272Q2221202z113  ",
"    y1x1w1v1u1t1s1r1q1p1s1o1u1n1m1l1k1j1    ",
"    f2i1h1g1f1e1d1c192b1p1e1a1Z1Y1X1W1f2    ",
"    d2V1U1T1S1R132Q1P1O1N1R1S1M1L1K1J1d2    ",
"    I1H1G1F1L2E1e132D132C1E1L2F1B1A1;1d2    ",
"      :191M28171J2615141J27181M23121g2      ",
"      d21101z0L2a1y0x0w0L2L2z0v0u0t0A2      ",
"        s0r0q0p0L2o0n0m0L2p0l0k0j0i0        ",
"        g2h0a1g0p0f0Q2f0e0g0d0q0c0b0        ",
"          a0t1Z0q0Y0X0W0V0U0T0d0g2          ",
"          S0R0Q0l0P0O0N0M0L0L2K0            ",
"            g2J0r1I0H0G0F0J2E0D0            ",
"              C022B0A0;0:09080              ",
"                706050403020                ",
"                    1000                    ",
"                                            "};
