/* XPM */
static char *image[] = {
"22 22 28 1",
"  c None",
"0 c #979b94",
"1 c #949590",
"2 c #8e908c",
"3 c #000000",
"4 c #6e706c",
"5 c #dce0d8",
"6 c #f1f2ef",
"7 c #eceeea",
"8 c #8b8d88",
"9 c #d3d6ce",
": c #d3d7cf",
"; c #8a8c87",
"A c #b0b3ab",
"B c #e2e3de",
"C c #e3e5e1",
"D c #e6e8e4",
"E c #e8eae5",
"F c #ebede9",
"G c #eff0ed",
"H c #f3f4f2",
"I c #f7f7f6",
"J c #fbfbfa",
"K c #ffffff",
"L c #969a93",
"M c #93948f",
"N c #8d8f8b",
"O c #888a85",
"                      ",
"OOOOOOOOOOOOOOOOONML  ",
"OKKKKKKKKKKJIHGFEDCB  ",
"OKA;OOOO;A::::::::9   ",
"OK87666678::::::::9   ",
"OKO655556O::::::::9   ",
"OKO655556O::::::::9   ",
"OKO655556O::::::::9   ",
"OKO655556O::::::::9   ",
"OKO655456O::::::::9   ",
"OKO654356O::::::::9   ",
"OKO654356O::::::::9   ",
"OKO655456O::::::::9   ",
"OKO655556O::::::::9   ",
"OKO655556O::::::::9   ",
"OKO655556O::::::::9   ",
"OKO655556O::::::::9   ",
"OK87666678::::::::9   ",
"OKA;OOOO;A::::::::9   ",
"OKKKKKKKKKKJIHGFEDCB  ",
"OOOOOOOOOOOOOOOOO210  ",
"                      "};
