/* XPM */
static char *image[] = {
"48 48 561 2",
"   c None",
"00 c #2f3742",
"10 c #363e4a",
"20 c #384250",
"30 c #394351",
"40 c #353f4c",
"50 c #2f3947",
"60 c #262f3c",
"70 c #1a1f29",
"80 c #29303b",
"90 c #3e4656",
":0 c #454f5e",
";0 c #444f5e",
"A0 c #434d5c",
"B0 c #414c5b",
"C0 c #3d4957",
"D0 c #394453",
"E0 c #2f3849",
"F0 c #212938",
"G0 c #171d2c",
"H0 c #141823",
"I0 c #465060",
"J0 c #454f5f",
"K0 c #434e5d",
"L0 c #424c5b",
"M0 c #404b59",
"N0 c #3f4958",
"O0 c #3c4756",
"P0 c #374251",
"Q0 c #313b4b",
"R0 c #242b3b",
"S0 c #171f2e",
"T0 c #191f2d",
"U0 c #363a43",
"V0 c #3d4655",
"W0 c #464e5f",
"X0 c #444d5d",
"Y0 c #3e4958",
"Z0 c #3b4555",
"a0 c #35404f",
"b0 c #30394a",
"c0 c #232b3b",
"d0 c #171e2c",
"e0 c #191f2e",
"f0 c #353a42",
"g0 c #3d4554",
"h0 c #424c5c",
"i0 c #414c5c",
"j0 c #404a59",
"k0 c #3a4453",
"l0 c #36414f",
"m0 c #384251",
"n0 c #343e4d",
"o0 c #303949",
"p0 c #232a3b",
"q0 c #151c2b",
"r0 c #151d2b",
"s0 c #353a43",
"t0 c #404a5a",
"u0 c #414b5a",
"v0 c #3d4756",
"w0 c #3a4352",
"x0 c #394250",
"y0 c #39414f",
"z0 c #37404f",
"01 c #353e4b",
"11 c #313947",
"21 c #262e3d",
"31 c #171e2d",
"41 c #121927",
"51 c #353942",
"61 c #363e4c",
"71 c #3e4856",
"81 c #384150",
"91 c #2d3645",
":1 c #2c3341",
";1 c #2b3240",
"A1 c #2d3542",
"B1 c #2b3342",
"C1 c #2e3643",
"D1 c #2b3341",
"E1 c #252d3b",
"F1 c #19212f",
"G1 c #111825",
"H1 c #2e333b",
"I1 c #2a303d",
"J1 c #2d3443",
"K1 c #242b3a",
"L1 c #202735",
"M1 c #1f2431",
"N1 c #181c28",
"O1 c #1d222e",
"P1 c #2e353f",
"Q1 c #313842",
"R1 c #2e3440",
"S1 c #202734",
"T1 c #1c2331",
"U1 c #0e1523",
"V1 c #262a31",
"W1 c #1b202d",
"X1 c #1f2432",
"Y1 c #181d2a",
"Z1 c #111521",
"a1 c #11141f",
"b1 c #0f121d",
"c1 c #131723",
"d1 c #222732",
"e1 c #30343d",
"f1 c #2d313a",
"g1 c #1f2532",
"h1 c #191f2c",
"i1 c #0f1421",
"j1 c #1b1d24",
"k1 c #111624",
"l1 c #1b2030",
"m1 c #1f1b27",
"n1 c #321c23",
"o1 c #441f25",
"p1 c #4d2328",
"q1 c #582c31",
"r1 c #704d53",
"s1 c #8c7274",
"t1 c #908283",
"u1 c #3f434e",
"v1 c #151c29",
"w1 c #0d121e",
"x1 c #1f1a20",
"y1 c #4d191d",
"z1 c #6c272b",
"02 c #7b2427",
"12 c #811c1b",
"22 c #941b12",
"32 c #a21a10",
"42 c #aa1a11",
"52 c #b51611",
"62 c #bb1712",
"72 c #c3211b",
"82 c #ba2621",
"92 c #952a29",
":2 c #441f26",
";2 c #791f1e",
"A2 c #7a2629",
"B2 c #7e2628",
"C2 c #7c1d1c",
"D2 c #951e16",
"E2 c #a11d15",
"F2 c #a71c14",
"G2 c #b11913",
"H2 c #b91914",
"I2 c #c21c17",
"J2 c #c01b14",
"K2 c #c0170f",
"L2 c #a7221d",
"M2 c #731f1f",
"N2 c #812628",
"O2 c #872b2d",
"P2 c #882525",
"Q2 c #98221d",
"R2 c #a1221c",
"S2 c #a3211a",
"T2 c #ac1f18",
"U2 c #b61f1a",
"V2 c #bd221c",
"W2 c #c21b13",
"X2 c #be160e",
"Y2 c #a41813",
"Z2 c #6d1e1f",
"a2 c #852729",
"b2 c #8a2729",
"c2 c #891c18",
"d2 c #a21b11",
"e2 c #ad2017",
"f2 c #b31e17",
"g2 c #b91f1a",
"h2 c #bf221b",
"i2 c #c41c13",
"j2 c #bd160d",
"k2 c #9a140e",
"l2 c #87292b",
"m2 c #872628",
"n2 c #7e1613",
"o2 c #8d160e",
"p2 c #96180d",
"q2 c #a0190e",
"r2 c #ae160f",
"s2 c #b01710",
"t2 c #b9160f",
"u2 c #c3180f",
"v2 c #be160d",
"w2 c #99140d",
"x2 c #6b1f1f",
"y2 c #892a2c",
"z2 c #89292d",
"03 c #8b2828",
"13 c #911e17",
"23 c #982019",
"33 c #9d1b11",
"43 c #ae2521",
"53 c #b41e18",
"63 c #bb150e",
"73 c #c2170e",
"83 c #bf160c",
"93 c #97120c",
":3 c #6d1f21",
";3 c #8a2a2e",
"A3 c #902a2b",
"B3 c #8c1c18",
"C3 c #971910",
"D3 c #9d170d",
"E3 c #9d190f",
"F3 c #b91813",
"G3 c #ba1712",
"H3 c #bd140e",
"I3 c #c3160d",
"J3 c #94120b",
"K3 c #6e1f20",
"L3 c #8d2c2f",
"M3 c #8f2729",
"N3 c #7f1917",
"O3 c #991a13",
"P3 c #9c160e",
"Q3 c #a01b13",
"R3 c #b81d19",
"S3 c #b41510",
"T3 c #bc140c",
"U3 c #c3170e",
"V3 c #95120a",
"W3 c #6e2021",
"X3 c #8d2c30",
"Y3 c #90282a",
"Z3 c #871917",
"a3 c #9a1b13",
"b3 c #981911",
"c3 c #a4180f",
"d3 c #ba1a15",
"e3 c #b91d16",
"f3 c #be160f",
"g3 c #c4180e",
"h3 c #bf160b",
"i3 c #961209",
"j3 c #641d21",
"k3 c #892d32",
"l3 c #8c2a2c",
"m3 c #881713",
"n3 c #8c1710",
"o3 c #981811",
"p3 c #a61510",
"q3 c #bb1310",
"r3 c #be130f",
"s3 c #bf130c",
"t3 c #c5190e",
"u3 c #c1170c",
"v3 c #991209",
"w3 c #621c22",
"x3 c #862c32",
"y3 c #8a282b",
"z3 c #861713",
"04 c #7e1d1e",
"14 c #872423",
"24 c #962c28",
"34 c #bb2c26",
"44 c #bc100b",
"54 c #c0140c",
"64 c #c51a0f",
"74 c #9a1108",
"84 c #6d1e22",
"94 c #8b2e32",
":4 c #9e3232",
";4 c #881b19",
"A4 c #7f1f20",
"B4 c #8a2524",
"C4 c #a22e29",
"D4 c #c2322a",
"E4 c #be140e",
"F4 c #c0130b",
"G4 c #c51a0e",
"H4 c #c1180b",
"I4 c #9b1208",
"J4 c #701f23",
"K4 c #892b2f",
"L4 c #8a2628",
"M4 c #811816",
"N4 c #91201d",
"O4 c #9b2722",
"P4 c #bc3c35",
"Q4 c #c1322c",
"R4 c #c11710",
"S4 c #c2150c",
"T4 c #c61b0e",
"U4 c #c21a0b",
"V4 c #6f2025",
"W4 c #7d2f36",
"X4 c #791717",
"Y4 c #871713",
"Z4 c #96221c",
"a4 c #b52c26",
"b4 c #c32621",
"c4 c #c1160f",
"d4 c #c2160c",
"e4 c #c71c0e",
"f4 c #c31b0b",
"g4 c #9c1408",
"h4 c #762d33",
"i4 c #6b262c",
"j4 c #641518",
"k4 c #691314",
"l4 c #701312",
"m4 c #8c1813",
"n4 c #a11510",
"o4 c #bf1811",
"p4 c #c5190f",
"q4 c #c81c0f",
"r4 c #c41b0b",
"s4 c #9c1609",
"t4 c #712327",
"u4 c #7d3037",
"v4 c #69262d",
"w4 c #6e1c20",
"x4 c #8e3f3f",
"y4 c #7b3838",
"z4 c #813c3b",
"05 c #933c3b",
"15 c #b0251d",
"25 c #c71c11",
"35 c #c81e10",
"45 c #9e1609",
"55 c #712429",
"65 c #803038",
"75 c #7d1d1e",
"85 c #d89b96",
"95 c #ceb5b1",
":5 c #d6c3bd",
";5 c #bd9893",
"A5 c #ad2a22",
"B5 c #c81e11",
"C5 c #c92011",
"D5 c #c51d0c",
"E5 c #a01809",
"F5 c #702429",
"G5 c #813038",
"H5 c #6e272d",
"I5 c #7e1c1d",
"J5 c #dabab6",
"K5 c #d2dad8",
"L5 c #d8e3de",
"M5 c #b5a7a3",
"N5 c #a72820",
"O5 c #c91e11",
"P5 c #ca2110",
"Q5 c #c61e0c",
"R5 c #a2190a",
"S5 c #702227",
"T5 c #803138",
"U5 c #6e272e",
"V5 c #7e1e1e",
"W5 c #dfc3be",
"X5 c #baada7",
"Y5 c #a82921",
"Z5 c #ca2013",
"a5 c #cb2110",
"b5 c #a31b0b",
"c5 c #722328",
"d5 c #7f3138",
"e5 c #6e262d",
"f5 c #7b1e1f",
"g5 c #ddc3bf",
"h5 c #d6e1df",
"i5 c #dde8e4",
"j5 c #a92a22",
"k5 c #ca2113",
"l5 c #cb210f",
"m5 c #c8200c",
"n5 c #a41b09",
"o5 c #7f3038",
"p5 c #6c252c",
"q5 c #761f20",
"r5 c #d0b3b0",
"s5 c #d1dbd9",
"t5 c #dce8e3",
"u5 c #beb2ac",
"v5 c #a92c24",
"w5 c #cb2214",
"x5 c #cd2311",
"y5 c #c9220e",
"z5 c #a51c0a",
"06 c #712126",
"16 c #813037",
"26 c #72262c",
"36 c #772021",
"46 c #814b4b",
"56 c #8b6868",
"66 c #a48482",
"76 c #a57a76",
"86 c #ac2b23",
"96 c #cc2214",
":6 c #ce2614",
";6 c #ca2510",
"A6 c #a61c0b",
"B6 c #7d2e35",
"C6 c #78272c",
"D6 c #791e1f",
"E6 c #9e2f2b",
"F6 c #a82e28",
"G6 c #ae2923",
"H6 c #b83e38",
"I6 c #ca3930",
"J6 c #cd2517",
"K6 c #ce2816",
"L6 c #cc2813",
"M6 c #a91d0d",
"N6 c #6e2126",
"O6 c #7a2e35",
"P6 c #702930",
"Q6 c #6f2226",
"R6 c #791c1c",
"S6 c #841916",
"T6 c #8e1713",
"U6 c #aa231d",
"V6 c #bb2721",
"W6 c #c6271e",
"X6 c #d22e1f",
"Y6 c #ce2b17",
"Z6 c #ab1f0f",
"a6 c #6f2125",
"b6 c #762c34",
"c6 c #762a30",
"d6 c #931d1b",
"e6 c #961914",
"f6 c #9b1c16",
"g6 c #a31e18",
"h6 c #ae2821",
"i6 c #ae2d25",
"j6 c #c72c20",
"k6 c #d73427",
"l6 c #d22e1b",
"m6 c #ac200f",
"n6 c #6f2225",
"o6 c #742c33",
"p6 c #73272d",
"q6 c #4d1215",
"r6 c #24090d",
"s6 c #26090d",
"t6 c #2b090b",
"u6 c #30080a",
"v6 c #34080a",
"w6 c #aa241b",
"x6 c #dd3e33",
"y6 c #d3311f",
"z6 c #ad200d",
"07 c #682126",
"17 c #702b33",
"27 c #78272b",
"37 c #7f1e1d",
"47 c #7c1c1a",
"57 c #812926",
"67 c #87302d",
"77 c #a04a46",
"87 c #ad5450",
"97 c #d5655c",
":7 c #de4035",
";7 c #d3301f",
"A7 c #b01f0d",
"B7 c #5e242b",
"C7 c #6e2931",
"D7 c #6b242a",
"E7 c #6b1c1f",
"F7 c #781a1a",
"G7 c #834e4a",
"H7 c #7e6864",
"I7 c #ca4a46",
"J7 c #d66764",
"K7 c #df7b77",
"L7 c #da5b56",
"M7 c #d03a2e",
"N7 c #bc2b1b",
"O7 c #543336",
"P7 c #62242b",
"Q7 c #652229",
"R7 c #6a1d22",
"S7 c #6d1a1b",
"T7 c #7c1918",
"U7 c #83221e",
"V7 c #8e2d2b",
"W7 c #b73d39",
"X7 c #c05955",
"Y7 c #c9726c",
"Z7 c #ca6a64",
"a7 c #c74137",
"b7 c #bf2f22",
"c7 c #753c40",
"d7 c #772f36",
"e7 c #77313a",
"f7 c #74282e",
"g7 c #712227",
"h7 c #761f21",
"i7 c #7a1d1e",
"j7 c #881f1e",
"k7 c #9e2824",
"l7 c #ac3935",
"m7 c #ba4541",
"n7 c #c3413c",
"o7 c #bc2620",
"p7 c #af160e",
"q7 c #85221d",
"r7 c #7a424a",
"s7 c #7e3a43",
"t7 c #803e47",
"u7 c #873a42",
"v7 c #883a41",
"w7 c #8e444a",
"x7 c #8e4046",
"y7 c #8e3a3e",
"z7 c #963739",
"08 c #ae3938",
"18 c #b7403f",
"28 c #c03f3e",
"38 c #c63835",
"48 c #c32c26",
"58 c #c01f19",
"68 c #b41b13",
"78 c #89241e",
"88 c #753a43",
"98 c #7d4450",
":8 c #7e424d",
";8 c #853840",
"A8 c #893238",
"B8 c #8e2d31",
"C8 c #92282a",
"D8 c #9d2828",
"E8 c #a72926",
"F8 c #b5302d",
"G8 c #c03632",
"H8 c #c73a35",
"I8 c #d24b46",
"J8 c #d14942",
"K8 c #cf3d31",
"L8 c #cb3a2c",
"M8 c #a82b1f",
"N8 c #63333c",
"O8 c #73353e",
"P8 c #85353d",
"Q8 c #913338",
"R8 c #9d3033",
"S8 c #ac2c2b",
"T8 c #ba2a28",
"U8 c #c42a27",
"V8 c #cb302d",
"W8 c #d23833",
"X8 c #d64640",
"Y8 c #dd615b",
"Z8 c #db6b63",
"a8 c #cf584e",
"b8 c #a73529",
"c8 c #8f3c3a",
"d8 c #9e3e3a",
"e8 c #a7403b",
"f8 c #ad403b",
"g8 c #b0463e",
"h8 c #ab4941",
"i8 c #a24a43",
"j8 c #914740",
"                                                                                                ",
"                                                                                                ",
"                                        j8i8h8g8f8e8d8c8                                        ",
"                                  b8a8Z8Y8X8W8V8U8T8S8R8Q8P8O8N8                                ",
"                                M8L8K8J8I8H8G8F8E8D8C8B8A8;8:89888                              ",
"                                7868584838281808z7y7x7w7v7u7t7s7r7                              ",
"                                  q7p7o7n7m7l7k7j7i7h7g7f7e7d7c7                                ",
"                                    b7a7Z7Y7X7W7V7U7T7S7R7Q7P7O7                                ",
"                                    N7M7L7K7J7I7H7G7F7E7D7C7B7                                  ",
"                                    A7;7:797877767574737271707                                  ",
"                                    z6y6x6w6v6u6t6s6r6q6p6o6n6                                  ",
"                                    m6l6k6j6i6h6g6f6e6d6c6b6a6                                  ",
"                                    Z6Y6X6W6V6U6T6S6R6Q6P6O6N6                                  ",
"                                    M6L6K6J6I6H6G6F6E6D6C6B6N6                                  ",
"                                    A6;6:696867666564636261606                                  ",
"                                    z5y5x5w5v5u5t5s5r5q5p5o506                                  ",
"                                    n5m5l5k5j5u5i5h5g5f5e5d5c5                                  ",
"                                    b5m5a5Z5Y5X5t5h5W5V5U5T5S5                                  ",
"                                    R5Q5P5O5N5M5L5K5J5I5H5G5F5                                  ",
"                                    E5D5C5B5A5;5:5958575H56555                                  ",
"                                    45D535251505z4y4x4w4v4u4t4                                  ",
"                                    s4r4q4p4o4n4m4l4k4j4i4h406                                  ",
"                                    g4f4e4d4c4b4a4Z4Y4X426W4V4                                  ",
"                                    g4U4T4S4R4Q4P4O4N4M4L4K4J4                                  ",
"                                    I4H4G4F4E4D4C4B4A4;4:49484                                  ",
"                                    74H464544434241404z3y3x3w3                                  ",
"                                    v3u3t3s3r3q3p3o3n3m3l3k3j3                                  ",
"                                    i3h3g3f3e3d3c3b3a3Z3Y3X3W3                                  ",
"                                    V3h3U3T3S3R3Q3P3O3N3M3L3K3                                  ",
"                                    J3h3I3H3G3F3E3D3C3B3A3;3:3                                  ",
"                                    93837363534333231303z2y2x2                                  ",
"                                    w2v2u2t2s2r2q2p2o2n2m2l2x2                                  ",
"                                    k2j2i2h2g2f2e2d2b3c2b2a2Z2                                  ",
"                                    Y2X2W2V2U2T2S2R2Q2P2O2N2M2                                  ",
"                                    L2K2J2I2H2G2F2E2D2C2B2A2;2                                  ",
"                                    :292827262524232221202z1y1x1                                ",
"                                    w1v1u1t1s1r1q1p1o1n1m1l1k1j1                                ",
"                                    i1h1g1f1e1d1c1b1a1Z1Y1X1W1V1                                ",
"                                    U1T1S1R1Q1P1O1N1M1L1K1J1I1H1                                ",
"                                    G1F1E1D1C1B1A1;1:19181716151                                ",
"                                    4131211101z0y0x0w0v0u0t0w0s0                                ",
"                                    r0q0p0o0n0m0l0k0j0i0h0h0g0f0                                ",
"                                    e0d0c0b0a0k0Z0v0Y0h0X0W0V0U0                                ",
"                                    T0S0R0Q0P0O0N0M0L0K0J0I0x0                                  ",
"                                    H0G0F0E0D0C0B0A0;0:0A09080                                  ",
"                                        706050403030201000                                      ",
"                                                                                                ",
"                                                                                                "};
