/* XPM */
static char *image[] = {
"48 48 549 2",
"   c None",
"00 c #0e0e0e",
"10 c #5e5e5e",
"20 c #393939",
"30 c #181818",
"40 c #28262e",
"50 c #fbfbfb",
"60 c #7a7a7a",
"70 c #585857",
"80 c #313542",
"90 c #333c19",
":0 c #0b0d56",
";0 c #3a3a38",
"A0 c #d8d8d8",
"B0 c #aba5aa",
"C0 c #b3b2b3",
"D0 c #515150",
"E0 c #32312c",
"F0 c #25231a",
"G0 c #282518",
"H0 c #2c2816",
"I0 c #343432",
"J0 c #e0e0e0",
"K0 c #c8bec3",
"L0 c #822256",
"M0 c #960061",
"N0 c #89006c",
"O0 c #6e036a",
"P0 c #580865",
"Q0 c #592072",
"R0 c #6a4586",
"S0 c #7d6996",
"T0 c #968ea4",
"U0 c #b2b2b3",
"V0 c #cecece",
"W0 c #aeaeae",
"X0 c #8d8d8d",
"Y0 c #6c6c6c",
"Z0 c #4b4a48",
"a0 c #2d2c25",
"b0 c #272519",
"c0 c #2c2818",
"d0 c #bda3ac",
"e0 c #9e0445",
"f0 c #3500c0",
"g0 c #2602b3",
"h0 c #1c07a2",
"i0 c #292398",
"j0 c #466978",
"k0 c #699680",
"l0 c #8ea499",
"m0 c #b2b4b3",
"n0 c #868686",
"o0 c #646463",
"p0 c #474640",
"q0 c #2f2c21",
"r0 c #302d1c",
"s0 c #2a2615",
"t0 c #c7b2b8",
"u0 c #ad033b",
"v0 c #5c00a2",
"w0 c #5000ae",
"x0 c #4400ba",
"y0 c #3305bb",
"z0 c #192fa3",
"01 c #086083",
"11 c #009064",
"21 c #00b146",
"31 c #02a339",
"41 c #07912f",
"51 c #20933c",
"61 c #459e57",
"71 c #69a573",
"81 c #8ead92",
"91 c #b2b5b2",
":1 c #d5d5d5",
";1 c #f3f3f3",
"A1 c #7a7a79",
"B1 c #302d1e",
"C1 c #2e2e2a",
"D1 c #efefef",
"E1 c #e5e3e4",
"F1 c #a91137",
"G1 c #750089",
"H1 c #690095",
"I1 c #5c00a1",
"J1 c #3b169a",
"K1 c #164a8b",
"L1 c #017b79",
"M1 c #00e513",
"N1 c #02cd0c",
"O1 c #1e6b21",
"P1 c #9d9e9d",
"Q1 c #fafafa",
"R1 c #b6b6b6",
"S1 c #3f3d31",
"T1 c #2b2716",
"U1 c #a75565",
"V1 c #82007c",
"W1 c #740088",
"X1 c #461a8a",
"Y1 c #12508a",
"Z1 c #00e31b",
"a1 c #02d214",
"b1 c #609263",
"c1 c #ededed",
"d1 c #7c7c7b",
"e1 c #25241e",
"f1 c #d1cbcc",
"g1 c #c30223",
"h1 c #9b0063",
"i1 c #8e0070",
"j1 c #61107b",
"k1 c #174490",
"l1 c #00dc22",
"m1 c #01d11a",
"n1 c #7c9a7f",
"o1 c #6c6c6b",
"p1 c #5f5f5f",
"q1 c #ad5863",
"r1 c #a70057",
"s1 c #8d0463",
"t1 c #322d8b",
"u1 c #0054a7",
"v1 c #00db22",
"w1 c #55975e",
"x1 c #888888",
"y1 c #292617",
"z1 c #e9e9e9",
"02 c #b6071c",
"12 c #c0003e",
"22 c #b4004a",
"32 c #70116a",
"42 c #0c3ea8",
"52 c #11a92a",
"62 c #c7c7c7",
"72 c #2c291d",
"82 c #25231d",
"92 c #ececec",
":2 c #b19699",
";2 c #e40018",
"A2 c #d90025",
"B2 c #cc0032",
"C2 c #ba013e",
"D2 c #481d82",
"E2 c #003ebe",
"F2 c #00be40",
"G2 c #00c539",
"H2 c #00cd31",
"I2 c #00d42a",
"J2 c #7aa983",
"K2 c #484846",
"L2 c #ab464d",
"M2 c #e60018",
"N2 c #bb001f",
"O2 c #8e0127",
"P2 c #28229d",
"Q2 c #0046b8",
"R2 c #00af4f",
"S2 c #00b648",
"T2 c #00b93f",
"U2 c #00952b",
"V2 c #0a6719",
"W2 c #253a0c",
"X2 c #aaaaaa",
"Y2 c #33301c",
"Z2 c #838383",
"a2 c #f2f2f2",
"b2 c #b20a15",
"c2 c #b10012",
"d2 c #231a1b",
"e2 c #242424",
"f2 c #090d19",
"g2 c #011750",
"h2 c #002f8d",
"i2 c #0045b5",
"j2 c #004eb0",
"k2 c #0055a9",
"l2 c #005ca2",
"m2 c #00a05e",
"n2 c #00a856",
"o2 c #008b3f",
"p2 c #00431a",
"q2 c #000903",
"r2 c #100e06",
"s2 c #2d2a19",
"t2 c #b5b5b5",
"u2 c #bebabb",
"v2 c #d5000b",
"w2 c #2d1416",
"x2 c #4a4a4a",
"y2 c #1b1b1b",
"z2 c #09101a",
"03 c #01214a",
"13 c #004180",
"23 c #005ca0",
"33 c #00649a",
"43 c #006c92",
"53 c #00738b",
"63 c #00916d",
"73 c #009866",
"83 c #08814a",
"93 c #023119",
":3 c #2a1700",
";3 c #652900",
"A3 c #972b00",
"B3 c #bc2200",
"C3 c #ca1300",
"D3 c #850906",
"E3 c #232323",
"F3 c #1c190a",
"G3 c #27251b",
"H3 c #e4e4e4",
"I3 c #ae7f80",
"J3 c #6e0206",
"K3 c #3e3e3e",
"L3 c #989898",
"M3 c #7f7f7f",
"N3 c #666666",
"O3 c #4e4e4e",
"P3 c #353535",
"Q3 c #0a131a",
"R3 c #012d44",
"S3 c #005471",
"T3 c #00738a",
"U3 c #007a84",
"V3 c #00827c",
"W3 c #008a74",
"X3 c #0f855c",
"Y3 c #344f1f",
"Z3 c #0a0600",
"a3 c #2a2800",
"b3 c #795c00",
"c3 c #a6332f",
"d3 c #2f2e2a",
"e3 c #654c7c",
"f3 c #1c1a20",
"g3 c #474747",
"h3 c #c2c2c2",
"i3 c #999999",
"j3 c #686868",
"k3 c #505050",
"l3 c #1c1c1c",
"m3 c #0a181a",
"n3 c #00383c",
"o3 c #016660",
"p3 c #3d7536",
"q3 c #534302",
"r3 c #020100",
"s3 c #060a00",
"t3 c #4a6200",
"u3 c #a76461",
"v3 c #272517",
"w3 c #050502",
"x3 c #161960",
"y3 c #303030",
"z3 c #464646",
"04 c #757575",
"14 c #9f9f9f",
"24 c #a8a8a8",
"34 c #b2b2b2",
"44 c #515151",
"54 c #1d1d1d",
"64 c #1a1809",
"74 c #081100",
"84 c #4c8700",
"94 c #e91500",
":4 c #a88d8c",
";4 c #010100",
"A4 c #7b7b7b",
"B4 c #dbdbdb",
"C4 c #040767",
"D4 c #2b2b2b",
"E4 c #797979",
"F4 c #959595",
"G4 c #9e9e9e",
"H4 c #bababa",
"I4 c #b3b3b3",
"J4 c #848484",
"K4 c #6b6b6b",
"L4 c #484848",
"M4 c #040c00",
"N4 c #3e9700",
"O4 c #dd1500",
"P4 c #b5b4b4",
"Q4 c #3d3d3d",
"R4 c #1b180a",
"S4 c #1f1d0c",
"T4 c #302c18",
"U4 c #a0a0a0",
"V4 c #afafb3",
"W4 c #0009dc",
"X4 c #00097d",
"Y4 c #10153b",
"Z4 c #333333",
"a4 c #585858",
"b4 c #8b8b8b",
"c4 c #949494",
"d4 c #a7a7a7",
"e4 c #b0b0b0",
"f4 c #c1c1c1",
"g4 c #b4b4b4",
"h4 c #696969",
"i4 c #288a00",
"j4 c #bf1603",
"k4 c #d4d4d4",
"l4 c #f5f5f5",
"m4 c #24231d",
"n4 c #050402",
"o4 c #2c291b",
"p4 c #8081a8",
"q4 c #001bbc",
"r4 c #00146d",
"s4 c #121a35",
"t4 c #343434",
"u4 c #6f6f6f",
"v4 c #787878",
"w4 c #818181",
"x4 c #9d9d9d",
"y4 c #a6a6a6",
"z4 c #afafaf",
"05 c #b8b8b8",
"15 c #458535",
"25 c #a41707",
"35 c #2c2a1d",
"45 c #080703",
"55 c #26251b",
"65 c #5052a5",
"75 c #002ea5",
"85 c #001f5e",
"95 c #131e30",
":5 c #363636",
";5 c #5a5a5a",
"A5 c #939393",
"B5 c #747b73",
"C5 c #23c300",
"D5 c #952517",
"E5 c #b1b1b1",
"F5 c #34301c",
"G5 c #181609",
"H5 c #2c2b26",
"I5 c #1e20a3",
"J5 c #003fbf",
"K5 c #0147b0",
"L5 c #168128",
"M5 c #196000",
"N5 c #1d2f15",
"O5 c #373737",
"P5 c #5b5b5b",
"Q5 c #6d6d6d",
"R5 c #6a6a6a",
"S5 c #186a0e",
"T5 c #974136",
"U5 c #201d0c",
"V5 c #4b4b4a",
"W5 c #e3e3e3",
"X5 c #0609bc",
"Y5 c #000af4",
"Z5 c #0012ec",
"a5 c #0019e5",
"b5 c #0021dd",
"c5 c #0028d6",
"d5 c #0030ce",
"e5 c #0037c7",
"f5 c #0249a7",
"g5 c #16b522",
"h5 c #3c8e00",
"i5 c #284d01",
"j5 c #191d14",
"k5 c #070707",
"l5 c #11b400",
"m5 c #995e56",
"n5 c #777777",
"o5 c #25220e",
"p5 c #737373",
"q5 c #e6e6e6",
"r5 c #8282b3",
"s5 c #5f63b6",
"t5 c #3c45b0",
"u5 c #1828a8",
"v5 c #051ead",
"w5 c #0125c0",
"x5 c #002fcd",
"y5 c #025d8c",
"z5 c #10d60e",
"06 c #1de100",
"16 c #29d500",
"26 c #34ca00",
"36 c #40be00",
"46 c #4cb200",
"56 c #57a700",
"66 c #090f00",
"76 c #011100",
"86 c #14e900",
"96 c #9c7974",
":6 c #5c5c5c",
";6 c #9a9a9a",
"A6 c #f0f0f0",
"B6 c #d1d1d1",
"C6 c #aeb0b6",
"D6 c #8db08d",
"E6 c #6dae68",
"F6 c #52a746",
"G6 c #3a9b23",
"H6 c #2c9407",
"I6 c #38a103",
"J6 c #49ac00",
"K6 c #4f9800",
"L6 c #024300",
"M6 c #d72700",
"N6 c #9f9493",
"O6 c #404040",
"P6 c #3b371f",
"Q6 c #f7f7f7",
"R6 c #d9d9d9",
"S6 c #b8b9b8",
"T6 c #80867a",
"U6 c #036100",
"V6 c #c82500",
"W6 c #b1b0b0",
"X6 c #282825",
"Y6 c #070603",
"Z6 c #2c2a1f",
"a6 c #393935",
"b6 c #545454",
"c6 c #727272",
"d6 c #909090",
"e6 c #adadad",
"f6 c #cacaca",
"g6 c #e8e8e8",
"h6 c #c6c6c6",
"i6 c #036b00",
"j6 c #b12403",
"k6 c #cccccc",
"l6 c #f1f1f1",
"m6 c #24231b",
"n6 c #322d13",
"o6 c #24210e",
"p6 c #3a3720",
"q6 c #312f1f",
"r6 c #302e25",
"s6 c #454442",
"t6 c #616161",
"u6 c #808080",
"v6 c #9c9c9c",
"w6 c #b9b9b9",
"x6 c #f4f4f4",
"y6 c #d0d0d0",
"z6 c #036200",
"07 c #972407",
"17 c #eaeaea",
"27 c #d7d7d7",
"37 c #2d2a1e",
"47 c #0b0a04",
"57 c #35321f",
"67 c #2c2a1e",
"77 c #373630",
"87 c #474646",
"97 c #024000",
":7 c #14ea00",
";7 c #25d900",
"A7 c #37c700",
"B7 c #49b500",
"C7 c #5ba300",
"D7 c #882e17",
"E7 c #bfbfbf",
"F7 c #33301f",
"G7 c #141308",
"H7 c #0d0b05",
"I7 c #000b00",
"J7 c #228419",
"K7 c #208b0a",
"L7 c #2f9906",
"M7 c #42a101",
"N7 c #5aa200",
"O7 c #6c9200",
"P7 c #7e8000",
"Q7 c #906e00",
"R7 c #a25c00",
"S7 c #b34b00",
"T7 c #c53900",
"U7 c #8d4f3f",
"V7 c #a5a5a5",
"W7 c #39351e",
"X7 c #060502",
"Y7 c #acacac",
"Z7 c #eeeeee",
"a7 c #cbcbcb",
"b7 c #ababab",
"c7 c #898c86",
"d7 c #747a61",
"e7 c #63643b",
"f7 c #594916",
"g7 c #6c420a",
"h7 c #8c3d05",
"i7 c #b23401",
"j7 c #95766d",
"k7 c #8a8a8a",
"l7 c #161408",
"m7 c #27240f",
"n7 c #030201",
"o7 c #313131",
"p7 c #fcfcfc",
"q7 c #fefefe",
"r7 c #e5e5e5",
"s7 c #c4c4c4",
"t7 c #a3a3a3",
"u7 c #c8c8c8",
"v7 c #6e6e6e",
"w7 c #211e0c",
"x7 c #141207",
"y7 c #2d2911",
"z7 c #828282",
"08 c #4c4c4c",
"18 c #121109",
"28 c #0f0e06",
"38 c #1b190a",
"48 c #010101",
"58 c #929292",
"68 c #ffffff",
"78 c #c0c0c0",
"88 c #0d0d0d",
"98 c #191709",
":8 c #27230f",
";8 c #272727",
"A8 c #595959",
"B8 c #7d7d7d",
"C8 c #9b9b9b",
"D8 c #bbbbbb",
"E8 c #dadada",
"F8 c #f9f9f9",
"G8 c #fdfdfd",
"H8 c #bebebe",
"I8 c #4d4d4d",
"J8 c #030302",
"K8 c #363114",
"L8 c #151308",
"M8 c #000000",
"N8 c #080808",
"O8 c #0f0f0f",
"P8 c #121212",
"Q8 c #0b0b0b",
"R8 c #101010",
"S8 c #040402",
"T8 c #2a2710",
"U8 c #2f2b12",
"V8 c #26220e",
"W8 c #28240f",
"X8 c #353114",
"                                                                                                ",
"                                                                                                ",
"                                                                                                ",
"                                                                                                ",
"                              X8W8V8U8                                                          ",
"                        T8S8R8Q8R8P8O8N8M8L8                                                    ",
"                    K8J8I8H8G8F8E8D8C8B8A8;8M8:8                                                ",
"                  98887868686868686868686868584838                                              ",
"                281808686868686868686868686868z7M8y7                                            ",
"              x7w7  v76868u7t7s7r7q76868686868p7o7n7                                            ",
"            m7l7    k76868j7i7h7g7f7e7d7c7b7a7Z7Y7M8W8                                          ",
"            X7    W7V76868U7T7S7R7Q7P7O7N7M7L7K7J7I7H7                                          ",
"          G7      F7E76868D7T7S7R7Q7P7O7C7B7A7;7:797M887776757                                  ",
"          47      3727681707T7S7R7Q7P7O7C7B7A7;7:7z6M8y668x627w6v6u6t6s6r6q6p6                  ",
"        o6n6      m6l668k6j6T7S7R7Q7P7O7C7B7A7;7:7i6M8h66868686868686868q7g6f6e6d6c6b6a6Z6      ",
"        Y6        X66868W6V6T7S7R7Q7P7O7C7B7A7;7:7U6M8T6S6R6Q668686868686868686868686868H8P6    ",
"        47        O66868N6M6T7S7R7Q7P7O7C7B7A7;7:7L6M8K6J6I6H6G6F6E6D6C6B6A6686868686868;6      ",
"        38        :6686896M6T7S7R7Q7P7O7C7B7A7;7867666564636261606z5y5x5w5v5u5t5s5r5q568p5      ",
"        o5        n56868m5M6T7S7R7Q7P7O7C7B7A7;7l5k5j5i5h5362616g5f5e5d5c5b5a5Z5Y5X5W568V5      ",
"        U5        586868T5M6T7S7R7Q7P7O7C7B7A7;7S5R5Q5P5O5N5M5L5K5J5e5d5c5b5a5Z5Y5I568q7H5      ",
"        G5      F5E56868D5M6T7S7R7Q7P7O7C7B7A7C5B5A5k7u6n5v7;5:5958575d5c5b5a5Z5Y56568q555      ",
"        45      35B668A625M6T7S7R7Q7P7O7C7B7A71505z4y4x4A5k7w4v4u4A8t4s4r4q4a5Z5Y5p468s7o4      ",
"        n4      m4l468k4j4M6T7S7R7Q7P7O7C7B7i4h4g478f4w6e4d4x4c4b4z7v4u4a4Z4Y4X4W4V468U4T4      ",
"        S4R4    Q46868P4O4M6T7S7R7Q7P7O7C7N4M4L4K4J4v6I4E7f4H4e4d4G4F4b4z7E4b6D4C4B468A4        ",
"          ;4    R56868:494M6T7S7R7Q7P7O78474;46454O544R5z7C834E7f4H4E5241404z3y3x3G868b6        ",
"          o6w3v3v66868u394M6T7S7R7Q7P7t3s3r3q3p3o3n3m3l3:5k3j3w4i3e4E7h3g4I8g3f3e36868d3        ",
"            G748B8p768c394M6T7S7R7b3a3M8Z3Y3X3W3V3U3T3S3R3Q3l3P3O3N3M3L3z7g3K3J3I368H3G3        ",
"              F3M8E3B8D3C3B3A3;3:3;4M893837363W3V3U3534333231303z2y2Z4I8x2g3w2v2u268t2s2        ",
"                  r2M8M8M8M8M8M8q2p2o2n2m27363W3V3U3534333l2k2j2i2h2g2f2e2d2c2b2a268Z2          ",
"                  Y2U4X2p5W2V2U2T2S2R2n2m27363W3V3U3534333l2k2j2Q2J5e5P2O2N2M2L26868V5          ",
"                  K2q768J2I2H2G2F2S2R2n2m27363W3V3U3534333l2k2j2Q2E2D2C2B2A2;2:2689282          ",
"                726268q552I2H2G2F2S2R2n2m27363W3V3U3534333l2k2j242322212B2A202z168b7y1          ",
"                x168q7w1v1I2H2G2F2S2R2n2m27363W3V3U3534333l2u1t1s1r12212B2A2q16868p1            ",
"              o1G8q7n1m1l1I2H2G2F2S2R2n2m27363W3V3U3534333k1j1i1h1r12212B2g1f168g6e1            ",
"            d1p7c1b1a1Z1l1I2H2G2F2S2R2n2m27363W3V3U353Y1X1W1V1i1h1r12212B2U16868k7T1            ",
"        S1R1Q1P1O1N1M1Z1l1I2H2G2F2S2R2n2m27363W3L1K1J1I1H1G1V1i1h1r12212F1E168D1C1              ",
"    B1A1;1686868x6:19181716151413121R2n2m21101z0y0x0w0v0H1G1V1i1h1r122u0t06868B8s0              ",
"      r0q0p0o0n0d462g668686868x6k4m0l0k0j0i0h0g0f0x0w0v0H1G1V1i1h1r1e0d068686282                ",
"                  c0b0a0Z0Y0X0W0V0A668686868x6k4U0T0S0R0Q0P0O0N0M0L0K06868J0I0                  ",
"                              H0G0F0E0D0c6c4g4:1l468686868x6k4C0B0l46868A0;0                    ",
"                                            :0R890807060;6D8B4Q1686850x440                      ",
"                                                        N888P8302010:500                        ",
"                                                                                                ",
"                                                                                                ",
"                                                                                                ",
"                                                                                                ",
"                                                                                                ",
"                                                                                                "};
