/* XPM */
static char *image[] = {
"48 48 663 2",
"   c None",
"00 c #1178d0",
"10 c #137ed7",
"20 c #248ce7",
"30 c #59abf0",
"40 c #7abbf3",
"50 c #80bdf3",
"60 c #63b0f1",
"70 c #3395e9",
"80 c #54a3e1",
"90 c #71b9ef",
":0 c #3680d4",
";0 c #308de2",
"A0 c #a2d1f6",
"B0 c #b2d9f8",
"C0 c #93caf7",
"D0 c #8dc7f6",
"E0 c #afd8f9",
"F0 c #aed7f7",
"G0 c #54a8ea",
"H0 c #2989eb",
"I0 c #7ab7eb",
"J0 c #4c7dcc",
"K0 c #7a599f",
"L0 c #974c84",
"M0 c #ac4a79",
"N0 c #c15479",
"O0 c #ce5f7d",
"P0 c #cc5f7e",
"Q0 c #be5c80",
"R0 c #af517d",
"S0 c #9f4b80",
"T0 c #835798",
"U0 c #4575c5",
"V0 c #a0cef3",
"W0 c #afd6f7",
"X0 c #3c98ec",
"Y0 c #1782e9",
"Z0 c #1382ea",
"a0 c #268eeb",
"b0 c #59adf1",
"c0 c #49abef",
"d0 c #1576c7",
"e0 c #3396eb",
"f0 c #4da2ec",
"g0 c #4fa2ea",
"h0 c #4097e8",
"i0 c #378fe8",
"j0 c #8ac0f0",
"k0 c #a5d3f7",
"l0 c #5583cc",
"m0 c #7976b7",
"n0 c #687eba",
"o0 c #6f92cb",
"p0 c #9387b6",
"q0 c #bd7ea5",
"r0 c #b27ea7",
"s0 c #818cbf",
"t0 c #749bd4",
"u0 c #6c7db9",
"v0 c #7d75b5",
"w0 c #5d92d6",
"x0 c #65adef",
"y0 c #2c8be8",
"z0 c #3f99eb",
"01 c #4aa0eb",
"11 c #3e9bed",
"21 c #218ae7",
"31 c #1283e9",
"41 c #5cadee",
"51 c #a1cef4",
"61 c #abd6f8",
"71 c #a1d1f8",
"81 c #9ccdf5",
"91 c #93c4f2",
":1 c #b3d7f7",
";1 c #a1d1f7",
"A1 c #5087d3",
"B1 c #567ecb",
"C1 c #559fdd",
"D1 c #6eb7ed",
"E1 c #516cb4",
"F1 c #814e94",
"G1 c #6d529a",
"H1 c #4c87ce",
"I1 c #8bc6f1",
"J1 c #3483d0",
"K1 c #4f75c6",
"L1 c #65a3e4",
"M1 c #8dc2f3",
"N1 c #8dc3f2",
"O1 c #9acef7",
"P1 c #a3d2f8",
"Q1 c #add6f8",
"R1 c #8cc4f3",
"S1 c #3e9cec",
"T1 c #55a9ee",
"U1 c #c1e0f7",
"V1 c #a8d3f6",
"W1 c #599ee5",
"X1 c #5289d4",
"Y1 c #5d9be0",
"Z1 c #99cdf6",
"a1 c #a6d0f7",
"b1 c #8fc8f6",
"c1 c #3e83d7",
"d1 c #3a7dda",
"e1 c #78b4eb",
"f1 c #a2d2f8",
"g1 c #4087da",
"h1 c #3872d0",
"i1 c #59a3e9",
"j1 c #c7e3fa",
"k1 c #3e95e3",
"l1 c #2a79da",
"m1 c #62a8ea",
"n1 c #bfddf9",
"o1 c #bbdcf8",
"p1 c #82bef1",
"q1 c #5e9be1",
"r1 c #5787d0",
"s1 c #6dace8",
"t1 c #bcdef9",
"u1 c #9ccef5",
"v1 c #2d91e9",
"w1 c #2c92ec",
"x1 c #b5daf8",
"y1 c #3880d8",
"z1 c #6565b4",
"02 c #8e7ab6",
"12 c #8991ce",
"22 c #5285d2",
"32 c #a0cff6",
"42 c #a1d0f7",
"52 c #338ce3",
"62 c #2689ed",
"72 c #a5d3f9",
"82 c #3291e8",
"92 c #56a8f0",
":2 c #c9e4fa",
";2 c #3d98e8",
"A2 c #1983eb",
"B2 c #61adf0",
"C2 c #cde6fb",
"D2 c #5070c1",
"E2 c #8880bd",
"F2 c #988fc6",
"G2 c #666cb7",
"H2 c #679ee0",
"I2 c #c3e1fa",
"J2 c #64adeb",
"K2 c #4aa1ef",
"L2 c #b4d9f8",
"M2 c #7ab9f0",
"N2 c #5868b9",
"O2 c #9d78ae",
"P2 c #b388b3",
"Q2 c #915f9a",
"R2 c #4a76cc",
"S2 c #7db8ee",
"T2 c #2e8fe9",
"U2 c #1f8df3",
"V2 c #3092eb",
"W2 c #55a9f1",
"X2 c #c9e4fb",
"Y2 c #61aef2",
"Z2 c #489ae6",
"a2 c #4b6dc7",
"b2 c #864f92",
"c2 c #a96fa0",
"d2 c #968ec5",
"e2 c #6388ce",
"f2 c #acd2f5",
"g2 c #97cbf7",
"h2 c #4da0ec",
"i2 c #78b8f0",
"j2 c #7076bc",
"k2 c #a489ba",
"l2 c #a15c91",
"m2 c #715aa6",
"n2 c #3880de",
"o2 c #7bb7ee",
"p2 c #a2d1f7",
"q2 c #1e8ff5",
"r2 c #7ab8ec",
"s2 c #a6d4f9",
"t2 c #2f92eb",
"u2 c #1387f3",
"v2 c #58abf2",
"w2 c #cbe5fb",
"x2 c #1386f0",
"y2 c #61aff2",
"z2 c #d0e8fb",
"03 c #449be9",
"13 c #317bde",
"23 c #8c4a89",
"33 c #8d75b1",
"43 c #6b99dc",
"53 c #acd3f5",
"63 c #9ccdf8",
"73 c #2a77d7",
"83 c #3a8ee3",
"93 c #a0ccf3",
":3 c #b1d8f8",
";3 c #578ad5",
"A3 c #7b6db1",
"B3 c #6561b1",
"C3 c #3e76d5",
"D3 c #3691e8",
"E3 c #a4d1f6",
"F3 c #a4d2f7",
"G3 c #1e8ef5",
"H3 c #79b7ec",
"I3 c #a6d3f9",
"J3 c #2e91eb",
"K3 c #158dfb",
"L3 c #1689f3",
"M3 c #71b7f4",
"N3 c #d4e9fb",
"O3 c #3c99e9",
"P3 c #1486f0",
"Q3 c #5faef2",
"R3 c #cce5fb",
"S3 c #78bbf3",
"T3 c #1d85ea",
"U3 c #516cc5",
"V3 c #5a6abb",
"W3 c #6c9ede",
"X3 c #c4e1fa",
"Y3 c #6fb0eb",
"Z3 c #466bc0",
"a3 c #69a0de",
"b3 c #c5e1f7",
"c3 c #a1cdf4",
"d3 c #5799e0",
"e3 c #4690e1",
"f3 c #4a9ce9",
"g3 c #9acdf6",
"h3 c #c3e0f9",
"i3 c #9acdf7",
"j3 c #2b90ea",
"k3 c #1e8ff4",
"l3 c #77b7ec",
"m3 c #a4d3f9",
"n3 c #2d90eb",
"o3 c #1a81df",
"p3 c #5dacef",
"q3 c #b1d7f7",
"r3 c #d1e7fb",
"s3 c #3998e7",
"t3 c #1486ef",
"u3 c #5dadf1",
"v3 c #b6daf8",
"w3 c #b5d9f8",
"x3 c #7cbdf2",
"y3 c #449aea",
"z3 c #4193e5",
"04 c #67aae9",
"14 c #bbddf9",
"24 c #a7d3f6",
"34 c #5f78bc",
"44 c #706fb1",
"54 c #7aa4db",
"64 c #a7d1f3",
"74 c #aed7f8",
"84 c #a1d2f8",
"94 c #9bcef6",
":4 c #8cc3f2",
";4 c #8cc2f1",
"A4 c #72b8ed",
"B4 c #2289e3",
"C4 c #198af0",
"D4 c #55a4e2",
"E4 c #76bcf2",
"F4 c #2489e4",
"G4 c #288bdc",
"H4 c #8bc9f5",
"I4 c #9bcbf3",
"J4 c #9ecef5",
"K4 c #2688d9",
"L4 c #1383ec",
"M4 c #439ee7",
"N4 c #93caf3",
"O4 c #79b8ee",
"P4 c #91c7f4",
"Q4 c #9dcff7",
"R4 c #a2d3f8",
"S4 c #add6f7",
"T4 c #95c4ee",
"U4 c #6e91ce",
"V4 c #9f7fb1",
"W4 c #ae3061",
"X4 c #bd315c",
"Y4 c #b978a0",
"Z4 c #8767a1",
"a4 c #5784cd",
"b4 c #599de2",
"c4 c #55a3ea",
"d4 c #419dec",
"e4 c #218ced",
"f4 c #278ee8",
"g4 c #268ee3",
"h4 c #1483e5",
"i4 c #1587f0",
"j4 c #2085dd",
"k4 c #2a8ce3",
"l4 c #217fdf",
"m4 c #2575c9",
"n4 c #428cd9",
"o4 c #4089dc",
"p4 c #4191e0",
"q4 c #1a77cf",
"r4 c #1b86e1",
"s4 c #3196ea",
"t4 c #1a85e6",
"u4 c #2b93ee",
"v4 c #48a1ed",
"w4 c #54a5ea",
"x4 c #4f9ce6",
"y4 c #4c7bca",
"z4 c #89508c",
"05 c #ca93b3",
"15 c #d03051",
"25 c #dd3b58",
"35 c #dc7590",
"45 c #b84873",
"55 c #177de0",
"65 c #187acb",
"75 c #1d83d5",
"85 c #316cc1",
"95 c #5d5aa9",
":5 c #6d5199",
";5 c #74539d",
"A5 c #b03162",
"B5 c #e06c87",
"C5 c #e95f77",
"D5 c #e95267",
"E5 c #e9647a",
"F5 c #dd2a4a",
"G5 c #529edd",
"H5 c #6cb8ef",
"I5 c #6872b0",
"J5 c #bc6b95",
"K5 c #d16a8a",
"L5 c #d25776",
"M5 c #cc4062",
"N5 c #e02d47",
"O5 c #e71731",
"P5 c #ea5d70",
"Q5 c #606dad",
"R5 c #6d8dc9",
"S5 c #9578a7",
"T5 c #cd5f83",
"U5 c #df5773",
"V5 c #eb7387",
"W5 c #f18c9e",
"X5 c #e3435c",
"Y5 c #e31630",
"Z5 c #ed586c",
"a5 c #bd315f",
"b5 c #c26288",
"c5 c #c97699",
"d5 c #c63a63",
"e5 c #ee1a36",
"f5 c #ef566b",
"g5 c #f38c9b",
"h5 c #e41c36",
"i5 c #e5112a",
"j5 c #f58a99",
"k5 c #ed495d",
"l5 c #ea5f72",
"m5 c #ee5367",
"n5 c #e02a49",
"o5 c #e46e85",
"p5 c #df546f",
"q5 c #eb1530",
"r5 c #f48d9b",
"s5 c #e7344c",
"t5 c #e71029",
"u5 c #f58494",
"v5 c #ef5b6d",
"w5 c #e95e71",
"x5 c #ee5267",
"y5 c #ef243f",
"z5 c #ec3047",
"06 c #ea3850",
"16 c #ee6879",
"26 c #f6aab6",
"36 c #e95268",
"46 c #eb1f39",
"56 c #f48d9c",
"66 c #e52a43",
"76 c #e70f29",
"86 c #f58696",
"96 c #ef596c",
":6 c #e95f72",
";6 c #ef5f72",
"A6 c #ef1832",
"B6 c #ee1832",
"C6 c #ed2a42",
"D6 c #ef4257",
"E6 c #ee576a",
"F6 c #ed6d7d",
"G6 c #ef7f8e",
"H6 c #f58e9c",
"I6 c #f799a6",
"J6 c #f29ba6",
"K6 c #f08593",
"L6 c #de364c",
"M6 c #dc1029",
"N6 c #ed142f",
"O6 c #f01731",
"P6 c #ef3149",
"Q6 c #f27283",
"R6 c #f07486",
"S6 c #e5112b",
"T6 c #f5909f",
"U6 c #eb4258",
"V6 c #eb6071",
"W6 c #f37b8b",
"X6 c #f28a97",
"Y6 c #f298a4",
"Z6 c #f69ea9",
"a6 c #f79ca9",
"b6 c #f38997",
"c6 c #ef7282",
"d6 c #ee5b6e",
"e6 c #ee495f",
"f6 c #ed2e47",
"g6 c #ed1a33",
"h6 c #e6102a",
"i6 c #e5445a",
"j6 c #f37989",
"k6 c #f37e8f",
"l6 c #ef7384",
"m6 c #ea2a43",
"n6 c #f595a3",
"o6 c #e8243d",
"p6 c #eb485e",
"q6 c #f7a8b3",
"r6 c #f8a5b0",
"s6 c #f17a8a",
"t6 c #ec596c",
"u6 c #eb4157",
"v6 c #e52e45",
"w6 c #e6263e",
"x6 c #e31f37",
"y6 c #e9122d",
"z6 c #f6112e",
"07 c #ea1730",
"17 c #f498a5",
"27 c #f6a2ad",
"37 c #ea4a5f",
"47 c #e5374d",
"57 c #ec233d",
"67 c #e93f56",
"77 c #f58c9b",
"87 c #e7132e",
"97 c #e1132c",
":7 c #e01e36",
";7 c #e4263d",
"A7 c #e8334a",
"B7 c #ec4b5f",
"C7 c #ed6576",
"D7 c #f48695",
"E7 c #f8acb6",
"F7 c #f8afb9",
"G7 c #f05f73",
"H7 c #f21c37",
"I7 c #ed465b",
"J7 c #f7bbc3",
"K7 c #e83248",
"L7 c #e7122b",
"M7 c #f48191",
"N7 c #ee5166",
"O7 c #e91c36",
"P7 c #ed364e",
"Q7 c #ee5165",
"R7 c #ee6475",
"S7 c #ef7a89",
"T7 c #f5919e",
"U7 c #f79eaa",
"V7 c #f195a1",
"W7 c #f28392",
"X7 c #f26578",
"Y7 c #f37282",
"Z7 c #f594a2",
"a7 c #f06c7d",
"b7 c #ec213b",
"c7 c #ea162f",
"d7 c #f27a89",
"e7 c #f799a5",
"f7 c #e8122c",
"g7 c #eb3149",
"h7 c #f58d9c",
"i7 c #e41d36",
"j7 c #e13950",
"k7 c #ef8896",
"l7 c #f49da9",
"m7 c #f797a4",
"n7 c #f28896",
"o7 c #ec7787",
"p7 c #ec6778",
"q7 c #ee5164",
"r7 c #ed3950",
"s7 c #eb213b",
"t7 c #ed142e",
"u7 c #f21934",
"v7 c #f1586c",
"w7 c #f8bcc4",
"x7 c #ec566b",
"y7 c #e42b42",
"z7 c #f59faa",
"08 c #eb6073",
"18 c #f06c7e",
"28 c #ef6376",
"38 c #ea5064",
"48 c #f8abb5",
"58 c #f06677",
"68 c #eb344a",
"78 c #ee2b43",
"88 c #ef475c",
"98 c #f8c1c8",
":8 c #eb4156",
";8 c #ed5366",
"A8 c #f8a7b2",
"B8 c #e83c50",
"C8 c #ed445b",
"D8 c #f48192",
"E8 c #e9374e",
"F8 c #eb2c45",
"G8 c #f18191",
"H8 c #ea3e53",
"I8 c #ed1630",
"J8 c #f17d8c",
"K8 c #f7a0ac",
"L8 c #e7223a",
"M8 c #f18493",
"N8 c #f08190",
"O8 c #ee243d",
"P8 c #ee344d",
"Q8 c #f27f90",
"R8 c #eb586c",
"S8 c #ef697b",
"T8 c #ee677a",
"U8 c #f0122c",
"V8 c #ec3149",
"W8 c #f39da9",
"X8 c #ef6778",
"Y8 c #e8364c",
"Z8 c #f8a4b0",
"a8 c #ec5c6f",
"b8 c #ef2942",
"c8 c #f07a8c",
"d8 c #ed223c",
"e8 c #eb3950",
"f8 c #ed5669",
"g8 c #f7a7b2",
"h8 c #e93c51",
"i8 c #ef6273",
"j8 c #f4a1ac",
"k8 c #ed374e",
"l8 c #ed324a",
"m8 c #f38494",
"n8 c #f07284",
"o8 c #ed2b43",
"p8 c #ed5167",
"q8 c #f4919f",
"r8 c #eb1e38",
"s8 c #f0203a",
"t8 c #ee7989",
"u8 c #f38d9b",
"v8 c #e6233b",
"w8 c #f699a6",
"x8 c #f1818f",
"y8 c #ed1832",
"z8 c #ec465c",
"09 c #f592a1",
"19 c #ed697c",
"29 c #f0223c",
"39 c #f17284",
"49 c #f27c8c",
"59 c #ec2740",
"69 c #e8374d",
"79 c #f7a2ae",
"89 c #ee5a6d",
"99 c #ea344b",
":9 c #f8c0c8",
";9 c #f05266",
"A9 c #f2122d",
"B9 c #ed2840",
"C9 c #e83c52",
"D9 c #f17384",
"E9 c #f48e9d",
"F9 c #eb475c",
"G9 c #ea2c44",
"H9 c #f27d8e",
"I9 c #f17485",
"J9 c #ed2c44",
"K9 c #eb5a6d",
"L9 c #f5a3ae",
"M9 c #e33147",
"N9 c #eb5065",
"O9 c #f9c6cd",
"P9 c #f37787",
"Q9 c #ef445a",
"R9 c #ed344c",
"S9 c #ee2741",
"T9 c #ec2640",
"U9 c #ed2d46",
"V9 c #ee3b52",
"W9 c #ee4e63",
"X9 c #ed5b6e",
"Y9 c #f16b7e",
"Z9 c #f17e8e",
"a9 c #f06476",
"b9 c #e82740",
"c9 c #ec354e",
"d9 c #f27a8b",
"e9 c #f28494",
"f9 c #eb2c46",
"g9 c #e9122b",
"h9 c #f592a0",
"i9 c #f27f8e",
"j9 c #e51730",
"k9 c #e92942",
"l9 c #eb6476",
"m9 c #ec6c7d",
"n9 c #f0677a",
"o9 c #f16d7f",
"p9 c #f06f81",
"q9 c #f06e80",
"r9 c #f06d7f",
"s9 c #f26b7d",
"t9 c #ef6477",
"u9 c #eb5c70",
"v9 c #ed4f63",
"w9 c #eb2d45",
"x9 c #ec2942",
"y9 c #ee6275",
"z9 c #f59ba8",
"0: c #ef5267",
"1: c #ec1732",
"2: c #e82c44",
"3: c #f7b8c0",
"4: c #ed4c61",
"5: c #ed2a44",
"6: c #e93148",
"7: c #e9334a",
"8: c #e9334b",
"9: c #e93249",
":: c #eb2f47",
";: c #ed263f",
"A: c #e7354c",
"B: c #f48494",
"C: c #f6919f",
"D: c #f8adb7",
"E: c #f49eaa",
"F: c #e51933",
"G: c #e81a33",
"H: c #ed495f",
"I: c #ef7d8d",
"J: c #e3455b",
"                                                                                                ",
"                                                                                                ",
"                                                                                                ",
"                                                                                                ",
"                                                                                                ",
"                                                                                                ",
"                                                              J:I:H:G:                          ",
"                                                            F:E:D:C:B:A:                        ",
"                                      ;:::9:8:7:6:5:        4:3:2:1:0:z9y9x9                    ",
"                                w9v9u9t9s9r9q9p9o9n9m9l9k9j9i9h9g9    f9e9d9c9                  ",
"                            b9a9Z9Y9X9W9V9U9T9S9R9Q9P9O9N9M9L9K9        J9I9H9G9                ",
"                          F9E9D9C9B9              A9;9:999897969          594939                ",
"                      291909z8                    y8x8w8v8u8t8s8            r8q8p8              ",
"                    o8n8m8l8                      k8j8i8h8g8f8                e8096:            ",
"                  d8n8c8b8                        a8Z8Y8X8W8V8                U8T8S8            ",
"                  R8Q8P8                        O8N8M8L8K8J8I8                  H8G8F8          ",
"                E8D8C8                          B8A8;8:89888                7868584838          ",
"                2818                            08z7y7x7w7v7u7  t7s7r7q7p7o7n7m7l7k7j7          ",
"              i7h7g7                          f7e7d7c7b7a7Z7Y7X7W7V7l7U7T7S7R7Q7P7O7            ",
"              N7M7L7                          K7J7I7    H7G7F7E7D7C7B7A7;7:797                  ",
"            877767                      574737271707    z6y6x6w6v6u6t6s6r6q6p6                  ",
"            o6n6i7                    m6l6k6j6M8i6h6g6f6e6d6c6b6a6Z6Y6X6W6Z6V6                  ",
"            U6T6S6                    R6Q6P6O6N6M6L6K6J6I6H6G6F6E6D6C6B6A6;6:6                  ",
"            968676                  665646        36261606z5y5            x5w5                  ",
"            v5u5t5                  s5r5q5        p5o5n5                  m5l5                  ",
"            k5j5i5                  h5g5f5e5    d5c5b5a5                  Z5:6                  ",
"            2:q8Y5                    X5W5V5U5T5S5R5Q5                    :6P5                  ",
"            O5E9N5                      M5L5K5J5I5H5G5                  F5E5D5                  ",
"              C5B5A5                      ;5:59585756555                453525                  ",
"              1505z4y4x4w4v4u4t4s4r4  q4p4o4n4m4l4k4j4i4h4g4f4e4d4c4b4a4Z4Y4X4                  ",
"              W4V4U4T4S4R4Q4P4O4N4M4L4K4J4I4H4G4F4E4D4C4B4A4;4:4948474645444                    ",
"                34241404z3y3x3w3v3u3t3s3r3q3p3o3n3m3l3k3j3i3h3g3f3e3d3c3b3a3Z3                  ",
"                Y3X3W3V3U3  T3S3R3Q3P3O3N3M3L3K3J3I3H3G3j3F3E3D3C3B3A3;3:39383                  ",
"              736353433323  1303z2y2x2O3w2v2u2  t2s2r2q2j3p2o2n2m2l2k2j2i2v3h2                  ",
"                g2f2e2d2c2b2a2Z2z2Y2t3O3X2W2    V2s2r2U2T2p2S2R2Q2P2O2N2M2L2K2                  ",
"                J2I2H2G2F2E2D2S2C2B2A2;2:292    8272H362524232221202z1y1x1I4w1                  ",
"                v1u1t1s1r1q1p1o1n1m1l1k1j1i1h1  g1f1e1d1c1b1a1Z1Y1X1W1V1U1T1                    ",
"                  S1R1Q1P1O1N1M1w2L1K1J1I1H1G1F1E1D1C1B1A1;1:1918171615141                      ",
"                  31211101z0y0x0h3w0v0u0t0s0r0q0p0o0n0m0l0k0j0i0h0g0f0e0                        ",
"                d0c0b0a0Z0Y0X0W0V0U0T0S0R0Q0P0O0N0M0L0K0J0p2I0H0                                ",
"                  G0F0E0D0C0B0A0;0                      :09080                                  ",
"                    706050403020                          1000                                  ",
"                                                                                                ",
"                                                                                                ",
"                                                                                                ",
"                                                                                                ",
"                                                                                                ",
"                                                                                                "};
