/* XPM */
static char *image[] = {
"48 48 428 2",
"   c None",
"00 c #262626",
"10 c #333333",
"20 c #323232",
"30 c #5e5e5e",
"40 c #363636",
"50 c #4c4c4c",
"60 c #626262",
"70 c #373737",
"80 c #797979",
"90 c #4d4d4d",
":0 c #6b6b6b",
";0 c #3e3e3e",
"A0 c #525252",
"B0 c #666666",
"C0 c #838383",
"D0 c #414141",
"E0 c #575757",
"F0 c #808080",
"G0 c #9d9d9d",
"H0 c #a2a2a2",
"I0 c #868686",
"J0 c #696969",
"K0 c #444444",
"L0 c #5b5b5b",
"M0 c #727272",
"N0 c #464646",
"O0 c #5f5f5f",
"P0 c #787878",
"Q0 c #8c8c8c",
"R0 c #4a4a4a",
"S0 c #636363",
"T0 c #4f4f4f",
"U0 c #686868",
"V0 c #eeeeee",
"W0 c #7b7b7b",
"X0 c #565656",
"Y0 c #6c6c6c",
"Z0 c #f4f4f4",
"a0 c #f3f3f3",
"b0 c #f2f2f2",
"c0 c #ececec",
"d0 c #8f8f8f",
"e0 c #767676",
"f0 c #5c5c5c",
"g0 c #717171",
"h0 c #878787",
"i0 c #f1f1f1",
"j0 c #f0f0f0",
"k0 c #efefef",
"l0 c #606060",
"m0 c #747474",
"n0 c #888888",
"o0 c #ededed",
"p0 c #ebebeb",
"q0 c #eaeaea",
"r0 c #7c7c7c",
"s0 c #646464",
"t0 c #676767",
"u0 c #7a7a7a",
"v0 c #e4e4e4",
"w0 c #e3e3e3",
"x0 c #6a6a6a",
"y0 c #e0e0e0",
"z0 c #a9a9a9",
"01 c #9e9e9e",
"11 c #6f6f6f",
"21 c #7e7e7e",
"31 c #a7a7a7",
"41 c #a8a8a8",
"51 c #979797",
"61 c #737373",
"71 c #828282",
"81 c #919191",
"91 c #d8d8d8",
":1 c #d9d9d9",
";1 c #777777",
"A1 c #848484",
"B1 c #949494",
"C1 c #e8e8e8",
"D1 c #e7e7e7",
"E1 c #e5e5e5",
"F1 c #7d7d7d",
"G1 c #898989",
"H1 c #969796",
"I1 c #b4b5b5",
"J1 c #dddddd",
"K1 c #e9e9e9",
"L1 c #e6e6e6",
"M1 c #b1b1b1",
"N1 c #818181",
"O1 c #8d8e8e",
"P1 c #9a9a9a",
"Q1 c #a6a7a6",
"R1 c #b7b9b8",
"S1 c #b2b6b4",
"T1 c #b2b5b4",
"U1 c #b9bab9",
"V1 c #dadada",
"W1 c #dedede",
"X1 c #858585",
"Y1 c #909090",
"Z1 c #9c9d9d",
"a1 c #b7bab9",
"b1 c #acb3b0",
"c1 c #99a7a1",
"d1 c #99a7a2",
"e1 c #a6afab",
"f1 c #b3b7b5",
"g1 c #8b8b8b",
"h1 c #959595",
"i1 c #9f9f9f",
"j1 c #b9baba",
"k1 c #bbbdbd",
"l1 c #adb5b2",
"m1 c #9ba9a3",
"n1 c #8b9f96",
"o1 c #8a9f96",
"p1 c #a5aeaa",
"q1 c #b4b7b6",
"r1 c #bdbebe",
"s1 c #8e8e8e",
"t1 c #adaead",
"u1 c #b8b9b9",
"v1 c #bcbebd",
"w1 c #b0b6b4",
"x1 c #9caaa4",
"y1 c #8ca097",
"z1 c #899f95",
"02 c #a6b0ab",
"12 c #b4b9b7",
"22 c #c1c2c2",
"32 c #b8b8b8",
"42 c #929292",
"52 c #9b9b9b",
"62 c #bdbebd",
"72 c #bfc1c0",
"82 c #b2b9b5",
"92 c #9eaca5",
":2 c #93a49d",
";2 c #a4afaa",
"A2 c #b7bbb9",
"B2 c #999999",
"C2 c #a0a0a0",
"D2 c #a8a9a9",
"E2 c #b3b4b4",
"F2 c #bdbfbe",
"G2 c #b8bdba",
"H2 c #a1aea8",
"I2 c #8ca198",
"J2 c #899e95",
"K2 c #94a59e",
"L2 c #b8bcba",
"M2 c #c7c9c8",
"N2 c #a5a5a5",
"O2 c #adadad",
"P2 c #9c9c9c",
"Q2 c #bec0bf",
"R2 c #c0c2c1",
"S2 c #a4b0aa",
"T2 c #90a29a",
"U2 c #849a90",
"V2 c #889d94",
"W2 c #aeaeae",
"X2 c #a1a1a1",
"Y2 c #a4a4a4",
"Z2 c #bfbfbf",
"a2 c #a3a3a3",
"b2 c #afb0b0",
"c2 c #c0c1c1",
"d2 c #c0c3c2",
"e2 c #babfbc",
"f2 c #a6b2ac",
"g2 c #90a39a",
"h2 c #879c92",
"i2 c #859b91",
"j2 c #7e9289",
"k2 c #798e85",
"l2 c #7f968c",
"m2 c #869c92",
"n2 c #a5b0ac",
"o2 c #b8bdbb",
"p2 c #b7b7b7",
"q2 c #a6a6a6",
"r2 c #ababab",
"s2 c #b2b2b2",
"t2 c #bcc1bf",
"u2 c #a5b2ac",
"v2 c #93a59d",
"w2 c #6e8078",
"x2 c #6c7d76",
"y2 c #687972",
"z2 c #697b73",
"03 c #a4b0ab",
"13 c #c4c6c5",
"23 c #aaaaaa",
"33 c #b0b0b0",
"43 c #bcbcbc",
"53 c #c1c5c3",
"63 c #acb7b2",
"73 c #94a69e",
"83 c #899e94",
"93 c #57655f",
":3 c #63746d",
";3 c #62736c",
"A3 c #768a81",
"B3 c #91a39b",
"C3 c #a3afaa",
"D3 c #b6bcb9",
"E3 c #c3c5c4",
"F3 c #c8c9c8",
"G3 c #c1c1c1",
"H3 c #acacac",
"I3 c #bfc4c1",
"J3 c #9eada6",
"K3 c #8b9f97",
"L3 c #7c9289",
"M3 c #4e5b56",
"N3 c #5c6b65",
"O3 c #6b7d76",
"P3 c #61716a",
"Q3 c #6f8179",
"R3 c #7d9288",
"S3 c #83998f",
"T3 c #8fa29a",
"U3 c #b7bdba",
"V3 c #c5c6c5",
"W3 c #afafaf",
"X3 c #b5b5b5",
"Y3 c #cfcfcf",
"Z3 c #c2c7c5",
"a3 c #a5b3ad",
"b3 c #8ea299",
"c3 c #768b82",
"d3 c #596862",
"e3 c #54625c",
"f3 c #788d84",
"g3 c #6a7c74",
"h3 c #708279",
"i3 c #7a8e85",
"j3 c #849a91",
"k3 c #92a49c",
"l3 c #a3b0aa",
"m3 c #b8bebb",
"n3 c #c6c8c7",
"o3 c #c4c4c4",
"p3 c #b3b3b3",
"q3 c #cbcdcd",
"r3 c #bbc3c0",
"s3 c #a3b1aa",
"t3 c #8fa39a",
"u3 c #80968d",
"v3 c #6f827a",
"w3 c #525f59",
"x3 c #56645d",
"y3 c #74867e",
"z3 c #667770",
"04 c #6a7b73",
"14 c #73857d",
"24 c #7b8f85",
"34 c #80978d",
"44 c #869c93",
"54 c #8da198",
"64 c #a6b2ad",
"74 c #bfc3c1",
"84 c #c9caca",
"94 c #b4b4b4",
":4 c #bbbbbb",
";4 c #c3c4c4",
"A4 c #d1d3d2",
"B4 c #c0c7c3",
"C4 c #a6b4ad",
"D4 c #90a39b",
"E4 c #879d93",
"F4 c #7a9087",
"G4 c #61726b",
"H4 c #49554f",
"I4 c #525e58",
"J4 c #617069",
"K4 c #697a73",
"L4 c #65766e",
"M4 c #70837b",
"N4 c #7c9188",
"O4 c #80968c",
"P4 c #8aa097",
"Q4 c #a1b0a9",
"R4 c #bac0bd",
"S4 c #c5c7c6",
"T4 c #c9c9c9",
"U4 c #b6b6b6",
"V4 c #bdbdbd",
"W4 c #cbcccb",
"X4 c #cccfce",
"Y4 c #bec5c2",
"Z4 c #a6b3ae",
"a4 c #91a59d",
"b4 c #879d94",
"c4 c #768a80",
"d4 c #56655e",
"e4 c #414c47",
"f4 c #505c57",
"g4 c #657670",
"h4 c #72857d",
"i4 c #788e84",
"j4 c #7f958b",
"k4 c #839a90",
"l4 c #94a59d",
"m4 c #adb8b3",
"n4 c #b9b9b9",
"o4 c #bebebe",
"p4 c #c4c5c5",
"q4 c #ced0cf",
"r4 c #c8cdca",
"s4 c #aab7b1",
"t4 c #81968c",
"u4 c #697b74",
"v4 c #53625b",
"w4 c #63746c",
"x4 c #778c83",
"y4 c #7e958b",
"z4 c #82998f",
"05 c #859b92",
"15 c #a8b5af",
"25 c #c6c9c8",
"35 c #c9cbca",
"45 c #bababa",
"55 c #c0c0c0",
"65 c #c6c7c6",
"75 c #cfd1d0",
"85 c #c3cac7",
"95 c #abb8b2",
":5 c #92a59d",
";5 c #80958c",
"A5 c #778b82",
"B5 c #7b9187",
"C5 c #81988e",
"D5 c #a9b6b0",
"E5 c #bcc3c0",
"F5 c #c6cac8",
"G5 c #cccccc",
"H5 c #c2c2c2",
"I5 c #c7c8c8",
"J5 c #cecfcf",
"K5 c #c5cbc9",
"L5 c #a8b5b0",
"M5 c #92a59c",
"N5 c #c0c5c3",
"O5 c #c8cccb",
"P5 c #c3c3c3",
"Q5 c #c8c8c8",
"R5 c #cecece",
"S5 c #c8cdcb",
"T5 c #afbcb6",
"U5 c #96a9a1",
"V5 c #889e95",
"W5 c #889e94",
"X5 c #a8b6b0",
"Y5 c #bec6c3",
"Z5 c #c9cdcc",
"a5 c #cdcece",
"b5 c #cacaca",
"c5 c #d1d2d2",
"d5 c #d4d5d5",
"e5 c #cad0cd",
"f5 c #b1bcb7",
"g5 c #899f96",
"h5 c #849b91",
"i5 c #869d93",
"j5 c #92a69d",
"k5 c #a9b8b1",
"l5 c #c0c7c4",
"m5 c #cbcfcd",
"n5 c #d0d0d0",
"o5 c #d2d3d2",
"p5 c #c5c5c5",
"q5 c #cbcbcb",
"r5 c #d1d1d1",
"s5 c #cacfcd",
"t5 c #b3beb9",
"u5 c #9aaba4",
"v5 c #8aa096",
"w5 c #859c92",
"x5 c #879e94",
"y5 c #90a49b",
"z5 c #a7b5ae",
"06 c #c0c8c4",
"16 c #ced1cf",
"26 c #d2d2d2",
"36 c #d3d4d3",
"46 c #c6c6c6",
"56 c #cdcdcd",
"66 c #d3d3d3",
"76 c #d7d8d8",
"86 c #ced2d0",
"96 c #b6c1bc",
":6 c #9aaca4",
";6 c #8da299",
"A6 c #94a79f",
"B6 c #a7b5af",
"C6 c #c2c9c6",
"D6 c #ced1d0",
"E6 c #d4d4d4",
"F6 c #d5d5d5",
"G6 c #cbcccc",
"H6 c #d0d1d1",
"I6 c #cfd3d1",
"J6 c #bac4c0",
"K6 c #a7b6af",
"L6 c #b0bcb7",
"M6 c #c3cbc8",
"N6 c #d5d7d6",
"O6 c #d7d7d7",
"P6 c #d6d6d6",
"Q6 c #c7c7c7",
"R6 c #cfd0cf",
"S6 c #d3d6d4",
"T6 c #d4d7d5",
"U6 c #cfd4d3",
"V6 c #d0d5d3",
"W6 c #dddfde",
"X6 c #dcdcdc",
"Y6 c #cecfce",
"Z6 c #d6d7d6",
"a6 c #dadcdb",
"b6 c #dfdfdf",
"c6 c #e1e1e1",
"d6 c #dbdbdb",
"e6 c #e2e2e2",
"                                                                                                ",
"                                                      e6e6d6                                    ",
"                                                    c6c6b6a6Z6Y6                                ",
"                                                  X6W6a6V6U6T6S6R6Q6                            ",
"                                                P6O6N6M6L6K6J6I6T6H6G6                          ",
"                                              F6E6D6C6B6A6;6:6968676665646                      ",
"                                            36261606z5y5x5w5v5u5t5s536r5q5p5                    ",
"                                          o5n5m5l5k5j5i5h5h5w5g5A6f5e5d5c5b5p5                  ",
"                                        n5a5Z5Y5X5A6W5h5h5h5h5w5V5U5T5S5r5R5Q5P5                ",
"                                      5656O5N5X5M5W5w5h5h5h5h5h5h5W5M5L5K5J5a5I5H5              ",
"                                    G5G5F5E5D5A6x5h5h5h5h5h5h5C5B5A5;5:5958575a5655545          ",
"                                  G53525E515A6g505h5h5h5h5z4y4x4w4v4u4t4j5s4r4q4G6p4o4n4        ",
"                                G5b5Q5N5m4l4W505h5h5k4z4j4i4h4g4f4e4d4c4b4a4Z4Y4X4W4p4V4U4      ",
"                              Q6T4T4S4R4Q4P4h5h5h5k4O4N4M4L4K4J4I4H4G4F4k4E4D4C4B4A456;4:494    ",
"                            46Q6Q5T4847464544405h534241404z3M4y3x3w3v3u3h5h5i5t3s3r3q356H545p3  ",
"                          o346Q6Q5T4q5n3m3l3k3b4j3O4i3h3g3M4f3v3e3d3c3z4h5h5h5w5b3a3Z3Y3T4V4X3W3",
"                        o3p546Q6Q5T4T4T4V3U3l3T3h5S3R3Q3P3O3v3N3M3G4L3h5h5h5h5w5K3J3I3W4T455p3H3",
"                      G3o346Q6Q6Q6Q5b5b5F3E3D3C3B3E4O4A3z3;3:393d4Q3u3h5h5h5h583736353F3p5433323",
"                      G3p5Q6Q5Q5p5Q6Y3R556b513U303:5b4z4A3z2y2x2w2N4h5h5h5h5w5v2u2t2E3;4V4s2r2q2",
"                    G3o346Q5b5o3p2U446q52666R565o2n2v2m2l2i3x4k2j2S3h5h5i2h2g2f2e2d2c2n4b2q2a2  ",
"                  Z2H546p5H545s2Y2X2W2U4o446G5Y3I5o203v2V2U2C5C5S3h5h5h5i5T2S2o2R2Q2p2H3Y2P2    ",
"                o4G3o3P5:4O2H3r2q2N223q2N233V456r5M2L2n2K2J2h5h5h5h5h5h5I2H2G2c2F2E2D2C2B2      ",
"              4355o3H54394W2p394U4X3X3s233H3O2:4b5Y365A2;2:2W5w5h5h5m25492827262E2q25242        ",
"            45o4G3o3o432p24543V4V4V4V4o443p2W2a2X3G556221202l4z1w5w5y1x1w1v1u1t1a2B2s1          ",
"          p2:4Z2P5H5:4V455G3G3H5H5H5H5P5P5H5o4X3s2o4b546r1q1p1K2o1n1m1l1k1j1r2i1h1g1            ",
"        94U443H5p555Z2o3p54646Q5b5G5q5Q5Q6Q6Q6G3X332q5q5G3:4f1e1d1c1b1a145r2Z1Y1X1              ",
"      33p39443p5p5o346T4b5b5q5r5d6W1V166R5q5q5Q5o4X355G5P543U1q1T1S1R1p2Q1P1O1N1                ",
"    W233M194434646Q55656R5G5G5O6L1K1L1J1E6Y3Y3R5Q6p2p2Q6H5:4n4n4u1u1I1Q1H1G1F1                  ",
"  r2W3W333p3n4G3T4G5r526r5G5Q6E6E1D1C1b6P666E6E6Y3o4p3:4V4n4323232E2Y2B1A1;1                    ",
"  23O2W2O2W2M14546n5F6P626Q6o4T4:1W1W1F6r5F6O691F6Z2M1U432U4U4U4p3a2817161                      ",
"5141r2r2r223W2:4Q6P6V1d6V1b5p3U446G5G5p5b5O6d6d6P6Q6p2o443X394M131Y12111                        ",
"  01412323O2U44626:1W1b6W126U431z0M194V4Y3X6y0b6:1q5P546V494W3a2s1F1x0                          ",
"  G1P1a241r2325691X6c6w0w0X6b5s2z0H3s2b5J1w0v0v0d6b5Q6p54533i1g1u0t0                            ",
"    2142i131W3p5O6W1w0D1C1L1y09156q5P6b6L1C1D1E191Q5Q5P5s2i1G1;1s0                              ",
"      r0Y10123:4r5W1E1q0p0p0p0q0C1C1q0p0o0o0q0e6P6G5Q6n4X2n0m0l0                                ",
"        u0Y1i1W3P5F6c6K1o0k0j0j0j0j0i0i0i0j0C1J1E6G5Z2C2h0g0f0                                  ",
"          e0d0C2s246O6v0c0j0b0a0Z0Z0Z0a0i0q0y0O656o4i1X1Y0X0                                    ",
"            W0Y1C2p3Q6d6D1p0V0i0b0b0b0V0D1X6r5Q6U452N1U0T0                                      ",
"              ;1s1i1M1o3F6b6D1D1E1V1W1W191Y3H533h1r0S0R0                                        ",
"                61Q0P141n4Q6r566q5G346b54645z0Y1P0O0N0                                          ",
"                  M0G1B2Y2r2s2p2s2r2W3s2O201G161L0K0                                            ",
"                    J0I0h15201H0i1G0C2i1B1F0Y0E0D0                                              ",
"                      J0C042B2P1B251Y1I0;1B0A0;0                                                ",
"                        :0C0s181s1Q0N1g0l090                                                    ",
"                          l080X1I0F0g0O0R070                                                    ",
"                            60m0u061605040                                                      ",
"                              30x0S05020                                                        ",
"                                  1000                                                          "};
