/* XPM */
static char *image[] = {
"64 64 3 1",
"  c None",
"0 c #ffffff",
"1 c #000000",
"                                                                ",
"                                                                ",
"                                                                ",
"                                                                ",
"             11                                                 ",
"            111                                                 ",
"             011                                                ",
"             1011                                               ",
"             11011                                              ",
"             110011                                             ",
"              100011                                            ",
"              10000111                       01000011           ",
"              110000011                    01001010001          ",
"              10000000111                 0100111110001         ",
"               11001000011               10011      1000        ",
"               1010000000111             0101        1001       ",
"               11011101000011           1001          100       ",
"                01011110101011          001           1001      ",
"                101111111000111        1001            101      ",
"                10011   1110001        1011            100      ",
"                11011     111011       000             0011     ",
"                 1011      11101       101             1001     ",
"                 10101       1011      000             1001     ",
"                 10111       1111010101101111101       010      ",
"                 11011        011101101010000110       101      ",
"                  1001        110100000000100010      1001      ",
"                  11011     11011000001000010011      1001      ",
"                  01011    001001001010011001001     0101       ",
"                  11101   1100000010000101000101    0100        ",
"                   1011  0100100100010100 10001101010011        ",
"                   101101000000000100000000100101010011         ",
"                   1101101000100100010101000010100101           ",
"              111  0110100010000001000010101001111              ",
"           1101101111011100000101000101000101010                ",
"         101010010101101000010000010000101000101                ",
"        1100000001010101101000001000101000101011                ",
"       10101001010101011100000100010000101000101                ",
"      110000101010101101110010001000101000100101                ",
"      01110101010101010101000000001000010100110                 ",
"     11001010101011010101100010100001010000101                  ",
"     1110110110110110111010100000100010010111                   ",
"    1010101101101010101011000001000100000101                    ",
"   0111101011011011011011010010001001010111                     ",
"  010010111011011011011110000000000100010                       ",
"   0101101010110110110101001001010000111                        ",
"   100011111101101101110000000000010101                         ",
"    0100010101101111100100100100100101                          ",
"     0100011111110100100000000000110                            ",
"     010000000100100000000010010101                             ",
"      0100000000000000001000001011                              ",
"       1100000000000010000001011                                ",
"        10000000000100000010101                                 ",
"        011000000100000010101                                   ",
"         0010000000000001011                                    ",
"          0100000000001010                                      ",
"           01000100010111                                       ",
"           010000001010                                         ",
"            011001011                                           ",
"             1010101                                            ",
"              1011                                              ",
"                                                                ",
"                                                                ",
"                                                                ",
"                                                                "};
