/* XPM */
static char *image[] = {
"48 48 14 1",
"  c None",
"0 c #547eb2",
"1 c #547eb1",
"2 c #537eb1",
"3 c #527eb2",
"4 c #537fb2",
"5 c #537eb3",
"6 c #537eb2",
"7 c #83b9f5",
"8 c #f38578",
"9 c #f38477",
": c #f48577",
"; c #f38576",
"A c #f38577",
"                                                ",
"                                                ",
"                                                ",
"                                                ",
"                                                ",
"                  AAAAAAAAAAAA                  ",
"                   AAAAAAAAAA                   ",
"                    AAAAAAAA                    ",
"                    ;AAAAAA:                    ",
"                     AAAAAA                     ",
"                     9AAAA8                     ",
"                      AAAA                      ",
"                       AA                       ",
"                       AA                       ",
"       777777777777    AA    66                 ",
"       7777777777777   AA   6666                ",
"       7777777777777   AA   66666               ",
"       7777777777777   AA   6666666             ",
"       7777777777777   AA   56666666            ",
"       7777777777777   AA   566666666           ",
"                       AA   56666666664         ",
"                       AA   566666666663        ",
"                       AA   6666666666666       ",
"                       AA   666666666666664     ",
"  777777777777777777   AA   6666666666666666    ",
"  777777777777777777   AA   66666666666666663   ",
"  777777777777777777   AA   666666666666666662  ",
"  777777777777777777   AA   666666666666666666  ",
"  777777777777777777   AA   66666666666666666   ",
"  777777777777777777   AA   6666666666666666    ",
"                       AA   666666666666661     ",
"                       AA   6666666666666       ",
"                       AA   666666666663        ",
"                       AA   66666666664         ",
"          7777777777   AA   666666663           ",
"          7777777777   AA   66666666            ",
"          7777777777   AA   6666664             ",
"          7777777777   AA   66666               ",
"          7777777777   AA   6666                ",
"          7777777777   AA    60                 ",
"                       AA                       ",
"                       AA                       ",
"                       AA                       ",
"                                                ",
"                                                ",
"                                                ",
"                                                ",
"                                                "};
