/* XPM */
static char *image[] = {
"48 48 578 2",
"   c None",
"00 c #0a0a09",
"10 c #0b0b0a",
"20 c #0c0c0a",
"30 c #0d0d0b",
"40 c #0d0d0c",
"50 c #0e0e0c",
"60 c #0f0e0c",
"70 c #0f0f0d",
"80 c #33302a",
"90 c #332f2a",
":0 c #33302b",
";0 c #35322b",
"A0 c #35322c",
"B0 c #36322c",
"C0 c #36322d",
"D0 c #36332d",
"E0 c #37332e",
"F0 c #38342e",
"G0 c #39352e",
"H0 c #3b3730",
"I0 c #0c0b0a",
"J0 c #3d3b36",
"K0 c #38352e",
"L0 c #504c42",
"M0 c #38352f",
"N0 c #39352f",
"O0 c #3a3630",
"P0 c #403d38",
"Q0 c #45413b",
"R0 c #65625c",
"S0 c #66635c",
"T0 c #66635d",
"U0 c #67635d",
"V0 c #67635e",
"W0 c #67645e",
"X0 c #68645f",
"Y0 c #68655f",
"Z0 c #69655f",
"a0 c #69665f",
"b0 c #6a665f",
"c0 c #6a6660",
"d0 c #6a6760",
"e0 c #6b6761",
"f0 c #6b6861",
"g0 c #6c6862",
"h0 c #6c6962",
"i0 c #6d6962",
"j0 c #6d6963",
"k0 c #6e6a64",
"l0 c #6e6b64",
"m0 c #6f6b64",
"n0 c #706c65",
"o0 c #716d66",
"p0 c #726e67",
"q0 c #726f67",
"r0 c #736f68",
"s0 c #747068",
"t0 c #6f6c64",
"u0 c #090807",
"v0 c #54504b",
"w0 c #87847e",
"x0 c #87847f",
"y0 c #888580",
"z0 c #afaca7",
"01 c #898781",
"11 c #8a8781",
"21 c #8a8882",
"31 c #8c8882",
"41 c #8c8983",
"51 c #8d8983",
"61 c #8d8a83",
"71 c #8d8b84",
"81 c #8e8c85",
"91 c #8f8c85",
":1 c #8f8c86",
";1 c #908d86",
"A1 c #918d86",
"B1 c #918d87",
"C1 c #918e87",
"D1 c #928e87",
"E1 c #928e88",
"F1 c #928f88",
"G1 c #8d8a84",
"H1 c #524f45",
"I1 c #312e29",
"J1 c #3a3730",
"K1 c #3b3731",
"L1 c #b4b1ac",
"M1 c #49463d",
"N1 c #312f2a",
"O1 c #3c3832",
"P1 c #3e3a33",
"Q1 c #403e39",
"R1 c #31302a",
"S1 c #3c3932",
"T1 c #3f3b34",
"U1 c #545147",
"V1 c #3d3933",
"W1 c #3d3a33",
"X1 c #3e3a34",
"Y1 c #b5b2ad",
"Z1 c #555247",
"a1 c #59554f",
"b1 c #5a554f",
"c1 c #5a5650",
"d1 c #5a5751",
"e1 c #5c5852",
"f1 c #5d5953",
"g1 c #5e5953",
"h1 c #5e5a54",
"i1 c #5f5a54",
"j1 c #5f5b54",
"k1 c #605b54",
"l1 c #605c55",
"m1 c #615d56",
"n1 c #625e57",
"o1 c #635f58",
"p1 c #645f58",
"q1 c #645f59",
"r1 c #656059",
"s1 c #656159",
"t1 c #66615a",
"u1 c #66625a",
"v1 c #67625b",
"w1 c #67635b",
"x1 c #69645c",
"y1 c #69645d",
"z1 c #6a655d",
"02 c #6a655e",
"12 c #656258",
"22 c #413e39",
"32 c #33312b",
"42 c #46433c",
"52 c #9a9891",
"62 c #9a9892",
"72 c #9b9892",
"82 c #9b9992",
"92 c #9c9993",
":2 c #9d9a93",
";2 c #9d9a94",
"A2 c #9e9b94",
"B2 c #9e9b95",
"C2 c #9e9c95",
"D2 c #9f9c95",
"E2 c #a09d95",
"F2 c #a09d96",
"G2 c #a09e96",
"H2 c #a09e97",
"I2 c #a19e97",
"J2 c #a19f97",
"K2 c #a29f97",
"L2 c #a29f98",
"M2 c #a39f98",
"N2 c #a3a099",
"O2 c #949189",
"P2 c #090908",
"Q2 c #34312b",
"R2 c #403c35",
"S2 c #58534a",
"T2 c #34322c",
"U2 c #403d36",
"V2 c #413e37",
"W2 c #413f39",
"X2 c #35332c",
"Y2 c #413e36",
"Z2 c #423f37",
"a2 c #35332d",
"b2 c #423e37",
"c2 c #444038",
"d2 c #444139",
"e2 c #414039",
"f2 c #36342d",
"g2 c #433f38",
"h2 c #434038",
"i2 c #45413a",
"j2 c #48453c",
"k2 c #565147",
"l2 c #5b574d",
"m2 c #41403a",
"n2 c #4f4c45",
"o2 c #b0aea8",
"p2 c #b1afa9",
"q2 c #b2afaa",
"r2 c #b2b0aa",
"s2 c #b3b0ab",
"t2 c #b3b1ab",
"u2 c #b4b1ab",
"v2 c #b4b2ac",
"w2 c #b5b2ac",
"x2 c #b5b3ad",
"y2 c #b6b4ad",
"z2 c #b7b4ae",
"03 c #b8b5ae",
"13 c #b7b5ae",
"23 c #666258",
"33 c #37342e",
"43 c #454139",
"53 c #47443c",
"63 c #4d4941",
"73 c #4f4a42",
"83 c #504b42",
"93 c #5d584e",
":3 c #0a0908",
";3 c #37352f",
"A3 c #4c4840",
"B3 c #514c43",
"C3 c #524d44",
"D3 c #524e45",
"E3 c #534f46",
"F3 c #575248",
"G3 c #58544a",
"H3 c #59554b",
"I3 c #5c574c",
"J3 c #5e594f",
"K3 c #0a0a08",
"L3 c #46433b",
"M3 c #4b473e",
"N3 c #4b473f",
"O3 c #4c483f",
"P3 c #4d4840",
"Q3 c #4d4940",
"R3 c #4e4941",
"S3 c #4e4a41",
"T3 c #504c43",
"U3 c #524e44",
"V3 c #534e45",
"W3 c #534f45",
"X3 c #544f46",
"Y3 c #555047",
"Z3 c #565148",
"a3 c #565248",
"b3 c #575249",
"c3 c #575349",
"d3 c #585349",
"e3 c #59544a",
"f3 c #5a554b",
"g3 c #5a564b",
"h3 c #5b564c",
"i3 c #5b574c",
"j3 c #5c574d",
"k3 c #5c584d",
"l3 c #5f5a50",
"m3 c #43403a",
"n3 c #0b0b09",
"o3 c #39362f",
"p3 c #47433b",
"q3 c #47443b",
"r3 c #49453c",
"s3 c #49453d",
"t3 c #4e4a42",
"u3 c #625f56",
"v3 c #514f45",
"w3 c #4a463d",
"x3 c #4a463e",
"y3 c #4a473e",
"z3 c #625f57",
"04 c #68665e",
"14 c #69665e",
"24 c #69675e",
"34 c #4f4b42",
"44 c #4d4a41",
"54 c #6b685f",
"64 c #6b6860",
"74 c #6c6960",
"84 c #68645c",
"94 c #504d43",
":4 c #514d43",
";4 c #514d44",
"A4 c #58544b",
"B4 c #6d6b62",
"C4 c #6e6c63",
"D4 c #656057",
"E4 c #535046",
"F4 c #545046",
"G4 c #555147",
"H4 c #646056",
"I4 c #757269",
"J4 c #75726a",
"K4 c #76726a",
"L4 c #635f55",
"M4 c #59554a",
"N4 c #42403a",
"O4 c #96948e",
"P4 c #aaa7a2",
"Q4 c #cecdc8",
"R4 c #4c4a42",
"S4 c #4e4b44",
"T4 c #e7e4df",
"U4 c #cccac4",
"V4 c #45433b",
"W4 c #c7c4be",
"X4 c #73706a",
"Y4 c #a5a39d",
"Z4 c #989590",
"a4 c #5c5953",
"b4 c #dddcd6",
"c4 c #48453d",
"d4 c #34322e",
"e4 c #3d3a34",
"f4 c #3f3c35",
"g4 c #2f2e29",
"h4 c #5b5852",
"i4 c #e0deda",
"j4 c #44413a",
"k4 c #615f58",
"l4 c #b9b8b2",
"m4 c #86847e",
"n4 c #95928c",
"o4 c #a9a7a1",
"p4 c #717068",
"q4 c #3f3d37",
"r4 c #302e28",
"s4 c #66645d",
"t4 c #cac6be",
"u4 c #31302b",
"v4 c #35322e",
"w4 c #bab6ae",
"x4 c #4c4a47",
"y4 c #5e5b52",
"z4 c #939089",
"05 c #adaba5",
"15 c #6e6c66",
"25 c #e6e4e0",
"35 c #4d4943",
"45 c #514e46",
"55 c #e8e6e1",
"65 c #726f69",
"75 c #a6a49d",
"85 c #38362f",
"95 c #312f2b",
":5 c #4d4b47",
";5 c #393630",
"A5 c #322f2b",
"B5 c #84817b",
"C5 c #383633",
"D5 c #c6c4be",
"E5 c #a6a49e",
"F5 c #9c9a93",
"G5 c #817f78",
"H5 c #c1bfb9",
"I5 c #5d5952",
"J5 c #46423b",
"K5 c #dad9d3",
"L5 c #3e3c36",
"M5 c #0e0d0b",
"N5 c #444039",
"O5 c #3c3831",
"P5 c #3b3831",
"Q5 c #46423a",
"R5 c #d0cfc9",
"S5 c #6a6962",
"T5 c #e5e3dd",
"U5 c #e5e2dd",
"V5 c #54514a",
"W5 c #6d6a63",
"X5 c #8e8b85",
"Y5 c #a9a6a0",
"Z5 c #504e45",
"a5 c #b0ada7",
"b5 c #efece8",
"c5 c #4e4d48",
"d5 c #32302d",
"e5 c #62605a",
"f5 c #35322d",
"g5 c #bab6b1",
"h5 c #cdcbc5",
"i5 c #c2c0bb",
"j5 c #7c7a74",
"k5 c #1e1d1a",
"l5 c #393836",
"m5 c #454442",
"n5 c #454443",
"o5 c #262522",
"p5 c #1d1c1a",
"q5 c #424140",
"r5 c #424240",
"s5 c #40403e",
"t5 c #1d1c19",
"u5 c #1c1c19",
"v5 c #1c1b19",
"w5 c #201f1d",
"x5 c #3f3e3d",
"y5 c #3f3e3c",
"z5 c #373635",
"06 c #1b1a18",
"16 c #252422",
"26 c #3b3a38",
"36 c #3b3a39",
"46 c #3a3a38",
"56 c #171716",
"66 c #32302a",
"76 c #5b5953",
"86 c #c6c3bb",
"96 c #32302b",
":6 c #636059",
";6 c #3b3832",
"A6 c #2f2d28",
"B6 c #22201d",
"C6 c #474542",
"D6 c #242422",
"E6 c #161514",
"F6 c #0d0c0b",
"G6 c #393730",
"H6 c #31302c",
"I6 c #413d36",
"J6 c #48443c",
"K6 c #605d54",
"L6 c #b6b3ad",
"M6 c #6d6a64",
"N6 c #45423a",
"O6 c #e7e5df",
"P6 c #dad8d1",
"Q6 c #b3afa9",
"R6 c #686661",
"S6 c #0e0c0b",
"T6 c #040303",
"U6 c #191917",
"V6 c #58554d",
"W6 c #6f6c63",
"X6 c #6f6b63",
"Y6 c #6d6a62",
"Z6 c #6e6b62",
"a6 c #716e65",
"b6 c #b8b5af",
"c6 c #77746e",
"d6 c #e5e3de",
"e6 c #bebbb5",
"f6 c #3e3b35",
"g6 c #35342d",
"h6 c #252420",
"i6 c #3e3c39",
"j6 c #343330",
"k6 c #21201f",
"l6 c #060606",
"m6 c #4d4c4b",
"n6 c #9a9995",
"o6 c #deddd8",
"p6 c #5b5850",
"q6 c #4b4840",
"r6 c #7a7772",
"s6 c #817e77",
"t6 c #dcdad4",
"u6 c #c8c6c1",
"v6 c #96938d",
"w6 c #e0ded8",
"x6 c #cecac4",
"y6 c #94918b",
"z6 c #292825",
"07 c #0a0909",
"17 c #060605",
"27 c #0e0e0d",
"37 c #10100e",
"47 c #282723",
"57 c #4c4a43",
"67 c #797871",
"77 c #f1eeea",
"87 c #8b8882",
"97 c #d3d0cb",
":7 c #67655e",
";7 c #3a3731",
"A7 c #302d27",
"B7 c #4b4a46",
"C7 c #292826",
"D7 c #151514",
"E7 c #0d0d0d",
"F7 c #313130",
"G7 c #6f6e6b",
"H7 c #b7b7b2",
"I7 c #b6b4ae",
"J7 c #535049",
"K7 c #44413b",
"L7 c #c9c7c1",
"M7 c #dddbd6",
"N7 c #85827c",
"O7 c #74716b",
"P7 c #e4e1dc",
"Q7 c #dad6d0",
"R7 c #b7b3ac",
"S7 c #6f6d68",
"T7 c #0e0d0c",
"U7 c #030202",
"V7 c #111010",
"W7 c #373632",
"X7 c #57544d",
"Y7 c #c4c2bc",
"Z7 c #eeece7",
"a7 c #e7e5e0",
"b7 c #7c7a73",
"c7 c #7e7c75",
"d7 c #dfddd9",
"e7 c #c3c0ba",
"f7 c #3e3b34",
"g7 c #36342e",
"h7 c #272520",
"i7 c #3c3b37",
"j7 c #353532",
"k7 c #1e1e1c",
"l7 c #020202",
"m7 c #010101",
"n7 c #20201f",
"o7 c #474644",
"p7 c #8f8e8b",
"q7 c #d5d3cf",
"r7 c #64615a",
"s7 c #4b4841",
"t7 c #75716c",
"u7 c #898680",
"v7 c #d6d5cf",
"w7 c #cecbc6",
"x7 c #8f8d87",
"y7 c #e0ddd8",
"z7 c #cfcbc5",
"08 c #99968f",
"18 c #232220",
"28 c #0b0a09",
"38 c #030302",
"48 c #131313",
"58 c #242220",
"68 c #46443f",
"78 c #716e67",
"88 c #f0eeea",
"98 c #93918a",
":8 c #cdccc7",
";8 c #d7d5d0",
"A8 c #86837d",
"B8 c #706e67",
"C8 c #514e47",
"D8 c #080706",
"E8 c #10100f",
"F8 c #30302e",
"G8 c #636261",
"H8 c #acaba7",
"I8 c #b7b6b2",
"J8 c #504e46",
"K8 c #434039",
"L8 c #c5c2bd",
"M8 c #e2e0db",
"N8 c #7d7b75",
"O8 c #7e7b75",
"P8 c #5e5b54",
"Q8 c #000000",
"R8 c #171615",
"S8 c #171614",
"T8 c #33322e",
"U8 c #514e48",
"V8 c #bdbab4",
"W8 c #edece6",
"X8 c #44423b",
"Y8 c #74726b",
"Z8 c #88857f",
"a8 c #3f3d38",
"b8 c #232322",
"c8 c #41403e",
"d8 c #83817f",
"e8 c #c8c7c2",
"f8 c #68645d",
"g8 c #49463f",
"h8 c #423f38",
"i8 c #6b6862",
"j8 c #8c8a83",
"k8 c #1a1a17",
"l8 c #1c1c1a",
"m8 c #131211",
"n8 c #201f1c",
"o8 c #403e38",
"p8 c #65625b",
"q8 c #f0eee9",
"r8 c #ebe9e4",
"s8 c #eae8e3",
"t8 c #8e8b84",
"u8 c #080807",
"v8 c #121110",
"w8 c #302f2e",
"x8 c #585755",
"y8 c #9f9e9b",
"z8 c #868480",
"09 c #181817",
"      09                                                                                        ",
"      z8y8x8w8v8                                                                                ",
"    u8t8s8r8q8p8o8n8m8l8                                                                        ",
"    k8j8s8s8s8i8h8g8f8e8d8c8b8                                                                  ",
"    a8Z8s8s8s8Y8h8h8X8s8s8W8V8U8T8S8R8                                                          ",
"  Q8P8O8s8s8s8N8h8h8h8M8s8s8L8h8K8J8I8H8G8F8E8                                                  ",
"  D8C8B8s8s8s8A8h8h8h8;8s8s8:8h8h8h898s8r888786858v848                                          ",
"  38281808z7y7x7h8h8h8w7s8s8v7h8h8h8u7s8s8s8t7h8s7r7q7p7o7n7m7                                  ",
"        l7k7j7i7h7g7f7e7s8s8d7h8h8h8c7s8s8s8b7h8h8h8a7s8Z7Y7X7W7R8V7                            ",
"                U7D8T7S7R7Q7P7h8h8h8O7s8s8s8N7h8h8h8M7s8s8L7h8K7J7I7H7G7F7E7                    ",
"                      Q8D7C7B7n8A7;7:7s8s8s8t8h8h8h897s8s897h8h8h887s8r8776757473727            ",
"                              Q81707z6y6x6w6v6h8h8h8u6s8s8t6h8h8h8s6s8s8s8r6h8q6p6o6n6m6n7m7    ",
"                                      l6k6j6i6h6g6f6e6s8s8d6h8h8h8c6s8b6a6Z6Y6Y6Y6X6W6W6V6U6    ",
"                                              T6u8S6R6Q6P6O6N6h8h8M6s8L6K6J6J6J6J6I6H6g7G6F6    ",
"                                                    Q8E6D6C6B6A6;6:6s8L6K6J6J6J6J69686766628    ",
"  5646362616k80606z5y5x5y5w5v5u5t5s5r5q5c8p5p5p5o5n5n5m5l5k5k5u5j5i5h5g5K6J6J6J6J6f5e5d5g728    ",
"  c5b5b5b5a5Z5Z5Z5Y5b5b5b5X5Z5Z5Z5u6b5b5b5W5Z5Z5V5U5b5b5T5V5Z5Z5S5b5b5R5K6Q5P5J6J6J6O5N5G6M5    ",
"  L5K5s8s8d7J5h8h8I5s8s8s8H5h8h8h8G5s8s8s8F5h8h8h8E5s8s8s8c6h8h8h8L7s8D5K6C5B5A5J6;5:59585M5    ",
"  L575s8s8s865h8h8h8w7s8s85545h8h83525s8s897h8h8h815s8s8s805h8h8h8z4s8D5y4x4w4v4J6u4t4s4r4M5    ",
"  q4p4s8s8s8o4h8h8h8n4s8s8s8m4h8h8h8l4s8s8s8k4h8h8j4t6s8s8i4J5h8h8h4s8D5K6G6g4f4J6e4d4A5G6T7    ",
"  o8c4b4s8s8M7X8h8h8a4s8s8s8V8h8h8h8s6s8s8s8Z4h8h8h8Y4s8s8s8X4h8h8h8w7W4K6J6J6J6J6J6J6J6G6T7    ",
"  o8V4o4s8s8s815h8h8h8U4s8s8T4S4h8h8R425s8s8Q4h8h8h8M6s8s8s8P4h8h8h8O4W4K6J6J6J6J6J6J6J6G6M5    ",
"  N4M4L4K4J4I4H4G4F4E4D4C4Z6B4A4;4:4948474645444444434241404z3y3x3w3v3u3t3w3s3r3J6q3p3p3o3n3    ",
"  m3l3k3j3i3h3g3f3M4e3d3c3b3a3Z3G4Y3F4X3W3V3U3;4;4T3T33434S3R3Q3P3O3N3M3x3x3s3s3J6J6p3L385K3    ",
"  N4J3I3h3g3f3H3e3G3d3c3F3a3G4G4F4X3E3V3D3C3;4B3T33434S3S3Q3Q3A3O3N3y3x3s3s3J6J6p3p3J5Q5;3:3    ",
"  N493h3f3f3e3G3d3c3F3a3Z3G4Y3F4X3W3D3U3;4:4T3833473S363Q3A3O3N3M3x3w3s3s3J653p3L3Q5N64333:3    ",
"  N4k32313b6b603z2z2z2z2z2y2L6L6L6x2x2x2w2w2v2v2v2v2u2u2t2t2t2s2s2r2r2r2r2q2q2p2p2p2o2n2g7:3    ",
"  m2l2e3G3d3c3F3a3k2G4Y3F4E3V3D3C3;4B3T38334S3S363Q3A3O3N3M3x3w3s3j2J6p3p3J5Q5i243N5h2g2f2:3    ",
"  e2h3d3c3F3a3Z3G4Y3F4X3W3V3U3;4:4T3T33434S3R3Q3A3O3N3M3x3x3s3s3J6J6p3L3Q5N643d2c2h2g2b2a2:3    ",
"  e2f3c3F3a3G4Y3F4X3W3V3D3C3;4B3T33434S3S3Q3Q3A3O3N3y3x3s3s3J6J6p3p3J5Q5i2d2N5h2g2Z2b2Y2X2:3    ",
"  W2e3a3Z3G4Y3F4E3W3D3U3;4B3T3833473S363Q3A3O3N3M3x3w3s3j2J653p3L3Q5N643N5c2g2Z2b2V2I6U2T2:3    ",
"  W2S2G4Y3F4X3W3V3U3C3;4T3T33434S3S3Q3Q3O3N3N3x3x3s3s3J6J6p3p3Q5N643d2N5h2g2Z2b2Y2U2R2f4Q2P2    ",
"  W2c3F4O2N2N2N2M2L2L2L2K2J2I2I2H2G2F2F2F2E2D2D2D2C2B2A2A2;2;2;2:2929292827272726252524232P2    ",
"  22a3X31202z1y1x18484w1v1u1t1s1r1r1q1p1o1o1n1n1m1m1l1l1k1j1i1h1g1f1f1e1h4p2d1c1c1b1a1R232P2    ",
"  22Z1V3D3C3;4T3T33434S3S3Q3Q3O3O3N3y3x3s3s3J6J6p3p3Q5Q5i2d2N5h2g2Z2b2Y2I6Y1f4f4f7X1W1V166P2    ",
"  22U1U3;4B3T3833473S363Q3A3O3N3M3x3w3s3j2J653p3L3Q5i243N5c2g2Z2b2V2I6U2R2Y1T1f7W1W1S1S1R1P2    ",
"  Q1E4;4T3T33434S3S3Q3Q3O3N3N3x3x3s3s3J6J6p3p3Q5N643d2N5h2g2Z2b2Y2U2R2f4T1Y1P1W1V1S1O1P5N1P2    ",
"  Q1W3T38334S3S3Q3Q3A3O3N3M3x3M1s3j2J6p3p3J5Q5i243N5h2g2Z2b2Y2I6U2R2f4f7f7L1W1S1O1P5K1J1I1P2    ",
"  Q1H1T3G1F1E1D1C1C1B1A1;1;1:1:19181X5X5t87161615141413187872111111101u7u7z0y0y0Z8x0w0v0r4u0    ",
"  o8U3S3t0s0s0r0r0r0q0p0o0o0n0n0n0n0m0l0k0W5j0i0i0h0g0f0e0d0c0b0a0Z0Y0X0W0V0U0T0S0R0R0Q0r4u0    ",
"  P0:463Q3A3O3N3M3x3w3s3j2J653p3L3Q5i243N5c2g2Z2b2V2I6U2R2f4T1f7W1W1S1S1P5K1;7O0;5N0M033A6u0    ",
"  P0L0P3O3N3M3x3x3s3s3J6J6p3L3Q5N643d2N5h2g2Z2b2I6U2R2f4T1f7P1W1V1S1;6P5;7J1;5o3M0K03333A6u0    ",
"  P034O3N3M3x3M1s3J6J6p3p3J5Q5i243N5h2g2Z2b2Y2I6U2R2f4f7f7W1V1S1O1P5K1J1O0;5M0M033333333A6u0    ",
"  J0t3M3x3w3s3s3J653p3L3Q5N643d2c2g2Z2b2V2I6U2R2f4T1f7P1W1S1S1;6P5;7J1;5o3M0333333333333A6u0    ",
"  I0M0o3o3O0O0H0O5O1O1S1V1S1O1O5O5P5K1J1O0o3N0G0K0F033E0D0C0B0A0;0Q2Q2:0:09090909090909080l7    ",
"    M57060504030F62010n32828282828282800000028000000000000000000000000K3K3000000n31020I0l7      ",
"                                                                                                ",
"                                                                                                "};
