/* XPM */
static char *image[] = {
"16 16 3 1",
"  c None",
"0 c #ffffff",
"1 c #000000",
"                ",
"101010          ",
"0000010101010101",
"1010000000000001",
"0101110111111101",
"1000000000000001",
"0101011010101010",
"1001000101001001",
"0010101000100100",
"1000000101001001",
"0101010000010001",
"1000000101000100",
"0001010000000001",
"1010101011011101",
"                ",
"                "};
