/* XPM */
static char *image[] = {
"16 16 3 1",
"  c None",
"0 c #000000",
"1 c #ffffff",
"       10       ",
"      110       ",
"     10110      ",
"     110100     ",
" 1010111011101  ",
"111110101010101 ",
"010101011010100 ",
" 0110110101010  ",
"  011010101010  ",
"   1010101010   ",
"   1010110100   ",
"  01011010110   ",
"  01100010101   ",
"   010   0100   ",
"                ",
"                "};
