/* XPM */
static char *image[] = {
"48 48 249 2",
"   c None",
"00 c #384338",
"10 c #304b2c",
"20 c #2e4628",
"30 c #040d04",
"40 c #3b6336",
"50 c #3f6f39",
"60 c #3c5e38",
"70 c #838c83",
"80 c #395936",
"90 c #497d45",
":0 c #41633d",
";0 c #dedede",
"A0 c #dededf",
"B0 c #e0e0df",
"C0 c #e1e2e1",
"D0 c #e6e7e6",
"E0 c #40593d",
"F0 c #98a198",
"G0 c #e0dfdf",
"H0 c #e0e0e0",
"I0 c #e1e0e0",
"J0 c #e2e2e3",
"K0 c #e3e2e3",
"L0 c #e3e3e4",
"M0 c #516e4d",
"N0 c #99a299",
"O0 c #e1e1e0",
"P0 c #e1e1e1",
"Q0 c #e4e3e3",
"R0 c #516d4d",
"S0 c #42633d",
"T0 c #e1e2e2",
"U0 c #e4e5e4",
"V0 c #e6e7e7",
"W0 c #e7e8e7",
"X0 c #476244",
"Y0 c #42643d",
"Z0 c #9aa39a",
"a0 c #e3e2e2",
"b0 c #5d7859",
"c0 c #9ba49b",
"d0 c #e4e3e4",
"e0 c #617b5d",
"f0 c #9ba59c",
"g0 c #e5e5e4",
"h0 c #e7e6e6",
"i0 c #eaeaeb",
"j0 c #9ca59c",
"k0 c #e6e5e6",
"l0 c #e7e6e7",
"m0 c #e8e7e8",
"n0 c #e9e8e8",
"o0 c #e9eaea",
"p0 c #e2e2e1",
"q0 c #617c5d",
"r0 c #9da69d",
"s0 c #e9e8e9",
"t0 c #e2e2e2",
"u0 c #42643e",
"v0 c #9ea79e",
"w0 c #e8e8e9",
"x0 c #e3e3e2",
"y0 c #e3e3e3",
"z0 c #46793f",
"01 c #3e6637",
"11 c #4c6242",
"21 c #a9a6a2",
"31 c #e9e9ea",
"41 c #ecebeb",
"51 c #e3e4e3",
"61 c #e4e4e4",
"71 c #e4e4e5",
"81 c #518e4d",
"91 c #4a8644",
":1 c #537f45",
";1 c #59693f",
"A1 c #595b43",
"B1 c #e3e4e4",
"C1 c #e5e4e4",
"D1 c #e5e4e5",
"E1 c #617c5e",
"F1 c #53814f",
"G1 c #629257",
"H1 c #748e58",
"I1 c #8b855b",
"J1 c #715f44",
"K1 c #908d89",
"L1 c #ecedec",
"M1 c #e6e5e5",
"N1 c #e5e6e6",
"O1 c #6b8062",
"P1 c #7d9165",
"Q1 c #a5a776",
"R1 c #b09e73",
"S1 c #937857",
"T1 c #6d5c48",
"U1 c #ededee",
"V1 c #e5e5e5",
"W1 c #e7e7e6",
"X1 c #7d7a65",
"Y1 c #9a896c",
"Z1 c #b89c7a",
"a1 c #b79873",
"b1 c #7f684c",
"c1 c #918d8a",
"d1 c #e5e6e5",
"e1 c #91806c",
"f1 c #998265",
"g1 c #806b52",
"h1 c #6d5f4f",
"i1 c #edecec",
"j1 c #eeedee",
"k1 c #e6e6e6",
"l1 c #e6e6e7",
"m1 c #e8e7e7",
"n1 c #e7e8e8",
"o1 c #eaebea",
"p1 c #776958",
"q1 c #4e4335",
"r1 c #8c8c8b",
"s1 c #f0f1f1",
"t1 c #e7e7e7",
"u1 c #e7e7e8",
"v1 c #ebeaea",
"w1 c #474644",
"x1 c #e8e8e7",
"y1 c #e9e9e8",
"z1 c #eae9e9",
"02 c #ebeceb",
"12 c #f2f2f3",
"22 c #f3f4f3",
"32 c #e8e8e8",
"42 c #e8e9e8",
"52 c #e9eae9",
"62 c #eaeae9",
"72 c #eaebeb",
"82 c #edeeed",
"92 c #eeefef",
":2 c #f3f3f4",
";2 c #e8e9e9",
"A2 c #e9e9e9",
"B2 c #eae9ea",
"C2 c #ececeb",
"D2 c #ecebec",
"E2 c #efeeef",
"F2 c #f0f0f1",
"G2 c #f3f4f4",
"H2 c #eaeaea",
"I2 c #ebebeb",
"J2 c #ebecec",
"K2 c #ededec",
"L2 c #eeeeef",
"M2 c #ebeaeb",
"N2 c #ebebec",
"O2 c #ececed",
"P2 c #eeeded",
"Q2 c #eeeeed",
"R2 c #eff0f0",
"S2 c #f0eff0",
"T2 c #f1f0f1",
"U2 c #f5f4f5",
"V2 c #f7f6f7",
"W2 c #f8f7f7",
"X2 c #ececec",
"Y2 c #eceded",
"Z2 c #edeced",
"a2 c #f0efef",
"b2 c #f4f4f5",
"c2 c #ededed",
"d2 c #f8f8f9",
"e2 c #edeeee",
"f2 c #eeefee",
"g2 c #f3f3f2",
"h2 c #f6f6f5",
"i2 c #f9f8f9",
"j2 c #eeeeee",
"k2 c #efefee",
"l2 c #f0f0ef",
"m2 c #f2f2f1",
"n2 c #f5f6f6",
"o2 c #f6f7f7",
"p2 c #faf9fa",
"q2 c #efeeee",
"r2 c #efefef",
"s2 c #eff0ef",
"t2 c #f1f2f1",
"u2 c #f4f3f4",
"v2 c #f4f5f5",
"w2 c #f5f5f6",
"x2 c #efeff0",
"y2 c #f0f1f0",
"z2 c #f5f4f4",
"03 c #807d74",
"13 c #fbfcfb",
"23 c #f0f0f0",
"33 c #f1f0f0",
"43 c #f2f1f2",
"53 c #f2f3f2",
"63 c #f4f3f3",
"73 c #f5f5f4",
"83 c #f7f7f6",
"93 c #f7f8f8",
":3 c #f8f7f8",
";3 c #f9f9fa",
"A3 c #f9faf9",
"B3 c #fafbfa",
"C3 c #fbfcfc",
"D3 c #f1f1f0",
"E3 c #f2f1f1",
"F3 c #f3f2f3",
"G3 c #f4f4f3",
"H3 c #f4f5f4",
"I3 c #f6f5f6",
"J3 c #f6f7f6",
"K3 c #f7f8f7",
"L3 c #f9f8f8",
"M3 c #f9f9f8",
"N3 c #fbfbfa",
"O3 c #fcfbfc",
"P3 c #bfbfbf",
"Q3 c #f1f1f1",
"R3 c #f1f2f2",
"S3 c #f2f2f2",
"T3 c #f3f2f2",
"U3 c #f3f3f3",
"V3 c #f4f4f4",
"W3 c #f5f5f5",
"X3 c #f5f6f5",
"Y3 c #f6f6f6",
"Z3 c #f6f6f7",
"a3 c #f7f7f7",
"b3 c #f8f8f7",
"c3 c #f8f8f8",
"d3 c #f8f9f8",
"e3 c #f9f9f9",
"f3 c #fafaf9",
"g3 c #fafafa",
"h3 c #fbfbfb",
"i3 c #fbfbfc",
"j3 c #fcfcfb",
"k3 c #fcfcfc",
"l3 c #fcfdfc",
"m3 c #fdfdfd",
"n3 c #585858",
"o3 c #dfdfdf",
"p3 c #ffffff",
"q3 c #000000",
"r3 c #565248",
"                                                                                                ",
"                                                                                                ",
"                                                                                                ",
"              r3q3q3q3q3q3q3q3q3q3q3q3q3q3q3q3q3q3q3q3q3q3q3q3q3q3q3q3q3q3q3r3                  ",
"              q3p3p3p3p3p3p3p3p3p3p3p3p3p3p3p3p3p3p3p3p3p3p3p3p3p3p3p3p3p3o3q3n3                ",
"              q3p3m3l3k3j3i3h3g3f3f3e3d3c3b3a3a3Z3Y3X3W3W3V3V3U3U3T3S3R3Q3P3q3n3                ",
"              q3p3l3k3O3h3h3N3g3f3M3L3c3c3K3a3J3X3I3W3H3V3G3U3U3F3S3E3Q3D3P3q3n3                ",
"              q3p3C3C3h3B3g3A3;3L3c3:39383a3Y3I3W373H363U3U353S343E3Q33323P3q3n3                ",
"              q3p313h3r3030303030303030303030303z2V3V363U3S3S3R3E3y2D323x2P3q3n3                ",
"              q3p3h3g3A3f3M3L3c3c3a3a3J3w2W3W3v2V3u2U3U3S3S3t2Q3y223s2r2q2P3q3n3                ",
"              q3p3B3p2p2e3c3c3:3a3o283n2w2v2V3u2V3U3T3S3S3m2Q33323l2r2k2j2P3q3n3                ",
"              q3p3e3e3i2c3c3b3a3Y3Y3h2W3H3V3G3G3U3g2S3S3Q3Q32323r2r2f2j2e2P3q3n3                ",
"              q3p3e3d2r30303030303030303030303030303030303030303030303c2c2P3q3n3                ",
"              q3p3c3b393a3a3Y3Y3n2W3b2V363U3g2g2S3Q3Q3Q333a2r2r2j2j2c2c2Z2P3q3n3                ",
"              q3p3c3a30303030303030303030303030303030303030303030303r3Y2X2P3q3n3                ",
"              q3p3W2a3V2Y3W3W3U2z2G3U3U3T3m2m2Q3T233S2R2r2q2Q2P2P2c2O2N2N2P3q3n3                ",
"              q3p3o2J3r30303030303030303030303030303030303030303030303N2M2P3q3n3                ",
"              q3p3Y3Y3W3v2V3V3V3U353S3E3Q3Q3Q323x2a2r2L2j2P2c2K2X2J2I2I2H2P3q3n3                ",
"              q3p3n2w20303030303030303030303030303030303030303030303r3H2H2P3q3n3                ",
"              q3p3W3V3V3G2U3U35343m2Q3F22323r2E2f2j2P2c2Z2X2D2C2I2H2H2B2A2P3q3n3                ",
"              q3p3v2V3r30303030303030303030303030303030303030303030303A2;2P3q3n3                ",
"              q3p3V3:2U353S3m2Q3D3Q323a2r292k2e282c2X2X2I2I272H26252A24232P3q3n3                ",
"              q3p3221203030303030303030303q3q3c2c2K2X202I2H2H2z1A2y14232x1P3q3n3                ",
"              q3p312S3R343Q3Q323l2r2L2L2j2q3w1q3q3N2I2I2v16252A24232x1u1t1P3q3n3                ",
"              q3p3S3m2Q3y2s123a2r2L2j2e2P2r1q3q1p1q3q3o1B2A242;2n1m1t1l1k1P3q3n3                ",
"              q3p3E3Q3F22323x2r2L2j2j1c2Z2i1q3h1g1f1e1q3q3A23232t1t1k1k1d1P3q3n3                ",
"              q3p3D3T22323l2r2j2j2c2c2c2X2J2c1q3b1a1Z1Y1X1q3n1t1W1k1k1V1V1P3q3n3                ",
"              q3p32323R2r2k2q2j2U1c2K2X2C2I272q3T1S1R1Q1P1O1q3k1l1N1M1V1V1P3q3n3                ",
"              q3p3l2r2r2E2j2U1c2O2L1X202I2o1H2K1q3J1I1H1G1F1E1q3N1V1D1C1B1P3q3n3                ",
"              q3p3x2r2q2j282c2Z2X2J2I2M2I2H2B2A2q3A1;1:19181F1E1q371C16151P3q3n3                ",
"              q3p392k2j2U1c2X2X241J2H2o1H231A23221q31101z09181F1E1q351y0x0P3q3n3                ",
"              q3p3L2Q2U1Z2X2X2C2I2I2o1H252A2w032t1v0q3u001z09181F1E1q3t0t0P3q3n3                ",
"              q3p3U1P2K2L1X2J2I2o1H26231A2s032u1t1l1r0q3u001z09181F1q0q3p0P3q3n3                ",
"              q3p3c2K2X241D272o1o0o0A2n032m0t1t1l0k0d1j0q3u001z09181F1q0q3P3q3n3                ",
"              q3p3X2X2D2I2i0i031o0y1n032t1t1W1h0d1M1g061f0q3u001z09181F1e0q3q3n3                ",
"              q3p3X202I2H2H2o0A2y142n1m1t1W1k1k1V1V1g061d0c0q3u001z09181F1b0q3n3                ",
"              q3p3I2M2H2H231A2y13232t1t1k1k1N1M171g061y0y0a0Z0q3Y001z09181F1X0q3                ",
"              q3p3I2o1H2A2y14232W0t1k1V0k0M1g0U061d0y0y0x0t0T0Z0q3S001z09181F1R0q3              ",
"              q3p3i0z1B2A232u1W0l0W1h0k1V1D1g061Q0y0t0t0t0P0O0O0N0q3S001z09181F1M0q3            ",
"              q3p362A2A232x1t1t1h0k1M1d1717161L0K0J0t0P0P0I0H0H0G0F0q3S001z09181F1E0q3          ",
"              q3p3A23232x1t1l1D0k1d1D1C161B1y0y0t0T0C0P0O0H0G0B0A0;0F0q3:001z0919080q3          ",
"              q3o3P3P3P3P3P3P3P3P3P3P3P3P3P3P3P3P3P3P3P3P3P3P3P3P3P3P370q360015040q3            ",
"              r3q3q3q3q3q3q3q3q3q3q3q3q3q3q3q3q3q3q3q3q3q3q3q3q3q3q3q3q330q32010q3              ",
"                n3n3n3n3n3n3n3n3n3n3n3n3n3n3n3n3n3n3n3n3n3n3n3n3n3n3n3n3n300q3q3                ",
"                                                                                                ",
"                                                                                                ",
"                                                                                                ",
"                                                                                                "};
