/* XPM */
static char *image[] = {
"22 22 190 2",
"   c None",
"00 c #1e4275",
"10 c #1e4075",
"20 c #204b87",
"30 c #214b87",
"40 c #234c8a",
"50 c #507fb5",
"60 c #5785bc",
"70 c #90aed3",
"80 c #6a8fbd",
"90 c #6388b8",
":0 c #7b9fc9",
";0 c #5583ba",
"A0 c #5483b8",
"B0 c #608dc2",
"C0 c #97b5d7",
"D0 c #8eabce",
"E0 c #2b548b",
"F0 c #8eac94",
"G0 c #b4cd9c",
"H0 c #b6ce9e",
"I0 c #b7cfa1",
"J0 c #bad1a4",
"K0 c #bbd1a6",
"L0 c #bdd3a9",
"M0 c #bfd4ab",
"N0 c #c1d4ae",
"O0 c #c1d4af",
"P0 c #c2d6b0",
"Q0 c #9cb3a7",
"R0 c #2b558d",
"S0 c #82a1c8",
"T0 c #89acd2",
"U0 c #6592c5",
"V0 c #9bbadb",
"W0 c #92afd1",
"X0 c #2a538a",
"Y0 c #7ea17f",
"Z0 c #9ebf80",
"a0 c #a1c082",
"b0 c #a2c084",
"c0 c #8f9785",
"d0 c #919989",
"e0 c #8ba893",
"f0 c #2b558c",
"g0 c #8aa9ce",
"h0 c #96b7da",
"i0 c #749ac4",
"j0 c #2c548b",
"k0 c #7c9e7c",
"l0 c #b0c79a",
"m0 c #8da895",
"n0 c #2d568e",
"o0 c #6d94c1",
"p0 c #97b2a0",
"q0 c #9dbe7e",
"r0 c #9dbd7f",
"s0 c #a5c28a",
"t0 c #96806a",
"u0 c #b3c89f",
"v0 c #abbdbd",
"w0 c #26518e",
"x0 c #c4d8b1",
"y0 c #9fbf81",
"z0 c #a0bf83",
"01 c #b49d58",
"11 c #6b5736",
"21 c #000000",
"31 c #b6caa4",
"41 c #b7caa5",
"51 c #dee6d6",
"61 c #c9dbb7",
"71 c #a1c084",
"81 c #a3c187",
"91 c #b99046",
":1 c #c9cac8",
";1 c #d1d2d0",
"A1 c #e3e3e3",
"B1 c #e3e4e3",
"C1 c #e4e4e5",
"D1 c #bacbaa",
"E1 c #bbccaa",
"F1 c #e2eadb",
"G1 c #cddebe",
"H1 c #a3c186",
"I1 c #b99045",
"J1 c #c2c3c1",
"K1 c #bcbdbb",
"L1 c #dadbda",
"M1 c #e5e6e5",
"N1 c #bdcdae",
"O1 c #becdb0",
"P1 c #e7ece1",
"Q1 c #d3e1c5",
"R1 c #a4c188",
"S1 c #f57900",
"T1 c #939590",
"U1 c #a9aaa8",
"V1 c #e6e6e6",
"W1 c #e7e6e6",
"X1 c #c1ceb4",
"Y1 c #c1cfb5",
"Z1 c #ebefe6",
"a1 c #ccd8c0",
"b1 c #a3c088",
"c1 c #fcaf3e",
"d1 c #f5d400",
"e1 c #efefef",
"f1 c #9d9f9a",
"g1 c #e8e8e7",
"h1 c #e8e8e8",
"i1 c #c4d0b9",
"j1 c #c0cbb6",
"k1 c #d6d8d3",
"l1 c #234d8a",
"m1 c #a5b7b5",
"n1 c #9eb984",
"o1 c #b49c5a",
"p1 c #ce5c00",
"q1 c #b0c79b",
"r1 c #a7b798",
"s1 c #e4e5e4",
"t1 c #aeb0ab",
"u1 c #c7c6c6",
"v1 c #e9eae9",
"w1 c #c2ccb9",
"x1 c #b4bdac",
"y1 c #abb7c3",
"z1 c #244d8a",
"02 c #688bb7",
"12 c #7f9d86",
"22 c #a1bb89",
"32 c #aac392",
"42 c #afc698",
"52 c #b4c8a0",
"62 c #a9b89b",
"72 c #f6f6f6",
"82 c #fbfbfb",
"92 c #fefefe",
":2 c #b6bdae",
";2 c #92a0a6",
"A2 c #29518c",
"B2 c #6f92bd",
"C2 c #85a6cd",
"D2 c #4975ae",
"E2 c #275189",
"F2 c #83a08b",
"G2 c #a8bf92",
"H2 c #b1c79c",
"I2 c #b6caa2",
"J2 c #b8cca6",
"K2 c #bbcdaa",
"L2 c #afbba2",
"M2 c #888a85",
"N2 c #8d9287",
"O2 c #94a2a8",
"P2 c #28518b",
"Q2 c #4c79b0",
"R2 c #8fafd4",
"S2 c #91b1d6",
"T2 c #6794c7",
"U2 c #5985b9",
"V2 c #2a538c",
"W2 c #adbcc1",
"X2 c #dce3d6",
"Y2 c #eaf0e4",
"Z2 c #ebf1e6",
"a2 c #ecf1e8",
"b2 c #edf2e9",
"c2 c #eff3eb",
"d2 c #f0f3ed",
"e2 c #f1f4ee",
"f2 c #f2f5f0",
"g2 c #dadcd8",
"h2 c #adb8c4",
"i2 c #29528c",
"j2 c #5681b7",
"k2 c #6b99ca",
"l2 c #9bbadc",
"m2 c #535551",
"n2 c #555753",
"o2 c #50524e",
"p2 c #83a3cb",
"q2 c #9bbbdd",
"r2 c #98b7d9",
"s2 c #224b88",
"t2 c #264f8c",
"u2 c #204a87",
"v2 c #214b88",
"w2 c #25508c",
"                                            ",
"                                            ",
"w2v2u2u2v2t2                    t2v2u2u2v2w2",
"s2r2q2q2p2u2o2n2n2n2n2n2n2n2n2m2u2p2q2q2r2s2",
"u2l2k2j2i2h2g2f2e2d2c2b2a2Z2Y2X2W2V2U2T2S2u2",
"u2R2Q2P2O2N2M2M2M2M2M2L2K2J2I2H2G2F2E2D2C2u2",
"v2B2A2;2:2M29282827282M26252H242322212P202v2",
"z1u2y1x1w1M292v1u1t1s182M2r1q1p1p1o1n1m1u2l1",
"  o2k1j1i1M292h1g1f1e1s1s1M2p1d1c1p1b1a1m2  ",
"  n2Z1Y1X1M292W1V1U1f1T1M2p1d1c1S1p1R1Q1n2  ",
"  n2P1O1N1M292M1s1L1K1J1p1d1c1S1p1I1H1G1n2  ",
"  n2F1E1D1M292C1B1A1;1:1p1c1S1p191817161n2  ",
"  n2514131M292A1A1A1A1p12111p101R1z0y0x0n2  ",
"w0u2v0u0u0M292A1A1A1A121p1t0s08171r0q0p0u2w0",
"s2o0n0m0l0M292929292929292M2H171y0q0k0j0i0s2",
"u2h0g0f0e0d0M2M2M2M2M2M2M2c0b0a0Z0Y0X0W0V0u2",
"u2U0T0S0R0Q0P0O0N0M0L0K0J0I0H0G0F0E0D0C0B0u2",
"v2A0;0:090u2n2n2n2n2n2n2n2n2n2n2u280706050v2",
"4030u2u22010                    0020u2u23040",
"                                            ",
"                                            ",
"                                            "};
