/* XPM */
static char *image[] = {
"16 16 28 1",
"  c None",
"0 c #f59f4f",
"1 c #f49439",
"2 c #f49033",
"3 c #f49134",
"4 c #f49034",
"5 c #f48e30",
"6 c #f59944",
"7 c #f4973f",
"8 c #fbdec2",
"9 c #fad0a8",
": c #facda4",
"; c #fbdec3",
"A c #f5a254",
"B c #fad1ab",
"C c #f59b48",
"D c #f59c49",
"E c #fad0a9",
"F c #f6a457",
"G c #f8be88",
"H c #ffffff",
"I c #f8c08b",
"J c #f6a458",
"K c #fef9f4",
"L c #fef8f3",
"M c #fbdfc4",
"N c #f6a55a",
"O c #f27a0a",
"      OOOOO     ",
"    ONMLKMJO    ",
"   OIHHHHHHGOO  ",
"  OFHHEDCBHHAO  ",
" OO;H:OOOO9H8OO ",
" OOKH7OOOO6HLOO ",
" OOHH5OOOO4HHOO ",
" OOHH5OOOO4HHOO ",
" OOHH5OOOO4HHOO ",
" OOHH5OOOO4HHOO ",
" OOHH5OOOO3HHO  ",
"  OHH5OOOO3HHO  ",
"  OHH5OOOO3HH   ",
"   HH2OOOO1HH   ",
"   HH0OOOO HH   ",
"   HH      HH   "};
