/* XPM */
static char *image[] = {
"32 32 389 2",
"   c None",
"00 c #1c1c53",
"10 c #323294",
"20 c #1a1a51",
"30 c #2e2e87",
"40 c #3939ab",
"50 c #4a4adb",
"60 c #14143c",
"70 c #1a1a4f",
"80 c #3b3bad",
"90 c #5252f5",
":0 c #5151f2",
";0 c #29297a",
"A0 c #5151f4",
"B0 c #4949dc",
"C0 c #4949da",
"D0 c #4a4ade",
"E0 c #4b4be2",
"F0 c #4f4fed",
"G0 c #0e0e30",
"H0 c #212160",
"I0 c #4747d5",
"J0 c #4848d7",
"K0 c #4040c1",
"L0 c #4242c5",
"M0 c #4343ca",
"N0 c #4545ce",
"O0 c #4646d2",
"P0 c #4747d6",
"Q0 c #4d4de7",
"R0 c #232367",
"S0 c #19194a",
"T0 c #3737a6",
"U0 c #4646c4",
"V0 c #4a4a9b",
"W0 c #535397",
"X0 c #21213b",
"Y0 c #363758",
"Z0 c #3b3b70",
"a0 c #303171",
"b0 c #343499",
"c0 c #4040c0",
"d0 c #4242c6",
"e0 c #5050f0",
"f0 c #3a3ab0",
"g0 c #4646cb",
"h0 c #535398",
"i0 c #9898d8",
"j0 c #b7b7ff",
"k0 c #b5b5ff",
"l0 c #b2b2fe",
"m0 c #4d4f6b",
"n0 c #a7adb8",
"o0 c #b1b8c2",
"p0 c #8a9099",
"q0 c #545777",
"r0 c #393a76",
"s0 c #3b3baf",
"t0 c #3d3db6",
"u0 c #09091c",
"v0 c #1f1f5d",
"w0 c #47479e",
"x0 c #8e8ec5",
"y0 c #c2c2ff",
"z0 c #c0c0ff",
"01 c #bdbdff",
"11 c #b7b7fd",
"21 c #51536b",
"31 c #9da3ac",
"41 c #363844",
"51 c #22224c",
"61 c #3c3cb5",
"71 c #0a0a1d",
"81 c #171748",
"91 c #3535a0",
":1 c #4c4cd8",
";1 c #65659d",
"A1 c #c3c3f7",
"B1 c #cdcdff",
"C1 c #ceceff",
"D1 c #cbcbff",
"E1 c #c8c8ff",
"F1 c #c3c3ff",
"G1 c #7a7aa8",
"H1 c #8c92a0",
"I1 c #b3bac3",
"J1 c #54566d",
"K1 c #5b5b88",
"L1 c #7171aa",
"M1 c #444464",
"N1 c #090915",
"O1 c #1d1d59",
"P1 c #272776",
"Q1 c #4f4fee",
"R1 c #4747b5",
"S1 c #8d8dc0",
"T1 c #d0d0ff",
"U1 c #d6d6ff",
"V1 c #ccccff",
"W1 c #c6c6ff",
"X1 c #585976",
"Y1 c #4f5068",
"Z1 c #9494d3",
"a1 c #4e3e5c",
"b1 c #3a202f",
"c1 c #302437",
"d1 c #26263c",
"e1 c #4b4bd7",
"f1 c #333399",
"g1 c #4a4aa9",
"h1 c #aeaee0",
"i1 c #d8d8ff",
"j1 c #e2e2ff",
"k1 c #e4e4ff",
"l1 c #dadaff",
"m1 c #d4d4ff",
"n1 c #c7c7f7",
"o1 c #a7a7d9",
"p1 c #43364a",
"q1 c #170202",
"r1 c #4c0000",
"s1 c #5e0000",
"t1 c #3d0000",
"u1 c #221018",
"v1 c #484895",
"w1 c #4d4de8",
"x1 c #5959a1",
"y1 c #cfcfff",
"z1 c #dedeff",
"02 c #e5e5ff",
"12 c #f0f0ff",
"22 c #eeeeff",
"32 c #c5c5e7",
"42 c #a5a5c9",
"52 c #27181d",
"62 c #3c0101",
"72 c #2d0001",
"82 c #4e4e7d",
"92 c #4d4de6",
":2 c #2c2c85",
";2 c #1f1f5b",
"A2 c #4a4ad6",
"B2 c #9696c6",
"C2 c #d9d9ff",
"D2 c #e9e9ff",
"E2 c #f9f9ff",
"F2 c #fcfcff",
"G2 c #f4f4ff",
"H2 c #ececff",
"I2 c #c9c9e1",
"J2 c #aeaeca",
"K2 c #27191e",
"L2 c #4a0202",
"M2 c #3a0000",
"N2 c #564a6f",
"O2 c #44449a",
"P2 c #4b4be1",
"Q2 c #4646b1",
"R2 c #bdbde8",
"S2 c #e0e0ff",
"T2 c #e8e8ff",
"U2 c #efefff",
"V2 c #f5f5ff",
"W2 c #f6f6ff",
"X2 c #f1f1ff",
"Y2 c #d3d3e6",
"Z2 c #413840",
"a2 c #3a0303",
"b2 c #3b0000",
"c2 c #4a3c5a",
"d2 c #5c5c9f",
"e2 c #5252f6",
"f2 c #252570",
"g2 c #4c4c98",
"h2 c #d3d3fa",
"i2 c #e1e1ff",
"j2 c #e6e6ff",
"k2 c #eaeaff",
"l2 c #ddddf3",
"m2 c #b5b5cb",
"n2 c #79798c",
"o2 c #190303",
"p2 c #960000",
"q2 c #310000",
"r2 c #615d8b",
"s2 c #9f9fef",
"t2 c #4242a6",
"u2 c #4141c4",
"v2 c #5353f8",
"w2 c #61619b",
"x2 c #d7d7ff",
"y2 c #dcdcff",
"z2 c #dfdfff",
"03 c #ddddfd",
"13 c #b3b3ce",
"23 c #a8a8c5",
"33 c #170909",
"43 c #7d0000",
"53 c #770000",
"63 c #640000",
"73 c #220101",
"83 c #8a8acf",
"93 c #525297",
":3 c #5555fe",
";3 c #222263",
"A3 c #19194c",
"B3 c #4e4eea",
"C3 c #4d4dde",
"D3 c #8282b9",
"E3 c #d1d1ff",
"F3 c #d3d3ff",
"G3 c #bdbde5",
"H3 c #a6a6c9",
"I3 c #525263",
"J3 c #2f0606",
"K3 c #a50000",
"L3 c #920000",
"M3 c #890000",
"N3 c #800000",
"O3 c #710000",
"P3 c #6d0000",
"Q3 c #600000",
"R3 c #100202",
"S3 c #a8a8fc",
"T3 c #9090db",
"U3 c #4646bf",
"V3 c #3737a5",
"W3 c #1f1f5c",
"X3 c #5353fa",
"Y3 c #4545b8",
"Z3 c #9f9fd9",
"a3 c #c6c6fd",
"b3 c #a0a0cc",
"c3 c #9a9ac6",
"d3 c #161315",
"e3 c #240a0a",
"f3 c #8f0000",
"g3 c #9b0000",
"h3 c #850000",
"i3 c #4e0808",
"j3 c #1f1010",
"k3 c #271c1c",
"l3 c #230b0b",
"m3 c #350000",
"n3 c #2d1f2b",
"o3 c #4f4f9e",
"p3 c #1b1b4d",
"q3 c #29297b",
"r3 c #434398",
"s3 c #a1a1de",
"t3 c #9696ca",
"u3 c #6c6d93",
"v3 c #57585a",
"w3 c #a8a8a8",
"x3 c #3d3232",
"y3 c #221717",
"z3 c #352929",
"04 c #8a8787",
"14 c #efefef",
"24 c #bababa",
"34 c #000000",
"44 c #7575b0",
"54 c #7777bd",
"64 c #4b4bdb",
"74 c #2d2d88",
"84 c #3737a3",
"94 c #3d3d75",
":4 c #8989c6",
";4 c #3f4054",
"A4 c #bdbebd",
"B4 c #d6d6d6",
"C4 c #21222a",
"D4 c #454597",
"E4 c #4e4eeb",
"F4 c #4343c7",
"G4 c #3e3eb6",
"H4 c #49497e",
"I4 c #202227",
"J4 c #fafafa",
"K4 c #4e4f54",
"L4 c #7b7cb8",
"M4 c #6464a6",
"N4 c #5050f1",
"O4 c #292979",
"P4 c #161647",
"Q4 c #3d3db9",
"R4 c #33338c",
"S4 c #0c0e0d",
"T4 c #fdfdfd",
"U4 c #b3b4b4",
"V4 c #393a4d",
"W4 c #8f8fd8",
"X4 c #4444c3",
"Y4 c #4444ca",
"Z4 c #161643",
"a4 c #3f3fbd",
"b4 c #21223c",
"c4 c #323436",
"d4 c #d1d1d1",
"e4 c #e5e5e5",
"f4 c #26282d",
"g4 c #9797e3",
"h4 c #9393db",
"i4 c #a7a7fb",
"j4 c #a9a9fe",
"k4 c #6b6baf",
"l4 c #42429b",
"m4 c #5454fb",
"n4 c #3939aa",
"o4 c #24246b",
"p4 c #4343c9",
"q4 c #2b2b56",
"r4 c #23252c",
"s4 c #717274",
"t4 c #f5f5f5",
"u4 c #ffffff",
"v4 c #f0f0f0",
"w4 c #35373b",
"x4 c #7d7eba",
"y4 c #9d9deb",
"z4 c #656687",
"05 c #818692",
"15 c #646778",
"25 c #40407f",
"35 c #4d4de1",
"45 c #4848da",
"55 c #212165",
"65 c #34349c",
"75 c #4141c3",
"85 c #464679",
"95 c #4d4e70",
":5 c #242629",
";5 c #9b9c9c",
"A5 c #323438",
"B5 c #7273a9",
"C5 c #a9a9fd",
"D5 c #7475a2",
"E5 c #9396a4",
"F5 c #c2c8d0",
"G5 c #b7bec8",
"H5 c #4141aa",
"I5 c #2b2b81",
"J5 c #4343c8",
"K5 c #4242b9",
"L5 c #5f5f96",
"M5 c #8c8cd2",
"N5 c #303142",
"O5 c #7c7db9",
"P5 c #747595",
"Q5 c #ebecee",
"R5 c #e8ebee",
"S5 c #d1d5dc",
"T5 c #b8bfc9",
"U5 c #b6bdc7",
"V5 c #26283c",
"W5 c #19194d",
"X5 c #4e4ee9",
"Y5 c #4343a4",
"Z5 c #9595e2",
"a5 c #aaaaff",
"b5 c #75768b",
"c5 c #eceef0",
"d5 c #e3e6ea",
"e5 c #ced3d9",
"f5 c #a8aeb8",
"g5 c #4f5257",
"h5 c #1e1e5a",
"i5 c #5353f9",
"j5 c #44448e",
"k5 c #a6a6f9",
"l5 c #9898e6",
"m5 c #4c4c91",
"n5 c #3f3fa4",
"o5 c #686b8b",
"p5 c #c5c9d0",
"q5 c #74777f",
"r5 c #282879",
"s5 c #5050ef",
"t5 c #42428a",
"u5 c #4343a9",
"v5 c #5454fc",
"w5 c #3636a2",
"x5 c #191947",
"y5 c #292b2d",
"z5 c #35359f",
"06 c #5555ff",
"16 c #4444cc",
"26 c #1e1e5e",
"36 c #25256d",
"                              36                                ",
"                          261606z5                              ",
"                    y5x5w5v5u5t5s5r5                            ",
"                  q5p5o5n5m5l5k5j5i5h5                          ",
"              g5f5e5d5c5b5a5a5a5Z5Y5X5W5                        ",
"            V5U5T5S5R5Q5P5a5O5N5M5L5K5J5                        ",
"          I5H5f5G5F5E5D5C5B5A5;5:595857565                      ",
"      554535251505z4y4a5x4w4v4u4t4s4r4q4p4o4                    ",
"    n4m4l4k4j4i4h4a5a5g4f4e4u4u4u4u4d4c4b4a4Z4                  ",
"    Y4X4W4a5a5a5a5a5a5V4U4u4u4u4u4u4u4T4S4R4Q4P4                ",
"    O4N4M4a5a5a5a5a5L4K4u4u4u4u4u4u4u4J4I4H4G4F4                ",
"      E4D4j4a5a5a5a5C4B4u4u4u4u4u4u4u4A4;4:494m484              ",
"      746454a5a5a5443424u41404z3y3x3w3v3u3t3s3r306q3            ",
"      p3i5o3a5a5a5n3m3l3k3j3i3h3g3f3e3d3c3b3a3Z3Y3X3W3          ",
"        V3U3T3a5S3R3Q3P3O3N3M3L3g3K3J3I3H3G3F3E3D3C3B3A3        ",
"        ;3:393a5837363P353N3M3L3g34333231303z2y2x2w2v2p4        ",
"          u2t2s2r2q263P353N3M3L3p2o2n2m2l2k2k2j2i2h2g20684      ",
"          f2e2d2c2b263P353N3M3L3a2Z2m2Y2X2W2V2U2T2S2R2Q206q3    ",
"            P2O2N2M263P353N3M3L2K2J2I2H2G2F2E2X2D2i2C2B2A2m4;2  ",
"            :292827263P3534362524232i2T222X212H202z1x2y1x106w1  ",
"            A3e2v1u1t1s1r1q1p1o1n1m1l1S2k1j202j1z1i1E3h1g106J5  ",
"              f1e1d1c1b1a1Z1Y1X1W1V1E3U1C2l1l1i1m1T1S1R1Q1P1    ",
"              O1a4N1M1L1K1J1I1H1G1F1E1D1C1y1C1B1A1;1:19181      ",
"                7161514131G5G5G5211101z0y0F1F1x0w0p4v0          ",
"                u0E4t0s0r0q0p0o0n0m0l0k0j0i0h0g0q3              ",
"              34  f0e016d0c0b0a0Z0Y0X0W0V0U0T0S0                ",
"    343434343434  R006Q0P0O0N0M0L0K0J0X3I0H0                    ",
"    343434343434  G0F0m4Q0E0D0C0B0A0A0I5                        ",
"        34343434    ;006i5:0s590:38070                          ",
"            343434  60v50606065055                              ",
"              3434    4006e230                                  ",
"                      201000                                    "};
