/* XPM */
static char *image[] = {
"48 42 772 2",
"   c None",
"00 c #65282a",
"10 c #6a2628",
"20 c #6b2224",
"30 c #681f21",
"40 c #611b1d",
"50 c #56181a",
"60 c #4d1e24",
"70 c #4a333d",
"80 c #aa5f61",
"90 c #ba585a",
":0 c #be4c4e",
";0 c #b94244",
"A0 c #b53c3e",
"B0 c #a22b2d",
"C0 c #962628",
"D0 c #7a1d20",
"E0 c #561b20",
"F0 c #4d3644",
"G0 c #76748f",
"H0 c #8f8faf",
"I0 c #9495b4",
"J0 c #b46769",
"K0 c #e87e80",
"L0 c #d55c5f",
"M0 c #bc4143",
"N0 c #b03436",
"O0 c #932325",
"P0 c #64181b",
"Q0 c #4a2f3a",
"R0 c #757592",
"S0 c #8385a6",
"T0 c #8484a6",
"U0 c #8989aa",
"V0 c #9293b2",
"W0 c #9999b9",
"X0 c #873739",
"Y0 c #e38688",
"Z0 c #ef7a7c",
"a0 c #b13436",
"b0 c #b32e30",
"c0 c #c33436",
"d0 c #d74042",
"e0 c #cc4042",
"f0 c #ab2d2f",
"g0 c #922224",
"h0 c #58191d",
"i0 c #585062",
"j0 c #8687a6",
"k0 c #8485a5",
"l0 c #8284a5",
"m0 c #8d8fae",
"n0 c #999ab9",
"o0 c #9c3f41",
"p0 c #f5999b",
"q0 c #fc8486",
"r0 c #e3686a",
"s0 c #99292b",
"t0 c #6b181a",
"u0 c #8e292b",
"v0 c #ae383a",
"w0 c #db5658",
"x0 c #fca1a2",
"y0 c #f28b8d",
"z0 c #9e2426",
"01 c #731a1c",
"11 c #4a3440",
"21 c #8282a0",
"31 c #8283a1",
"41 c #8586a6",
"51 c #9495b3",
"61 c #a03b3d",
"71 c #f8a6a8",
"81 c #ff8a8c",
"91 c #db6062",
":1 c #9b2f31",
";1 c #4e1c20",
"A1 c #fe8e90",
"B1 c #f47e80",
"C1 c #ad2d2f",
"D1 c #821d1f",
"E1 c #472c38",
"F1 c #8081a4",
"G1 c #8081a3",
"H1 c #7f81a2",
"I1 c #8081a1",
"J1 c #8381a1",
"K1 c #9393b1",
"L1 c #972d2f",
"M1 c #f3a7a9",
"N1 c #ffa5a7",
"O1 c #fb8183",
"P1 c #df6466",
"Q1 c #c14b4d",
"R1 c #592227",
"S1 c #fee0e2",
"T1 c #dd6365",
"U1 c #811d1f",
"V1 c #4a3544",
"W1 c #8281a1",
"X1 c #8280a0",
"Y1 c #8180a1",
"Z1 c #807fa3",
"a1 c #8383a7",
"b1 c #9898b7",
"c1 c #8b2224",
"d1 c #e38183",
"e1 c #ffdcde",
"f1 c #ff9c9e",
"g1 c #f3787a",
"h1 c #e3696b",
"i1 c #923033",
"j1 c #5a4f63",
"k1 c #898aab",
"l1 c #fa898b",
"m1 c #f36d6f",
"n1 c #af2e30",
"o1 c #71191b",
"p1 c #585068",
"q1 c #8181a6",
"r1 c #7f82a3",
"s1 c #8180a5",
"t1 c #8282a4",
"u1 c #8d8dac",
"v1 c #febfc1",
"w1 c #ffa7aa",
"x1 c #ff9395",
"y1 c #f98082",
"z1 c #e1686a",
"02 c #5d1f23",
"12 c #8485a8",
"22 c #8886ad",
"32 c #9394b4",
"42 c #ef5d5f",
"52 c #9c2426",
"62 c #551a1e",
"72 c #76789b",
"82 c #7f81a6",
"92 c #7f82a4",
":2 c #7f83a4",
";2 c #8083a5",
"A2 c #8281a3",
"B2 c #8182a1",
"C2 c #8182a0",
"D2 c #8587a6",
"E2 c #a1282a",
"F2 c #ef8486",
"G2 c #ffb8ba",
"H2 c #ffdee0",
"I2 c #ffb5b8",
"J2 c #ff9ea0",
"K2 c #fe898b",
"L2 c #d05d60",
"M2 c #4f2f38",
"N2 c #878bac",
"O2 c #8788ad",
"P2 c #9a9bb9",
"Q2 c #e85a5c",
"R2 c #e86c6e",
"S2 c #9f2527",
"T2 c #8e2022",
"U2 c #4d3746",
"V2 c #8182a7",
"W2 c #8081a7",
"X2 c #8081a6",
"Y2 c #8182a6",
"Z2 c #8183a2",
"a2 c #8183a3",
"b2 c #8486a6",
"c2 c #c54345",
"d2 c #fe999b",
"e2 c #ffbabc",
"f2 c #ffdddf",
"g2 c #ffc7c9",
"h2 c #ffadaf",
"i2 c #ff9496",
"j2 c #b64f51",
"k2 c #504556",
"l2 c #848aac",
"m2 c #8488ac",
"n2 c #8586ac",
"o2 c #8584aa",
"p2 c #9d9ebc",
"q2 c #dd5b5d",
"r2 c #f57779",
"s2 c #a7292b",
"t2 c #5f1b1e",
"u2 c #9292ae",
"v2 c #8283a4",
"w2 c #8283a3",
"x2 c #8182a4",
"y2 c #8281a4",
"z2 c #8888a9",
"03 c #a8282a",
"13 c #e56567",
"23 c #ff9b9d",
"33 c #ffbcbe",
"43 c #ffd3d5",
"53 c #953e40",
"63 c #61607a",
"73 c #8488ab",
"83 c #8287aa",
"93 c #8185a9",
":3 c #8284a9",
";3 c #8485a9",
"A3 c #d05052",
"B3 c #f78789",
"C3 c #b32f32",
"D3 c #a02527",
"E3 c #a02528",
"F3 c #8c2022",
"G3 c #796972",
"H3 c #9a9ab8",
"I3 c #8382a3",
"J3 c #8383a3",
"K3 c #8383a4",
"L3 c #8383a5",
"M3 c #8081a5",
"N3 c #7f80a5",
"O3 c #8080a5",
"P3 c #9394b2",
"Q3 c #ba3335",
"R3 c #f07476",
"S3 c #fd8486",
"T3 c #ff8e90",
"U3 c #ffd6d8",
"V3 c #ffb4b6",
"W3 c #753032",
"X3 c #7d7fa0",
"Y3 c #8587ab",
"Z3 c #8187ab",
"a3 c #8186aa",
"b3 c #8385a9",
"c3 c #8686a8",
"d3 c #ed8d8f",
"e3 c #c03a3c",
"f3 c #9f2628",
"g3 c #54242b",
"h3 c #c4c4d8",
"i3 c #9390b1",
"j3 c #8682a7",
"k3 c #8482a6",
"l3 c #8182a5",
"m3 c #7f81a4",
"n3 c #7f80a4",
"o3 c #7e80a5",
"p3 c #7e82a5",
"q3 c #7e84a5",
"r3 c #7f86a4",
"s3 c #8286a4",
"t3 c #cc4244",
"u3 c #ed7274",
"v3 c #ff8c8e",
"w3 c #ffa9ab",
"x3 c #ffbec0",
"y3 c #fec6c8",
"z3 c #672e31",
"04 c #888dad",
"14 c #888bab",
"24 c #888aaa",
"34 c #8789a9",
"44 c #8689a8",
"54 c #8588a8",
"64 c #8487a8",
"74 c #8587a8",
"84 c #9fa0bd",
"94 c #e38c8d",
":4 c #cb484a",
";4 c #a02628",
"A4 c #a12628",
"B4 c #68191c",
"C4 c #6e6e87",
"D4 c #c9cadc",
"E4 c #8985aa",
"F4 c #8380a6",
"G4 c #8180a4",
"H4 c #8080a2",
"I4 c #8081a2",
"J4 c #8083a6",
"K4 c #d64e51",
"L4 c #e46a6c",
"M4 c #fe888a",
"N4 c #ff9597",
"O4 c #ffa7a9",
"P4 c #fec9cb",
"Q4 c #623237",
"R4 c #8b8faa",
"S4 c #8a8ea8",
"T4 c #8c8da6",
"U4 c #8d8ba5",
"V4 c #8788aa",
"W4 c #8487ab",
"X4 c #8486aa",
"Y4 c #8685a9",
"Z4 c #9f9fbe",
"a4 c #d98486",
"b4 c #d45557",
"c4 c #a12729",
"d4 c #892224",
"e4 c #473f4e",
"f4 c #8a8aa4",
"g4 c #bdbdd5",
"h4 c #8082a3",
"i4 c #8083a1",
"j4 c #8083a2",
"k4 c #8082a5",
"l4 c #8082a7",
"m4 c #8082a8",
"n4 c #8889aa",
"o4 c #c23335",
"p4 c #d75456",
"q4 c #ec7173",
"r4 c #f4797b",
"s4 c #fc8385",
"t4 c #feb6b8",
"u4 c #6c4347",
"v4 c #b8b9cf",
"w4 c #8f8ea8",
"x4 c #8f8da6",
"y4 c #8e8ba6",
"z4 c #8c8aa8",
"05 c #8888ab",
"15 c #8687ae",
"25 c #8685af",
"35 c #8784ae",
"45 c #8685ac",
"55 c #9e9ebc",
"65 c #d16e70",
"75 c #a22729",
"85 c #a2282a",
"95 c #a3282a",
":5 c #a4292c",
";5 c #a52a2d",
"A5 c #9b282a",
"B5 c #3d1a1f",
"C5 c #787897",
"D5 c #b0b0c6",
"E5 c #989ab7",
"F5 c #8084a4",
"G5 c #7f84a4",
"H5 c #7f84a3",
"I5 c #8084a5",
"J5 c #8185a5",
"K5 c #8385a5",
"L5 c #8182a3",
"M5 c #cb393b",
"N5 c #d35456",
"O5 c #d55a5c",
"P5 c #ee7375",
"Q5 c #fe8a8c",
"R5 c #5f393f",
"S5 c #a8a8c1",
"T5 c #cbcbde",
"U5 c #9c9bb6",
"V5 c #8d8ba7",
"W5 c #8b8aa7",
"X5 c #8989a9",
"Y5 c #8788ac",
"Z5 c #8787ae",
"a5 c #8887af",
"b5 c #8887ae",
"c5 c #8786ab",
"d5 c #9997b5",
"e5 c #c9585a",
"f5 c #df5b5d",
"g5 c #a3292b",
"h5 c #a4292b",
"i5 c #a42a2c",
"j5 c #a42c2e",
"k5 c #4a1214",
"l5 c #8686a7",
"m5 c #bdbed4",
"n5 c #8185a4",
"o5 c #8183a5",
"p5 c #8282a5",
"q5 c #8483a5",
"r5 c #8384a4",
"s5 c #8284a3",
"t5 c #d23e40",
"u5 c #ce5153",
"v5 c #ce5456",
"w5 c #da6062",
"x5 c #e66c6e",
"y5 c #ef7476",
"z5 c #f78587",
"06 c #5c3335",
"16 c #b8b8cf",
"26 c #bebed7",
"36 c #9695b4",
"46 c #8988aa",
"56 c #8787ac",
"66 c #8787ad",
"76 c #8687ab",
"86 c #8587a9",
"96 c #c24e50",
":6 c #e25658",
";6 c #a93032",
"A6 c #581719",
"B6 c #9494b1",
"C6 c #b0b0cc",
"D6 c #8383a6",
"E6 c #8283a5",
"F6 c #8381a5",
"G6 c #8380a5",
"H6 c #8280a4",
"I6 c #8181a4",
"J6 c #7f81a1",
"K6 c #d84345",
"L6 c #c94c4f",
"M6 c #ca4f51",
"N6 c #cb5153",
"O6 c #d05558",
"P6 c #d3595b",
"Q6 c #dc6264",
"R6 c #dd6a6c",
"S6 c #50292b",
"T6 c #abacc9",
"U6 c #b2b3d3",
"V6 c #9fa1c4",
"W6 c #8c8fb0",
"X6 c #8a8eac",
"Y6 c #898dac",
"Z6 c #888cad",
"a6 c #888aae",
"b6 c #bb484b",
"c6 c #e35153",
"d6 c #652327",
"e6 c #a5a6c5",
"f6 c #9f9ebd",
"g6 c #8685ab",
"h6 c #8685aa",
"i6 c #8686a9",
"j6 c #8685a7",
"k6 c #8382a5",
"l6 c #8181a3",
"m6 c #dc4648",
"n6 c #c4484a",
"o6 c #c3494b",
"p6 c #c54a4c",
"q6 c #c64b4d",
"r6 c #c75456",
"s6 c #411c1e",
"t6 c #9495b5",
"u6 c #a0a1c1",
"v6 c #a2a3c4",
"w6 c #a0a2c2",
"x6 c #9b9dbd",
"y6 c #9a9bbb",
"z6 c #b74549",
"07 c #e44d4f",
"17 c #6f2a2e",
"27 c #a8a8c3",
"37 c #a3a2bf",
"47 c #9e9dbc",
"57 c #9a99ba",
"67 c #9393b4",
"77 c #8c8cad",
"87 c #8485a6",
"97 c #7f80a0",
":7 c #e04a4c",
";7 c #c04446",
"A7 c #c24749",
"B7 c #b84547",
"C7 c #3b1517",
"D7 c #8a8baa",
"E7 c #8f91b0",
"F7 c #b34346",
"G7 c #e24b4d",
"H7 c #b83d3f",
"I7 c #722b2f",
"J7 c #9292b1",
"K7 c #8c8cac",
"L7 c #8584a5",
"M7 c #8080a1",
"N7 c #e64f51",
"O7 c #bd4143",
"P7 c #ba3f41",
"Q7 c #b93f41",
"R7 c #ae3a3c",
"S7 c #381113",
"T7 c #b23d3f",
"U7 c #e24c4e",
"V7 c #c04648",
"W7 c #bf4547",
"X7 c #bf4446",
"Y7 c #752c2f",
"Z7 c #ed5557",
"a7 c #ba3e40",
"b7 c #b53b3d",
"c7 c #b3393b",
"d7 c #a83335",
"e7 c #370f11",
"f7 c #b03b3d",
"g7 c #e44f51",
"h7 c #cf5557",
"i7 c #cd5355",
"j7 c #ca5052",
"k7 c #c94f51",
"l7 c #c84d4f",
"m7 c #7a2f31",
"n7 c #f35e60",
"o7 c #b93c3e",
"p7 c #b43a3c",
"q7 c #b3383b",
"r7 c #b2383a",
"s7 c #a52f31",
"t7 c #390f11",
"u7 c #ad393b",
"v7 c #ea5759",
"w7 c #ea6f71",
"x7 c #dc6163",
"y7 c #d95e60",
"z7 c #d65c5e",
"08 c #d3585a",
"18 c #7f3638",
"28 c #f86b6d",
"38 c #ba3c3e",
"48 c #b23739",
"58 c #b03638",
"68 c #a32d2f",
"78 c #3c0f11",
"88 c #ac3638",
"98 c #f26567",
":8 c #fe9092",
";8 c #fb8587",
"A8 c #f07678",
"B8 c #e4696b",
"C8 c #e16668",
"D8 c #833e41",
"E8 c #fd8082",
"F8 c #bf3d3f",
"G8 c #a32b2d",
"H8 c #400f11",
"I8 c #ac3436",
"J8 c #f57d7f",
"K8 c #ffb9bb",
"L8 c #ff9092",
"M8 c #fd888a",
"N8 c #fa8183",
"O8 c #f67c7e",
"P8 c #f27779",
"Q8 c #ed7577",
"R8 c #844749",
"S8 c #ffa1a3",
"T8 c #c94446",
"U8 c #ae3436",
"V8 c #ad3335",
"W8 c #461012",
"X8 c #f9989b",
"Y8 c #ffd1d3",
"Z8 c #ffafb1",
"a8 c #ffa4a6",
"b8 c #ff9a9c",
"c8 c #ff9294",
"d8 c #fd8d8f",
"e8 c #d85759",
"f8 c #ab3133",
"g8 c #a42b2d",
"h8 c #4c1214",
"i8 c #af3133",
"j8 c #fca2a4",
"k8 c #ffb6b8",
"l8 c #ffccce",
"m8 c #ffdadc",
"n8 c #ffd4d6",
"o8 c #ffc5c7",
"p8 c #ffb7b9",
"q8 c #ffacae",
"r8 c #ffa3a5",
"s8 c #ee989a",
"t8 c #ea8385",
"u8 c #ac3234",
"v8 c #ab3032",
"w8 c #aa2f32",
"x8 c #b63436",
"y8 c #fea1a3",
"z8 c #ffaaac",
"09 c #ffbdbf",
"19 c #ffd8da",
"29 c #ffcbcd",
"39 c #ffbfc1",
"49 c #c07d7f",
"59 c #faa7a9",
"69 c #b23537",
"79 c #aa3032",
"89 c #6e1a1c",
"99 c #8c2e30",
":9 c #c24042",
";9 c #f79496",
"A9 c #fb8284",
"B9 c #ffa0a2",
"C9 c #ffb0b2",
"D9 c #ffcfd1",
"E9 c #ffdbdd",
"F9 c #ffd7d9",
"G9 c #975053",
"H9 c #ffb1b3",
"I9 c #c9494b",
"J9 c #831f21",
"K9 c #852a2c",
"L9 c #d45e60",
"M9 c #ea7779",
"N9 c #ec7274",
"O9 c #f87e80",
"P9 c #ff989a",
"Q9 c #ffa6a8",
"R9 c #ffb3b5",
"S9 c #ffc0c2",
"T9 c #efa6a8",
"U9 c #e97b7d",
"V9 c #942527",
"W9 c #26090b",
"X9 c #822527",
"Y9 c #e77779",
"Z9 c #da5f62",
"a9 c #e16669",
"b9 c #eb7173",
"c9 c #f57b7d",
"d9 c #fd8688",
"e9 c #ff9193",
"f9 c #ff9d9f",
"g9 c #ffa8aa",
"h9 c #b25a5c",
"i9 c #fd8a8c",
"j9 c #bb3b3d",
"k9 c #9f292b",
"l9 c #3a0d0f",
"m9 c #8a2426",
"n9 c #ed8284",
"o9 c #d05658",
"p9 c #e06668",
"q9 c #e96f71",
"r9 c #f2787a",
"s9 c #fb8184",
"t9 c #ff8b8d",
"u9 c #f28587",
"v9 c #73272a",
"w9 c #e67375",
"x9 c #a62b2d",
"y9 c #a52b2d",
"z9 c #5a1517",
"0: c #621c1e",
"1: c #aa3b3d",
"2: c #e17577",
"3: c #cb5052",
"4: c #d85e60",
"5: c #df6567",
"6: c #e76d6f",
"7: c #ef7577",
"8: c #f77d7f",
"9: c #ac4648",
":: c #f97173",
";: c #c74c4e",
"A: c #882123",
"B: c #1a0709",
"C: c #5d191b",
"D: c #da7073",
"E: c #c94e50",
"F: c #c64c4e",
"G: c #cc5153",
"H: c #d15759",
"I: c #d85d5f",
"J: c #de6466",
"K: c #e56b6d",
"L: c #d15a5c",
"M: c #f5787a",
"N: c #b6383a",
"O: c #a22a2c",
"P: c #410f11",
"Q: c #360e10",
"R: c #8a3335",
"S: c #e4787a",
"T: c #be4446",
"U: c #c3484a",
"V: c #c74d4f",
"W: c #d25759",
"X: c #d75d5f",
"Y: c #d45a5c",
"Z: c #862729",
"a: c #f07779",
"b: c #b23436",
"c: c #a62c2e",
"d: c #872224",
"e: c #1e0709",
"f: c #481d1f",
"g: c #e07e80",
"h: c #c14749",
"i: c #bc4244",
"j: c #c04547",
"k: c #c4494b",
"l: c #c84e50",
"m: c #cd5254",
"n: c #cc5254",
"o: c #962c2e",
"p: c #f1797b",
"q: c #b73a3c",
"r: c #a72c2e",
"s: c #a72c2f",
"t: c #711c1e",
"u: c #190608",
"v: c #0a0406",
"w: c #2b1315",
"x: c #ce7375",
"y: c #c74f51",
"z: c #b73d3f",
"0; c #ba4042",
"1; c #bd4345",
"2; c #c14648",
"3; c #c44a4c",
"4; c #c2484a",
"5; c #992a2c",
"6; c #f98283",
"7; c #cc5355",
"8; c #a92e30",
"9; c #a72d2f",
":; c #a82d2f",
";; c #a72e30",
"A; c #882426",
"B; c #491214",
"C; c #2b0b0d",
"D; c #2b0c0e",
"E; c #4e191b",
"F; c #9f3e40",
"G; c #b73f41",
"H; c #b4393b",
"I; c #b63c3e",
"J; c #b83e40",
"K; c #bb4143",
"L; c #be4345",
"M; c #b63b3d",
"N; c #952527",
"O; c #ff9799",
"P; c #ed8688",
"Q; c #c54547",
"R; c #ab2f31",
"S; c #a82e30",
"T; c #aa2f31",
"U; c #a92f31",
"V; c #a32e30",
"W; c #a32f31",
"X; c #aa3335",
"Y; c #af3537",
"Z; c #b13739",
"a; c #b3383a",
"b; c #b53a3d",
"c; c #b73c3e",
"d; c #b7393b",
"e; c #a92d2f",
"f; c #f39395",
"g; c #da5b5d",
"h; c #c13c3e",
"i; c #b23335",
"j; c #ad3133",
"k; c #ab3033",
"l; c #ac3133",
"m; c #ad3234",
"n; c #ae3335",
"o; c #b03537",
"p; c #b23638",
"q; c #b53638",
"r; c #b63335",
"s; c #ae2c2e",
"t; c #a12527",
"u; c #f66062",
"v; c #e94f51",
"w; c #dc4548",
"x; c #d34042",
"y; c #cd3b3d",
"z; c #c63739",
"0A c #c23436",
"1A c #bd3032",
"2A c #b62c2e",
"                                                  2A1A0Az;y;x;w;v;u;                            ",
"                                            t;s;r;q;p;o;n;m;l;k;j;i;h;g;f;                      ",
"                                          e;d;c;b;a;Z;Y;X;W;V;U;T;U;S;S;R;Q;P;O;                ",
"                                      N;M;L;K;J;I;H;G;F;E;D;C;B;A;;;S;:;9;9;8;7;6;              ",
"                                    5;4;3;2;1;0;z:y:x:w:v:      u:t:9;9;9;s:r:s:q:p:            ",
"                                  o:n:m:l:k:j:i:h:g:f:            e:d:9;r:r:c:r:r:b:a:          ",
"                                Z:Y:X:W:n:V:U:T:S:R:Q:              P:O:c:c:c:c:c:r:N:M:        ",
"                                L:K:J:I:H:G:F:E:D:C:                B:A:c:c:c:c:c:r:9;;:::      ",
"                              9:8:7:6:5:4:H:3:2:1:0:                  z9y9x9x9c:c:r:9;8;w9      ",
"                            v9u9t9s9r9q9p94:o9n9m9                    l9k9y9y9x9c:r:9;:;j9i9    ",
"                            h9g9f9e9d9c9b9a9Z9Y9X9                    W9V9y9y9x9c:r:9;S;T;U9    ",
"                            T9S9R9Q9P9t9O9N9M9L9K9                      J9y9y9x9c:9;:;S;U;I9H9  ",
"                          G9F9E9D9S9C9B9e9A9;9:999                      89y9y9c:r:9;S;U;796959  ",
"                          49392919E9D909z8O;y8x8                        z9y9x9c:9;S;U;w8v8u8t8  ",
"                          s8r8q8p8o8n8m8l8k8j8i8                        h8g8c:9;S;U;79f8l;m;e8  ",
"                          d8t9c8b8a8Z839Y8F9X8u8                        W8g89;S;U;79f8u8V8U8T8S8",
"                        R8Q8P8O8N8M8L8b8g9K8J8I8                        H8G88;T;f8u8V8U8Y;o;F8E8",
"                        D8J:C8B86:b9A8O8;8:89888                        7868v8u8V8U8Y;58Z;483828",
"                        18H:08Y:z7y7x75:B8w7v7u7                        t7s7U8Y;58Z;r7q7H;p7o7n7",
"                        m7V:l7l:k7j7G:i7h7W:g7f7                        e7d7a;c7p7b7M;I;c;z:a7Z7",
"                        Y7T:X7X7W7W7W7j:V72;U7T7                        S7R7Q7Q7P7P70;0;0;0;O7N7",
"                M7L7K7J7I7H7z:z:z:c;I;I;M;M;G7F7E7D7                    C7B7A7h:V7j:W7W7X7T:;7:7",
"        978777675747372717r748Z;Z;58o;Y;U8n;07z6y6x6w6v6u6t6            s6r6i73:E:V:q6p6k:o6n6m6",
"      l6k6j6i6h6g6f6e6  d6n;V8V8u8l;f879U;8;c6b6a6Z6Y6X6W6V6U6T6        S6R6Q6X:P6O6i7N6M6l:L6K6",
"  J6I6H6G6F6k6E6D6C6B6  A6;679U;U;S;:;r:c:x9:69686867666665646362616    06z5y5x55:w5z7P6o9v5u5t5",
"  s5r5q5k6p5o5n5n5m5l5  k5j59;s:c:x9y9i5h5g5f5e5d5c5b5a5Z5Y5X5W5V5U5T5S5R5y8Q58:P5x5p9x74:O5N5M5",
"L5K5J5I5H5H5H5G5F5E5D5C5B5A5y9;5i5:5g5958575g;65  554535251505z4y4x4w4v4u4t4r8e9s4r4q4K:p9Q6p4o4",
"n4m4l4k4j4i4i4h4I6H6g4f4e4d4h5g5g5858575c4c4b4a4    Z4Y4X4W4V4W5U4T4S4R4Q4P409O4N4M4O9A8w7L4K4  ",
"  J4J4k4h4I4I4H4G4F4E4D4C4B4858575c4c4A4A4;4:494      847464544434241404z3y319x3w3P9v3s9r4u3t3  ",
"  s3r3q3p3o3n3m3l3k3j3i3h3g3f3c4c4A4;4;4;4;4e3d3        84c3b3a3Z3Y356X3W3V3n8U309z8b8T3S3R3Q3  ",
"  P3E6p5O3N3M3l3L3K3J3I3H3G3F3A4;4;4;4E3D3D3C3B3A3        84;3:39383736353r8x3m84333z823L81303  ",
"    z2F6y2x2w2J3K3v2x2x2p5u2t2f3E3D3D3D3D3D3s2r2q2          p2o2n2m2l2k2j2i2h2g2f2D9e2w3d2c2    ",
"      b2a2j4Z2w2v2l3Y2X2W2V2U2T2S2S2S2S2S2D3A4R2Q2            P245O2N2M2L2K2J2I2D9H229G2F2E2    ",
"        D2C2B2A2l3;2G5:29282726252S2S2S2S2D3;4h742              32221202z1y1x1w1x3U3E9v1V7      ",
"          u1t1s1O3r1j4j4x2q1W2p1o1S2S2S2S2D3;4n1m1l1              k1j1i1h1g1K2f1H9g2e1d1c1      ",
"            b1a1Z1Y1X1W1A2I6O3X2V1U1S2S2S2D3;4c4T1O9S1              R1Q1P1N9O1c8N1K8M1L1        ",
"                K1I3J1B2I1J6H1G1F1E1D1S2S2;4;4c4C1B1H9A1          ;1:1h7916:c981237161          ",
"                    5141v2v2a2Z231211101z0;4;4c485x8y0x0w0v0u0t:t0s04;i7X:r07:q0p0o0            ",
"                        n0m0o5l0k041j0i0h0g0A4c485g5f0e0:7d0c0b0a0K;o6N6Y:J:Z0Y0X0              ",
"                              W0V0U0T0S0R0Q0P0O085h5y9r:U;m;N0r7I;M04;k7L0K0J0                  ",
"                                        I0H0G0F0E0D0C0B0S;f8U848A0;0:09080                      ",
"                                                    7060504030201000                            "};
