/* XPM */
static char *image[] = {
"16 16 137 2",
"   c None",
"00 c #442b57",
"10 c #786389",
"20 c #6f5783",
"30 c #593d70",
"40 c #6a4d80",
"50 c #6a4f84",
"60 c #5e4681",
"70 c #624c87",
"80 c #65476c",
"90 c #6a4d71",
":0 c #6f5375",
";0 c #866f8c",
"A0 c #361a3c",
"B0 c #4a2a50",
"C0 c #97789d",
"D0 c #83518f",
"E0 c #855591",
"F0 c #8c5f97",
"G0 c #90659a",
"H0 c #93699d",
"I0 c #976fa1",
"J0 c #b59aba",
"K0 c #3e1d44",
"L0 c #906499",
"M0 c #895b94",
"N0 c #8d6198",
"O0 c #90659b",
"P0 c #946b9e",
"Q0 c #986fa0",
"R0 c #9b75a4",
"S0 c #b79ebc",
"T0 c #533358",
"U0 c #ba8f8a",
"V0 c #e9a352",
"W0 c #e8a14f",
"X0 c #c68b6c",
"Y0 c #9c6f97",
"Z0 c #9871a1",
"a0 c #9b75a5",
"b0 c #9f7ba8",
"c0 c #b79dbc",
"d0 c #764b4a",
"e0 c #eeaa57",
"f0 c #fbaf3f",
"g0 c #fcaf3e",
"h0 c #eba54f",
"i0 c #ba818d",
"j0 c #a36daf",
"k0 c #a477ae",
"l0 c #b69abc",
"m0 c #503555",
"n0 c #9c69a7",
"o0 c #7a4f83",
"p0 c #aa8487",
"q0 c #fcbf66",
"r0 c #efd9c2",
"s0 c #a072aa",
"t0 c #855f8d",
"u0 c #987d9f",
"v0 c #c39dcb",
"w0 c #ad84b6",
"x0 c #905f9c",
"y0 c #e7d8ea",
"z0 c #633d6d",
"01 c #60396b",
"11 c #9a74a4",
"21 c #9d78a6",
"31 c #a46eaf",
"41 c #65416f",
"51 c #664270",
"61 c #f1e8f3",
"71 c #a773b2",
"81 c #3b1941",
"91 c #9d66a8",
":1 c #f9f6fa",
";1 c #9a80a0",
"A1 c #794b83",
"B1 c #9e7aa7",
"C1 c #a27faa",
"D1 c #a473ae",
"E1 c #94769b",
"F1 c #9d85a3",
"G1 c #f4edf5",
"H1 c #a570b1",
"I1 c #44234a",
"J1 c #82538d",
"K1 c #d9c1de",
"L1 c #e2d1e6",
"M1 c #a36fae",
"N1 c #a381ab",
"O1 c #a785ae",
"P1 c #a882b0",
"Q1 c #b688bf",
"R1 c #eee3f0",
"S1 c #c9a7d0",
"T1 c #a173aa",
"U1 c #684b6d",
"V1 c #311b36",
"W1 c #8f5e99",
"X1 c #a772b1",
"Y1 c #a57ead",
"Z1 c #a786af",
"a1 c #ab8bb1",
"b1 c #ad90b5",
"c1 c #ac84b5",
"d1 c #a670b1",
"e1 c #a775b3",
"f1 c #6c4873",
"g1 c #311636",
"h1 c #7d5e82",
"i1 c #b49ab9",
"j1 c #af93b5",
"k1 c #b093b6",
"l1 c #b297b8",
"m1 c #b69cbc",
"n1 c #b69cbb",
"o1 c #85668c",
"p1 c #37183c",
"q1 c #301535",
"r1 c #54355a",
"s1 c #9c80a1",
"t1 c #af96b4",
"u1 c #b399b7",
"v1 c #a185a6",
"w1 c #6a4970",
"x1 c #36183c",
"y1 c #2f1534",
"z1 c #3a1a40",
"02 c #3d1b43",
"12 c #402445",
"22 c #29122e",
"32 c #2b1230",
"42 c #2d1332",
"52 c #2b122f",
"62 c #331638",
"72 c #3e3b7b",
"      726252                    ",
"  4232221202z1y1                ",
"    x1w1v1u1t1s1r1q1            ",
"  p1o1n1m1l1k1j1i1h1g1          ",
"  f1e1d1c1b1a1Z1Y1X1W1V1        ",
"U1T1S1R1Q1P1O1N1M1L1K1J1        ",
"I1H1G1F1E1D1C1B1A1;1:191        ",
"817161514131211101z0y0x0        ",
"81w0v0u0t0s0r0q0p0o0n0m0        ",
"81l0k0j0i0h0g0g0f0e0d0          ",
"81c0b0a0Z0Y0X0W0V0U0T0          ",
"81S0R0Q0P0O0N0M0L0j1K0          ",
"81J0I0H0G0F0M0E0D0a1C0B0        ",
"A0;0:090807060504030201000      ",
"                                ",
"                                "};
