/* XPM */
static char *image[] = {
"64 64 3 1",
"  c None",
"0 c #000000",
"1 c #ffffff",
"                                                                ",
"                                                                ",
"                                                                ",
"                                                                ",
"     1001001001001001001001001001001001001001001001001001001    ",
"    010101001010101001001001001001001001001001001001001001001   ",
"    100010101001000100100100100100100100100100100100100100100   ",
"    010100000100010010010010010010010010010010101010010101010   ",
"    010000100001000000000001000100001000100100000000100000001   ",
"    010100000000000001000000000000000000000000000000000001100   ",
"    010000000000000000000000000000000000000100000000000000010100",
"    100100000000000000000000000000000000101000000000000001001010",
"    010000010000000000000000010001000100010100010000000001010101",
"    001010000000000010000001000000000001010100000000000000010100",
"    101000000000000000000000000000000100101010000000000001010101",
"    010000000000000000000000000000100010101000000000000010101010",
"    001010001000000000001000000010001010101100000001000001010101",
"    100100000000000100100000100000001010010100010000001101001010",
"    010000000000000000000000000001010101101100000000000101010101",
"    010100010000100000000000000000101001011010000000101010101100",
"    001000000010000000000100001010100101101000000010010100110110",
"    100100001000000010010000000010101011011100010001010011010101",
"    010000100000000000000000010101010101101010000101010101011010",
"    010100000000010000000000001010011110111000000101001101101101",
"    001000000100000001001001010010101011010110010100110101010100",
"    100100010000000000000000101010110101101100010010101011011010",
"    010000000010000000100101010101011110110101010101010101101101",
"    010100100000000010000010100111101011011010101010110110101010",
"    001000000100001000010101010101011010110101001010101010101101",
"    100100000000100000010100101110110111011010101011011101101010",
"    010000010010000001010101011011011010101101010101101010110101",
"    001010000000000001010010110101101111110101011101010110101100",
"    100100001000000100101011011110111010011101010110111010110110",
"    010000000010010010101010110101101011101011101011010101010101",
"    010100100000001010101011101111011010110101011101101110101100",
"    001000001001001010010110110101100101011101101011010101110101",
"    100100000000101001101101101110000101101010110110101010010101",
"    010000100010010101011110111010001010101111011010101101101100",
"    001010000001010101101011010100000011010101010101010101010110",
"    101000001010101011011101110000100101111011111010000101101010",
"    000100000101010101110111010010000101010101010000010110110101",
"    101000101010011110101101000000000101011111010000010101011100",
"    010010001001101011110110100000000101101010100000001010100110",
"    001000100101011010101100000000100101011101000000101011011010",
"    100101010101101111011001000010000011101010000010001010101101",
"    010010101011011010110000000000001010110100000000010101101010",
"    001010101101110111010100000000000011010000010000001010101100",
"    101001010111011101000000010000001010101000000000101010110101",
"   0010101011010110110100001000001000011010000000000001011010101",
"  01001010110111101100000100000000001001000000000100010101011010",
"0001010101011010110010000000000100000100000000010000001010101101",
"0001010110101101010100010000000000000100000000000000010101010100",
"0000001001010010010000000000100000000000000000000000000010100000",
"0000010000000000000000000000000000000000000000000000000000010000",
"0000001000000000000000000000000000100000000000000000000001000000",
"    100100000000000000000100000000000010000000000000000001010   ",
"    010101010010101010100000101010001000101010010001000100001   ",
"    100010001001000100010101000100100101000101001010010010100   ",
"    010100100100101001010010101001010010010000100101010101010   ",
"    001001010101000100100100000100010100101010010000000000001   ",
"     0010010001001001001001010100100001000000100101010101010    ",
"                                                                ",
"                                                                ",
"                                                                "};
