/* XPM */
static char *image[] = {
"32 32 26 1",
"  c None",
"0 c #0277d3",
"1 c #086ed0",
"2 c #68c7fe",
"3 c #2c8fdb",
"4 c #45b7fe",
"5 c #1583d8",
"6 c #c6e0f4",
"7 c #3296ee",
"8 c #effcfe",
"9 c #f2fdef",
": c #c8f6fe",
"; c #214ea7",
"A c #f1f2f4",
"B c #fdfdf5",
"C c #81bdec",
"D c #0258c5",
"E c #3e9ade",
"F c #68aae5",
"G c #0282d6",
"H c #029afe",
"I c #17a4fe",
"J c #0e9dfe",
"K c #028ffd",
"L c #89d0fe",
"M c #027de3",
"                                ",
"                                ",
"                                ",
"             MMMMMMM            ",
"          MMMLLLLLLLMMM         ",
"         MLLLKKKKKKKLLLM        ",
"       MMLMJJIIIIIIIHGMLMM      ",
"      MMJGJHIIIIIIIIIHFEGMM     ",
"      MGGJIIIKDDDDDKHCBAEMM     ",
"     MKGHJIKDD     D;:9B8KKM    ",
"    MMGJHIGD       MF7CB65GMM   ",
"    MGGJJGD       MF4GICIJHGM   ",
"    MGJJIG       MF45IDKKHKMM   ",
"   MGKJHMG      MF45ID GGJJHMM  ",
"   MKJJHG      MF4GID   GHJJKM  ",
"   MHJJIG      MI5ID    GHJJHM  ",
"   MHJJJG      GIID     GHJJHM  ",
"   MHJJHG       GG      GHJJHM  ",
"   MHJJJG               GHJJHM  ",
"   MMJJJGG             GMJJJHM  ",
"    MHJIIG             GHJJHM   ",
"    MHJJI7G           G33JJJM   ",
"    MGIJIE2G         G2EJJJ31   ",
"     MHIJIF2GG     GG243JJK1    ",
"      1IIJIE22GGGGG2273HJ55H1   ",
"      1GIIJJJE22222EIJJJJJ5541  ",
"       11IIIJJJJJJJJJJIIIIJGH1  ",
"         1GIIIIIIIIIII01KIIIH1  ",
"          111GJIIIIJ111 DKIIH1  ",
"             DDDDDDD     DDDDD  ",
"                                ",
"                                "};
