/* XPM */
static char *image[] = {
"47 47 818 2",
"   c None",
"00 c #644b44",
"10 c #3d2e2a",
"20 c #42342f",
"30 c #41322e",
"40 c #3f312d",
"50 c #40312e",
"60 c #3a2a26",
"70 c #3b2b27",
"80 c #3a2a27",
"90 c #3c2b28",
":0 c #3c2c28",
";0 c #3b2c27",
"A0 c #3d2e29",
"B0 c #3c2d28",
"C0 c #3b2c28",
"D0 c #271e1b",
"E0 c #100e0d",
"F0 c #171210",
"G0 c #47362f",
"H0 c #49362f",
"I0 c #4b3730",
"J0 c #513e36",
"K0 c #523e38",
"L0 c #4e3a34",
"M0 c #4c3732",
"N0 c #4c3733",
"O0 c #4d3833",
"P0 c #483631",
"Q0 c #43332d",
"R0 c #43352f",
"S0 c #42352f",
"T0 c #41332e",
"U0 c #42342e",
"V0 c #40312b",
"W0 c #45352e",
"X0 c #0b0e0e",
"Y0 c #000c0f",
"Z0 c #011319",
"a0 c #011318",
"b0 c #011419",
"c0 c #223237",
"d0 c #303f43",
"e0 c #111d21",
"f0 c #000000",
"g0 c #616162",
"h0 c #0b0f10",
"i0 c #141b1e",
"j0 c #131b1d",
"k0 c #131a1d",
"l0 c #11191c",
"m0 c #12181c",
"n0 c #12191c",
"o0 c #13191c",
"p0 c #13191b",
"q0 c #010202",
"r0 c #0c0f0f",
"s0 c #2399bb",
"t0 c #92cddd",
"u0 c #c4e3ec",
"v0 c #5a818c",
"w0 c #060b0c",
"x0 c #131f24",
"y0 c #29373e",
"z0 c #7aa6bb",
"01 c #78a3b7",
"11 c #253339",
"21 c #1e1f20",
"31 c #1c2326",
"41 c #2c3e47",
"51 c #46626f",
"61 c #658ca0",
"71 c #7eb2ca",
"81 c #80b4cc",
"91 c #7caec5",
":1 c #7cacc3",
";1 c #74a1b6",
"A1 c #78a5ba",
"B1 c #88b9d0",
"C1 c #8abbd1",
"D1 c #7ba7ba",
"E1 c #070a0b",
"F1 c #111111",
"G1 c #005269",
"H1 c #53afca",
"I1 c #d4ebf2",
"J1 c #6ea7b7",
"K1 c #041114",
"L1 c #415d68",
"M1 c #7aa0b1",
"N1 c #363637",
"O1 c #7d7d7d",
"P1 c #5e5e5e",
"Q1 c #1c1d1d",
"R1 c #1e1e1e",
"S1 c #858585",
"T1 c #4c4c4c",
"U1 c #3a3a3a",
"V1 c #2b2b2b",
"W1 c #2c2c2c",
"X1 c #313131",
"Y1 c #181a1b",
"Z1 c #2c3a40",
"a1 c #4b6571",
"b1 c #0b1012",
"c1 c #171413",
"d1 c #5db4cd",
"e1 c #4e7985",
"f1 c #0b1214",
"g1 c #171718",
"h1 c #33434a",
"i1 c #14181a",
"j1 c #7e7e7e",
"k1 c #d3d3d3",
"l1 c #595959",
"m1 c #696969",
"n1 c #252525",
"o1 c #060606",
"p1 c #1d1918",
"q1 c #56b1cb",
"r1 c #2a4d57",
"s1 c #242c2e",
"t1 c #818181",
"u1 c #bababa",
"v1 c #606060",
"w1 c #939393",
"x1 c #717171",
"y1 c #676767",
"z1 c #929292",
"02 c #383838",
"12 c #39a3c2",
"22 c #d0e9f0",
"32 c #394f56",
"42 c #2a3234",
"52 c #6d6d6d",
"62 c #8e8e8e",
"72 c #b8b8b8",
"82 c #777777",
"92 c #737373",
":2 c #2f2f2f",
";2 c #666666",
"A2 c #1a1a1a",
"B2 c #191514",
"C2 c #2198ba",
"D2 c #cae6ee",
"E2 c #50707a",
"F2 c #1c2224",
"G2 c #989898",
"H2 c #888888",
"I2 c #5c5c5c",
"J2 c #6f6f6f",
"K2 c #838383",
"L2 c #0d0c0c",
"M2 c #2a2e30",
"N2 c #0e8fb4",
"O2 c #bce0ea",
"P2 c #6b929d",
"Q2 c #1b2224",
"R2 c #626262",
"S2 c #808080",
"T2 c #6b6b6b",
"U2 c #9a9a9a",
"V2 c #4d4d4d",
"W2 c #212121",
"X2 c #212323",
"Y2 c #1f1f1f",
"Z2 c #5a5a5a",
"a2 c #191413",
"b2 c #1492b6",
"c2 c #b7dee9",
"d2 c #8fb6c1",
"e2 c #0f1416",
"f2 c #5f5f5f",
"g2 c #6a6a6a",
"h2 c #8b8b8b",
"i2 c #656565",
"j2 c #536d79",
"k2 c #769cad",
"l2 c #232526",
"m2 c #7f7f7f",
"n2 c #393939",
"o2 c #111010",
"p2 c #1291b6",
"q2 c #97c1cc",
"r2 c #0d1314",
"s2 c #828282",
"t2 c #484848",
"u2 c #8a8a8a",
"v2 c #646464",
"w2 c #b3b3b3",
"x2 c #545556",
"y2 c #63828f",
"z2 c #1d1d1e",
"03 c #434343",
"13 c #1b1613",
"23 c #005168",
"33 c #0089b0",
"43 c #1e97b9",
"53 c #b4dce8",
"63 c #96beca",
"73 c #111617",
"83 c #e1e1e1",
"93 c #adadad",
":3 c #686868",
";3 c #8d8d8d",
"A3 c #727272",
"B3 c #d1d1d1",
"C3 c #959595",
"D3 c #505151",
"E3 c #7397a7",
"F3 c #1a1c1c",
"G3 c #3f3f3f",
"H3 c #141414",
"I3 c #181e21",
"J3 c #2f2421",
"K3 c #1e1715",
"L3 c #3f7c8d",
"M3 c #7dc3d7",
"N3 c #97cfdf",
"O3 c #d6ecf2",
"P3 c #759da8",
"Q3 c #070d0e",
"R3 c #bfbfbf",
"S3 c #757575",
"T3 c #767676",
"U3 c #c3c3c3",
"V3 c #969696",
"W3 c #7c7c7c",
"X3 c #4b4c4c",
"Y3 c #7ea5b5",
"Z3 c #96c3d7",
"a3 c #70919f",
"b3 c #7da1b1",
"c3 c #3e4f57",
"d3 c #3d5059",
"e3 c #4c4f50",
"f3 c #1a1a19",
"g3 c #4d6c74",
"h3 c #7c9ea8",
"i3 c #74939c",
"j3 c #111416",
"k3 c #31464d",
"l3 c #384449",
"m3 c #a5a5a5",
"n3 c #898989",
"o3 c #848484",
"p3 c #797979",
"q3 c #454545",
"r3 c #88b0c1",
"s3 c #99c6d9",
"t3 c #9ac6d9",
"u3 c #9ac7d9",
"v3 c #29343a",
"w3 c #4b636e",
"x3 c #352524",
"y3 c #392723",
"z3 c #2f3d42",
"04 c #596f77",
"14 c #657c85",
"24 c #a2c9d7",
"34 c #a2cada",
"44 c #2a2e2f",
"54 c #dfdfdf",
"64 c #bcbcbc",
"74 c #e7e7e7",
"84 c #949494",
"94 c #afafaf",
":4 c #fbfbfb",
";4 c #fcfcfc",
"A4 c #868686",
"B4 c #e3e3e3",
"C4 c #282929",
"D4 c #9ac5d8",
"E4 c #9bc7da",
"F4 c #9cc8da",
"G4 c #121719",
"H4 c #5a7583",
"I4 c #5f6161",
"J4 c #6b6d6d",
"K4 c #667e86",
"L4 c #8aaab8",
"M4 c #4f4f4f",
"N4 c #999999",
"O4 c #e0e0e0",
"P4 c #a4a4a4",
"Q4 c #9e9e9e",
"R4 c #b0b0b0",
"S4 c #222c2f",
"T4 c #9dc9db",
"U4 c #9ec9db",
"V4 c #98c3d3",
"W4 c #080a0b",
"X4 c #617f8e",
"Y4 c #3c2623",
"Z4 c #422e29",
"a4 c #688088",
"b4 c #a9d1e1",
"c4 c #55686f",
"d4 c #8f8f8f",
"e4 c #eeeeee",
"f4 c #bbbbbb",
"g4 c #bebebe",
"h4 c #908444",
"i4 c #8c7f39",
"j4 c #aaa8a2",
"k4 c #505050",
"l4 c #698591",
"m4 c #9fcadc",
"n4 c #9fcbdc",
"o4 c #85a7b6",
"p4 c #1d2428",
"q4 c #5e7b8a",
"r4 c #2c2318",
"s4 c #3d312c",
"t4 c #718a93",
"u4 c #a7d0de",
"v4 c #33383a",
"w4 c #cacaca",
"x4 c #f0f0f0",
"y4 c #ebebeb",
"z4 c #a1a1a1",
"05 c #b2b2b2",
"15 c #ededed",
"25 c #e6e6e6",
"35 c #e4e4e4",
"45 c #928858",
"55 c #e7c308",
"65 c #fddf4b",
"75 c #ac9730",
"85 c #a6a5a3",
"95 c #1f2527",
":5 c #a0cbdc",
";5 c #a1ccdd",
"A5 c #a2ccdd",
"B5 c #a2cddd",
"C5 c #6f8b97",
"D5 c #324249",
"E5 c #5c7684",
"F5 c #51362c",
"G5 c #2b2220",
"H5 c #7c96a0",
"I5 c #9abecc",
"J5 c #323536",
"K5 c #d0d0d0",
"L5 c #ececec",
"M5 c #cdcdcd",
"N5 c #c2c2c2",
"O5 c #efefef",
"P5 c #b6b19f",
"Q5 c #9d8a2c",
"R5 c #f1ca05",
"S5 c #fcda2e",
"T5 c #fee984",
"U5 c #5a4f14",
"V5 c #67818c",
"W5 c #a3cdde",
"X5 c #a4cede",
"Y5 c #4d6068",
"Z5 c #516674",
"a5 c #5b7281",
"b5 c #85a2ac",
"c5 c #b0d6e4",
"d5 c #acd4e2",
"e5 c #99bdca",
"f5 c #303233",
"g5 c #cccccc",
"h5 c #f4f4f4",
"i5 c #f1f1f1",
"j5 c #e8e8e8",
"k5 c #e5e5e5",
"l5 c #aaa698",
"m5 c #6c6128",
"n5 c #716214",
"o5 c #cfae08",
"p5 c #fddd3e",
"q5 c #fef2b5",
"r5 c #d6c56d",
"s5 c #2a3233",
"t5 c #a5cfdf",
"u5 c #a6cfdf",
"v5 c #a6d0df",
"w5 c #232c30",
"x5 c #7897ac",
"y5 c #597280",
"z5 c #292220",
"06 c #b2d8e5",
"16 c #b1d7e5",
"26 c #b0d7e4",
"36 c #add4e3",
"46 c #9cc0cd",
"56 c #292c2d",
"66 c #979797",
"76 c #f6f6f6",
"86 c #f7f7f7",
"96 c #f5f5f5",
":6 c #f3f3f3",
";6 c #c1beb1",
"A6 c #8d7706",
"B6 c #efc805",
"C6 c #fcd71b",
"D6 c #feee9c",
"E6 c #fef6cc",
"F6 c #fef0ae",
"G6 c #282407",
"H6 c #a7d0e0",
"I6 c #a8d1e0",
"J6 c #9fc6d5",
"K6 c #0b0d0e",
"L6 c #9ac1da",
"M6 c #5b717f",
"N6 c #201b1a",
"O6 c #96b8c3",
"P6 c #b1d8e5",
"Q6 c #b0d7e5",
"R6 c #afd7e4",
"S6 c #afd6e4",
"T6 c #aed6e4",
"U6 c #add5e3",
"V6 c #a6ccd9",
"W6 c #474747",
"X6 c #b1b1b1",
"Y6 c #f2f2f2",
"Z6 c #f8f8f8",
"a6 c #f9f9f9",
"b6 c #fafafa",
"c6 c #b1a671",
"d6 c #fcd305",
"e6 c #fcd50e",
"f6 c #fde154",
"g6 c #fef2b7",
"h6 c #fef7d0",
"i6 c #fffae4",
"j6 c #faeeb2",
"k6 c #1e1e12",
"l6 c #a9d2e1",
"m6 c #aad2e1",
"n6 c #7a97a1",
"o6 c #2d383f",
"p6 c #a0c7df",
"q6 c #5c7482",
"r6 c #1a1d1e",
"s6 c #9ec2ce",
"t6 c #afd6e3",
"u6 c #aed6e3",
"v6 c #aed5e3",
"w6 c #aed4e3",
"x6 c #add3e3",
"y6 c #acd2e2",
"z6 c #95b6c4",
"07 c #4b5c64",
"17 c #303131",
"27 c #575757",
"37 c #a2a2a2",
"47 c #d6d6d6",
"57 c #e2e2e2",
"67 c #e9e9e9",
"77 c #918130",
"87 c #fcd307",
"97 c #fcd71e",
":7 c #ecd145",
";7 c #fbe369",
"A7 c #feeea1",
"B7 c #fef7d2",
"C7 c #fffbe6",
"D7 c #fef6cb",
"E7 c #9b8c41",
"F7 c #46575c",
"G7 c #abd2e2",
"H7 c #abd3e2",
"I7 c #4f626a",
"J7 c #576b78",
"K7 c #a3c9e1",
"L7 c #5b707d",
"M7 c #0b0b0c",
"N7 c #abd1df",
"O7 c #abd1e0",
"P7 c #abd0e0",
"Q7 c #aad1df",
"R7 c #aad0df",
"S7 c #a9d0df",
"T7 c #809eaa",
"U7 c #5a6f78",
"V7 c #2c3538",
"W7 c #252b2d",
"X7 c #6e5d02",
"Y7 c #ad9103",
"Z7 c #fad105",
"a7 c #574b0c",
"b7 c #81817f",
"c7 c #232322",
"d7 c #514d35",
"e7 c #85793d",
"f7 c #72610b",
"g7 c #544601",
"h7 c #434e4c",
"i7 c #a6ccdc",
"j7 c #a9d0e0",
"k7 c #a9d1e0",
"l7 c #273136",
"m7 c #819eb0",
"n7 c #a6cae3",
"o7 c #5b717d",
"p7 c #272e31",
"q7 c #a5c9d8",
"r7 c #a5cad8",
"s7 c #a5cad9",
"t7 c #a6cbd9",
"u7 c #a6cbda",
"v7 c #a5cbd9",
"w7 c #a5cbda",
"x7 c #a5cada",
"y7 c #a4cada",
"z7 c #a1c6d5",
"08 c #736102",
"18 c #b59704",
"28 c #8c760c",
"38 c #eaeaea",
"48 c #9d9d9d",
"58 c #878787",
"68 c #d9d9d9",
"78 c #787878",
"88 c #333333",
"98 c #333e42",
":8 c #a6ccdb",
";8 c #a7cddb",
"A8 c #8baab7",
"B8 c #151a1d",
"C8 c #a5c9e0",
"D8 c #aacde4",
"E8 c #5e747f",
"F8 c #4e5e65",
"G8 c #9dc1ce",
"H8 c #9ec2cf",
"I8 c #9fc3d0",
"J8 c #9fc3d1",
"K8 c #a1c3d2",
"L8 c #a0c3d2",
"M8 c #8dadb9",
"N8 c #695902",
"O8 c #c4a404",
"P8 c #49442a",
"Q8 c #7a7a7a",
"R8 c #919191",
"S8 c #373737",
"T8 c #191d1e",
"U8 c #343434",
"V8 c #1b1c1d",
"W8 c #819ea9",
"X8 c #a2c6d4",
"Y8 c #a3c7d4",
"Z8 c #3e4c54",
"a8 c #5e717e",
"b8 c #aed0e4",
"c8 c #aecfe5",
"d8 c #627783",
"e8 c #171815",
"f8 c #6e868f",
"g8 c #95b6c2",
"h8 c #96b7c3",
"i8 c #96b7c4",
"j8 c #97b8c5",
"k8 c #98b8c5",
"l8 c #98b9c5",
"m8 c #97b9c5",
"n8 c #98bac6",
"o8 c #98bac5",
"p8 c #55686c",
"q8 c #272819",
"r8 c #435257",
"s8 c #232424",
"t8 c #242b2e",
"u8 c #657a83",
"v8 c #9abbc9",
"w8 c #99bbc7",
"x8 c #9abcc9",
"y8 c #9abdca",
"z8 c #88a7b2",
"09 c #13181c",
"19 c #a5c1d6",
"29 c #b2d1e6",
"39 c #b3d2e7",
"49 c #6a7f8b",
"59 c #1f2224",
"69 c #89a6b0",
"79 c #8ba9b4",
"89 c #8caab5",
"99 c #8daab5",
":9 c #8daab6",
";9 c #8dabb7",
"A9 c #8dacb7",
"B9 c #8eadb7",
"C9 c #8eadb8",
"D9 c #8fadb8",
"E9 c #90aeb9",
"F9 c #90afb9",
"G9 c #90afba",
"H9 c #90b0bb",
"I9 c #91b1bc",
"J9 c #92b2bd",
"K9 c #89a6b2",
"L9 c #1d2325",
"M9 c #6a7c87",
"N9 c #b7d4e8",
"O9 c #b8d5e8",
"P9 c #758d9c",
"Q9 c #5d3f38",
"R9 c #62777e",
"S9 c #768f97",
"T9 c #7b969f",
"U9 c #829ea7",
"V9 c #88a5af",
"W9 c #8ba9b3",
"X9 c #8aa8b2",
"Y9 c #6d858d",
"Z9 c #1b1f21",
"a9 c #49545c",
"b9 c #bad4e7",
"c9 c #bcd7e9",
"d9 c #839dad",
"e9 c #606262",
"f9 c #262221",
"g9 c #201a1a",
"h9 c #1a1616",
"i9 c #141112",
"j9 c #0e0c0c",
"k9 c #070606",
"l9 c #020101",
"m9 c #080909",
"n9 c #0d0e0f",
"o9 c #14191c",
"p9 c #1a2023",
"q9 c #20272b",
"r9 c #262e31",
"s9 c #2c3639",
"t9 c #323d41",
"u9 c #394549",
"v9 c #3e4c50",
"w9 c #425055",
"x9 c #445257",
"y9 c #455458",
"z9 c #45545a",
"0: c #47575c",
"1: c #49585d",
"2: c #4b5b60",
"3: c #4c5c62",
"4: c #4d5e64",
"5: c #4f5f65",
"6: c #49595e",
"7: c #424f54",
"8: c #3a4549",
"9: c #323b40",
":: c #2b3437",
";: c #15181a",
"A: c #020202",
"B: c #1a1f20",
"C: c #495259",
"D: c #98b1c1",
"E: c #322623",
"F: c #202226",
"G: c #9eb7c9",
"H: c #97afbf",
"I: c #8fa6b6",
"J: c #889dac",
"K: c #7e939f",
"L: c #768794",
"M: c #6d7d88",
"N: c #64727c",
"O: c #616f7a",
"P: c #5e6e77",
"Q: c #5d6b75",
"R: c #5c6972",
"S: c #5b6770",
"T: c #58666e",
"U: c #57626b",
"V: c #566269",
"W: c #536066",
"X: c #535f66",
"Y: c #535e65",
"Z: c #5c6870",
"a: c #68757f",
"b: c #75838d",
"c: c #81919c",
"d: c #8d9fab",
"e: c #aabfcd",
"f: c #c6dded",
"g: c #aac3d3",
"h: c #313436",
"i: c #0a0b0c",
"j: c #b4d1e4",
"k: c #bbd6e9",
"l: c #bdd8e9",
"m: c #bdd8ea",
"n: c #bed8ea",
"o: c #bed9ea",
"p: c #c0d9ea",
"q: c #c0daeb",
"r: c #c1dbec",
"s: c #c5dced",
"t: c #bed3e1",
"u: c #181514",
"v: c #201c1a",
"w: c #a2bdce",
"x: c #c1daec",
"y: c #c3dbec",
"z: c #c2dbec",
"0; c #c3dcec",
"1; c #c4dcec",
"2; c #c4dced",
"3; c #c6dced",
"4; c #c5dded",
"5; c #cce1ef",
"6; c #d0e3f1",
"7; c #d1e4f1",
"8; c #d6e6f2",
"9; c #d0e2ee",
":; c #080708",
";; c #5f6162",
"A; c #88a0ae",
"B; c #c7deed",
"C; c #c9dfee",
"D; c #c8dfee",
"E; c #cadfee",
"F; c #cbe0ee",
"G; c #cce0ee",
"H; c #cbe1ef",
"I; c #cde1ef",
"J; c #cde2ef",
"K; c #d0e3f0",
"L; c #d0e4f1",
"M; c #d2e4f1",
"N; c #d4e5f1",
"O; c #d3e6f2",
"P; c #d4e6f2",
"Q; c #d5e6f2",
"R; c #d7e7f2",
"S; c #d8e7f3",
"T; c #d8e8f4",
"U; c #d9e9f4",
"V; c #dae9f4",
"W; c #dce9f3",
"X; c #687881",
"Y; c #cfe2ef",
"Z; c #cee2ef",
"a; c #cde1ee",
"b; c #cbdeec",
"c; c #c9ddea",
"d; c #c6dbe8",
"e; c #c3d8e5",
"f; c #c1d5e3",
"g; c #bed3e0",
"h; c #bcd0dd",
"i; c #b8cdd9",
"j; c #b5c9d6",
"k; c #b2c6d2",
"l; c #aec2ce",
"m; c #aabeca",
"n; c #a6bac6",
"o; c #a3b6c1",
"p; c #d8e6f1",
"q; c #dceaf4",
"r; c #dcebf5",
"s; c #ddebf5",
"t; c #deebf5",
"u; c #ddecf5",
"v; c #dfecf5",
"w; c #e1ecf6",
"x; c #e1edf5",
"y; c #e2eef6",
"z; c #e5eef6",
"0A c #6c7378",
"1A c #4a352d",
"2A c #070707",
"3A c #0f1111",
"4A c #060607",
"5A c #020303",
"6A c #040404",
"7A c #060807",
"8A c #090b0b",
"9A c #090b0c",
":A c #0b0e0f",
";A c #121516",
"AA c #202426",
"BA c #2c3031",
"CA c #333739",
"DA c #3a3e40",
"EA c #404446",
"FA c #484c4e",
"GA c #4f5353",
"HA c #555959",
"IA c #5a5d5e",
"JA c #494f52",
"KA c #dbe8f0",
"LA c #e3eef6",
"MA c #e2edf5",
"NA c #deebf3",
"OA c #dae8f0",
"PA c #d5e3ec",
"QA c #cfdee7",
"RA c #cadae2",
"SA c #c5d4dd",
"TA c #bfced7",
"UA c #b8c8d0",
"VA c #b1c1cb",
"WA c #929ba1",
"XA c #332522",
"YA c #0f0e0f",
"ZA c #050506",
"aA c #030303",
"bA c #080808",
"cA c #0f0d0d",
"dA c #161313",
"eA c #1e1a18",
"fA c #27211f",
"gA c #302723",
"hA c #362c27",
"iA c #3d2f29",
"jA c #42312b",
"kA c #533a32",
"                                                                                              ",
"                                                                                              ",
"                                                                                              ",
"        kAjAiAhAgAfAeAdAcAbAaAZAYA                                                            ",
"      XAWAVAUATASARAQAPAOANAMALAKAJAIAHAGAFAEADACABAAA;A:A9A8A7A6A5A4A3A2A                    ",
"    1A0Az;LALAy;x;w;v;v;u;t;s;r;q;p;o;n;m;l;k;j;i;h;g;f;e;d;c;b;a;Z;Y;Z;X;                    ",
"    6AW;t;r;q;V;V;U;T;S;R;R;Q;Q;P;O;N;M;M;L;K;K;Y;Y;J;I;H;G;F;E;E;D;C;B;A;;;                  ",
"    :;9;8;Q;Q;O;N;M;M;7;6;K;Y;Y;J;I;5;H;G;E;E;D;C;D;B;B;4;3;2;1;0;z:y:x:w:v:                  ",
"    u:t:Y;Y;Z;J;I;H;G;E;E;C;D;C;B;B;4;3;s:2;1;z:y:r:x:q:p:p:o:n:m:l:k:k:j:i:                  ",
"    h:g:D;C;B;B;f:4;3;y:e:d:c:b:a:Z:Y:X:W:V:U:T:S:R:Q:P:O:N:M:L:K:J:I:H:G:F:                  ",
"    E:D:z:y:r:x:p:C:B:A:;:::9:8:7:6:5:4:3:2:6:1:0:z9y9x9w9v9u9t9s9r9q9p9o9n9m9l9k9j9i9h9g9f9  ",
"    e9d9m:c9k:b9a9Z9Y9X9W9W9W9W9W9W9W9W9W9W9W9W9W9W9W9W9W9W9W9W9W9W9W9W9W9W9W9W9V9U9T9S9R9:;  ",
"    Q9P9O9N9N9M9L9K9J9J9J9I9H9H9H9H9G9G9G9F9F9E9D9D9C9C9B9A9A9A9;9;9;9:9999999898979W96959    ",
"      4939291909z8y8y8y8x8w8v8v8u8t8s8r8q8p8o8n8n8n8n8o8m8l8k8j8j8j8j8i8i8i8h8h8g8g8g8f8e8    ",
"      d8c8b8a8Z8Y8Y8Y8X8W8V8U8T8S8R8Q8P8O8N8M8L8K8K8L8L8L8J8J8J8J8I8I8H8H8H8H8H8G8G8G8F8      ",
"      E8D8C8B8A8;8;8:8:898887868584838281808z7y7x7w7v7u7x7u7u7t7t7t7s7s7s7s7r7r7q7q7q7p7      ",
"      o7n7m7l7k7j7j7i7h7g7f7e7d7c7b7a7Z7Y7X7W7V798U7T7w7S7R7Q7P7O7O7N7N7N7N7N7N7R7R7q7M7      ",
"      L7K7J7I7H7H7G7F7E7D7C7B7A7;7:79787Y77767574737271707z6y6x6x6w6v6u6t6t6t6v6v6v6s6r6      ",
"      q6p6o6n6m6m6l6k6j6i6h6g6f6e6d6d6d6Y7c6b6a6a6a6Z6Y6X6W6F8V6v6U6T6S6R6Q6P6P6P6P6O6N6      ",
"      M6L6K6J6I6I6H6G6F6E6D6C6d6d6d6d6B6A6;6:6968686767676:666564636U6v6S6S626160606B9z5      ",
"      y5x5w5v5u5t5t5s5r5q5p5d6d6d6o5n5m5l5k5k5k5j5i596h5h5:6:6g5f5e5d5d5U6v6S6c526P6b5fA      ",
"      a5Z5Y5X5X5W5W5V5U5T5S5d6R5Q5P5O576Y6N5M5k5k5k5L5:6Y6Y6i5i5K5J5I5H7d536U6v6S626H5G5      ",
"    F5E5D5C5B5A5;5:595857565554535k5k52515Y605z4k5k5k5y4i5x4x4O5O5w4v4u4m6H7d536v6S6t4s4      ",
"    r4q4p4o4:5n4m4l4k4k5j4i4h4k5k5k5k5k5k5j5x4g4f4k5k5k538e4e4151515d4c4b4m6H7H7d5U6a4Z4      ",
"    Y4X4W4V4U4T4T4S4R4k5Q457Q437P4z4O4k5k5k525e4N4k5k5k5k56715151515L5M4L4I6l6m6H7d5K4J4      ",
"    I4H4G4F4F4E4D4C4B4k566A486;4;4:49484B4k5k57464g5k5k5k5k56715151515544434I6241404z3y3      ",
"    x3w3v3u3t3s3r3q3k5k5p3:4;4;4;4;4;496o3B4k5k5n368k5k5k5k5k5j515151515m3l3k3j3i3h3g3f3      ",
"    e3d3c3b3a3Z3Y3X3k5k5W3;4;4;4;4;4;4;4h5V3k5U3T3S3A4R3k5k5k5k574y41515g4Q3P3O3N3M3L3K3      ",
"    J3I3H388G3F3E3D3k5k5C3;4;4;4;4;4;4;4;405B3A3N4N4N4;3:3A49383k5k5k5057363534333332313      ",
"    :;0366N4R8z2y2x2k5k5w283;4;4;4;4;4;4;4h5v266N4N4N4N4:3N4u2t2s2T3Q8r2q253p233333323o2      ",
"    n2N4N4m2l2k2j227k5k53566;4;4;4;4;4;4h5i2h2N4N4N4N4N4g2V3N4:384f2e2d2c2b23333333323a2      ",
"    Z2N4N4:3Y2X2W2V283k5k5U276;4;4;4;4U3T266N4N4S266N4N466R2N4C3i2Q2P2O2N2333333333323M2      ",
"  L2W6N4N4N466N4N4N4K2o3K554R8:4;435K2s2N4N4V3J2I2N4N4N4N4H2W3G2F2E2D2C233333333333323B2      ",
"  A2m2i2N4N4N4N4N4N4N4N4u2;2:2;3C392N4N4N4o38272s2N46252N4N4R242322212333333333333332344      ",
"  02W6z1y1v2H2N4N4N4u2x1;278N427w1N4G2i2v1u154A3N4N4T2M4t166s1r122q1333333333333333323p1      ",
"    o1n1m166Q8i2g2i278z1N4N4N4g2m1R2l158k1k5o3G2N4j1i1h1g1f1e122d133333333333333333323c1      ",
"    b1a1Z1Y1X188:2W1W1V1U1T1T3G2N4S1R1Q1P105O1N4N4N1M1L1K1J1I1H133333333333333333333G1F1      ",
"    E1D1C1B1A1;1:191817161514131211101z0y002N4G2O1x0w0v0u0t0s03333333333333333333333G1r0      ",
"    q0p0o0o0o0n0n0m0m0m0n0l0k0k0k0k0j0i0h0n1G2g0aAf0e0d0c0b0a0a0Z0b0b0b0b0b0a0b0a0b0Y0X0      ",
"        W0V0U0T0S0R0Q0P0O0N0M0L0K0J0I0H0G0F0E0D0C0B0A0iA;0:090808070;060:050504030201000      ",
"                                                                                              ",
"                                                                                              ",
"                                                                                              ",
"                                                                                              ",
"                                                                                              ",
"                                                                                              ",
"                                                                                              "};
