/* XPM */
static char *image[] = {
"48 48 3 1",
"  c None",
"0 c #000000",
"1 c #ffffff",
"                                                ",
"          1010101                               ",
"        11111111101010101010                    ",
"      1110101010111011110110110                 ",
"     01111111111101101011011011010              ",
"    11101011011011011101110110101100            ",
"   1011111111111111011101010101101101           ",
"   11101110110101011010111110110101010          ",
"  1101110111111111101110101011010101010         ",
"  11111111101010101101011011010110110100        ",
" 1010110110111111011111111111010110101100       ",
" 01111111111010101111111111111110101010110      ",
" 11101101011111111111111111111111010101001      ",
" 011111111010101111111111111111111010101011     ",
" 1101010111110111111111111111111111010101001    ",
" 0111111101011111111101001011111111101010110    ",
" 1010101111101111111010110101111111010111001    ",
"  1111101010111111110110110101111110110011010   ",
"  0101111111011111111011011010101011011101010   ",
"  0110101010111111110101101110111010101010101   ",
"   011111111111111111111010101101011010101010   ",
"  01101010101011111111111111101010101010101010  ",
"  10111111111111111111111111111010101010101010  ",
"  01101010101011111111111111111110100101010101  ",
"  11011111111101011111111111111111011010101010  ",
"  01111011010110110111111111111111101010101010  ",
"  01011110111011010100101111111111110101010101  ",
"   110101101010101010101010111111111010010101   ",
"   0111101101011010110101010011111110101010101  ",
"   0101010110111111001010101011111111010101010  ",
"   1011011010111111010101010101111110101010101  ",
"    1011010111111111010101010111111101010100101 ",
"    0101011001111111101010101111111101010101010 ",
"    0110101110111111111111111111111010101010101 ",
"     010110011111111111111111111111010101010101 ",
"      11011010011111111111111111110101010101010 ",
"      01010101101111111111111111010101010101010 ",
"       1010110101001111111110101010101101010110 ",
"        11010110111001001001101101101010110101  ",
"         1101011010110110110110110111011011110  ",
"          11010110101101101101101101011010101   ",
"           1011011110110110110110110110111010   ",
"             0110101101101101101101110110110    ",
"              01011011011011011011101101101     ",
"                 0101111110110110101101101      ",
"                     000010 010111111101        ",
"                               0010001          ",
"                                                "};
