/* XPM */
static char *image[] = {
"48 48 827 2",
"   c None",
"00 c #393937",
"10 c #474944",
"20 c #4f504e",
"30 c #4f514f",
"40 c #4c4f4b",
"50 c #454643",
"60 c #3a3b3a",
"70 c #4e514d",
"80 c #545653",
"90 c #71746f",
":0 c #7f827e",
";0 c #838681",
"A0 c #838783",
"B0 c #828681",
"C0 c #838781",
"D0 c #848882",
"E0 c #7d827b",
"F0 c #696c68",
"G0 c #4f514e",
"H0 c #4d4f4b",
"I0 c #4c4f4c",
"J0 c #656864",
"K0 c #858883",
"L0 c #878a85",
"M0 c #a2a4a0",
"N0 c #e4e5e3",
"O0 c #e4e4e3",
"P0 c #dcdddb",
"Q0 c #c0c2be",
"R0 c #9d9f9b",
"S0 c #858984",
"T0 c #828581",
"U0 c #595b58",
"V0 c #474947",
"W0 c #4b4c4a",
"X0 c #787b77",
"Y0 c #929590",
"Z0 c #b7b9b4",
"a0 c #d1d3cf",
"b0 c #d0d2ce",
"c0 c #c4c7c2",
"d0 c #bdbfbb",
"e0 c #b6b9b4",
"f0 c #b7bab4",
"g0 c #bbbdb8",
"h0 c #bfc1bc",
"i0 c #c7c9c5",
"j0 c #b4b6b2",
"k0 c #8f938c",
"l0 c #656863",
"m0 c #3d3d3c",
"n0 c #979b95",
"o0 c #b2b5b0",
"p0 c #b5b8b3",
"q0 c #abaea9",
"r0 c #babdb8",
"s0 c #b1b5af",
"t0 c #4d504d",
"u0 c #4d4f4c",
"v0 c #868884",
"w0 c #acafa9",
"x0 c #999a96",
"y0 c #929490",
"z0 c #a5a8a2",
"01 c #a9aba6",
"11 c #70716e",
"21 c #424342",
"31 c #4e504d",
"41 c #727470",
"51 c #a3a7a0",
"61 c #939591",
"71 c #8b8d89",
"81 c #8c8e89",
"91 c #a3a6a0",
":1 c #adb0aa",
";1 c #9b9e99",
"A1 c #616461",
"B1 c #4c4e4b",
"C1 c #444542",
"D1 c #4e504c",
"E1 c #626360",
"F1 c #838581",
"G1 c #848682",
"H1 c #858782",
"I1 c #6a6c68",
"J1 c #141413",
"K1 c #41423f",
"L1 c #848681",
"M1 c #7c807a",
"N1 c #585c58",
"O1 c #4d4f4d",
"P1 c #3d3e3b",
"Q1 c #555655",
"R1 c #545554",
"S1 c #535553",
"T1 c #525452",
"U1 c #515351",
"V1 c #515251",
"W1 c #545452",
"X1 c #535352",
"Y1 c #555554",
"Z1 c #535353",
"a1 c #565655",
"b1 c #636462",
"c1 c #666765",
"d1 c #686967",
"e1 c #696a68",
"f1 c #6a6b69",
"g1 c #393938",
"h1 c #3b3c3b",
"i1 c #646564",
"j1 c #616160",
"k1 c #616161",
"l1 c #646464",
"m1 c #676767",
"n1 c #696969",
"o1 c #6a6a6a",
"p1 c #6e6e6e",
"q1 c #6f6f6f",
"r1 c #737373",
"s1 c #757575",
"t1 c #717171",
"u1 c #505050",
"v1 c #9fa09e",
"w1 c #bcbdba",
"x1 c #bebfbc",
"y1 c #bfc0bd",
"z1 c #bfc1bd",
"02 c #c1c2bf",
"12 c #c1c2c0",
"22 c #c3c4c1",
"32 c #c4c5c2",
"42 c #c5c6c3",
"52 c #c5c7c3",
"62 c #c7c8c5",
"72 c #c8c9c6",
"82 c #c9cac8",
"92 c #cacbc8",
":2 c #cbcdca",
";2 c #adaeab",
"A2 c #212121",
"B2 c #cfd0cd",
"C2 c #d0d2cf",
"D2 c #d1d3d0",
"E2 c #d3d4d1",
"F2 c #d3d4d2",
"G2 c #d5d6d3",
"H2 c #d5d6d4",
"I2 c #d6d7d4",
"J2 c #d7d8d6",
"K2 c #a9aaa9",
"L2 c #787877",
"M2 c #80807e",
"N2 c #d4d7d2",
"O2 c #b1b3ae",
"P2 c #afb2ac",
"Q2 c #b1b4ae",
"R2 c #b2b5af",
"S2 c #b3b5af",
"T2 c #b3b6b0",
"U2 c #b4b6b1",
"V2 c #b0b3ad",
"W2 c #040403",
"X2 c #b4b7b1",
"Y2 c #b5b8b2",
"Z2 c #b5b9b2",
"a2 c #b6b9b3",
"b2 c #b7bbb4",
"c2 c #b8bbb5",
"d2 c #b9bbb6",
"e2 c #b9bcb6",
"f2 c #c0c3bd",
"g2 c #818180",
"h2 c #8c8d8b",
"i2 c #d5d8d2",
"j2 c #c8cbc4",
"k2 c #c9ccc5",
"l2 c #030303",
"m2 c #d0d4cc",
"n2 c #d1d5cd",
"o2 c #d2d5ce",
"p2 c #d2d6ce",
"q2 c #d3d6cf",
"r2 c #d3d7cf",
"s2 c #8b8b8a",
"t2 c #858584",
"u2 c #cacdc6",
"v2 c #cacec6",
"w2 c #c9ccc6",
"x2 c #b0b3bc",
"y2 c #b1b3bd",
"z2 c #b1b4bd",
"03 c #b2b4be",
"13 c #b2b5be",
"23 c #b3b5bf",
"33 c #b3b7c0",
"43 c #000000",
"53 c #b4b8c1",
"63 c #b5b8c2",
"73 c #b5b9c2",
"83 c #b6b9c3",
"93 c #b7b9c3",
":3 c #b7bac3",
";3 c #b8bac4",
"A3 c #b8bbc4",
"B3 c #b9bbc5",
"C3 c #c3c7ca",
"D3 c #d5d9d1",
"E3 c #868686",
"F3 c #7d7d7c",
"G3 c #8b8dae",
"H3 c #2a2a85",
"I3 c #3c3d89",
"J3 c #3b3c89",
"K3 c #3b3b89",
"L3 c #3b3b88",
"M3 c #0d0d1f",
"N3 c #0d0d1e",
"O3 c #3a3a87",
"P3 c #3a3a86",
"Q3 c #393a86",
"R3 c #393a85",
"S3 c #383985",
"T3 c #2d2d88",
"U3 c #d6d9d2",
"V3 c #818181",
"W3 c #737473",
"X3 c #daddd8",
"Y3 c #cbcec7",
"Z3 c #9b9db5",
"a3 c #3c3c86",
"b3 c #51518a",
"c3 c #515189",
"d3 c #505089",
"e3 c #505088",
"f3 c #4f4f88",
"g3 c #4f4f87",
"h3 c #12121f",
"i3 c #12121e",
"j3 c #56568a",
"k3 c #565689",
"l3 c #555589",
"m3 c #555588",
"n3 c #545487",
"o3 c #515185",
"p3 c #4a4a80",
"q3 c #494980",
"r3 c #49497f",
"s3 c #474891",
"t3 c #d6dad2",
"u3 c #eeefec",
"v3 c #7d7d7d",
"w3 c #6d6e6d",
"x3 c #dcdeda",
"y3 c #cbcfc7",
"z3 c #a7aaba",
"04 c #3b3b85",
"14 c #4e4e86",
"24 c #4e4e85",
"34 c #4d4d85",
"44 c #4d4d84",
"54 c #4c4c84",
"64 c #4c4c83",
"74 c #4b4a7d",
"84 c #584a44",
"94 c #aaa296",
":4 c #c9c9cd",
";4 c #b2b2be",
"A4 c #47477c",
"B4 c #46467c",
"C4 c #4a4c92",
"D4 c #d7dad4",
"E4 c #edeeeb",
"F4 c #7d7e7d",
"G4 c #dfe1dc",
"H4 c #b4b8be",
"I4 c #393985",
"J4 c #4b4b82",
"K4 c #525286",
"L4 c #535386",
"M4 c #535385",
"N4 c #525285",
"O4 c #525078",
"P4 c #5e4d3e",
"Q4 c #563e11",
"R4 c #5c410c",
"S4 c #505080",
"T4 c #505083",
"U4 c #505082",
"V4 c #4f4f82",
"W4 c #4f4f81",
"X4 c #4e4e80",
"Y4 c #4d4d7f",
"Z4 c #4b4b7d",
"a4 c #444478",
"b4 c #434378",
"c4 c #4e4f93",
"d4 c #d9ddd5",
"e4 c #eaece9",
"f4 c #828282",
"g4 c #e1e3de",
"h4 c #cccfc8",
"i4 c #c2c5c5",
"j4 c #373784",
"k4 c #48487f",
"l4 c #48487e",
"m4 c #b9b9c3",
"n4 c #b4afa8",
"o4 c #846e46",
"p4 c #81652d",
"q4 c #312712",
"r4 c #a99770",
"s4 c #a29784",
"t4 c #c9c9cc",
"u4 c #c8c8cc",
"v4 c #b1b1bd",
"w4 c #48487a",
"x4 c #4c4c7d",
"y4 c #4b4b7b",
"z4 c #525396",
"05 c #dbded8",
"15 c #e7e9e6",
"25 c #858685",
"35 c #585858",
"45 c #e3e5e1",
"55 c #343484",
"65 c #46467b",
"75 c #45457b",
"85 c #45457a",
"95 c #444479",
":5 c #4a4462",
";5 c #634924",
"A5 c #8a6c34",
"B5 c #c9aa60",
"C5 c #dcc17c",
"D5 c #cbb070",
"E5 c #634a1f",
"F5 c #414175",
"G5 c #414174",
"H5 c #404074",
"I5 c #454576",
"J5 c #4d4d7c",
"K5 c #50507f",
"L5 c #50507e",
"M5 c #51517f",
"N5 c #494978",
"O5 c #565798",
"P5 c #dde0d9",
"Q5 c #e4e6e3",
"R5 c #878787",
"S5 c #555555",
"T5 c #e4e5e2",
"U5 c #cdd0c9",
"V5 c #cdd1c9",
"W5 c #373886",
"X5 c #434377",
"Y5 c #424277",
"Z5 c #424276",
"a5 c #4c434f",
"b5 c #634715",
"c5 c #b89347",
"d5 c #dfc889",
"e5 c #e0ce93",
"f5 c #e0cf97",
"g5 c #91763c",
"h5 c #494053",
"i5 c #3e3e70",
"j5 c #3e3e71",
"k5 c #454575",
"l5 c #4e4e7c",
"m5 c #51517e",
"n5 c #464677",
"o5 c #5f619c",
"p5 c #dee2db",
"q5 c #e1e2e0",
"r5 c #898a89",
"s5 c #595959",
"t5 c #e0e1de",
"u5 c #ced2ca",
"v5 c #3b3b87",
"w5 c #404073",
"x5 c #3f3f73",
"y5 c #3f3f72",
"z5 c #52443f",
"06 c #684b15",
"16 c #a1721b",
"26 c #cb942b",
"36 c #ddc584",
"46 c #e6ddae",
"56 c #d9c68c",
"66 c #5f461c",
"76 c #3c3c6f",
"86 c #3c3c6e",
"96 c #3b3b6d",
":6 c #434373",
";6 c #4e4e7b",
"A6 c #52527e",
"B6 c #53537f",
"C6 c #555580",
"D6 c #424275",
"E6 c #6e6fa4",
"F6 c #e1e4de",
"G6 c #dddedc",
"H6 c #8a8a8a",
"I6 c #5d5d5d",
"J6 c #dddeda",
"K6 c #d1d4cd",
"L6 c #ced1ca",
"M6 c #3e3f89",
"N6 c #3d3d70",
"O6 c #3d3d6f",
"P6 c #3d3d6d",
"Q6 c #58442f",
"R6 c #6e4f16",
"S6 c #ac7a1d",
"T6 c #cf9934",
"U6 c #d9b671",
"V6 c #7c612d",
"W6 c #423c53",
"X6 c #3a3a6b",
"Y6 c #39396b",
"Z6 c #39396a",
"a6 c #3c3c6d",
"b6 c #4c4c78",
"c6 c #53537e",
"d6 c #54547e",
"e6 c #55557f",
"f6 c #575780",
"g6 c #3d3d75",
"h6 c #7f81ac",
"i6 c #e2e5df",
"j6 c #d9dad7",
"k6 c #8b8b89",
"l6 c #5f5f5f",
"m6 c #d8dad7",
"n6 c #d2d6cf",
"o6 c #42438b",
"p6 c #3a3a6c",
"q6 c #3c3a67",
"r6 c #5c4423",
"s6 c #795616",
"t6 c #b5801e",
"u6 c #d19d3c",
"v6 c #ddb770",
"w6 c #d5af69",
"x6 c #725725",
"y6 c #473c4a",
"z6 c #373768",
"07 c #363667",
"17 c #373767",
"27 c #464672",
"37 c #53537d",
"47 c #54547d",
"57 c #55557e",
"67 c #56567f",
"77 c #58587f",
"87 c #595980",
"97 c #393973",
":7 c #9093b4",
";7 c #e4e7e2",
"A7 c #d3d5d2",
"B7 c #8b8b8b",
"C7 c #626261",
"D7 c #d4d6d3",
"E7 c #d5d7d1",
"F7 c #cfd2cb",
"G7 c #47478d",
"H7 c #3c395e",
"I7 c #5e441a",
"J7 c #835d16",
"K7 c #bc851f",
"L7 c #d3a145",
"M7 c #cea863",
"N7 c #6c5120",
"O7 c #40394f",
"P7 c #353565",
"Q7 c #343464",
"R7 c #343463",
"S7 c #3c3c6a",
"T7 c #50507a",
"U7 c #55557d",
"V7 c #56567e",
"W7 c #57577e",
"X7 c #5a5a80",
"Y7 c #5b5b80",
"Z7 c #353570",
"a7 c #a4a6bf",
"b7 c #e6e8e3",
"c7 c #cfd0ce",
"d7 c #898989",
"e7 c #656665",
"f7 c #d0d1ce",
"g7 c #d6d9d3",
"h7 c #cfd3cb",
"i7 c #d0d3cc",
"j7 c #4e4977",
"k7 c #5f4516",
"l7 c #8b6217",
"m7 c #c28a21",
"n7 c #cb9023",
"o7 c #d6a74f",
"p7 c #c6a15b",
"q7 c #654a1c",
"r7 c #3a3654",
"s7 c #323262",
"t7 c #323261",
"u7 c #313160",
"v7 c #343462",
"w7 c #494973",
"x7 c #57577d",
"y7 c #58587e",
"z7 c #59597f",
"08 c #5e5e82",
"18 c #373775",
"28 c #b0b3c4",
"38 c #e7eae5",
"48 c #c9cbc8",
"58 c #666666",
"68 c #cbccc9",
"78 c #d8dad5",
"88 c #bbbdb9",
"98 c #a7a28d",
":8 c #634718",
";8 c #936918",
"A8 c #c68d21",
"B8 c #cc9125",
"C8 c #d8ab58",
"D8 c #bb9652",
"E8 c #61461c",
"F8 c #353255",
"G8 c #30305e",
"H8 c #2f2f5e",
"I8 c #2f2f5d",
"J8 c #31315e",
"K8 c #42426c",
"L8 c #55557b",
"M8 c #5a5a7e",
"N8 c #5e5e81",
"O8 c #5f5f82",
"P8 c #363677",
"Q8 c #bcc0ca",
"R8 c #e9ece7",
"S8 c #c5c5c3",
"T8 c #666766",
"U8 c #c6c7c5",
"V8 c #dbddd8",
"W8 c #9a9075",
"X8 c #6e521b",
"Y8 c #9d6f1a",
"Z8 c #c98f22",
"a8 c #cc9328",
"b8 c #d9af60",
"c8 c #deb873",
"d8 c #ad8a49",
"e8 c #5b431d",
"f8 c #302e56",
"g8 c #2d2d5b",
"h8 c #2d2d5a",
"i8 c #2e2e5b",
"j8 c #3f3f69",
"k8 c #55557a",
"l8 c #5a5a7d",
"m8 c #5b5b7e",
"n8 c #5c5c7f",
"o8 c #5f5f81",
"p8 c #636384",
"q8 c #37377a",
"r8 c #cacecf",
"s8 c #ebede8",
"t8 c #bfbfbe",
"u8 c #656565",
"v8 c #bfc1be",
"w8 c #988764",
"x8 c #72541a",
"y8 c #a6751b",
"z8 c #cd952c",
"09 c #dbb266",
"19 c #ddb772",
"29 c #9c7b3d",
"39 c #554022",
"49 c #2d2c56",
"59 c #2b2b58",
"69 c #2f2f5b",
"79 c #414169",
"89 c #555579",
"99 c #5d5d80",
":9 c #5e5e80",
";9 c #606082",
"A9 c #616182",
"B9 c #626283",
"C9 c #646484",
"D9 c #666685",
"E9 c #35367b",
"F9 c #d6dad5",
"G9 c #ecefea",
"H9 c #b9bab8",
"I9 c #63615d",
"J9 c #7e693f",
"K9 c #7e5921",
"L9 c #b07c1e",
"M9 c #cf9832",
"N9 c #dcb56c",
"O9 c #dcb76f",
"P9 c #8b6c32",
"Q9 c #4f3c29",
"R9 c #2a2a55",
"S9 c #373760",
"T9 c #4c4c71",
"U9 c #5d5d7f",
"V9 c #5f5f80",
"W9 c #606081",
"X9 c #626282",
"Y9 c #636383",
"Z9 c #676786",
"a9 c #686886",
"b9 c #35357d",
"c9 c #eef0ec",
"d9 c #b2b3b1",
"e9 c #664b17",
"f9 c #a2796b",
"g9 c #b37c62",
"h9 c #cb9022",
"i9 c #d19c3a",
"j9 c #ddb76f",
"k9 c #d9b36d",
"l9 c #7e602a",
"m9 c #504239",
"n9 c #4a4a6f",
"o9 c #59597b",
"p9 c #5c5c7e",
"q9 c #676785",
"r9 c #686885",
"s9 c #696986",
"t9 c #6a6a87",
"u9 c #6b6b87",
"v9 c #37377e",
"w9 c #dce0d8",
"x9 c #eff1ed",
"y9 c #adadac",
"z9 c #67450f",
"0: c #9d371d",
"1: c #aeaeae",
"2: c #b6aeae",
"3: c #d49162",
"4: c #deb872",
"5: c #d5af67",
"6: c #745724",
"7: c #5f5554",
"8: c #646482",
"9: c #656583",
":: c #6b6b86",
";: c #6c6c87",
"A: c #6f6f89",
"B: c #70708a",
"C: c #393a7f",
"D: c #f1f3ef",
"E: c #a4a4a4",
"F: c #66410d",
"G: c #a3250e",
"H: c #c51111",
"I: c #c38a8a",
"J: c #b9b9b9",
"K: c #bebebe",
"L: c #cab9b5",
"M: c #85693f",
"N: c #423b56",
"O: c #60607f",
"P: c #61617f",
"Q: c #616180",
"R: c #626280",
"S: c #636381",
"T: c #656582",
"U: c #666683",
"V: c #676784",
"W: c #6a6a86",
"X: c #6e6e87",
"Y: c #6e6e88",
"Z: c #393980",
"a: c #f2f4f1",
"b: c #9c9c9c",
"c: c #a23a11",
"d: c #cf1313",
"e: c #f71b1b",
"f: c #fe4848",
"g: c #ea8f8f",
"h: c #ddac9e",
"i: c #7f6435",
"j: c #a4a2a1",
"k: c #3b3c76",
"l: c #646481",
"m: c #656581",
"n: c #666682",
"o: c #676783",
"p: c #686884",
"q: c #696985",
"r: c #3f4085",
"s: c #f3f5f2",
"t: c #969696",
"u: c #a44615",
"v: c #ff1f1f",
"w: c #ff5151",
"x: c #ff8282",
"y: c #e6a487",
"z: c #775d2c",
"0; c #b2b1a6",
"1; c #c3c5c9",
"2; c #3c3c7a",
"3; c #676782",
"4; c #686883",
"5; c #696984",
"6; c #6a6a85",
"7; c #6b6b85",
"8; c #6c6c86",
"9; c #6d6d87",
":; c #6f6f88",
";; c #707089",
"A; c #71718a",
"B; c #72728b",
"C; c #73738b",
"D; c #74748c",
"E; c #74748d",
"F; c #75758d",
"G; c #76768e",
"H; c #787890",
"I; c #797990",
"J; c #7a7a91",
"K; c #7b7b92",
"L; c #7c7c93",
"M; c #7e7e95",
"N; c #77778f",
"O; c #444589",
"P; c #dde1d9",
"Q; c #f4f6f3",
"R; c #909090",
"S; c #684b0f",
"T; c #b15c30",
"U; c #dd8464",
"V; c #bb8b63",
"W; c #826b3c",
"X; c #c5c5bc",
"Y; c #babcb7",
"Z; c #cfd3ce",
"a; c #30317c",
"b; c #4e4e75",
"c; c #505077",
"d; c #57577c",
"e; c #58587c",
"f; c #59597d",
"g; c #59597e",
"h; c #5a5a7f",
"i; c #5b5b7f",
"j; c #5c5c80",
"k; c #5e5e7f",
"l; c #5f5f7f",
"m; c #606080",
"n; c #616181",
"o; c #626281",
"p; c #636382",
"q; c #646483",
"r; c #656584",
"s; c #666684",
"t; c #5e5e7e",
"u; c #45468b",
"v; c #dee2da",
"w; c #f2f3f1",
"x; c #7c786c",
"y; c #eeefed",
"z; c #d4d8d0",
"0A c #d5d8d1",
"1A c #8588ac",
"2A c #7e80a7",
"3A c #7e81a7",
"4A c #7d80a8",
"5A c #7174a3",
"6A c #7274a3",
"7A c #7375a4",
"8A c #7376a4",
"9A c #7476a4",
":A c #7476a5",
";A c #7072a2",
"AA c #6d6ea0",
"BA c #6d6fa0",
"CA c #696b9f",
"DA c #61639c",
"EA c #9497b7",
"FA c #dfe3dc",
"GA c #eff1ee",
"HA c #929292",
"IA c #787878",
"JA c #e8ebe6",
"KA c #e9eae6",
"LA c #e9ebe6",
"MA c #e9ebe7",
"NA c #eaebe8",
"OA c #eaece8",
"PA c #ebede9",
"QA c #eceeea",
"RA c #edefeb",
"SA c #eef0ed",
"TA c #f0f2ee",
"UA c #e7e8e5",
"VA c #949493",
"WA c #7a7a7a",
"XA c #8b8d8b",
"YA c #acadab",
"ZA c #adaeac",
"aA c #aeafad",
"bA c #afafae",
"cA c #afb0af",
"dA c #b0b1af",
"eA c #b1b2b0",
"fA c #b2b2b1",
"gA c #b3b3b2",
"hA c #b4b5b3",
"iA c #b5b5b4",
"jA c #b5b6b5",
"kA c #b6b7b5",
"lA c #b8b8b7",
"mA c #b8b9b8",
"nA c #bbbcb9",
"oA c #bcbcbb",
"pA c #bcbdbb",
"qA c #b9bbb8",
"rA c #b7b8b6",
"sA c #b5b6b4",
"tA c #999a99",
"                                                                                                ",
"                                                                                                ",
"                                                                                                ",
"                                                                                                ",
"                                                                                                ",
"            tAsArArArArArAqApApApApApAoAnAqAmAlArArAkAjAiAhAhAgAfAeAdAdAcAbAaAZAYAXAWA          ",
"          VAUATASASASASASARARAQAQAQAQAQAQAPAPAPAPAPAPAOAOAOAOAOAOANAMAMAMALALAKAJASAIA          ",
"          HAGAFAEADADADACABAAAAAAA;A:A:A9A9A9A8A8A8A7A7A7A6A6A6A5A4A3A2A2A1A0Az;z;y;x;          ",
"          HAw;v;u;t;s;r;r;q;p;p;o;n;m;m;l;l;k;j;j;i;h;g;g;f;e;d;c;c;c;b;b;a;Z;Y;X;W;V;U;T;S;    ",
"          R;Q;P;O;N;M;L;L;K;K;J;I;H;N;G;F;E;D;C;B;A;;;:;:;9;8;7;6;6;5;4;3;2;1;0;z:y:x:w:v:u:    ",
"          t:s:P;r:G;I;H;N;G;F;E;D;C;B;A;;;:;:;9;8;7;6;6;q:p:p:o:n:n:m:l:l:k:j:i:h:g:f:e:d:c:    ",
"          b:a:P;Z:E;D;C;B;A;;;:;Y:X:9;8;W:6;6;q:5;p:V:U:U:T:l:S:S:R:Q:P:O:N:M:L:K:J:I:H:G:F:    ",
"          E:D:P;C:B:A::;Y:9;;:::::W:W:q:V:p:V:U:9:T:8:S:o;o;Q:O:l;l;k;k;7:6:5:4:3:2:1:0:z9      ",
"          y9x9w9v9u9t9u9W:s9r9r9q9V:s;9:9:q;8:S:o;n;Q:m;l;l;l;k;p9o9n9m9l9k9j9i9h9g9f9e9        ",
"          d9c9w9b9a9a9Z9q9s;r;9:q;Y9p;X9o;n;W9m;m;V9U9U9U9p9p9T9S9R9Q9P9O9N9M9h9L9K9J9I9        ",
"          H9G9F9E9D9r;C9q;Y9B9A9n;;9;9W9V9:9U999k;U9p9p9897969594939291909z8h9y8x8w8v8u8        ",
"          t8s8r8q8p8B9A9;9A9o8o8:9V9o8:9U9U9n8m8m8l8k8j8i8h8g8f8e8d8c8b8a8Z8Y8X8W8V8U8T8        ",
"          S8R8Q8P8O8O8o8o8o8N8:9n8j;n8i;M8M8g;f;L8K8J8I8H8G8F8E8D8c8C8B8A8;8:89888786858        ",
"          4838281808999999j;i;i;h;z7g;g;y7x7d;w7v7u7t7t7s7r7q7p7c8o7n7m7l7k7j7i7h7g7f7e7        ",
"        d7c7b7a7Z7j;Y7X7X7z7z7z7y7W7V7U7U7T7S7R7Q7Q7P7P7O7N7M74:L7h9K7J7I7H7G7h7F7E7D7C7        ",
"        B7A7;7:7978787777767575757U7473727170717z6z6z6y6x6w6v6u6h9t6s6r6q6p6o6F7F7n6m6l6        ",
"        k6j6i6h6g6f667675757e6d637c6b6a6Z6Z6Y6Y6X6p6W6V6U6N9T6h9S6R6Q6P6O6N6M6F7L6K6J6I6        ",
"        H6G6F6E6D6C6e6d6B6c6c6A6;6:696969686868676O666564636261606z5y5x5w5w5v5L6L6u5t5s5        ",
"        r5q5p5o5n5B6A6A6m5m5l5k5j5N6i5j5j5j5y5y5y5h5g5f5e5d5c5b5a5Z5Z5Z5Y5X5W5L6V5U5T5S5        ",
"        R5Q5P5O5N5M5L5K5J5I5x5w5w5H5H5G5F5F5Z5Z5D6E5D5C5B5A5;5:595958585756555U5U5U54535        ",
"        251505z4y4x4w4v4u4u4u4u4u4u4u4t4t4t4t4t4s4r4q4p4o4n4t4t4t4t4t4m4l4k4j4i4U5h4g4l6        ",
"        f4e4d4c4b4a495Z4Y4X4X4X4W4W4V4V4U4T4T4S4R4Q4P4O4N4N4N4M4L4L4L4K4J4J4I4H4h4h4G4u8        ",
"        F4E4D4C4B4B4A4;4t4t4t4t4t4t4t4:4:4:4:4948474J4J46464645444443434241404z3h4y3x3w3        ",
"        v3u3t3s3r3q3p3o3L4L4n3n3n3n3m3m3m3l3k3j3i3h3141414h3h3g3f3e3e3d3c3b3a3Z3Y3Y3X3W3        ",
"        V3QAU3T3S3S3S3R3R3Q3Q3P3P3P3P3P3P3O3O3O3N3M3L3L3L3N3M3L3K3J3J3J3J3I3H3G3Y3Y378F3        ",
"        E3OAD3C3B3A3A3;3;3:39393838383736363534343334343432323130303z2y2y2x2x2w2v2u2g7t2        ",
"        s2LAr2q2p2p2o2n2n2K6m2m2i7i7h7U5l24343434343434343434343Y3u2u2u2k2k2k2j2j2j2i2h2        ",
"        g2MAf2e2e2d2c2c2c2b2a2a2Z2Y2Y2X2W243V2U2U2T2S2S2S2R2R2R2Q2Q2Q2V2V2V2P2P2P2O2N2M2        ",
"        L2K2D7J2J2I2H2G2A7F2E2D2C2f7c7B2A243;2:268928272626252423222221202z1y1y1x1w1v1u1        ",
"          t1s1s1r1t1q1p1o1n1m1u8l1k1j1i1h143g1f1e1d1d1c1b1a1Z1Y1X1W1X1V1U1T1S1R1Q1Q1u1          ",
"                                P1O1N1M1L1K1J1I1H1H1H1G1F1E1D1C1                                ",
"                              B1A1;1:191818181717171717161:1514131                              ",
"                            211101:1:1z0y0y0y0y0y0y0y0y0x0:1:1w0v0u0                            ",
"                            t071s0r0Q2:1q0q0q0q0q0q0q0q0w0P2p0o0n031                            ",
"                            m0l0k0j0E2G2i0h0g0f0e0Y;d0c0b0a0Z0Y0X0W0                            ",
"                              V0U0T0S0R0Q0A7P0O0N0P0F222M0L0K0J0I0                              ",
"                                  H0G0F0E0T0D0C0B0A0;0:090807060                                ",
"                                        5040313020G0311000                                      ",
"                                                                                                ",
"                                                                                                ",
"                                                                                                ",
"                                                                                                ",
"                                                                                                "};
