/* XPM */
static char *image[] = {
"32 32 12 1",
"  c None",
"0 c #585858",
"1 c #00ffff",
"2 c #004040",
"3 c #00c0c0",
"4 c #008080",
"5 c #a0a0a0",
"6 c #c3c3c3",
"7 c #dcdcdc",
"8 c #ffffff",
"9 c #808080",
": c #000000",
"          :::::::::::::::     9:",
"         :877666665555579:    9:",
"        :8888888888887799:    9:",
"        :8888888777776699:    9:",
"        :8844343444427699:    9:",
"        :8843311333447699:    9:",
"        :8843113334447699:    9:",
"        :8843131333447699:    9:",
"        :8743333334447699:    9:",
"        :8743333434447699:    9:",
"        :8744434344447699:    9:",
"        :87887777777766957:   9:",
"        :77666666666666670:   9:",
"   :::::::::::::::5599689099996:",
"  :877666665555579:7777590::::9:",
" :8888888888887799:6666590:   9:",
" :8888888777776699:777599:    9:",
" :8844343444427699:99999:     9:",
" :8843311333447699::::::      9:",
" :8843113334447699:           9:",
" :8843131333447699:           9:",
" :8743333334447699:           9:",
" :8743333434447699:           9:",
" :8744434344447699:           9:",
" :87887777777766957:          9:",
" :77666666666666670:         99:",
":886955666655996890:9999999999: ",
":877777777777777590:::::::::::  ",
":766666666666666590:            ",
":75555555557777599:             ",
":7999999999999999:              ",
":::::::::::::::::               "};
