/* XPM */
static char *image[] = {
"48 48 903 2",
"   c None",
"00 c #4b4e49",
"10 c #52564f",
"20 c #525650",
"30 c #4e504b",
"40 c #545951",
"50 c #72756e",
"60 c #848782",
"70 c #8f918c",
"80 c #91938e",
"90 c #969893",
":0 c #a0a19d",
";0 c #aaaba8",
"A0 c #acada9",
"B0 c #b0b1ad",
"C0 c #b2b3af",
"D0 c #b5b6b3",
"E0 c #b9bab7",
"F0 c #bbbcb9",
"G0 c #bebfbd",
"H0 c #c8c8c6",
"I0 c #cbccca",
"J0 c #cdcecb",
"K0 c #cecfcd",
"L0 c #bfc0be",
"M0 c #9c9e9a",
"N0 c #83847f",
"O0 c #91938f",
"P0 c #949692",
"Q0 c #8d8e8a",
"R0 c #858783",
"S0 c #7c7d78",
"T0 c #868883",
"U0 c #c2c3c0",
"V0 c #595d56",
"W0 c #52554e",
"X0 c #72756f",
"Y0 c #848681",
"Z0 c #787a75",
"a0 c #787974",
"b0 c #ea1312",
"c0 c #b6b7b4",
"d0 c #9fa19d",
"e0 c #555851",
"f0 c #7b7d77",
"g0 c #858682",
"h0 c #777974",
"i0 c #eb2221",
"j0 c #f58b8b",
"k0 c #5d615b",
"l0 c #90918c",
"m0 c #787b76",
"n0 c #72746f",
"o0 c #6a6c67",
"p0 c #676964",
"q0 c #6c6d68",
"r0 c #80827c",
"s0 c #d8d8d7",
"t0 c #5f635c",
"u0 c #92938e",
"v0 c #95908f",
"w0 c #9c9c9c",
"x0 c #9b9b9b",
"y0 c #999999",
"z0 c #989898",
"01 c #969696",
"11 c #959595",
"21 c #949494",
"31 c #929292",
"41 c #919191",
"51 c #909090",
"61 c #8f8f8f",
"71 c #8a8585",
"81 c #80817d",
"91 c #7c7e79",
":1 c #848680",
";1 c #dbdcda",
"A1 c #62665e",
"B1 c #949591",
"C1 c #959190",
"D1 c #3d2121",
"E1 c #1a0101",
"F1 c #371a1a",
"G1 c #898484",
"H1 c #888a85",
"I1 c #dcdddc",
"J1 c #656861",
"K1 c #959792",
"L1 c #898787",
"M1 c #8d8e89",
"N1 c #dededd",
"O1 c #676b64",
"P1 c #979994",
"Q1 c #4a0804",
"R1 c #140201",
"S1 c #490804",
"T1 c #888585",
"U1 c #8a8c88",
"V1 c #90928e",
"W1 c #dfe0de",
"X1 c #6a6e66",
"Y1 c #620000",
"Z1 c #610000",
"a1 c #600000",
"b1 c #5f0000",
"c1 c #5e0000",
"d1 c #5d0000",
"e1 c #5c0000",
"f1 c #1a0000",
"g1 c #868383",
"h1 c #8d8f8a",
"i1 c #959692",
"j1 c #e0e1e0",
"k1 c #6d7169",
"l1 c #9b9d98",
"m1 c #540804",
"n1 c #610c09",
"o1 c #640e0b",
"p1 c #5c0b07",
"q1 c #530804",
"r1 c #170201",
"s1 c #520804",
"t1 c #570804",
"u1 c #5a0804",
"v1 c #580804",
"w1 c #510804",
"x1 c #500804",
"y1 c #1c0000",
"z1 c #848181",
"02 c #92948f",
"12 c #999b96",
"22 c #e2e2e1",
"32 c #70736c",
"42 c #9d9e9a",
"52 c #700000",
"62 c #6f0000",
"72 c #c26060",
"82 c #df9595",
"92 c #a53b3b",
":2 c #6e0000",
";2 c #6d0000",
"A2 c #6c0000",
"B2 c #b14a4a",
"C2 c #e29898",
"D2 c #b85252",
"E2 c #6b0000",
"F2 c #6a0000",
"G2 c #1e0000",
"H2 c #837f7f",
"I2 c #969794",
"J2 c #9e9f9b",
"K2 c #e3e3e2",
"L2 c #72766e",
"M2 c #9d9c9c",
"N2 c #5f0804",
"O2 c #5e0804",
"P2 c #5d0804",
"Q2 c #610804",
"R2 c #690d0a",
"S2 c #190201",
"T2 c #5c0804",
"U2 c #5b0804",
"V2 c #660906",
"W2 c #200000",
"X2 c #817d7d",
"Y2 c #9a9c97",
"Z2 c #a2a4a0",
"a2 c #e4e5e3",
"b2 c #757971",
"c2 c #a1a39e",
"d2 c #7e0000",
"e2 c #7d0000",
"f2 c #7c0000",
"g2 c #830303",
"h2 c #b34a4a",
"i2 c #e7afaf",
"j2 c #b04444",
"k2 c #7a0000",
"l2 c #790000",
"m2 c #7b0000",
"n2 c #9f2b2b",
"o2 c #d78e8e",
"p2 c #c16161",
"q2 c #220000",
"r2 c #807c7c",
"s2 c #9fa09c",
"t2 c #a6a7a4",
"u2 c #e5e6e5",
"v2 c #787c74",
"w2 c #a3a4a0",
"x2 c #777973",
"y2 c #690804",
"z2 c #680804",
"03 c #eeaaa9",
"13 c #cd7775",
"23 c #932d2a",
"33 c #6c0905",
"43 c #1c0201",
"53 c #660804",
"63 c #650804",
"73 c #670804",
"83 c #d37e7d",
"93 c #d78988",
":3 c #a14441",
";3 c #74110e",
"A3 c #240000",
"B3 c #7f7b7a",
"C3 c #a3a5a1",
"D3 c #aaaca8",
"E3 c #e7e7e6",
"F3 c #7b7e76",
"G3 c #a5a6a2",
"H3 c #787a74",
"I3 c #7a7c76",
"J3 c #9e9c9c",
"K3 c #280000",
"L3 c #8c0000",
"M3 c #8a0000",
"N3 c #8b0000",
"O3 c #b23939",
"P3 c #e39999",
"Q3 c #efb8b8",
"R3 c #ac2d2d",
"S3 c #890000",
"T3 c #880000",
"U3 c #870000",
"V3 c #ae3333",
"W3 c #e09292",
"X3 c #ebaeae",
"Y3 c #b43d3d",
"Z3 c #260000",
"a3 c #7d7979",
"b3 c #a7a8a5",
"c3 c #e8e8e7",
"d3 c #7e8179",
"e3 c #a9aaa6",
"f3 c #7c7e78",
"g3 c #7e807b",
"h3 c #9e9d9c",
"i3 c #2a0000",
"j3 c #740804",
"k3 c #720804",
"l3 c #730804",
"m3 c #952c29",
"n3 c #922623",
"o3 c #1f0201",
"p3 c #710804",
"q3 c #700804",
"r3 c #6f0804",
"s3 c #710905",
"t3 c #942c29",
"u3 c #a23b38",
"v3 c #290202",
"w3 c #290203",
"x3 c #7c7777",
"y3 c #abada9",
"z3 c #b3b5b1",
"04 c #e9eae9",
"14 c #80847c",
"24 c #81837d",
"34 c #83857f",
"44 c #2c0000",
"54 c #9a0000",
"64 c #990000",
"74 c #980000",
"84 c #970000",
"94 c #290000",
":4 c #960000",
";4 c #950000",
"A4 c #970404",
"B4 c #98090a",
"C4 c #9b0f0f",
"D4 c #9c1414",
"E4 c #9d1616",
"F4 c #9d1617",
"G4 c #9d1718",
"H4 c #2d0707",
"I4 c #2c0606",
"J4 c #7a7575",
"K4 c #b8b8b6",
"L4 c #eaebea",
"M4 c #83877e",
"N4 c #b2b4b0",
"O4 c #858782",
"P4 c #888984",
"Q4 c #7e0804",
"R4 c #7d0804",
"S4 c #7c0804",
"T4 c #220201",
"U4 c #7b0804",
"V4 c #7c0b07",
"W4 c #811511",
"X4 c #851c19",
"Y4 c #861e1c",
"Z4 c #87201d",
"a4 c #87211e",
"b4 c #86211f",
"c4 c #872220",
"d4 c #872321",
"e4 c #882422",
"f4 c #300909",
"g4 c #2f0808",
"h4 c #787373",
"i4 c #b3b3b2",
"j4 c #ececeb",
"k4 c #868981",
"l4 c #8a8c86",
"m4 c #8c8e89",
"n4 c #300000",
"o4 c #2f0000",
"p4 c #2e0000",
"q4 c #2d0000",
"r4 c #2f0303",
"s4 c #3a1010",
"t4 c #421a1a",
"u4 c #431b1c",
"v4 c #441c1d",
"w4 c #451d1e",
"x4 c #461e1f",
"y4 c #461f1f",
"z4 c #462021",
"05 c #472122",
"15 c #482223",
"25 c #492324",
"35 c #310a0a",
"45 c #320909",
"55 c #777171",
"65 c #ededed",
"75 c #898c84",
"85 c #bbbdba",
"95 c #8e908b",
":5 c #90918d",
";5 c #320000",
"A5 c #250201",
"B5 c #280605",
"C5 c #341414",
"D5 c #3f201f",
"E5 c #402120",
"F5 c #402222",
"G5 c #412323",
"H5 c #422424",
"I5 c #432525",
"J5 c #442625",
"K5 c #442726",
"L5 c #452827",
"M5 c #452928",
"N5 c #462a2a",
"O5 c #472b2a",
"P5 c #330c0c",
"Q5 c #340b0b",
"R5 c #756f6f",
"S5 c #bbbcba",
"T5 c #c4c6c3",
"U5 c #eeefee",
"V5 c #8b8f86",
"W5 c #c0c1be",
"X5 c #939490",
"Y5 c #949691",
"Z5 c #340000",
"a5 c #b60000",
"b5 c #b50000",
"c5 c #b40000",
"d5 c #b30000",
"e5 c #310000",
"f5 c #340404",
"g5 c #b81515",
"h5 c #bc2222",
"i5 c #bc2324",
"j5 c #bc2425",
"k5 c #bd2525",
"l5 c #bd2626",
"m5 c #bd2727",
"n5 c #bd2829",
"o5 c #be2929",
"p5 c #be2a2a",
"q5 c #bd2b2b",
"r5 c #be2c2c",
"s5 c #be2d2d",
"t5 c #bd2d2e",
"u5 c #be2e2f",
"v5 c #360d0e",
"w5 c #360c0c",
"x5 c #736d6d",
"y5 c #eff0ef",
"z5 c #8e9289",
"06 c #c4c5c2",
"16 c #979995",
"26 c #999a96",
"36 c #9f9d9d",
"46 c #360000",
"56 c #930804",
"66 c #920804",
"76 c #910804",
"86 c #930c08",
"96 c #3b1817",
":6 c #472727",
";6 c #a12e2a",
"A6 c #a12f2c",
"B6 c #a1302d",
"C6 c #a2312d",
"D6 c #a3322e",
"E6 c #a2332f",
"F6 c #a33430",
"G6 c #a23431",
"H6 c #a33532",
"I6 c #a33533",
"J6 c #a43734",
"K6 c #a33735",
"L6 c #a43836",
"M6 c #a43937",
"N6 c #a43a38",
"O6 c #380f0f",
"P6 c #380d0e",
"Q6 c #726d6c",
"R6 c #c8c9c6",
"S6 c #9c9d99",
"T6 c #9d9f9a",
"U6 c #a09d9d",
"V6 c #380000",
"W6 c #c30000",
"X6 c #c20000",
"Y6 c #c10000",
"Z6 c #c20404",
"a6 c #c71717",
"b6 c #cb2929",
"c6 c #572b2b",
"d6 c #582c2c",
"e6 c #cb2d2d",
"f6 c #cb2e2e",
"g6 c #cb2e2f",
"h6 c #cb2f30",
"i6 c #cb3131",
"j6 c #cb3132",
"k6 c #cb3233",
"l6 c #cb3334",
"m6 c #cb3435",
"n6 c #cb3536",
"o6 c #cc3636",
"p6 c #cc3737",
"q6 c #cc3839",
"r6 c #cc393a",
"s6 c #cc3a3b",
"t6 c #3a1111",
"u6 c #3a0f0f",
"v6 c #716b6b",
"w6 c #94978e",
"x6 c #535750",
"y6 c #cccdcb",
"z6 c #a0a29e",
"07 c #a2a39f",
"17 c #9e9b9b",
"27 c #3a0000",
"37 c #9d0804",
"47 c #9c0804",
"57 c #9c0b07",
"67 c #a41f1c",
"77 c #ac3330",
"87 c #ac3532",
"97 c #ad3533",
":7 c #543332",
";7 c #543433",
"A7 c #ad3836",
"B7 c #ae3937",
"C7 c #ae3a38",
"D7 c #ae3b39",
"E7 c #af3c3a",
"F7 c #b03d3a",
"G7 c #b03e3c",
"H7 c #b03f3d",
"I7 c #b0403e",
"J7 c #b1413e",
"K7 c #b1423f",
"L7 c #b14340",
"M7 c #b24441",
"N7 c #b24542",
"O7 c #b14543",
"P7 c #3c1313",
"Q7 c #3c1111",
"R7 c #6f6969",
"S7 c #979a91",
"T7 c #555952",
"U7 c #d0d0ce",
"V7 c #a5a6a3",
"W7 c #a6a8a4",
"X7 c #9c9999",
"Y7 c #3c0000",
"Z7 c #d10000",
"a7 c #d00000",
"b7 c #e75353",
"c7 c #f08484",
"d7 c #f1898a",
"e7 c #f28f8f",
"f7 c #e55454",
"g7 c #d83334",
"h7 c #d83435",
"i7 c #d83536",
"j7 c #633637",
"k7 c #643737",
"l7 c #d83839",
"m7 c #d8393a",
"n7 c #d83a3b",
"o7 c #d83b3c",
"p7 c #d93c3c",
"q7 c #d93d3d",
"r7 c #d93e3e",
"s7 c #e86d6d",
"t7 c #f19fa0",
"u7 c #f2a0a0",
"v7 c #ea7474",
"w7 c #da4444",
"x7 c #d94445",
"y7 c #d84546",
"z7 c #3e1414",
"08 c #3e1213",
"18 c #6e6767",
"28 c #999c94",
"38 c #575b54",
"48 c #a9aba7",
"58 c #abaca9",
"68 c #9a9797",
"78 c #3e0000",
"88 c #a70804",
"98 c #a70b07",
":8 c #ac1714",
";8 c #b12825",
"A8 c #c24240",
"B8 c #c74c4a",
"C8 c #c74c4b",
"D8 c #c74d4c",
"E8 c #bf4341",
"F8 c #b83f3d",
"G8 c #b9403e",
"H8 c #b9413f",
"I8 c #5e3e3d",
"J8 c #5f3f3e",
"K8 c #bb4441",
"L8 c #bb4542",
"M8 c #bb4644",
"N8 c #bb4744",
"O8 c #bc4845",
"P8 c #bc4946",
"Q8 c #bc4a47",
"R8 c #c55452",
"S8 c #c95e5d",
"T8 c #c95f5e",
"U8 c #ca605f",
"V8 c #c75957",
"W8 c #be504d",
"X8 c #bc504e",
"Y8 c #bd514f",
"Z8 c #401616",
"a8 c #401414",
"b8 c #6c6565",
"c8 c #5a5e57",
"d8 c #d6d7d5",
"e8 c #aeafac",
"f8 c #afb0ad",
"g8 c #989595",
"h8 c #400000",
"i8 c #e00909",
"j8 c #e21414",
"k8 c #e32121",
"l8 c #e52d2d",
"m8 c #e53737",
"n8 c #e43839",
"o8 c #e5393a",
"p8 c #e53a3b",
"q8 c #e53b3c",
"r8 c #e43c3d",
"s8 c #e53d3d",
"t8 c #e53e3e",
"u8 c #e74040",
"v8 c #f17576",
"w8 c #ed5b5c",
"x8 c #6e4242",
"y8 c #6f4343",
"z8 c #e54444",
"09 c #e54545",
"19 c #e54546",
"29 c #e44647",
"39 c #e44748",
"49 c #e54949",
"59 c #e54a4a",
"69 c #e54a4b",
"79 c #e44b4c",
"89 c #e44c4d",
"99 c #e44d4e",
":9 c #e44e4f",
";9 c #e65050",
"A9 c #ee7e7f",
"B9 c #ef7c7d",
"C9 c #411718",
"D9 c #411516",
"E9 c #6a6363",
"F9 c #5d615a",
"G9 c #d9dad8",
"H9 c #b3b4b1",
"I9 c #969393",
"J9 c #430c0c",
"K9 c #430f0f",
"L9 c #c23f3d",
"M9 c #c2403e",
"N9 c #c2413f",
"O9 c #c34240",
"P9 c #c44340",
"Q9 c #c44441",
"R9 c #c44542",
"S9 c #c44644",
"T9 c #c44745",
"U9 c #c44845",
"V9 c #c74744",
"W9 c #e68483",
"X9 c #f4acac",
"Y9 c #eb9e9d",
"Z9 c #d05a59",
"a9 c #694849",
"b9 c #6b4a4a",
"c9 c #c6504d",
"d9 c #c7514e",
"e9 c #c5514f",
"f9 c #c55250",
"g9 c #c65351",
"h9 c #c65452",
"i9 c #c75552",
"j9 c #c75554",
"k9 c #c75655",
"l9 c #c75756",
"m9 c #c85857",
"n9 c #e18988",
"o9 c #f4bcbb",
"p9 c #eeb5b3",
"q9 c #d97977",
"r9 c #431919",
"s9 c #431717",
"t9 c #60645c",
"u9 c #dddddc",
"v9 c #b7b8b5",
"w9 c #b7b8b6",
"x9 c #949191",
"y9 c #451111",
"z9 c #451212",
"0: c #f13f3f",
"1: c #f14041",
"2: c #f14142",
"3: c #f14243",
"4: c #f14343",
"5: c #f14444",
"6: c #f14545",
"7: c #f14646",
"8: c #f04647",
"9: c #f04748",
":: c #f24646",
";: c #fb9898",
"A: c #fca7a7",
"B: c #f88384",
"C: c #f15354",
"D: c #794d4e",
"E: c #7a4e4f",
"F: c #f04f50",
"G: c #f05051",
"H: c #ef5152",
"I: c #ef5253",
"J: c #ef5354",
"K: c #f05454",
"L: c #f05555",
"M: c #f05656",
"N: c #f05757",
"O: c #ef5859",
"P: c #f05959",
"Q: c #f99c9c",
"R: c #fcbbbb",
"S: c #f89e9e",
"T: c #f26d6e",
"U: c #441b1b",
"V: c #441919",
"W: c #63665f",
"X: c #e0e1df",
"Y: c #bcbdba",
"Z: c #949090",
"a: c #471313",
"b: c #ce4b48",
"c: c #ce4c49",
"d: c #cf4d4a",
"e: c #ce4d4b",
"f: c #ce4f4c",
"g: c #cf504d",
"h: c #cf514e",
"i: c #cf524f",
"j: c #cf5250",
"k: c #ce5351",
"l: c #ce5452",
"m: c #cf5352",
"n: c #da6060",
"o: c #ed9c9b",
"p: c #e17372",
"q: c #755455",
"r: c #765556",
"s: c #d15a58",
"t: c #d15b59",
"u: c #d15c5a",
"v: c #d05d5c",
"w: c #d15e5d",
"x: c #d25f5d",
"y: c #d2605e",
"z: c #d2615f",
"0; c #d16160",
"1; c #d16261",
"2; c #d16362",
"3; c #d26462",
"4; c #d9706d",
"5; c #eba5a5",
"6; c #e79797",
"7; c #461c1d",
"8; c #461b1b",
"9; c #656962",
":; c #e3e4e2",
";; c #c0c1bf",
"A; c #918d8d",
"B; c #481414",
"C; c #481515",
"D; c #fc4b4b",
"E; c #fc4c4c",
"F; c #fb4c4d",
"G; c #fb4d4e",
"H; c #fb4e4f",
"I; c #fb4f50",
"J; c #fc5151",
"K; c #fb5152",
"L; c #fb5253",
"M; c #fa5354",
"N; c #fa5455",
"O; c #fb5555",
"P; c #fb5656",
"Q; c #fb5757",
"R; c #f95657",
"S; c #85595a",
"T; c #865a5a",
"U; c #fa5b5b",
"V; c #fb5c5c",
"W; c #fa5d5d",
"X; c #f95d5e",
"Y; c #f95e5f",
"Z; c #f95f60",
"a; c #fa6161",
"b; c #f86162",
"c; c #f86263",
"d; c #f96364",
"e; c #f96465",
"f; c #f96566",
"g; c #f96666",
"h; c #f96767",
"i; c #f86869",
"j; c #471e1e",
"k; c #471c1c",
"l; c #696161",
"m; c #c3c4c2",
"n; c #686c64",
"o; c #e6e6e5",
"p; c #c5c6c3",
"q; c #c5c6c4",
"r; c #908d8d",
"s; c #491515",
"t; c #4e1919",
"u; c #4e191a",
"v; c #4e1a1a",
"w; c #4e1b1b",
"x; c #4e1b1c",
"y; c #4e1c1c",
"z; c #4e1c1d",
"0A c #4b1d1d",
"1A c #4c1d1d",
"2A c #4e1e1e",
"3A c #4d1e1e",
"4A c #4d1e1f",
"5A c #4d1f1f",
"6A c #4d1f20",
"7A c #4e2020",
"8A c #4d2020",
"9A c #4d2021",
":A c #4e2121",
";A c #4d2121",
"AA c #4d2222",
"BA c #481e1e",
"CA c #686161",
"DA c #c4c5c3",
"EA c #cccdcc",
"FA c #f0f1f0",
"GA c #6b6f67",
"HA c #e8e9e8",
"IA c #c9cac8",
"JA c #9c8f8e",
"KA c #712f2f",
"LA c #491616",
"MA c #491717",
"NA c #491818",
"OA c #491919",
"PA c #491a1a",
"QA c #491b1b",
"RA c #491b1c",
"SA c #491c1c",
"TA c #491d1d",
"UA c #491e1e",
"VA c #491e1f",
"WA c #491f1f",
"XA c #492020",
"YA c #492021",
"ZA c #492121",
"aA c #482020",
"bA c #702e2e",
"cA c #766969",
"dA c #cdcecc",
"eA c #f0f0ef",
"fA c #737770",
"gA c #dddedd",
"hA c #cfd0ce",
"iA c #bcbcbb",
"jA c #998b8b",
"kA c #848484",
"lA c #828282",
"mA c #818181",
"nA c #7f7f7f",
"oA c #7e7e7e",
"pA c #7d7d7d",
"qA c #7b7b7b",
"rA c #7a7a7a",
"sA c #787878",
"tA c #777777",
"uA c #767676",
"vA c #747474",
"wA c #737373",
"xA c #717171",
"yA c #707070",
"zA c #6f6f6f",
"0B c #6d6d6d",
"1B c #6c6c6c",
"2B c #6a6a6a",
"3B c #696969",
"4B c #686868",
"5B c #676767",
"6B c #666666",
"7B c #646464",
"8B c #636363",
"9B c #616161",
":B c #606060",
";B c #5f5f5f",
"AB c #796b6b",
"BB c #b0b1af",
"CB c #d3d4d2",
"DB c #e7e8e6",
"EB c #757972",
"FB c #c0c2bf",
"GB c #dedfde",
"HB c #d2d3d0",
"IB c #7d7f79",
"JB c #e0e0df",
"KB c #dfe0df",
"LB c #d0d1cf",
"MB c #cacbc9",
"NB c #d1d2d0",
"OB c #e4e5e4",
"PB c #e8e9e7",
"QB c #a5a9a0",
"RB c #80847d",
"SB c #c6c7c4",
"TB c #e3e4e3",
"UB c #efefef",
"VB c #f0f0f0",
"WB c #f1f1f0",
"XB c #f1f2f1",
"YB c #f2f2f2",
"ZB c #f3f3f2",
"aB c #f2f3f2",
"bB c #eaeae9",
"cB c #d4d5d2",
"dB c #a7aaa1",
"eB c #81867e",
"fB c #83867e",
"gB c #81857c",
"hB c #82857d",
"iB c #83877f",
"jB c #858880",
"kB c #878a82",
"lB c #888b83",
"mB c #8a8d84",
"nB c #8b8e86",
"oB c #8d9087",
"pB c #8e9189",
"qB c #90938a",
"rB c #91948c",
"sB c #93968d",
"tB c #94978f",
"uB c #969990",
"vB c #979a92",
"wB c #999c93",
"xB c #9a9d95",
"yB c #9c9f96",
"zB c #9da098",
"0C c #9fa299",
"1C c #a0a49b",
"2C c #a2a59c",
"3C c #a3a69d",
"4C c #a4a79f",
"5C c #a4a79e",
"                                                                                                ",
"                                                                                                ",
"                                                                                                ",
"        5C4C3C2C2C2C2C2C2C2C2C2C2C2C2C2C1C0CzByBxBwBvBuBtBsBrBqBpBoBnBmBlBkBjBiBhBgBfBeB        ",
"      dBcBbBaBZBZBZBZBZBZBZBZBZBZBZBZBZBZBZBZBZBZBZBZBZBZBZBZBZBZBZBZBZBZBYBXBWBVBUBTBSBRB      ",
"    QBPBOBNBMBMBMBMBMBMBMBMBMBMBMBMBMBMBMBMBMBMBMBMBMBMBMBMBMBMBMBMBMBMBMBMBMBMBMBMBLBKBJBIB    ",
"  5CHBOBMBMBMBMBMBMBMBMBMBMBMBMBMBMBMBMBMBMBMBMBMBMBMBMBMBMBMBMBMBMBMBMBMBMBMBMBMBMBMBMBGBFBEB  ",
"  4CDBCBMBBBAB;B;B;B;B;B;B;B:B9B8B7B6B5B4B3B2B1B0BzAyAxAwAvAuAtAsArAqApAoAnAmAlAkAjAiAMBhAgAfA  ",
"  3CeAdAMBcAbAaAZAZAYAXAXAWAWAWAVAUAUATATATATASASARAQAQAQAPAPAPAOAOAOAOANANAMAMALAKAJAMBIAHAGA  ",
"  2CFAEADACABAaAAA;A;A:A9A8A8A7A6A5A5A4A3A2A2A1A0Az;y;y;y;y;x;w;w;v;v;v;u;t;t;t;MAs;r;q;p;o;n;  ",
"  2CFAEAm;l;k;j;i;h;g;f;e;d;c;b;a;Z;Y;X;W;V;U;T;S;R;Q;P;O;N;M;L;K;J;I;H;G;F;E;D;C;B;A;;;;;:;9;  ",
"  2CFAEAm;l;8;7;6;5;4;3;2;1;0;z:y:x:w:v:u:t:s:r:q:p:o:n:m:l:k:j:i:h:g:f:e:d:c:b:a:a:Z:Y:Y:X:W:  ",
"  2CFAEAm;l;V:U:T:S:R:Q:P:O:N:M:L:K:J:I:H:G:F:E:D:C:B:A:;:::9:8:7:6:5:4:3:2:1:0:z9y9x9w9v9u9t9  ",
"  2CFAEAm;l;s9r9q9p9o9n9m9l9k9j9i9h9g9f9e9d9c9b9a9Z9Y9X9W9V9U9T9S9R9Q9P9O9N9M9L9K9J9I9H9H9G9F9  ",
"  0CFAEAm;E9D9C9B9A9;9:999897969594939291909z8y8x8w8v8u8t8s8r8q8p8o8n8m8l8k8j8i8h8h8g8f8e8d8c8  ",
"  yBFAEAm;b8a8Z8Y8X8W8V8U8T8S8R8Q8P8O8N8M8L8K8J8I8H8G8F8E8D8C8B8A8;8:898888888887878685848CB38  ",
"  28FAEAm;1808z7y7x7w7v7u7u7t7s7r7q7p7o7n7m7l7k7j7i7h7g7f7e7d7c7b7a7a7Z7Z7Z7Z7Z7Y7Y7X7W7V7U7T7  ",
"  S7FAEADAR7Q7P7O7N7M7L7K7J7I7H7G7F7E7D7C7B7A7;7:797877767574747474747373737373727271707z6y6x6  ",
"  w6FAEADAv6u6t6s6r6q6p6o6n6m6l6k6j6i6h6g6f6e6d6c6b6a6Z6Y6X6X6X6X6X6W6W6W6W6W6W6V6V6U6T6S6R6x6  ",
"  rBFAEAm;Q6P6O6N6M6L6K6J6I6H6G6F6E6D6C6B6A6;6:696867676767676767676666666666656464636261606x6  ",
"  z5y5IA;;x5w5v5u5t5s5r5q5p5o5n5m5l5k5j5i5h5g5f5e5d5d5d5c5c5c5c5c5c5b5b5b5b5b5a5Z5Z536Y5X5W5x6  ",
"  V5U5T5S5R5Q5P5O5N5M5L5K5J5I5H5G5F5E5D5C5B5A5A5A5A5A5A5A5A5A5A5A5A5A5A5A5A5A5A5e5;536:59585x6  ",
"  7565W5v9554535251505z4y4x4w4v4u4t4s4r4q4q4q4q4q4q4q4q4p4p4p4p4p4p4p4p4p4p4p4p4o4n436m4l4v9x6  ",
"  k4j485i4h4g4f4e4d4c4b4a4Z4Y4X4W4V4U4U4U4U4U4T4T4S4S4S4S4S4S4S4S4R4R4R4R4R4Q4Q4p4p436P4O4N4x6  ",
"  M4L4K4f8J4I4H4G4F4E4D4C4B4A4;4;4:4:4:4:4:4:494948484847474747474646464646454544444363424e8x6  ",
"  1404z3y3x3w3v3u3t3s3r3q3q3q3q3q3p3p3p3p3p3p3o3o3n3m3l3k3k3k3k3k3l3l3l3l3l3j3j3i3i3h3g3f3e3x6  ",
"  d3c3f8b3a3Z3Z3Y3X3W3V3U3U3U3U3U3T3T3T3T3T3S3Z3Z3R3Q3P3O3N3M3M3N3N3N3N3N3L3L3L3K3K3J3I3H3G3x6  ",
"  F3E3D3C3B3A3A3;3:393837363636353535353537373434333231303q3z2z2z2z2z2z2z2y2y2y2Z3Z3J3H3x2w2x6  ",
"  v2u2t2s2r2q2q2p2o2n2m2l2l2l2l2k2k2k2k2k2m2m2q2q2j2i2h2g2f2f2e2e2e2e2e2e2d2d2d2A3A3J3H3x2c2x6  ",
"  b2a2Z2Y2X2W2W2V2U2U2U2U2U2U2T2T2T2T2T2T2T2T2S2S2R2Q2P2P2P2P2O2O2O2O2O2N2N2N2N2q2q2M2H3x2s2x6  ",
"  L2K2J2I2H2G2G2F2F2E2D2C2C2C2B2A2A2A2A2;2;2;2G2G2:2:2:2928282827262626252525252W2W2M2H3x242x6  ",
"  32221202z1y1y1x1w1w1v1u1u1u1t1w1w1w1w1s1s1s1r1r1q1q1q1p1o1o1o1n1q1q1m1m1m1m1m1G2G2M2H3x2l1x6  ",
"  k1j1i1h1g1f1f1e1d1d1d1d1d1c1c1c1c1c1b1b1b1b1f1f1a1a1a1a1a1Z1Z1Z1Z1Z1Y1Y1Y1Y1Y1y1y1M2H3x212x6  ",
"  X1W1V1U1T1f1f1S1S1S1S1S1S1S1S1S1S1S1S1S1S1S1R1R1S1S1S1S1S1S1S1S1S1S1Q1Q1Q1Q1Q1f1f1M2H3x2P1x6  ",
"  O1N1M1O4L1f1f1y1y1y1y1y1y1y1y1y1y1y1y1y1y1y1f1f1y1y1y1y1y1y1y1y1y1y1y1y1y1y1y1f1f1M2H3x2K1x6  ",
"  J1I1H124G1F1f1f1f1f1f1f1f1f1f1f1f1f1f1f1f1f1f1f1f1f1f1f1f1f1f1f1f1f1f1f1f1f1f1E1D1C1x2x2B1x6  ",
"  A1;1:191817161514131211101z0y0x0x0x0x0x0x0x0x0x0x0x0x0x0x0x0x0x0x0x0x0x0x0x0x0w0v081x2x2u0x6  ",
"  t0s0r0H3x2x2x2x2x2x2x2x2x2x2x2x2x2x2x2x2x2x2x2x2x2x2x2x2x2x2x2x2x2x2q0p0o0n0m0x2x2x2x2H3l0x6  ",
"  k0p;h1x2x2x2x2x2x2x2x2x2x2x2x2x2x2x2x2x2x2x2x2x2x2x2x2x2x2x2x2j0i0x2p0h0x2x2g0x2x2x2x2f0O4e0  ",
"  c8d0c0x2x2x2x2x2x2x2x2x2x2x2x2x2x2x2x2x2x2x2x2x2x2x2x2x2x2x2x2i0b0x2n0a0x2Z0V1x2x2x2x2Y0X0W0  ",
"    V0U0H9T0H3x2x2x2x2x2x2x2x2x2x2x2x2x2x2x2x2x2x2x2x2x2x2x2x2x2x2x2x2S0R0Q0P0O0x2H3f0Y0N0T7    ",
"      V0M0L0K0J0I0IAH0q;06U0W5G0Y:F0E0v9D0H9C0B0e8A0;0e3W7G3C307:0J2S6Y22690i1X58070605040      ",
"        3020x6x6x6x6x6x6x6x6x6x6x6x6x6x6x6x6x6x6x6x6x6x6x6x6x6x6x6x6x6x6x6x6x6x6x6x61000        ",
"                                                                                                ",
"                                                                                                ",
"                                                                                                ",
"                                                                                                ",
"                                                                                                "};
