/* XPM */
static char *image[] = {
"22 22 217 2",
"   c None",
"00 c #383a37",
"10 c #545753",
"20 c #373837",
"30 c #979995",
"40 c #838681",
"50 c #989a96",
"60 c #797c77",
"70 c #787b76",
"80 c #7a7d78",
"90 c #b0b2af",
":0 c #c4c5c3",
";0 c #b5b7b4",
"A0 c #adafac",
"B0 c #bcbebb",
"C0 c #9ea09d",
"D0 c #656763",
"E0 c #5e605c",
"F0 c #5d605b",
"G0 c #5d5f5b",
"H0 c #5b5d59",
"I0 c #5e615c",
"J0 c #91938e",
"K0 c #bbbdbb",
"L0 c #595b57",
"M0 c #a9aaa8",
"N0 c #80837f",
"O0 c #abada9",
"P0 c #e7e9e6",
"Q0 c #e8eae7",
"R0 c #bdbfba",
"S0 c #8e908c",
"T0 c #cfd0cd",
"U0 c #eaece9",
"V0 c #ebecea",
"W0 c #ebedeb",
"X0 c #cccecb",
"Y0 c #6d6e6b",
"Z0 c #acaeaa",
"a0 c #585956",
"b0 c #525350",
"c0 c #969995",
"d0 c #898b87",
"e0 c #e0e2de",
"f0 c #979994",
"g0 c #868983",
"h0 c #b3b5b1",
"i0 c #eef0ed",
"j0 c #f0f2ef",
"k0 c #c9cbc8",
"l0 c #767a75",
"m0 c #999b98",
"n0 c #535452",
"o0 c #949792",
"p0 c #858784",
"q0 c #eaece8",
"r0 c #e9ece8",
"s0 c #babcb8",
"t0 c #888a86",
"u0 c #636663",
"v0 c #454846",
"w0 c #444746",
"x0 c #4a4d4b",
"y0 c #969894",
"z0 c #e1e3df",
"01 c #b4b5b3",
"11 c #818380",
"21 c #888a87",
"31 c #6e716c",
"41 c #9c9f9c",
"51 c #6b6e69",
"61 c #d1d3ce",
"71 c #979b97",
"81 c #81837f",
"91 c #7d807c",
":1 c #525551",
";1 c #525450",
"A1 c #515551",
"B1 c #515450",
"C1 c #6f716d",
"D1 c #7b7e7a",
"E1 c #838581",
"F1 c #c5c8c3",
"G1 c #9a9c98",
"H1 c #868985",
"I1 c #757875",
"J1 c #5e605d",
"K1 c #a3a5a2",
"L1 c #5a5c57",
"M1 c #d8dcd5",
"N1 c #fefefe",
"O1 c #edeeeb",
"P1 c #727673",
"Q1 c #4d5150",
"R1 c #3b4041",
"S1 c #484d4c",
"T1 c #686b69",
"U1 c #c9cdc8",
"V1 c #ffffff",
"W1 c #eff1ee",
"X1 c #8d908d",
"Y1 c #666965",
"Z1 c #575955",
"a1 c #9fa29e",
"b1 c #5f615d",
"c1 c #bfc4bb",
"d1 c #d0d4cc",
"e1 c #d1d4cc",
"f1 c #808480",
"g1 c #545757",
"h1 c #686c6b",
"i1 c #696d6b",
"j1 c #545857",
"k1 c #565a58",
"l1 c #d4d7d0",
"m1 c #d4d8d0",
"n1 c #d5d8d0",
"o1 c #6d6e6a",
"p1 c #919491",
"q1 c #5c5e5b",
"r1 c #565954",
"s1 c #90938f",
"t1 c #6b6d69",
"u1 c #aaaea5",
"v1 c #979b96",
"w1 c #6b6f6c",
"x1 c #8e928f",
"y1 c #6c6f6d",
"z1 c #656a69",
"02 c #cdd1c8",
"12 c #5c5e5a",
"22 c #929591",
"32 c #545652",
"42 c #81847f",
"52 c #717470",
"62 c #70736e",
"72 c #9b9d97",
"82 c #8c8f8a",
"92 c #868883",
":2 c #b5b8b1",
";2 c #858782",
"A2 c #707570",
"B2 c #9ca098",
"C2 c #979993",
"D2 c #5a5d58",
"E2 c #8a8c88",
"F2 c #565855",
"G2 c #50514f",
"H2 c #727470",
"I2 c #848782",
"J2 c #6a6c68",
"K2 c #babdb6",
"L2 c #61635f",
"M2 c #60625e",
"N2 c #61645f",
"O2 c #747772",
"P2 c #7c7e7a",
"Q2 c #545653",
"R2 c #595b58",
"S2 c #7c7f7b",
"T2 c #858683",
"U2 c #c0c3bd",
"V2 c #898b86",
"W2 c #858682",
"X2 c #818480",
"Y2 c #666864",
"Z2 c #4f504e",
"a2 c #555753",
"b2 c #5c5d5a",
"c2 c #51524f",
"d2 c #caccc6",
"e2 c #585a56",
"f2 c #565754",
"g2 c #565854",
"h2 c #525451",
"i2 c #d3d4d0",
"j2 c #7c1616",
"k2 c #8f0404",
"l2 c #930202",
"m2 c #910000",
"n2 c #dcddd9",
"o2 c #898985",
"p2 c #920505",
"q2 c #920101",
"r2 c #900404",
"s2 c #7d1616",
"t2 c #831010",
"u2 c #a20101",
"v2 c #e5e6e3",
"w2 c #8a8a85",
"x2 c #b40404",
"y2 c #b50000",
"z2 c #b20000",
"03 c #a30000",
"13 c #860e0e",
"23 c #880e0e",
"33 c #c52e2e",
"43 c #e3e3e1",
"53 c #e4e4e2",
"63 c #8a8b86",
"73 c #f08383",
"83 c #f38383",
"93 c #f38282",
":3 c #ed6e6e",
";3 c #c82e2e",
"A3 c #8a0d0d",
"B3 c #821313",
"C3 c #920303",
"D3 c #940303",
"E3 c #8e5e5a",
"F3 c #888a85",
"G3 c #8e6460",
"H3 c #960707",
"I3 c #940505",
"J3 c #950303",
"K3 c #900000",
"L3 c #9f1b0c",
"        L3K3J3I3H3G3F3F3E3I3H3D3C3B3        ",
"      A3;3:3938373635343F3838393:33323      ",
"      1303z2y2y2x2w2v2v2F3y2y2y2z2u2t2      ",
"        s2r2q2q2p2o2n2n2F3m2l2q2k2j2        ",
"                  F3i2i2F3                  ",
"      h2g2f2f2f2e2F3d2d2F3c2b2f2f2a2        ",
"    Z2Y2X2W2W2W2W2V2U2U2F3T2T2T2T2S2R2      ",
"    Q2P2O2N2M2M2L2F3K2K2F3M2M2M2J2I2H2G2    ",
"    F2E2D2C2B2B2A2;2:2:29282B27262524232    ",
"    g22212020202z1y1x1x1w1v10202u1t1s1r1    ",
"    q1p1o1n1m1l1k1j1i1h1g1f1e1d1c1b1a1Z1    ",
"    Y1X142W1V1U1T1S1R1R1Q1P1O1N1M1L1K1J1    ",
"    I1H1G1F1E1D1C1B1A1;1:191817161514131    ",
"    211101W1z0y0P2x0w0v0u0t0s0r0q0p0o0X2    ",
"  n0m0l0k0j0j0i0h0g0j1S2f0e0j0j0j0K1d0c0b0  ",
"  a0Z0Y0X0W0V0V0U0T0S0R0Q0Q0Q0Q0P0O0N0M0a0  ",
"  L0K0J0I0H01212121212G0G0F0E0E0E0D0C0B0e2  ",
"  e2A0;0:0:0:0:0:0:0:0:0:0:0:0:0:0:0;090g2  ",
"  g2y08070707070707070707070707070706050a2  ",
"  a240303030303030303030303030303030c0E232  ",
"  2010a2a2a2a2a2a2a2a2a2a2a2a2a2a2a2a23200  ",
"                                            "};
