/* XPM */
static char *image[] = {
"16 16 109 2",
"   c None",
"00 c #00001e",
"10 c #00001a",
"20 c #00002c",
"30 c #00003f",
"40 c #00034d",
"50 c #00022e",
"60 c #000026",
"70 c #00002f",
"80 c #000024",
"90 c #000038",
":0 c #00044b",
";0 c #001679",
"A0 c #001064",
"B0 c #00033e",
"C0 c #000235",
"D0 c #000132",
"E0 c #000442",
"F0 c #00055f",
"G0 c #000032",
"H0 c #000339",
"I0 c #002a78",
"J0 c #003580",
"K0 c #002467",
"L0 c #001252",
"M0 c #000946",
"N0 c #000a46",
"O0 c #001d79",
"P0 c #000c5c",
"Q0 c #000030",
"R0 c #00013b",
"S0 c #050c49",
"T0 c #0a4486",
"U0 c #0b6baf",
"V0 c #0665ab",
"W0 c #01569a",
"X0 c #002568",
"Y0 c #00185a",
"Z0 c #001f6a",
"a0 c #021d6d",
"b0 c #470a3a",
"c0 c #061152",
"d0 c #14407d",
"e0 c #1e86bd",
"f0 c #2196c8",
"g0 c #1c99cb",
"h0 c #1184bb",
"i0 c #043e81",
"j0 c #002d71",
"k0 c #002163",
"l0 c #002770",
"m0 c #0f3460",
"n0 c #0e5da0",
"o0 c #227bb0",
"p0 c #30acd6",
"q0 c #36acd5",
"r0 c #37b2da",
"s0 c #2ba7d3",
"t0 c #186ba5",
"u0 c #055393",
"v0 c #005093",
"w0 c #005198",
"x0 c #108bc6",
"y0 c #2488bd",
"z0 c #39a4cf",
"01 c #3379b1",
"11 c #449fcc",
"21 c #47bde2",
"31 c #31a9d6",
"41 c #1792c1",
"51 c #0385b9",
"61 c #055994",
"71 c #0b6a9d",
"81 c #14589b",
"91 c #2f78b0",
":1 c #448dc0",
";1 c #66bfe2",
"A1 c #60ccee",
"B1 c #3fa4c4",
"C1 c #113442",
"D1 c #0a364b",
"E1 c #4f3d44",
"F1 c #0f5397",
"G1 c #2b79b7",
"H1 c #4da1d0",
"I1 c #75d4f2",
"J1 c #6ac4e8",
"K1 c #6f94a8",
"L1 c #2a333d",
"M1 c #020615",
"N1 c #413928",
"O1 c #9d8a60",
"P1 c #1b4972",
"Q1 c #3792c0",
"R1 c #55c0e6",
"S1 c #4eabd4",
"T1 c #396b9e",
"U1 c #30363e",
"V1 c #343433",
"W1 c #9b9999",
"X1 c #d6ccb1",
"Y1 c #d74023",
"Z1 c #deae90",
"a1 c #fccfcc",
"b1 c #d5d4c0",
"c1 c #b39d85",
"d1 c #cbb275",
"e1 c #bea88d",
"f1 c #c2ae7f",
"                                ",
"                                ",
"      f1e1d1                    ",
"    c1b1a1Z1Y1                  ",
"      X1W1V1U1T1S1R1Q1P1        ",
"      O1N1M1L1K1J1I1H1G1F1      ",
"        E1D1C1B1A1;1:1918171    ",
"        61514131211101z0y0x0    ",
"        w0v0u0t0s0r0q0p0o0n0m0  ",
"        l0k0j0i0h0g0f0e0d0c0b0  ",
"        a0Z0Y0X0W0V0U0T0S0R0Q0  ",
"        P0O0N0M0L0K0J0I0H0G0    ",
"          F0E0D0C0B0A0;0:090    ",
"            80706050403090      ",
"              20101000          ",
"                                "};
