/* XPM */
static char *image[] = {
"22 22 236 2",
"   c None",
"00 c #a24800",
"10 c #a54e08",
"20 c #cc7930",
"30 c #e29245",
"40 c #e79c53",
"50 c #e29144",
"60 c #cb762b",
"70 c #a54f09",
"80 c #e6913f",
"90 c #e17e1e",
":0 c #e07611",
";0 c #e07712",
"A0 c #df750f",
"B0 c #df740d",
"C0 c #e17d1c",
"D0 c #e5903d",
"E0 c #cd7c34",
"F0 c #a34901",
"G0 c #a24b06",
"H0 c #e69c55",
"I0 c #ea9f57",
"J0 c #ea9f56",
"K0 c #eaa058",
"L0 c #e89748",
"M0 c #e38224",
"N0 c #e17812",
"O0 c #e37f1f",
"P0 c #e5974e",
"Q0 c #a04700",
"R0 c #95480d",
"S0 c #9f4905",
"T0 c #b66825",
"U0 c #e59d57",
"V0 c #e68a30",
"W0 c #e37c18",
"X0 c #eca45f",
"Y0 c #2f5790",
"Z0 c #7093be",
"a0 c #96b5d9",
"b0 c #a1bede",
"c0 c #95aecc",
"d0 c #876a5b",
"e0 c #a75616",
"f0 c #eaa25c",
"g0 c #e68526",
"h0 c #e5801d",
"i0 c #eda762",
"j0 c #254f8b",
"k0 c #6e91bc",
"l0 c #94b6da",
"m0 c #7ba4d1",
"n0 c #7aa4d1",
"o0 c #82aad4",
"p0 c #96b7db",
"q0 c #975c30",
"r0 c #d58238",
"s0 c #ec9b4d",
"t0 c #e88323",
"u0 c #efa966",
"v0 c #214b88",
"w0 c #99b8da",
"x0 c #86acd6",
"y0 c #9abadd",
"z0 c #a5c2e0",
"01 c #a4c1e0",
"11 c #90b3d9",
"21 c #7fa8d3",
"31 c #7ea7d3",
"41 c #86add6",
"51 c #9b918f",
"61 c #b05e1c",
"71 c #f0a761",
"81 c #ea8728",
"91 c #f0ac6a",
":1 c #a8c3e1",
";1 c #93b5da",
"A1 c #9c9faa",
"B1 c #885737",
"C1 c #96480e",
"D1 c #26508a",
"E1 c #5378aa",
"F1 c #8cacd0",
"G1 c #9bbbdd",
"H1 c #81a9d4",
"I1 c #a7bed7",
"J1 c #9e4703",
"K1 c #ec8b2e",
"L1 c #f2ae6e",
"M1 c #85acd5",
"N1 c #8bb0d7",
"O1 c #a4a6af",
"P1 c #a14e0e",
"Q1 c #d48b4b",
"R1 c #efac6c",
"S1 c #a14904",
"T1 c #264f8b",
"U1 c #90afd1",
"V1 c #95b7db",
"W1 c #86add5",
"X1 c #a9c5e2",
"Y1 c #f3b273",
"Z1 c #ef953e",
"a1 c #f4b87e",
"b1 c #acc7e3",
"c1 c #88aed6",
"d1 c #9ebdde",
"e1 c #966542",
"f1 c #d48c4b",
"g1 c #f3a85f",
"h1 c #f4af6c",
"i1 c #b5601a",
"j1 c #587dad",
"k1 c #b8cfe7",
"l1 c #aac5e2",
"m1 c #c3d0de",
"n1 c #a04906",
"o1 c #f8cfa7",
"p1 c #f5b97f",
"q1 c #f9d0a9",
"r1 c #8fb2d8",
"s1 c #afc8e3",
"t1 c #9f4804",
"u1 c #f4bd88",
"v1 c #f5ab63",
"w1 c #f7c089",
"x1 c #d48c4e",
"y1 c #a24902",
"z1 c #29538c",
"02 c #c2d5ea",
"12 c #bdaa9f",
"22 c #c27a3d",
"32 c #f9cda1",
"42 c #f7bd85",
"52 c #fad2aa",
"62 c #b7cee7",
"72 c #cddeee",
"82 c #fbd3ac",
"92 c #f9bf88",
":2 c #f9c492",
";2 c #f2c79e",
"A2 c #a54e09",
"B2 c #cad5e2",
"C2 c #b9a599",
"D2 c #a55517",
"E2 c #faca9c",
"F2 c #f9c089",
"G2 c #fbd3ad",
"H2 c #bbd0e8",
"I2 c #fbcc9f",
"J2 c #eebd91",
"K2 c #bb6f32",
"L2 c #a34c08",
"M2 c #a55313",
"N2 c #c27c41",
"O2 c #efbd8f",
"P2 c #fac28d",
"Q2 c #fac28c",
"R2 c #fbd5af",
"S2 c #d1dfef",
"T2 c #bdd2e8",
"U2 c #d0dfef",
"V2 c #a04a07",
"W2 c #fccb9d",
"X2 c #fcd1a7",
"Y2 c #fcd5b0",
"Z2 c #fcd6b2",
"a2 c #fcd6b0",
"b2 c #fcd1a9",
"c2 c #fccda1",
"d2 c #fbc591",
"e2 c #fbc490",
"f2 c #fbc897",
"g2 c #f8cca3",
"h2 c #d2e1f0",
"i2 c #bfd3e9",
"j2 c #cdddee",
"k2 c #94674a",
"l2 c #e0a875",
"m2 c #fdd3a9",
"n2 c #fccb9a",
"o2 c #fcc793",
"p2 c #fcc794",
"q2 c #fcca99",
"r2 c #fdd1a8",
"s2 c #e1a775",
"t2 c #a44b05",
"u2 c #d4e1f0",
"v2 c #c1d5ea",
"w2 c #cadbec",
"x2 c #b5b6bd",
"y2 c #a6591d",
"z2 c #e1a774",
"03 c #fbd0a7",
"13 c #fedab6",
"23 c #fbd2ab",
"33 c #e4b182",
"43 c #ad5e1f",
"53 c #d5e3f0",
"63 c #c3d6ea",
"73 c #c4d7ea",
"83 c #d2e0f0",
"93 c #b4b5bc",
":3 c #906244",
";3 c #9e4804",
"A3 c #9f4600",
"B3 c #a04701",
"C3 c #a44c05",
"D3 c #cddcec",
"E3 c #c6d8eb",
"F3 c #c7d8ec",
"G3 c #cedeee",
"H3 c #d4e2f0",
"I3 c #d5e3f1",
"J3 c #d6e3f1",
"K3 c #d0deed",
"L3 c #2e568f",
"M3 c #a1b7d3",
"N3 c #c7d9ec",
"O3 c #c8d9ec",
"P3 c #c9daed",
"Q3 c #c8daec",
"R3 c #cbdced",
"S3 c #d3e1f0",
"T3 c #a1b7d2",
"U3 c #27518c",
"V3 c #395e95",
"W3 c #9bb2cf",
"X3 c #cedced",
"Y3 c #dae6f2",
"Z3 c #d0dded",
"a3 c #a0b5d2",
"b3 c #375d95",
"c3 c #204a87",
"d3 c #224c88",
"e3 c #28518c",
"            e3d3c3c3c3c3c3c3c3c3c3c3d3e3    ",
"          b3a3Z3Y3Y3Y3Y3Y3Y3Y3Y3Y3Y3X3W3V3  ",
"        U3T3S3R3Q3Q3Q3P3P3P3O3N3N3N3R3S3M3U3",
"        L3K3J3J3J3I3I3I3I3I3J3H3G3F3E3P3D3d3",
"    C3B3A3A3A3A3A3A3A3A3A3A3;3:39383736353c3",
"  4333231313131313131313131303z2y2x2w2v2u2c3",
"t2s2r2q2p2o2o2o2o2o2o2o2o2o2n2m2l2k2j2i2h2c3",
"B3g2f2e2d2c2b2a2Z2Z2Y2X2W2e2e2f2g2V2U2T2S2c3",
"A3R2Q2P203O2N2M2A3A3L2K2J2I2Q2Q2R2A3U2H2U2c3",
"A3G2F2E2O2D2C2B2c3      A2;2:29282A37262j2c3",
"A3524232221202R3z1      y1x1w1v1u1t1s1r1s1c3",
"A3q1p1o1n1m1l1k1j1        i1h1g1f1e1d1c1b1c3",
"A3a1Z1Y1A3X1W1V1U1T1      S1R1Q1P1O1N1M1l1c3",
"A3L1K1L1J1I1H1H1G1F1E1D1c3C1V2B1A1;1H1H1:1c3",
"A3918171615141312111G101z0z001y0N13131x0w0v0",
"A3u0t0s0r0q0p0o0n0n0n0n0n0n0n0n0n0m0H1l0k0j0",
"A3i0h0g0f0e0d0c0b0b0b0b0b0b0b0b0b0b0a0Z0Y0  ",
"A3X0W0W0V0U0T0S0A3A3A3A3A3A3A3A3A3R0v0j0    ",
"Q0P0O0N0N0M0L0K0J0J0J0I0I0K0K0K0H0G0        ",
"F0E0D0C0B0B0B0A0;0;0;0:0:0:09080E0F0        ",
"  70605040404040404040404040302010          ",
"    00Q0A3A3A3A3A3A3A3A3A3A3Q000            "};
