/* XPM */
static char *image[] = {
"32 32 350 2",
"   c None",
"00 c #929200",
"10 c #949400",
"20 c #cfcf00",
"30 c #e0e000",
"40 c #e1e100",
"50 c #e2e200",
"60 c #e3e300",
"70 c #e4e400",
"80 c #00008f",
"90 c #0000c0",
":0 c #e5e500",
";0 c #0000d0",
"A0 c #00007d",
"B0 c #bcbc14",
"C0 c #0000bd",
"D0 c #000098",
"E0 c #818154",
"F0 c #0000ae",
"G0 c #0000b4",
"H0 c #0000ea",
"I0 c #000099",
"J0 c #0000a2",
"K0 c #0000a4",
"L0 c #06066a",
"M0 c #818155",
"N0 c #0000ac",
"O0 c #0000af",
"P0 c #0000b0",
"Q0 c #0000b2",
"R0 c #0000b3",
"S0 c #0000b5",
"T0 c #0000eb",
"U0 c #00008c",
"V0 c #000087",
"W0 c #1c1c4f",
"X0 c #525229",
"Y0 c #59592d",
"Z0 c #20209a",
"a0 c #0000a6",
"b0 c #050595",
"c0 c #5f5f66",
"d0 c #65656a",
"e0 c #434397",
"f0 c #0000ad",
"g0 c #404032",
"h0 c #5a5a2c",
"i0 c #63634b",
"j0 c #0101b5",
"k0 c #0101b6",
"l0 c #0101b4",
"m0 c #0101a4",
"n0 c #0000c6",
"o0 c #000078",
"p0 c #383836",
"q0 c #b4b402",
"r0 c #424298",
"s0 c #0000a7",
"t0 c #0000a8",
"u0 c #0000aa",
"v0 c #0101ae",
"w0 c #0202b0",
"x0 c #02029d",
"y0 c #85850d",
"z0 c #bbbb03",
"01 c #c6c61b",
"11 c #0303b8",
"21 c #0303b9",
"31 c #0202ba",
"41 c #0202bb",
"51 c #0101d9",
"61 c #000079",
"71 c #00008a",
"81 c #383831",
"91 c #b3b303",
":1 c #41418a",
";1 c #000090",
"A1 c #0000ab",
"B1 c #0202a3",
"C1 c #030399",
"D1 c #03038a",
"E1 c #8a8a11",
"F1 c #c2c209",
"G1 c #c3c31b",
"H1 c #0606a1",
"I1 c #0505a2",
"J1 c #0505b8",
"K1 c #0505c0",
"L1 c #0202d5",
"M1 c #000092",
"N1 c #000093",
"O1 c #000097",
"P1 c #05056c",
"Q1 c #84840b",
"R1 c #8c8c0a",
"S1 c #979706",
"T1 c #979709",
"U1 c #91910b",
"V1 c #8a8a69",
"W1 c #0101ad",
"X1 c #0303b0",
"Y1 c #19195d",
"Z1 c #a0a014",
"a1 c #a5a518",
"b1 c #c3c315",
"c1 c #cfcf15",
"d1 c #cbcb15",
"e1 c #aeae1b",
"f1 c #aeae1a",
"g1 c #7c7c69",
"h1 c #0c0cc8",
"i1 c #0909c5",
"j1 c #0707bb",
"k1 c #0606bc",
"l1 c #0101e6",
"m1 c #00009b",
"n1 c #06066c",
"o1 c #9e9e01",
"p1 c #abab76",
"q1 c #0202ae",
"r1 c #0505b3",
"s1 c #20205e",
"t1 c #c9c913",
"u1 c #d4d41c",
"v1 c #dddd23",
"w1 c #e2e228",
"x1 c #e5e528",
"y1 c #e4e426",
"z1 c #e3e322",
"02 c #989867",
"12 c #1919d5",
"22 c #1414d3",
"32 c #1010d0",
"42 c #0c0ccf",
"52 c #0303f0",
"62 c #0f0f5d",
"72 c #242459",
"82 c #2d2d46",
"92 c #a2a201",
":2 c #a8a800",
";2 c #a4a363",
"A2 c #0a0493",
"B2 c #0c0797",
"C2 c #28264c",
"D2 c #d3d31c",
"E2 c #e3e32a",
"F2 c #f1f137",
"G2 c #fafa40",
"H2 c #fcfc43",
"I2 c #fcfc42",
"J2 c #fafa3d",
"K2 c #a3a350",
"L2 c #454581",
"M2 c #404091",
"N2 c #1f1fdf",
"O2 c #1818dc",
"P2 c #0505f3",
"Q2 c #a7a700",
"R2 c #a9a900",
"S2 c #abab00",
"T2 c #d7d756",
"U2 c #97340e",
"V2 c #9c3711",
"W2 c #78590d",
"X2 c #d8d821",
"Y2 c #eded33",
"Z2 c #fdfd46",
"a2 c #ffff56",
"b2 c #ffff5f",
"c2 c #ffff61",
"d2 c #ffff5c",
"e2 c #ffff54",
"f2 c #ffff4a",
"g2 c #fcfc2a",
"h2 c #3939f0",
"i2 c #2a2aef",
"j2 c #0909f8",
"k2 c #00009c",
"l2 c #454528",
"m2 c #a5a500",
"n2 c #aaaa00",
"o2 c #acac00",
"p2 c #adad00",
"q2 c #aeae00",
"r2 c #b0b000",
"s2 c #d8d858",
"t2 c #a03604",
"u2 c #a43907",
"v2 c #7b5b08",
"w2 c #d8d81f",
"x2 c #efef34",
"y2 c #fbfb42",
"z2 c #fafa53",
"03 c #fafa61",
"13 c #fbfb67",
"23 c #fdfd6e",
"33 c #ffff6a",
"43 c #fcfc3c",
"53 c #5454f9",
"63 c #4242fe",
"73 c #0f0ffe",
"83 c #cbc70f",
"93 c #aa7404",
":3 c #a66e00",
";3 c #a76f00",
"A3 c #a87000",
"B3 c #9d6900",
"C3 c #888400",
"D3 c #b1b100",
"E3 c #d8d853",
"F3 c #a03603",
"G3 c #a33805",
"H3 c #7a5a06",
"I3 c #d3d319",
"J3 c #eeee34",
"K3 c #efc129",
"L3 c #f3bb3f",
"M3 c #f6cb4f",
"N3 c #f7d55b",
"O3 c #f7d961",
"P3 c #b2a347",
"Q3 c #ffff84",
"R3 c #fdfd4c",
"S3 c #7070f9",
"T3 c #5d5dff",
"U3 c #1717ff",
"V3 c #00009d",
"W3 c #464628",
"X3 c #a6a600",
"Y3 c #ccc313",
"Z3 c #9a3805",
"a3 c #942f00",
"b3 c #8c2c00",
"c3 c #827b00",
"d3 c #b2b200",
"e3 c #d8d848",
"f3 c #a03502",
"g3 c #a23603",
"h3 c #785804",
"i3 c #cccc12",
"j3 c #e7e729",
"k3 c #e7922f",
"l3 c #f2814b",
"m3 c #ff9964",
"n3 c #ffaf79",
"o3 c #ffbd86",
"p3 c #a78a4d",
"q3 c #ffff93",
"r3 c #fdfd58",
"s3 c #8787f9",
"t3 c #7777ff",
"u3 c #1f1fff",
"v3 c #56563f",
"w3 c #afaf00",
"x3 c #c9bc09",
"y3 c #a03802",
"z3 c #9c3100",
"04 c #8b2c00",
"14 c #973000",
"24 c #912e00",
"34 c #968900",
"44 c #bcba00",
"54 c #d6cf22",
"64 c #a03401",
"74 c #a13502",
"84 c #8e6202",
"94 c #cbca07",
":4 c #dddb11",
";4 c #da8322",
"A4 c #de6c37",
"B4 c #f5793e",
"C4 c #e2733a",
"D4 c #e37d43",
"E4 c #b4862a",
"F4 c #f2f251",
"G4 c #e8e836",
"H4 c #9292f9",
"I4 c #8787ff",
"J4 c #2525ff",
"K4 c #00009e",
"L4 c #0000a0",
"M4 c #2525c2",
"N4 c #6f2300",
"O4 c #9d3e00",
"P4 c #9f4200",
"Q4 c #a04100",
"R4 c #a13401",
"S4 c #a63e03",
"T4 c #ad4c06",
"U4 c #b5520c",
"V4 c #bd4f16",
"W4 c #cc5a24",
"X4 c #f26827",
"Y4 c #8c8cfd",
"Z4 c #8c8cff",
"a4 c #983000",
"b4 c #9a3100",
"c4 c #9b3100",
"d4 c #9c3200",
"e4 c #9f3300",
"f4 c #a13400",
"g4 c #a43501",
"h4 c #a73803",
"i4 c #ac3c07",
"j4 c #b4420d",
"k4 c #bf4c16",
"l4 c #e85c1a",
"m4 c #7d7dfe",
"n4 c #8383ff",
"o4 c #2929ff",
"p4 c #993100",
"q4 c #882b00",
"r4 c #9e3200",
"s4 c #a43500",
"t4 c #a63601",
"u4 c #b53e05",
"v4 c #c54305",
"w4 c #b73e06",
"x4 c #cd4709",
"y4 c #6666fe",
"z4 c #7171ff",
"05 c #2626ff",
"15 c #00009f",
"25 c #0000a1",
"35 c #892c00",
"45 c #9d3200",
"55 c #9f3200",
"65 c #a03300",
"75 c #a63500",
"85 c #b83f05",
"95 c #4d4dfe",
":5 c #5959ff",
";5 c #2020ff",
"A5 c #0000a3",
"B5 c #0000a5",
"C5 c #902e00",
"D5 c #963000",
"E5 c #a23400",
"F5 c #b13900",
"G5 c #a93600",
"H5 c #b73c02",
"I5 c #2323ee",
"J5 c #2929ef",
"K5 c #1111f9",
"L5 c #db4e09",
"M5 c #a13300",
"N5 c #a43400",
"O5 c #e14e08",
"P5 c #a33400",
"Q5 c #a53400",
"                                                                ",
"                              Q5P5                              ",
"                            O5N5M5                              ",
"                            L5P5M5                              ",
"  K5J5I5                H5G5F5E5M5D5M5C5                B5A5    ",
"  ;5:595                8575N5E565554535                2515    ",
"  05z4y4          x4w4v4u4t4s4E565r445q4p465            2515    ",
"  o4n4m4          l4k4j4i4h4g4f4e4r4d4c4b4a4            2515    ",
"  o4Z4Y4          X4W4V4U4T4S4R4e4Q4P4O4p4a4N4        M4L4K4    ",
"  J4I4H4G4F4E4D4C4B4A4;4:494847464544434241404z3y3x3w3v315K4    ",
"  u3t3s3r3q3p3o3n3m3l3k3j3i3h3g3f3e3d3c3b314D5a3Z3Y3X3W3K4V3    ",
"  U3T3S3R3Q3P3O3N3M3L3K3J3I3H3G3F3E3D3C3B3A3;3:39383X3W3V3V3    ",
"  736353433323131303z2y2x2w2v2u2t2s2D3w3D3r2q2p2o2n2m2l2V3k2    ",
"  j2i2h2g2f2e2d2c2b2a2Z2Y2X2W2V2U2T2r2q2p2S2n2R2Q2X3m2l2k2k2    ",
"  P2O2N2M2L2K2J2I2H2G2F2E2D2C2B2A2;2r2q2o2S2n2:292827262k2k2    ",
"  524232221202z1y1x1w1v1u1t1s1r1q1p1w3p2o2n2R2:2o1n115V3k2m1    ",
"  l1k1j1i1h1g1f1e1d1c1b1a1Z1Y1X1W1V1U1T1S2n2S1R1Q1P1K4O1N1M1    ",
"        L1K1J1I1H1G1F1E1D1C1B1W1A1L4;1:191R2817171O1K461        ",
"        514131211101z0y0x0w0v0A1u0t0s0r0q0:2p0L415K4V3o0        ",
"        n0m0l0k0j0i0h0g015f0e0d0c0b0a0Z0Y0X0W0L4k2V0U0          ",
"            T0S0R0Q0P0O0f0N0M0w3o2L0B5K0A5J0L415I0              ",
"            H0G0Q0P0O0F0N0A1E0q2S2L0K0A5J025L415D0              ",
"                  C0F025    B0p2S2      s0L4A0                  ",
"                  ;0f015    :0p2n2      A115                    ",
"                  90m180    70o2R2      m1;1                    ",
"                            60S2R2                              ",
"                            50n2:2                              ",
"                            40R2Q2                              ",
"                            30:2X3                              ",
"                            201000                              ",
"                                                                ",
"                                                                "};
