/* XPM */
static char *image[] = {
"48 48 550 2",
"   c None",
"00 c #4e4038",
"10 c #392c24",
"20 c #3a3938",
"30 c #090604",
"40 c #392d26",
"50 c #0a0807",
"60 c #090909",
"70 c #040302",
"80 c #2a1e14",
"90 c #2a2017",
":0 c #070504",
";0 c #991a05",
"A0 c #991b06",
"B0 c #090707",
"C0 c #992406",
"D0 c #992305",
"E0 c #9a1a04",
"F0 c #ff2500",
"G0 c #ff2600",
"H0 c #a21e07",
"I0 c #050202",
"J0 c #001e1d",
"K0 c #0b0808",
"L0 c #a22907",
"M0 c #9a2604",
"N0 c #5f5f5f",
"O0 c #0d0c0c",
"P0 c #9a1c04",
"Q0 c #ff2800",
"R0 c #ff2900",
"S0 c #ff2a00",
"T0 c #ff2b00",
"U0 c #aa2408",
"V0 c #0c0908",
"W0 c #aa2e08",
"X0 c #9a2a04",
"Y0 c #2c2b29",
"Z0 c #070606",
"a0 c #9a1e04",
"b0 c #ff2d00",
"c0 c #ff2e00",
"d0 c #ff2f00",
"e0 c #ff3000",
"f0 c #b22806",
"g0 c #0d0807",
"h0 c #2c2c2c",
"i0 c #090403",
"j0 c #b23206",
"k0 c #9a2d04",
"l0 c #2e2e2e",
"m0 c #0b0a0a",
"n0 c #9a2104",
"o0 c #ff3100",
"p0 c #ff3200",
"q0 c #ff3300",
"r0 c #ff3400",
"s0 c #ba2c05",
"t0 c #0d0604",
"u0 c #292929",
"v0 c #0d0704",
"w0 c #ba3505",
"x0 c #9a3004",
"y0 c #040303",
"z0 c #0d0d0d",
"01 c #551605",
"11 c #ff3500",
"21 c #ff3600",
"31 c #ff3700",
"41 c #ff3800",
"51 c #ff3900",
"61 c #c13206",
"71 c #110805",
"81 c #3a3a3a",
"91 c #222222",
":1 c #100804",
";1 c #c13b06",
"A1 c #551e05",
"B1 c #080808",
"C1 c #2b2b2b",
"D1 c #060606",
"E1 c #972808",
"F1 c #ff3a00",
"G1 c #ff3b00",
"H1 c #ff3c00",
"I1 c #ff3d00",
"J1 c #ff3e00",
"K1 c #ff3f00",
"L1 c #c83907",
"M1 c #150a06",
"N1 c #323232",
"O1 c #140905",
"P1 c #c84107",
"Q1 c #973708",
"R1 c #020202",
"S1 c #0c0c0c",
"T1 c #3e3e3e",
"U1 c #080706",
"V1 c #a22e09",
"W1 c #ff4000",
"X1 c #ff4100",
"Y1 c #ff4200",
"Z1 c #ff4300",
"a1 c #ff4400",
"b1 c #cf3e06",
"c1 c #170903",
"d1 c #252525",
"e1 c #190b05",
"f1 c #cf4506",
"g1 c #a23d09",
"h1 c #0b0b0b",
"i1 c #393939",
"j1 c #080505",
"k1 c #ad3307",
"l1 c #ff4500",
"m1 c #ff4600",
"n1 c #ff4700",
"o1 c #ff4800",
"p1 c #ff4900",
"q1 c #ff4a00",
"r1 c #d64304",
"s1 c #1b0b03",
"t1 c #111111",
"u1 c #1c0c04",
"v1 c #d64904",
"w1 c #ff5800",
"x1 c #ad4207",
"y1 c #0b0908",
"z1 c #1e1e1e",
"02 c #0a0604",
"12 c #b73804",
"22 c #ff4b00",
"32 c #ff4c00",
"42 c #ff4d00",
"52 c #ff4e00",
"62 c #ff4f00",
"72 c #dc4a04",
"82 c #210e05",
"92 c #0e0e0e",
":2 c #242424",
";2 c #221006",
"A2 c #dc4f04",
"B2 c #ff5900",
"C2 c #ff5a00",
"D2 c #ff5b00",
"E2 c #ff5c00",
"F2 c #b74704",
"G2 c #0c0806",
"H2 c #535353",
"I2 c #454545",
"J2 c #0e0806",
"K2 c #be3f06",
"L2 c #ff5000",
"M2 c #ff5100",
"N2 c #ff5200",
"O2 c #ff5300",
"P2 c #ff5400",
"Q2 c #ff5500",
"R2 c #ff5700",
"S2 c #e15005",
"T2 c #271105",
"U2 c #191919",
"V2 c #171717",
"W2 c #281306",
"X2 c #e15505",
"Y2 c #ff5d00",
"Z2 c #ff5e00",
"a2 c #ff5f00",
"b2 c #ff6000",
"c2 c #ff6300",
"d2 c #be4e06",
"e2 c #0e0906",
"f2 c #474747",
"g2 c #424242",
"h2 c #333333",
"i2 c #2f2f2f",
"j2 c #3b3b3b",
"k2 c #070403",
"l2 c #602103",
"m2 c #ef5000",
"n2 c #ff5600",
"o2 c #9c3500",
"p2 c #5e2001",
"q2 c #5a1f00",
"r2 c #5a2000",
"s2 c #722800",
"t2 c #ef5600",
"u2 c #e65605",
"v2 c #1e0d03",
"w2 c #070707",
"x2 c #2a1304",
"y2 c #e65a05",
"z2 c #ff6100",
"03 c #ff6200",
"13 c #9c3c00",
"23 c #5e2500",
"33 c #722d00",
"43 c #ef5f00",
"53 c #9c3e00",
"63 c #5e2600",
"73 c #481e02",
"83 c #060402",
"93 c #181818",
":3 c #343434",
";3 c #545454",
"A3 c #5a5a5a",
"B3 c #595959",
"C3 c #727272",
"D3 c #c2c2c2",
"E3 c #c3c3c3",
"F3 c #464646",
"G3 c #c5c5c5",
"H3 c #f1d1c0",
"I3 c #f35600",
"J3 c #963600",
"K3 c #d3c6c0",
"L3 c #f35d00",
"M3 c #6a2901",
"N3 c #efd2c1",
"O3 c #f36000",
"P3 c #ff6600",
"Q3 c #ff6700",
"R3 c #712e00",
"S3 c #d3c7c0",
"T3 c #f1d4c0",
"U3 c #f36600",
"V3 c #963f00",
"W3 c #d3c8c0",
"X3 c #f1f1f1",
"Y3 c #c7c7c7",
"Z3 c #686868",
"a3 c #c74c03",
"b3 c #f45c00",
"c3 c #f1d2c0",
"d3 c #fefefe",
"e3 c #e95d00",
"f3 c #6d2c00",
"g3 c #e96100",
"h3 c #ff6b00",
"i3 c #cb5b04",
"j3 c #c2c1c0",
"k3 c #fdfdfd",
"l3 c #1b0d04",
"m3 c #da5a05",
"n3 c #f46100",
"o3 c #ea5e00",
"p3 c #e95e00",
"q3 c #703913",
"r3 c #e96200",
"s3 c #e96500",
"t3 c #ff6f00",
"u3 c #ff7000",
"v3 c #ff7100",
"w3 c #c55c05",
"x3 c #1b0e04",
"y3 c #fcfcfc",
"z3 c #211105",
"04 c #e16105",
"14 c #ff6c00",
"24 c #6d2e00",
"34 c #e96600",
"44 c #6d3000",
"54 c #e96900",
"64 c #ff7400",
"74 c #ff7500",
"84 c #ff7600",
"94 c #1b0f04",
":4 c #fbfbfb",
";4 c #bfbfbf",
"A4 c #fafafa",
"B4 c #281405",
"C4 c #e86803",
"D4 c #fb6f00",
"E4 c #662d00",
"F4 c #e96a00",
"G4 c #6d3200",
"H4 c #e96d00",
"I4 c #ff7900",
"J4 c #ff7a00",
"K4 c #fb7800",
"L4 c #663000",
"M4 c #f9f9f9",
"N4 c #0a0a0a",
"O4 c #120901",
"P4 c #542701",
"Q4 c #5e3613",
"R4 c #f7f7f7",
"S4 c #e96f00",
"T4 c #6d3400",
"U4 c #5e3713",
"V4 c #5a2c00",
"W4 c #5e3813",
"X4 c #131313",
"Y4 c #f6f6f6",
"Z4 c #b8b8b8",
"a4 c #bcbcbc",
"b4 c #ea7300",
"c4 c #924900",
"d4 c #f3f3f3",
"e4 c #b7b7b7",
"f4 c #f2f2f2",
"g4 c #efefef",
"h4 c #b6b6b6",
"i4 c #eeeeee",
"j4 c #f37d00",
"k4 c #e6ceb5",
"l4 c #ededed",
"m4 c #b4b4b4",
"n4 c #ececec",
"o4 c #b3b3b3",
"p4 c #e8e8e8",
"q4 c #743f05",
"r4 c #e97a01",
"s4 c #e97a00",
"t4 c #ea7b00",
"u4 c #f48100",
"v4 c #ff8700",
"w4 c #ff8800",
"x4 c #f48300",
"y4 c #ea7f00",
"z4 c #e97f00",
"05 c #e98000",
"15 c #e98100",
"25 c #ea8200",
"35 c #945b13",
"45 c #e5e5e5",
"55 c #aaaaaa",
"65 c #814806",
"75 c #ff8900",
"85 c #ff8a00",
"95 c #ff8b00",
":5 c #ff8c00",
";5 c #f38c00",
"A5 c #d9c5a8",
"B5 c #dbdbdb",
"C5 c #a8a8a8",
"D5 c #8a5008",
"E5 c #ff8d00",
"F5 c #ff8e00",
"G5 c #ff8f00",
"H5 c #ff9000",
"I5 c #f49200",
"J5 c #eb8d01",
"K5 c #865408",
"L5 c #010101",
"M5 c #935708",
"N5 c #ff9100",
"O5 c #ff9200",
"P5 c #ff9300",
"Q5 c #ff9400",
"R5 c #936008",
"S5 c #020201",
"T5 c #9d5e06",
"U5 c #ff9500",
"V5 c #ff9600",
"W5 c #ff9700",
"X5 c #ff9800",
"Y5 c #9d6806",
"Z5 c #a56606",
"a5 c #ff9900",
"b5 c #ff9a00",
"c5 c #ff9b00",
"d5 c #ff9c00",
"e5 c #a57106",
"f5 c #ae6e08",
"g5 c #ff9d00",
"h5 c #ff9e00",
"i5 c #ff9f00",
"j5 c #ffa000",
"k5 c #84590a",
"l5 c #ae7b08",
"m5 c #080602",
"n5 c #0b0c06",
"o5 c #b77608",
"p5 c #ffa100",
"q5 c #ffa200",
"r5 c #ffa300",
"s5 c #ffa400",
"t5 c #8f6209",
"u5 c #010908",
"v5 c #010100",
"w5 c #8f6309",
"x5 c #b78408",
"y5 c #0b0802",
"z5 c #0d0902",
"06 c #bf7e06",
"16 c #ffa500",
"26 c #ffa600",
"36 c #ffa700",
"46 c #ffa800",
"56 c #9a6a05",
"66 c #020101",
"76 c #020a0a",
"86 c #9a6d05",
"96 c #bf8e06",
":6 c #110c03",
";6 c #c78504",
"A6 c #ffa900",
"B6 c #ffaa00",
"C6 c #ffab00",
"D6 c #ffac00",
"E6 c #ffad00",
"F6 c #a47407",
"G6 c #004444",
"H6 c #030201",
"I6 c #a47707",
"J6 c #c79704",
"K6 c #110e03",
"L6 c #002d2d",
"M6 c #161004",
"N6 c #cd8d06",
"O6 c #ffae00",
"P6 c #ffaf00",
"Q6 c #ffb000",
"R6 c #ffb100",
"S6 c #ad7d08",
"T6 c #050402",
"U6 c #ad8108",
"V6 c #cda006",
"W6 c #161204",
"X6 c #1a1304",
"Y6 c #d39506",
"Z6 c #ffb200",
"a6 c #ffb300",
"b6 c #ffb400",
"c6 c #ffb500",
"d6 c #b68607",
"e6 c #070602",
"f6 c #b68b07",
"g6 c #d3aa06",
"h6 c #1a1604",
"i6 c #1e1704",
"j6 c #d99c05",
"k6 c #ffb600",
"l6 c #ffb700",
"m6 c #ffb800",
"n6 c #ffb900",
"o6 c #be8f04",
"p6 c #090904",
"q6 c #003030",
"r6 c #090802",
"s6 c #be9604",
"t6 c #d9b305",
"u6 c #1e1903",
"v6 c #473404",
"w6 c #f8b501",
"x6 c #ffba00",
"y6 c #ffbb00",
"z6 c #ffbc00",
"07 c #ffbd00",
"17 c #ffbe00",
"27 c #ffbf00",
"37 c #c79806",
"47 c #0d0b03",
"57 c #0d0c04",
"67 c #c7a106",
"77 c #ffcf00",
"87 c #473c04",
"97 c #002424",
":7 c #004d4d",
";7 c #4c3904",
"A7 c #f8ba01",
"B7 c #ffc000",
"C7 c #ffc100",
"D7 c #ffc200",
"E7 c #ffc300",
"F7 c #ffc400",
"G7 c #cfa207",
"H7 c #130f04",
"I7 c #002323",
"J7 c #131004",
"K7 c #cfac07",
"L7 c #ffd300",
"M7 c #ffd400",
"N7 c #ffd500",
"O7 c #ffd700",
"P7 c #ffd800",
"Q7 c #f8d401",
"R7 c #4c3b04",
"S7 c #f8c001",
"T7 c #ffc500",
"U7 c #ffc600",
"V7 c #ffc700",
"W7 c #ffc800",
"X7 c #ffc900",
"Y7 c #ffca00",
"Z7 c #d7ab05",
"a7 c #181304",
"b7 c #181404",
"c7 c #d7b705",
"d7 c #ffd900",
"e7 c #ffda00",
"f7 c #ffdb00",
"g7 c #ffdc00",
"h7 c #ffdd00",
"i7 c #f8d801",
"j7 c #4c4204",
"k7 c #004545",
"l7 c #4c3c04",
"m7 c #f8c501",
"n7 c #ffcb00",
"o7 c #ffcc00",
"p7 c #ffcd00",
"q7 c #ffce00",
"r7 c #deb403",
"s7 c #1d1702",
"t7 c #1d1902",
"u7 c #dec103",
"v7 c #ffde00",
"w7 c #ffdf00",
"x7 c #ffe000",
"y7 c #ffe100",
"z7 c #f8dc01",
"08 c #4c4304",
"18 c #4c3e04",
"28 c #f8ca01",
"38 c #ffd000",
"48 c #ffd100",
"58 c #ffd200",
"68 c #e3bc04",
"78 c #221e05",
"88 c #001616",
"98 c #221f04",
":8 c #e3ca04",
";8 c #ffe400",
"A8 c #ffe500",
"B8 c #f8e001",
"C8 c #4c4004",
"D8 c #f8d001",
"E8 c #ffd600",
"F8 c #e8c304",
"G8 c #292305",
"H8 c #292505",
"I8 c #e8d304",
"J8 c #ffe800",
"K8 c #f8e201",
"L8 c #001010",
"M8 c #003535",
"N8 c #4c4104",
"O8 c #e6c504",
"P8 c #2f2905",
"Q8 c #001414",
"R8 c #2f2b05",
"S8 c #e6d104",
"T8 c #4c4504",
"U8 c #000e0e",
"V8 c #0b0902",
"W8 c #0b0a02",
"X8 c #000000",
"Y8 c #3b2f1a",
"                                                                                                ",
"                                                                                                ",
"                    Y8                                                    X8                    ",
"                X8X8W8X8                                                X8V8U8X8                ",
"              X8X8T8S8R8X8                                            Q8P8O8N8X8M8              ",
"            X8L8T8K8J8I8H8X8                                        X8G8F8E8D8C8X8X8            ",
"          X8X8T8B8A8;8;8:89888                                    X878685848382818X8X8          ",
"        X8X808z7y7x7x7w7v7u7t7X8                                X8s7r7q7p7o7o7n7m7l7X8X8        ",
"      k7X8j7i7h7g7g7f7e7d7d7c7b7X8                            X8a7Z7Y7X7W7W7V7U7T7S7R7Q8X8      ",
"    X8X8N8Q7d7P7P7O7E8N7N7M7L7K7J7X8                        I7H7G7U7T7F7F7E7D7C7C7B7A7;7X8:7    ",
"    9787D8N7M7L7L75848483877q7q76757X8                    X84737D7C7B72727170707z6y6x6w6v6X8    ",
"    X8u6t6387777q7p7p7o7n7Y7Y7X7W7s6r6q6                X8p6o61707z6y6y6x6n6n6m6l6k6k6j6i6X8    ",
"      X8h6g6n7Y7X7W7W7V7U7U7T7F7E7E7f6e6X8            X8e6d6n6n6m6l6l6k6c6b6b6a6Z6Z6Y6X6X8      ",
"        X8W6V6T7F7F7E7D7D7C7B727271707U6T6X8        X8T6S6c6c6b6a6a6Z6R6Q6Q6P6O6O6N6M6L6        ",
"          L6K6J6B727171707z6y6y6x6n6m6m6I6H6X8    G6H6F6R6R6Q6P6O6O6E6D6D6C6B6A6;6:6X8          ",
"            X85796x6n6n6m6l6l6k6c6b6b6a6Z68676X8X86656E6E6D6C6B6B6A6464636261606z5X8            ",
"              X8y5x5c6b6a6Z6Z6R6Q6Q6P6O6O6E6w5v5u5t5A6464636262616s5s5r5q5p5o5n5X8              ",
"                X8m5l5P6O6O6E6D6D6C6B6A6A64636k5k516s5s5r5q5q5p5j5i5i5h5g5f5m5X8                ",
"                  X8T6e5B6A6464636261616s5r5r5q5p5j5j5i5h5h5g5d5c5c5b5a5Z5T6G6                  ",
"                    k7H6Y5s5r5r5q5p5p5j5i5h5h5g5d5d5c5b5a5a5X5W5W5V5U5T5H6X8                    ",
"                      X8S5R5i5h5g5g5d5c5b5b5a5X5X5W5V5U5U5Q5P5P5O5N5M566X8                      ",
"                        X8L5K5J5I5W5W5V5V5U5Q5P5P5O5N5N5H5G5F5F5E5D5L5X8                        ",
"                          X8C5B5A5;5O5O5N5H5G5G5F5E5E5:59585857565v5X8              5555        ",
"                            4545453525150505z4y4x4w4v4u4t4s4r4q4X8X8                p4p4        ",
"    o4n4n4n4n4n4n4n4n4m4    l4l4l4l4l4l4l4l4l4l4k4j4j4k4i4i4i4i4i4i4i4i4i4h4    h4g4g4g4g4h4    ",
"    f4f4f4f4f4f4f4f4f4e4    f4f4f4f4f4f4f4f4d4d4d4c4b4d4d4d4d4d4d4d4d4d4d4d4    a4d4d4d4d4Z4    ",
"    Y4Y4Y4X4X8X8X8X8X8X8X8X8Y4Y4Y4W4V4V4V4U4Y4Y4Y4T4S4R4R4R4Q4P4O4X8X8X4R4R4N4    R4R4R4X4X8    ",
"    M4M4M4X8              X8M4M4M4L4K4J4I4H4M4M4M4G4F4M4M4M4E4D4C4B4X8X8M4A4;4    A4A4A4X8      ",
"    :4:4:4X8            X894:4:4:4G484746454:4:4:44434:4:4:424141404z3X8:4:4:4    :4:4:4X8      ",
"    y3y3y3X4        X8X8x3w3y3y3y344v3u3t3s3y3y3y324r3y3y3y3q3p3o3n3m3l3k3k3k3X8  k3k3k3X4      ",
"    k3k3k3k3k3k3k3k3k3j3i334k3k3k32414h3h3g3k3k3k3f3e3k3d3d3d3d3d3c3b3a3d3d3d3Z3  d3d3d3d3Y3    ",
"    X3d3d3d3d3d3d3d3d3W3V3U3T3d3S3R3Q3Q3P3O3N3d3j3M3L3c3d3d3d3d3d3K3J3I3H3d3G3F3  E3d3d3d3D3    ",
"      C3B3A3;3:39383736353P3433323130303z2y2x2w2N4v2u2t2s2r2r2r2q2p2o2n2m2l2k293    j2i2h2g2    ",
"              f2e2d2c2c203z2z2b2a2Z2Z2Y2X2W2V2    U2T2S2R2n2Q2P2P2O2N2N2M2L2K2J2I2              ",
"            H2G2F2a2a2Z2Y2E2E2D2C2C2B2A2;2:2        928272M2L2L2625252423222221202z1            ",
"          X8y1x1D2D2C2B2w1w1R2n2n2Q2v1u1t1            w2s1r13222q1p1p1o1n1n1m1l1k1j1i1          ",
"        h1H6g1R2R2n2Q2P2P2O2N2N2M2f1e1d1                w2c1b1m1l1l1a1Z1Z1Y1X1W1W1V1U1T1        ",
"      S1R1Q1O2N2N2M2L2L262524242P1O1N1                    X8M1L1X1W1K1J1J1I1H1H1G1F1E1D1C1      ",
"      B1A162525242323222q1p1p1;1:191                        817161G1F1F15141413121111101V2      ",
"      z0y0x0q1p1o1n1n1m1l1l1w0v0u0                            81t0s02111r0q0q0p0o0o0n0m0l0      ",
"        z066k0a1Z1Z1Y1X1X1j0i0h0                                j2g0f0e0d0d0c0b0b0a0Z0T1        ",
"          Y0m0X0K1J1I1H1W0V0H2                                    H2V0U0T0S0R0Q0P0O0N0          ",
"            N0O0M05141L0K0H2                                        J0I0H0G0F0E0O0N0            ",
"              N0O0D0C0B0H2                                            H2B0A0;0:090              ",
"                807060H2                                                H2705040                ",
"                  3020                                                    1000                  ",
"                                                                                                ",
"                                                                                                "};
